<svg xmlns="http://www.w3.org/2000/svg" width="1092" height="658.494" viewBox="0 0 1092 658.494">
  <g id="cover_image" transform="translate(988 1829.493)">
    <g id="Group_1124" data-name="Group 1124">
      <path id="Subtraction_2" data-name="Subtraction 2" d="M1155.193,78H158.807A13.289,13.289,0,0,1,158,73.5a14.752,14.752,0,0,1,2.576-8.026,32.364,32.364,0,0,1,7.562-7.794c6.556-5.04,16.339-10,29.076-14.735A385.6,385.6,0,0,1,243.222,29.61c17.85-4.156,38.351-8.065,60.932-11.618S351.583,11.214,378,8.406c26.677-2.835,55.2-5.27,84.762-7.238C524.285-2.925,589.635-5,657-5S789.715-2.925,851.233,1.169C880.8,3.136,909.318,5.571,936,8.406c26.422,2.808,51.269,6.033,73.851,9.586s43.082,7.461,60.932,11.618a385.6,385.6,0,0,1,46.007,13.335c12.738,4.738,22.52,9.7,29.076,14.735a32.363,32.363,0,0,1,7.562,7.794A14.751,14.751,0,0,1,1156,73.5a13.289,13.289,0,0,1-.806,4.5Z" transform="translate(-1146 -1249)" opacity="0.15"/>
      <path id="Subtraction_1" data-name="Subtraction 1" d="M685.321,82H242.679c-5.748-3.5-10.16-7.157-13.114-10.867C226.536,67.328,225,63.414,225,59.5c0-4.037,1.634-8.071,4.856-11.991,3.14-3.82,7.826-7.578,13.926-11.169a138.059,138.059,0,0,1,22.036-10.107A282.887,282.887,0,0,1,295,17.427c21.949-5.464,47.509-9.755,75.969-12.751a927.792,927.792,0,0,1,186.059,0c28.46,3,54.019,7.287,75.969,12.751a282.878,282.878,0,0,1,29.184,8.806A138.067,138.067,0,0,1,684.218,36.34c6.1,3.591,10.786,7.348,13.926,11.169C701.366,51.428,703,55.463,703,59.5c0,3.914-1.536,7.828-4.565,11.633C695.481,74.843,691.068,78.5,685.321,82Z" transform="translate(-1026 -1253)" opacity="0.2"/>
      <g id="Group_809" data-name="Group 809" transform="translate(-748.122 -1653.825)">
        <path id="Path_1283" data-name="Path 1283" d="M1592.426,3044.726s4.079,21.964-4.421,36.751-7.789,15.979-7.789,15.979,34.846,23.222,42.728,15.446c0,0-.443-16.086,11.709-15.127s14.708-.639,14.708-7.989c0,0,2.61-2.5,1.812-4.421s-11.619,1.367-11.185-6.445c.532-9.586.284-7.065,13.334,3.066,0,0,1.739.184,1.632-3.171s-.267-4.9,2.29-5.326,4.847-1.864,2.982-5.539-6.231-9.747-4.1-13.475c0,0,3.463-1.864.32-6.285,0,0-1.544-12.268-9-17.807s-27.767-14.985-42.325-4.474S1592.426,3044.726,1592.426,3044.726Z" transform="translate(-1427.96 -3013.409)" fill="#eaab78"/>
        <path id="Path_1284" data-name="Path 1284" d="M1574.8,3102.581l4.261-3.834s9.374,3.408,15.552,8.095,23.648,10.865,25.779,10.44c0,0-1.492,1.279,10.226,5.538s16.191,12.145,20.879,26.632c0,0,.923,26.133-2.06,34.229s-4.971,43.178-4.261,51.415,4.4,30.679,1.633,43.675c0,0-.426,18.109-30.04,16.617s-63.062-17.9-63.275-20.452,8.948-9.8,0-42.609-32.6-80.319-7.03-106.737c0,0,10.013-8.522,11.5-11.5S1574.8,3102.581,1574.8,3102.581Z" transform="translate(-1425.405 -3017.789)" fill="#010d33"/>
        <path id="Path_1285" data-name="Path 1285" d="M1593.761,3485.147s6.2-6.711,6.933-9.267,3.9,3.2,11.108-13.1,2.518-51.558,2.518-51.558l-44.208-15.552-14.594,22.369s1.492,15.15,4.368,18.121c0,0-14.381-14.925-46.019-9.812s-69.986-6.757-69.986-6.757l-5.113,34.56,30.678,13.1s35.153-10.226,69.347,10.227c0,0,15.659,5.433,20.772,7.67S1593.761,3485.147,1593.761,3485.147Z" transform="translate(-1419.976 -3034.552)" fill="#eaab78"/>
        <path id="Path_1286" data-name="Path 1286" d="M1705.146,3432.394s16.618-40.906,16.618-43.461,6.711-58.482,12.143-65.833c0,0-41.6,19.653-54.327,15.766s0-48.362,0-48.362l16.831-10.865s67.856-10.12,75.526,5.326,3.515,33.662,0,40.373-25.353,58.8-33.13,95.232S1705.146,3432.394,1705.146,3432.394Z" transform="translate(-1433.252 -3027.818)" fill="#c07a48"/>
        <path id="Path_1287" data-name="Path 1287" d="M1718.58,3437.188s14.381-33.236,14.381-35.792c0-1.822,11.2-52.34,19.6-83.878a11.731,11.731,0,0,0-15.941-13.812c-20.856,8.917-49.007,19.842-56.752,17.478-12.731-3.886-.277-30.679-.277-30.679l16.831-10.865s67.856-10.12,75.526,5.326,3.515,33.662,0,40.373-25.353,58.8-33.13,95.232S1718.58,3437.188,1718.58,3437.188Z" transform="translate(-1433.264 -3027.818)" fill="#eaab78"/>
        <path id="Path_1288" data-name="Path 1288" d="M1593.761,3485.147s6.2-6.711,6.933-9.267,3.9,3.2,11.108-13.1,2.518-51.558,2.518-51.558l-44.208-15.552,2.237,23.861s15.253,21.862,15.5,29.507c.516,15.945-18.189,23.473-33.718,19.813-18.07-4.257-59.44-19.148-75.1-16.617-31.638,5.113-35.153-32.642-35.153-32.642l-5.113,34.56,30.678,13.1s35.153-10.226,69.347,10.227c0,0,15.659,5.433,20.772,7.67S1593.761,3485.147,1593.761,3485.147Z" transform="translate(-1419.976 -3034.552)" fill="#c07a48"/>
        <path id="Path_1289" data-name="Path 1289" d="M1768.579,3175.71l-24.856,1.421s-13.35,4.682-13.066,11.5l-6.534,5.824,1.989,6.187-2.841,14.408Z" transform="translate(-1436.038 -3022.134)" fill="#c07a48"/>
        <path id="Path_1290" data-name="Path 1290" d="M1561.582,3411.3l10.439,1.492a68.646,68.646,0,0,0-1.7-7.884c-.64-1.491,3.621-11.717,3.621-11.717s4.048,15.766,4.474,19.6c0,0,28.974-3.409,41.971-8.309,0,0-2.77-35.792,2.343-47.936,0,0,10.439-12.57,11.5-15.979,0,0,34.088.427,38.135-1.7s19.813-55.393,16.831-59.227-37.5-4.9-47.936,0-87.136,5.326-87.136,5.326-15.553,12.783-3.2,50.492S1562.434,3370.609,1561.582,3411.3Z" transform="translate(-1426.038 -3027.816)" fill="#010d33"/>
        <path id="Path_1291" data-name="Path 1291" d="M1737.156,3213.956s-60.5,24.075-64.979,26.844c0,0-8.1,1.918-11.078,4.049s-16.406-9.374-16.406-9.374l13.131-69.666s14.566,13.658,11.8,38.466c0,0,33.875.307,53.049-13.114C1722.669,3191.16,1715.639,3203.3,1737.156,3213.956Z" transform="translate(-1431.601 -3021.575)" fill="#010d33"/>
        <path id="Path_1292" data-name="Path 1292" d="M1737.156,3213.956s-60.5,24.075-64.979,26.844c0,0-8.1,1.918-11.078,4.049s-16.406-9.374-16.406-9.374l13.131-69.666a265.211,265.211,0,0,1-1.307,44.313s4.793,30.678,23.968,17.256C1680.486,3227.378,1715.639,3203.3,1737.156,3213.956Z" transform="translate(-1431.601 -3021.575)" fill="#122a68"/>
        <path id="Path_1293" data-name="Path 1293" d="M1561.582,3411.816l10.439,1.492s-6.23-53.311-6.71-54.86c-19.151-61.677-1.6-54.966-1.6-54.966s28.127,29.719,14.7,109.826a67.674,67.674,0,0,0,25.57-4.028s-8.314-74.48,18.744-52.217c0,0,10.439-12.57,11.5-15.979,0,0,34.088.426,38.135-1.7s-37.6-7.136-40.585-10.971-51.377,44.628-50.046,33.173c3.707-31.9-27.611-76.1-27.611-76.1s-15.553,12.783-3.2,50.492S1562.434,3371.124,1561.582,3411.816Z" transform="translate(-1426.038 -3028.331)" fill="#122a68"/>
        <path id="Path_1294" data-name="Path 1294" d="M1574.8,3102.581l4.261-3.834s9.374,3.408,15.552,8.095,23.648,10.865,25.779,10.44c0,0-53.049-14.275-41.331-10.014s-8.2,2.983-3.516,17.47c0,0-10.759,5.432-13.742,13.529s-.071,34.265.64,42.5,17.47,53.155,14.7,66.15c0,0,10.7,42.018-18.855,39.627-6.761-.547-4.581-9.055-4.794-11.611s8.948-9.8,0-42.609-32.6-80.319-7.03-106.737c0,0,10.013-8.522,11.5-11.5S1574.8,3102.581,1574.8,3102.581Z" transform="translate(-1425.405 -3017.789)" fill="#122a68"/>
        <path id="Path_1295" data-name="Path 1295" d="M1597.779,3130.553s7.244,7.67,3.409,27.91c0,0,11.291,13.083,6.817,40.2,0,0-1.279,6.479,4.474,3.377s30.253-4.805,30.253-4.805l35.366-14.913s10.013,6.391,8.522,17.47c0,0-29.614,16.4-32.17,19.813s-29.187,17.683-40.267,21.944-11.5,8.309-21.944,2.77-6.817-12.57-26.2-31.957c0,0-10.439-16.192-13.849-32.383s-9.374-17.258-9.374-17.258-5.965-29.826,14.487-32.17C1557.3,3130.553,1565.822,3120.967,1597.779,3130.553Z" transform="translate(-1425.804 -3019.344)" fill="#010d33"/>
        <path id="Path_1296" data-name="Path 1296" d="M1566.177,3152.541s-3.834,16.937,10.226,36.5c0,0-6.3,5.466,10.226,29.012,0,0,17.576,18.76,23.329,15.659s44.1-17.9,44.1-17.9l36.858-15.766h0s-29.614,16.4-32.17,19.813-29.187,17.683-40.266,21.944-11.5,8.309-21.944,2.77-6.818-12.57-26.205-31.958c0,0-10.439-16.192-13.848-32.383s-9.374-17.257-9.374-17.257-5.965-29.826,14.487-32.17C1561.6,3130.809,1534.219,3142.953,1566.177,3152.541Z" transform="translate(-1426.047 -3019.599)" fill="#122a68"/>
        <path id="Path_1297" data-name="Path 1297" d="M1600.56,3200.355l-7.4-71.678,6.14,1.61s10.592,8.819,4.778,28.312a71.087,71.087,0,0,1,6.7,41.757s-1.712,6.241,6.5,1.043,13.006,8.544,1.82,10.461S1600.56,3200.355,1600.56,3200.355Z" transform="translate(-1428.692 -3019.479)" fill="#122a68"/>
        <g id="Group_807" data-name="Group 807" transform="translate(0 385.036)">
          <path id="Path_1298" data-name="Path 1298" d="M1450.252,3422.484s-17.976-7.064-26.6,9.833c0,0,3.235,45.659,0,57.523,0,0,4.487,19.055,37.835,14.74,0,0,3.869-7.549,6.025-5.752s-2.516-7.91-12.943-8.269c0,0,11.5-15.819,9.707-31.278S1435.512,3448.6,1450.252,3422.484Z" transform="translate(-1419.122 -3421.02)" fill="#010d33"/>
          <path id="Path_1299" data-name="Path 1299" d="M1422.822,3431.03s-7.14,3.652-2.272,18.581,2.6,39.6,2.272,41.87,15.736,24.667,39.026,13.632c0,0,11.606.974,5.44-9.413,0,0-5.037-2.271-5.44,5.193,0,0-26.692,4.544-34.157-13.307,0,0,5.1-28.9.441-44.8,0,0-3.958-7.124,4.292-13.3S1422.822,3431.03,1422.822,3431.03Z" transform="translate(-1418.851 -3421.363)" fill="#f0f0f0"/>
        </g>
        <g id="Group_808" data-name="Group 808" transform="translate(265.38 389.068)">
          <path id="Path_1300" data-name="Path 1300" d="M1741.728,3474.594s-.931-2.057-24.593-5.119-16.725-10.415-13.683-12.484,41.193,5.447,47,8.644,37.33,8.547,41.1,7.351,4.686,7.023-12.058,5.776S1770.277,3482.856,1741.728,3474.594Z" transform="translate(-1700.11 -3427.062)" fill="#f0f0f0"/>
          <path id="Path_1301" data-name="Path 1301" d="M1715.374,3425.292a14.629,14.629,0,0,0-8.686,11.436c-1.294,8.727-1.717,18.631-1.717,18.631s5.428,3.305,28.435,7.8a75.4,75.4,0,0,1,17.332,4.919c9.336,3.887,17.937,5.438,42.253,4.062,0,0,.6,2.021-3.418,3.983s19.312-2.53,5.433-13.232c0,0-15.5,2.5-34.435-16.427,0,0-15.867-11.625-15.949-13.888,0,0-11.55-6.886-14.331-2.682C1730.29,3429.891,1721.49,3428.372,1715.374,3425.292Z" transform="translate(-1700.385 -3425.292)" fill="#122a68"/>
          <path id="Path_1302" data-name="Path 1302" d="M1791.087,3476.175c-4.023,1.961,19.312-2.53,5.433-13.232,0,0-15.5,2.5-34.435-16.428,0,0-18.73-17.974-18.811-20.237,0,0-8.687-.537-11.469,3.667,0,0,17.657,13.975,11.542,10.9,0,0-3.344-1.948-4.637,6.779s22.236,12.969,22.236,12.969-1.955.469,21.051,4.962c0,0,14.369.457,15.124,7.681" transform="translate(-1701.9 -3425.346)" fill="#010d33"/>
        </g>
        <path id="Path_1303" data-name="Path 1303" d="M1625.5,3132.164s12.357,23.422,6.285,38.4S1651.174,3158.369,1625.5,3132.164Z" transform="translate(-1430.518 -3019.676)" fill="#122a68"/>
        <path id="Path_1304" data-name="Path 1304" d="M1606,3042.211s-4.847,4.572,3.888,33.342c4.955,16.321-5.08,30.335-5.08,30.335s11.632,14.831,19.514,7.055c0,0-.443-16.086,11.709-15.127s14.708-.639,14.708-7.989c0,0,2.61-2.5,1.812-4.421s-11.619,1.368-11.185-6.445c.532-9.586,4.367-4.154,13.334,3.066,0,0,1.739.184,1.632-3.171s-.267-4.9,2.29-5.326,4.847-1.865,2.983-5.54-6.231-9.747-4.1-13.475c0,0,3.463-1.865.32-6.285,0,0-1.545-12.268-9-17.808s-18.357-14.061-32.915-3.551S1606,3042.211,1606,3042.211Z" transform="translate(-1429.342 -3013.45)" fill="#c07a48"/>
        <path id="Path_1305" data-name="Path 1305" d="M1657.359,3053.949s2.258-.213.419-3.053-7.094-3.48-7.094-3.48a10.334,10.334,0,0,1-6.817,2.7,41.783,41.783,0,0,1,5.752-.568C1650.827,3049.688,1655.016,3053.736,1657.359,3053.949Z" transform="translate(-1431.555 -3014.891)"/>
        <path id="Path_1306" data-name="Path 1306" d="M1656.374,3073.834l-2.059-3.763s-2.912,4.473-.568,5.113S1656.374,3073.834,1656.374,3073.834Z" transform="translate(-1432.061 -3016.17)" fill="#eaab78"/>
        <path id="Path_1307" data-name="Path 1307" d="M1657.188,3074.841s2.912-1.776,4.545,0S1657.188,3074.841,1657.188,3074.841Z" transform="translate(-1432.307 -3016.395)" fill="#eaab78"/>
        <path id="Path_1308" data-name="Path 1308" d="M1640.172,3063.483s6.178,5.167,5.184,9.934,6.677-8.584,6.677-8.584-9.731-3.409-12.216-1.349S1640.172,3063.483,1640.172,3063.483Z" transform="translate(-1431.269 -3015.76)" fill="#eaab78"/>
        <path id="Path_1309" data-name="Path 1309" d="M1646.508,3038.141l-1.136,4.972,9.516,1.278s0-7.314-4.261-9.729S1646.508,3038.141,1646.508,3038.141Z" transform="translate(-1431.64 -3014.138)" fill="#eaab78"/>
        <path id="Path_1310" data-name="Path 1310" d="M1652.825,3063.88s5.524.924,5.459-.639-2.729-5.965-2.729-5.965S1653.978,3063.617,1652.825,3063.88Z" transform="translate(-1432.06 -3015.448)" fill="rgba(0,0,0,0)"/>
        <path id="Path_1311" data-name="Path 1311" d="M1615.876,3050.233s-8.451-5.873-9.729,2.71a15.381,15.381,0,0,0,3.985,13.34s3.9,3.409,6.454.71S1614.385,3053.288,1615.876,3050.233Z" transform="translate(-1429.414 -3014.939)" fill="#eaab78"/>
        <path id="Path_1312" data-name="Path 1312" d="M1637.912,3077.642s2.849-4.758,4.766-4.4S1642.235,3068.41,1637.912,3077.642Z" transform="translate(-1431.219 -3016.285)" fill="#eaab78"/>
        <path id="Path_1313" data-name="Path 1313" d="M1618.751,3053.531s-5.859,7.084-3.941,9.268,7.677-.447,7.677-.447Z" transform="translate(-1429.893 -3015.236)" fill="#c07a48"/>
        <path id="Path_1314" data-name="Path 1314" d="M1607.89,3053.061s.427-3.491,3.516-2.532-3.516,1.474-3.516,3.586Z" transform="translate(-1429.523 -3015.057)" fill="#c07a48"/>
        <path id="Path_1315" data-name="Path 1315" d="M1610.153,3058.051s-2.041,7.49,1.4,6.44,3.568-1.491,3.568-1.491S1612.322,3058.162,1610.153,3058.051Z" transform="translate(-1429.618 -3015.492)" fill="#c07a48"/>
        <path id="Path_1316" data-name="Path 1316" d="M1628.324,3056.523" transform="translate(-1430.677 -3015.405)" fill="#c07a48"/>
        <path id="Path_1317" data-name="Path 1317" d="M1643.677,3058.759s6-3.935,9.127,0S1653.157,3051.77,1643.677,3058.759Z" transform="translate(-1431.544 -3015.396)"/>
        <path id="Path_1318" data-name="Path 1318" d="M1710.421,3161.847s-5.113.427-7.349,6.5c0,0-7.99,5.752-9.8,5.965s-6.924,7.457-7.03,10.015,9.054,16.341,9.054,16.341,11.4-5.5,15.126-6.074a9.993,9.993,0,0,0,6.073-3.807c.532-.5,10.226-4.224,11.717-6.567,0,0,5.539-2.237,7.457-4.687,0,0,6.853-3.621,8.167-6.817,0,0,6.746-5.859-2.2-5.006,0,0-11.5-2.45-16.3,3.834l-5.22,3.379a46.231,46.231,0,0,0-9.268.882c-4.261.958-4.793-.882-4.793-.882s7.35-3.166,8.416-7.32S1712.859,3161.082,1710.421,3161.847Z" transform="translate(-1433.947 -3021.343)" fill="#c07a48"/>
        <path id="Path_1319" data-name="Path 1319" d="M1724.8,3175.266s13.582-5.006,16.911-7.441c0,0,3.222-.092,2.9,1.505s-16.618,5.977-19.068,7.516-12.889,1.646-12.889,1.646l1.9-2.749Z" transform="translate(-1435.438 -3021.689)" fill="#eaab78"/>
        <path id="Path_1320" data-name="Path 1320" d="M1710.421,3161.829s-5.113.427-7.349,6.5c0,0-7.99,5.752-9.8,5.965s-6.924,7.457-7.03,10.014,9.054,16.341,9.054,16.341,11.4-5.5,15.126-6.074a9.992,9.992,0,0,0,6.073-3.807c.532-.5,10.226-4.224,11.717-6.567,0,0,5.539-2.237,7.457-4.687,0,0,6.853-3.621,8.167-6.817,0,0-18.943,15.417-27.891,16.27,0,0-.728-.676-5.522,5.609l-11.6-.575s-2.988-7.031-7.249-6.072,8.628-14.7,8.628-14.7,8.309-4.048,9.374-8.2S1712.859,3161.064,1710.421,3161.829Z" transform="translate(-1433.947 -3021.326)" fill="#eaab78"/>
        <path id="Path_1321" data-name="Path 1321" d="M1591.3,3069.465s15.12,4.662,17.12-1.429l.784-3.748s-12.649-25.21,5.743-16.05c0,0,2.428,9.977,2.812,12.907s4.929-1.331,4.077-13.545,14.178-7.1,14.178-7.1-1.537-12.5,3.576-11.362,13.493,12.925,19.459,10.937,8.237-27.127,8.237-27.127-10.794,10.254-22.583,7.755-31.519-14.289-36.283,1.334c0,0-18.541,2.273-18.825,18.606A183.114,183.114,0,0,0,1591.3,3069.465Z" transform="translate(-1428.49 -3012.945)"/>
      </g>
      <g id="Group_810" data-name="Group 810" transform="translate(-624.466 -1773.985)">
        <path id="Path_1322" data-name="Path 1322" d="M1809.639,3130.834s.345-9.415,0-11.333,2.765-12.634,12.9-16.206,5.3.513,13.712-1.472,9.563,11.266,9.563,11.266l-16.361,25.924Z" transform="translate(-1614.724 -2914.879)" fill="#7c4c32"/>
        <path id="Path_1323" data-name="Path 1323" d="M1809.639,3130.974s.345-9.416,0-11.333,2.765-12.633,12.9-16.2,5.3.513,13.712-1.471-5.128,6.688-5.128,6.688l-21.487,10.988Z" transform="translate(-1614.724 -2914.878)" fill="#593c26"/>
        <path id="Path_1324" data-name="Path 1324" d="M1798,3024.8s2.074,16.616,1.612,19.311,5.07,48.667,3.457,50.281-5.069,6-5.069,6l20.611-4.61,10.153-6.268s-9.453,2.856-10.6,1.1-4.953-4.978-7.257-2.789l.807-39.982,15.785,28.344,7.835-4.353s-9.679-8.71-12.79-19.692-10.024-22.05-10.024-22.05-56.337-197.316-56.567-199.39-8.55-.731-8.55-.731S1798,3020.194,1798,3024.8Z" transform="translate(-1605.622 -2884.893)" fill="#050505"/>
        <path id="Path_1325" data-name="Path 1325" d="M1660.165,3462.67s2.942-20.744,2.606-23.854-18.175-78.679-13.4-86.349c0,0-6.992-22.879-8.542-24.262s-3.969-15.9,3.98-24.542,24.542-38.368,24.542-38.368,16.592-45.822,66.021-72.167c0,0,4.032-2.264,12.213-14.477s23.966-13.481,23.966-13.481,33.989-6.913,47.7,5.07,20.394,11.628,24.542,28.8c0,0-7.143,3.461-6.337,10.72s7.989,32.683-21.815,43.437c0,0-19.2,13.826-21.507,14.287s-31.955,47.931-44.628,53.308-3.149,25.809-3.149,25.809,10.754,32.261,6.452,49.16-7.989,75.43-7.989,75.43l-1.382,3.749-25.08-3.085-1.036-8.039s4.916-17.206,3.533-20.893-3.226-40.1-6.3-49.006-5.992-36.761-5.992-36.761-5.8-33.139-7.2-34.829-.552-6.145-.552-6.145-3.639-7.528,5.513-23.965,30.967-50.236,30.967-50.236l12.213-19.049-47.24,75.123-.307,15.977s-17.207,8.757-17.207,26.576,9.832-1.075,7.375,58.378-.461,70.667-.461,70.667l-21.046-2Z" transform="translate(-1618.227 -2913.614)" fill="#593c26"/>
        <path id="Path_1326" data-name="Path 1326" d="M1660.165,3462.67s2.942-20.744,2.606-23.854-18.175-78.679-13.4-86.349c0,0-6.992-22.879-8.542-24.262s-3.969-15.9,3.98-24.542,24.542-38.368,24.542-38.368,16.592-45.822,66.021-72.167c0,0,4.032-2.264,12.213-14.477s23.966-13.481,23.966-13.481,33.989-6.913,47.7,5.07,20.394,11.628,24.542,28.8c0,0-7.143,3.461-6.337,10.72s7.989,32.683-21.815,43.437c0,0-19.2,13.826-21.507,14.287s-31.955,47.931-44.628,53.308-3.149,25.809-3.149,25.809,10.754,32.261,6.452,49.16-21.342,36.764-21.342,36.764l-1.369,39.33h-11.741l-1.036-8.039s4.916-17.206,3.533-20.893-3.226-40.1-6.3-49.006-5.992-36.761-5.992-36.761-5.8-33.139-7.2-34.829-.552-6.145-.552-6.145-3.639-7.528,5.513-23.965,30.967-50.236,30.967-50.236l12.213-19.049-47.24,75.123-.307,15.977s-36.57-1.69-36.57,16.13,11.928,1.844,9.47,61.3-2.935,72.818-2.935,72.818l-1.3,3.38Z" transform="translate(-1618.227 -2913.614)" fill="#7c4c32"/>
        <path id="Path_1327" data-name="Path 1327" d="M1941.565,3129.346l-21.776-17.124s-16.591-31.856-41.479-5.932c0,0-48.05-15.9-49.777,18.32,0,0-13.934-4.726-51.5,29.38l-29.113,22.787s71.974,3.426,78.483,11.376a49.635,49.635,0,0,0,14.748,11.982s7.2-11.925,19.414-10.083,30.879-.691,42.171,1.153,38.483-8.3,38.828-33.645S1941.565,3129.346,1941.565,3129.346Z" transform="translate(-1615.992 -2914.992)" fill="#7c4c32"/>
        <path id="Path_1328" data-name="Path 1328" d="M1795.2,3171.67s10.3-23.8,44.128-32.836,50.812-21.283,47.7-27.233-73.51,12.6-73.51,12.6l-5.069,6s-52.886,39.629-63.025,49.538S1795.2,3171.67,1795.2,3171.67Z" transform="translate(-1616.067 -2914.698)" fill="#593c26"/>
        <path id="Path_1329" data-name="Path 1329" d="M1960.265,3121.361s-12.4.4-13.461,6.71-38.042-15.408-38.042-15.408l6.8-12.041,48.929-3.457,9.6,2.88-7.835,21.892Z" transform="translate(-1612.685 -2914.971)" fill="#7c4c32"/>
        <path id="Path_1330" data-name="Path 1330" d="M1662.771,3438.815h0c-.336-3.112-18.175-78.679-13.4-86.349,0,0-6.992-22.879-8.542-24.262s-3.969-15.9,3.98-24.542,24.542-38.368,24.542-38.368,16.592-45.822,66.021-72.167c0,0,4.032-2.264,12.213-14.477s23.966-13.481,23.966-13.481,33.989-6.913,47.7,5.07,20.394,11.628,24.542,28.8c0,0-7.143,3.461-6.337,10.72s7.989,32.683-21.815,43.437c0,0-19.2,13.826-21.507,14.287s-31.955,47.931-44.628,53.308-3.149,25.809-3.149,25.809,10.754,32.261,6.452,49.16-6.043,49.169-6.043,49.169h0l-15.758.759-10.153-2.765h0c-1.383-3.686-3.226-40.1-6.3-49.006s-5.992-36.761-5.992-36.761-5.8-33.139-7.2-34.829-.552-6.145-.552-6.145-3.639-7.528,5.513-23.965,30.967-50.236,30.967-50.236l12.213-19.049-47.24,75.123-.307,15.977s-17.207,8.757-17.207,26.576,9.832-1.075,7.375,58.378-1.185,41.633-1.185,41.633l-19.4-.154Z" transform="translate(-1618.227 -2913.614)" fill="#010d33" stroke="#122a68" stroke-width="1"/>
        <path id="Path_1331" data-name="Path 1331" d="M1964.052,3098.984s6.606.662,7.374,4.273.231,6.221-2.228,7.757a12.715,12.715,0,0,1-10.523.769c-3.3-1.46-2.535-2.842-4.378-3.456s-3.149-2.228-3.073-3.3-.229,3.84-4.147,4.378-36.409-.538-36.409-.538-3.687-9.063-2.919-10.523,5.377-4.916,5.377-5.991,2.228-5.685,3.687-5.838,11.292.153,11.137,4.84c0,0-2.536-9.526-7.681-6.453s-1.152-3.379-1.152-3.379l4.378-2s.984-6.529,1.452-7.3,1.236-2.765,4.923-1.768,6.163-2.227,6.807-2.227,11.627-6.606,20.077-5.684,18.9,12.444,18.9,12.444l1.383,8.987-2.228,15.008Z" transform="translate(-1612.708 -2915.685)" fill="#7c4c32"/>
        <path id="Path_1332" data-name="Path 1332" d="M1662.771,3438.775h0c-.336-3.112-18.175-78.679-13.4-86.349,0,0-6.992-22.879-8.542-24.262s-3.969-15.9,3.98-24.542,24.542-38.368,24.542-38.368,16.592-45.822,66.021-72.167c0,0,4.032-2.264,12.213-14.477s23.966-13.481,23.966-13.481-38.226,44.211-24.515,56.194,67.606-51.243,71.755-34.071c0,0,8.18,11.406,8.987,18.665.618,5.564,8.929,17.751-5.165,26.205a33.1,33.1,0,0,1-29.63,2.138c-5.8-2.387-11.584-4.6-12.675-4.377-2.3.46-41.555,61.679-54.23,67.057s-3.687,38.714-3.687,38.714,13.98,33.644,9.678,50.542-1.034,58.694-1.034,58.694l-.937.8.91-.044-10.153-2.765h0c-1.383-3.686-3.226-40.1-6.3-49.007s-5.992-36.761-5.992-36.761-5.8-33.139-7.2-34.829-.552-6.145-.552-6.145-3.639-7.528,5.513-23.965,30.967-50.236,30.967-50.236l9.743-20.619c2.081-5.412,3.8-4.376,0,0l-66.739,48.118-33.491,44.7s13.058,10.6,13.058,28.42,8.3-9.371,5.839,50.082l5.838,47.778h0Z" transform="translate(-1618.227 -2913.573)" fill="#122a68"/>
        <path id="Path_1333" data-name="Path 1333" d="M1839.93,3123.163s10.485-.236,12.328-.313,23.966,4.762,25.118,34.259-12.873,31.131-28.928,34.767c0,0,34.794-1.589,41.487-1.375a9.528,9.528,0,0,0,3.812.067c2.064-.393,11.4-4.1,16.582-15.5a47,47,0,0,0,4.263-21.537l10.139-29.035s6.8,1.152,10.14,3.8,3.466-.21,3.466-.21-12.914-7.5-14.757-6.583-8.158-22.594-26.836-25.356-23.284,11.295-24.207,11.41-44.248-24.657-45.628,17.053Z" transform="translate(-1614.368 -2914.999)" fill="#010d33"/>
        <path id="Path_1334" data-name="Path 1334" d="M1839.668,3123.163s43.554-11.185,45.4-11.261,3.778,16.864,4.93,46.359,23.913,22.234,7.859,25.871a58.361,58.361,0,0,0,12.328,1.781s-18.761,5.05-16.7,4.656,11.4-4.1,16.582-15.5a47,47,0,0,0,4.263-21.537l10.139-29.035s6.8,1.152,10.139,3.8,3.466-.21,3.466-.21-12.914-7.5-14.757-6.583-8.159-22.594-26.836-25.356-23.284,11.295-24.207,11.41-28.458-16.207-27.48,3.161Z" transform="translate(-1614.106 -2914.999)" fill="#122a68"/>
        <path id="Path_1335" data-name="Path 1335" d="M1987.12,3107.906s5.684-16.781-5.684-30.147-17.206-16.054-27.729-15.44c0,0,9.14,2.075,8.833,3.687s1.306,8.969,2.612,9.4.351,6.116,1.6,8.19-6.108,8.219-6.195,11.982,1.911,5.3,1.911,5.3,6.078-2.534,7.264.845,1.339,4.839-1.2,7.834-10.216-.153-11.6,0-3.073-1.829-2.458-2.95-18.819,7.5-6.683,19.97c0,0-5.838,8.022-2,10.249s13.058,3.842,16.208,2.612,13.058-7.871,12.905-10.272,1.536-1.11,1.536-1.11-8.373,17.382-8.219,22.37,10.6,6.833,11.214,4.375,4.149-7.681,8.3-7.835,8.3-2.373,7.989-5.335,2.765-6.34,5.069-7.109,2.766-6.021,2.612-6.466-5.684-5.055-4.609-9.356-15.208-.769-15.208-.769S1986.381,3110.885,1987.12,3107.906Z" transform="translate(-1611.965 -2915.689)" fill="#050505"/>
        <path id="Path_1336" data-name="Path 1336" d="M1911.127,3219.272s6.683,8.865,7.374,12.092,10.446,8.756,20.317-8.987a101.361,101.361,0,0,0,11.714-34.105s4.148-13.825,7.6-16.591,6.221-33.183-.922-39.4-18.879-6.15-20.154-4.819-11.185,15.743-11.185,15.743l-.461,5.9s-5.069,0-7.143,9.909c0,0-9.448-30.391-10.831-30.29s-17.974-1.51-18.435,2.176,5.76,14.553,3.917,16.61,5.535,8.745,5.531,24.178S1901.219,3207.411,1911.127,3219.272Z" transform="translate(-1613.092 -2914.363)" fill="#7c4c32"/>
        <path id="Path_1337" data-name="Path 1337" d="M1925.007,3185.276s1-18.665,1.7-15.439.164-2.992,10.035-20.736,17.619,4.374,17.619,4.374,0,20.971,3.457,18.2,6.221-33.183-.922-39.4-18.879-6.15-20.154-4.819-11.185,15.743-11.185,15.743l-.461,5.9s-5.069,0-7.143,9.909c0,0-9.449-30.391-10.831-30.29s-1.909-1.946-2.369,1.741,4.8,14.988,2.954,17.045,5.179,5.732,5.175,21.165S1915.1,3173.416,1925.007,3185.276Z" transform="translate(-1612.768 -2914.363)" fill="#593c26"/>
        <path id="Path_1338" data-name="Path 1338" d="M1862.643,3119.893s-4.609,14.747-1.959,17.974,12.681,5.646,21.262,8.756a53.762,53.762,0,0,0,17.451,2.88l20.509-6.913s5.249-9.51,3.776-17.257-3.547-18.23-13.686-18.346-.23,5.474-.23,5.474a4.446,4.446,0,0,1,1.267,3.184c0,2.058,9.679,3.1,6.684,24.871,0,0-15.9,7.639-20.74,7.392s-9.1-1.054-10.255-1.054-13.48-10.255-18.665-22.123S1862.643,3119.893,1862.643,3119.893Z" transform="translate(-1613.691 -2914.768)" fill="#050505"/>
        <path id="Path_1339" data-name="Path 1339" d="M1883.136,3089.077s-25.138,6.463-24.826,7.115-6.167-8.152-6.167-8.152-2.8-26.73-2.435-28-.36-25.693,0-28.113,1.044-8.065-.1-10.255-18.892-39.866-18.892-39.866l-22.525-57.493-25.266-94.486,72.217,193.689s-2.074,13.942-1.037,21.315-.46,40.1.806,40.1,35.719-12.329,35.719-12.329-34.911-44.074-37.677-44.587-.231-7.492-.231-7.492,4.955,4.724,5.3,7.029,24.886,29.035,27.191,30.532,14.863,16.938,14.863,20.163-.231,5.416-2.189,6.338S1883.136,3089.077,1883.136,3089.077Z" transform="translate(-1603.537 -2885.335)" fill="#050505"/>
        <path id="Path_1340" data-name="Path 1340" d="M1904.294,3109.308s7.955,5.1,7.723,8.045-4.266,11.95-4.266,11.95l-15.775,11.59s-4.158-9.526-8.536-12.465-6.414-17.923-6.414-17.923l-3.1,1.073s-.665-5.77,2.138-7.059,6.913-1.382,7.719-2.534,4.791-1.5,5.507-2.189,3.941-1.5,4.978-1.5,6.372.527,7.375,0,4.937,3.377,4.378,7.259c0,0,2.3,7.6,1.843,9.332S1904.294,3109.308,1904.294,3109.308Z" transform="translate(-1613.403 -2914.948)" fill="#7c4c32"/>
        <path id="Path_1341" data-name="Path 1341" d="M1932.09,3082.038s6.913,1.074,5.53,3.072-7.22,3.457-7.22,3.457S1934.164,3082.5,1932.09,3082.038Z" transform="translate(-1612.24 -2915.282)" fill="#593c26"/>
        <path id="Path_1342" data-name="Path 1342" d="M1938.392,3072.2s.538,6.069-.576,5.454,5.339,1.536,5.339,1.536,1.076-7.6,0-7.834S1938.854,3071.275,1938.392,3072.2Z" transform="translate(-1612.09 -2915.504)" fill="#593c26"/>
        <path id="Path_1343" data-name="Path 1343" d="M1926.261,3078.137s-.078-4.378.767-4.378,2.842,4.378,1.844,4.378-.958-1-1.171-.385S1927.182,3078.9,1926.261,3078.137Z" transform="translate(-1612.325 -2915.452)" fill="#593c26"/>
        <path id="Path_1344" data-name="Path 1344" d="M1962.334,3103.488s1.23,4.839-1.152,4.532-1.843-4.532-3.3-4.532,2.084,3.471,2.386,2.272S1962.334,3103.488,1962.334,3103.488Z" transform="translate(-1611.682 -2914.841)" fill="#593c26"/>
        <path id="Path_1345" data-name="Path 1345" d="M1963.366,3101.644s4.686,3.609,4.071,4.177-1.92,3.488-2.765,3.488,5.223-.412,4.609-5.761S1963.366,3101.644,1963.366,3101.644Z" transform="translate(-1611.562 -2914.901)" fill="#593c26"/>
        <path id="Path_1346" data-name="Path 1346" d="M1934.635,3071.326s-2.2-1.085.752-3.247,8.512-.786,8.512-.786a11.182,11.182,0,0,0,5.852,5.353,45.381,45.381,0,0,0-5.6-2.789C1942.88,3069.535,1937.086,3072.014,1934.635,3071.326Z" transform="translate(-1612.169 -2915.594)"/>
        <path id="Path_1347" data-name="Path 1347" d="M1946.753,3080.76s-4.553-6.288-9.226-3.514S1939.862,3070.046,1946.753,3080.76Z" transform="translate(-1612.125 -2915.412)"/>
        <path id="Path_1348" data-name="Path 1348" d="M1903.373,3104.979s2.883-2.374,2.65.576-9.794,2.767-9.794,2.767l-12.568,8.069s4.158,14.975-.22,12.036-6.414-17.923-6.414-17.923l-3.1,1.073s-.665-5.77,2.138-7.059,6.913-1.382,7.719-2.534,4.791-1.5,5.507-2.189,3.941-1.5,4.978-1.5,6.372.527,7.375,0,4.937,3.377,4.378,7.259c0,0-3.341-3.687-3.8-1.959S1903.373,3104.979,1903.373,3104.979Z" transform="translate(-1613.403 -2914.948)" fill="#593c26"/>
        <path id="Path_1349" data-name="Path 1349" d="M1718.658,3496.9s.913-1.695,19.828-2.087,14.088-7.435,11.87-9.522-32.941.782-37.8,3-30.165,3.843-33.035,2.443-4.3,5.645,9,6.166S1695.438,3501.333,1718.658,3496.9Z" transform="translate(-1617.438 -2907.005)" fill="#f2f2f2"/>
        <path id="Path_1350" data-name="Path 1350" d="M1663.578,3495.244s.913-1.7,19.827-2.087,14.089-7.436,11.871-9.523-32.941.783-37.8,3-30.165,3.842-33.035,2.443-4.3,5.645,9,6.167S1640.358,3499.679,1663.578,3495.244Z" transform="translate(-1618.571 -2907.039)" fill="#f2f2f2"/>
        <path id="Path_1351" data-name="Path 1351" d="M1688.493,3460.6s5.609-2.348,5.87,5.349,0,18.262,0,18.262-4.566,2.348-23.09,4.044a54.732,54.732,0,0,0-14.088,2.609c-7.7,2.479-14.61,3-33.656-.521,0,0-.652,1.7,2.348,3.783s-15-4.044-3.131-12c0,0,12,3.653,28.569-10.958,0,0,7.305-14.219,7.565-16.175,0,0,15.915.782,17.741,4.7C1676.623,3459.683,1683.406,3462.684,1688.493,3460.6Z" transform="translate(-1618.65 -2907.613)" fill="#010d33"/>
        <path id="Path_1352" data-name="Path 1352" d="M1625.879,3494.122c3,2.087-15-4.044-3.131-12,0,0,12,3.653,28.569-10.958,0,0,7.305-14.219,7.565-16.175,0,0,15.915.782,17.741,4.7,0,0-15.132,10.436-10.044,8.349,0,0,2.8-1.369,3.065,6.327s-18.654,9.125-18.654,9.125,1.5.594-17.023,2.289c0,0-11.365-.978-12.589,5.218" transform="translate(-1618.65 -2907.613)" fill="#122a68"/>
        <path id="Path_1353" data-name="Path 1353" d="M1743.573,3462.251s5.61-2.347,5.87,5.349,0,18.263,0,18.263-4.565,2.348-23.089,4.044a54.721,54.721,0,0,0-14.088,2.609c-7.7,2.479-14.61,3-33.656-.521,0,0-.652,1.7,2.349,3.783s-15-4.044-3.13-12c0,0,12,3.653,28.568-10.957,0,0,7.305-14.219,7.565-16.176,0,0,15.915.782,17.741,4.7C1731.7,3461.339,1738.486,3464.338,1743.573,3462.251Z" transform="translate(-1617.518 -2907.579)" fill="#010d33"/>
        <path id="Path_1354" data-name="Path 1354" d="M1680.959,3495.776c3,2.087-15-4.044-3.13-12,0,0,12,3.653,28.568-10.957,0,0,7.305-14.219,7.565-16.176,0,0,15.915.782,17.741,4.7,0,0-15.132,10.435-10.045,8.348,0,0,2.8-1.369,3.066,6.326s-18.655,9.125-18.655,9.125,1.5.594-17.023,2.289c0,0-11.365-.978-12.589,5.218" transform="translate(-1617.518 -2907.579)" fill="#122a68"/>
      </g>
    </g>
    <rect id="Rectangle_196" data-name="Rectangle 196" width="1092" height="658" transform="translate(-988 -1829)" fill="none"/>
  </g>
</svg>
