<svg xmlns="http://www.w3.org/2000/svg" width="18.463" height="22.008" viewBox="0 0 18.463 22.008">
  <g id="Group_164" data-name="Group 164" transform="translate(-866.715 -1082.861)">
    <path id="Path_93" data-name="Path 93" d="M867.03,1102.515c.129.3.349.2.564.127h2.642a1.765,1.765,0,0,0,1.072,0,3.465,3.465,0,0,1-.08.911c-.425,1.157.126,1.323,1.133,1.313,2.561-.026,2.562.009,3.081-2.427.064-.3.105-.606.167-.907.477-2.33.477-2.33,2.829-2.475,3.583-.222,6.094-2.364,6.655-5.651a3.638,3.638,0,0,0-1.371-3.859c.231-1.48.624-2.977-.443-4.324l-.056.062.062-.056a.97.97,0,0,0-.847-.776l.012.012a2.2,2.2,0,0,0-2.149-1.05l.011.006c-3.044-.867-6.124-.538-9.2-.264-.064.006-.12.118-.179.18l.055.071-.064-.063-.267.246-.017.019a1.864,1.864,0,0,0-.339.543q-1.509,7.588-2.991,15.181l-.23,1.06c-.131.707-.724,1.4-.047,2.129Z" fill="#fefefe"/>
    <path id="Path_94" data-name="Path 94" d="M867.857,1101.714l.23-1.06a16.288,16.288,0,0,0,1.183-4.529c.735-3.728,1.433-7.462,2.146-11.194l.017-.018c.181.017.269-.065.267-.246l.064.063-.055-.071,9.379.084-.011-.006a10.438,10.438,0,0,0,2.148,1.05l-.012-.012a1.1,1.1,0,0,0,.847.776l-.062.056.056-.062c.159,1.351.714,2.707-.045,4.048-2.693-.918-5.471-.462-8.217-.482-.531,0-.753.471-.948.957a39.2,39.2,0,0,0-.846,3.928c-.177.615-.645,1.478-.067,2.223a4.229,4.229,0,0,0-.813,2.169,23.381,23.381,0,0,1-1.072,4.4,6.568,6.568,0,0,0-3.691-.01l-.551.06,0,.007C867.61,1103.129,868.275,1102.433,867.857,1101.714Z" transform="translate(-0.776 -1.321)" fill="#032e8a"/>
    <path id="Path_95" data-name="Path 95" d="M883.387,1121.01a23.378,23.378,0,0,0,1.072-4.4,4.228,4.228,0,0,1,.813-2.169,6.553,6.553,0,0,1,2.724-.279,8.087,8.087,0,0,0,7.7-6.062c.047,0,.094,0,.142-.008a3.638,3.638,0,0,1,1.371,3.859c-.561,3.287-3.072,5.428-6.655,5.651-2.352.146-2.353.146-2.829,2.475-.062.3-.1.607-.167.907-.518,2.436-.52,2.4-3.081,2.427-1.006.01-1.557-.156-1.133-1.313a3.456,3.456,0,0,0,.079-.911.774.774,0,0,1-.046-.143Z" transform="translate(-12.115 -18.545)" fill="#0599de"/>
    <path id="Path_96" data-name="Path 96" d="M872.291,1085.685c-.713,3.732-1.411,7.467-2.146,11.194a16.286,16.286,0,0,1-1.183,4.529q1.49-7.591,2.991-15.181A1.863,1.863,0,0,1,872.291,1085.685Z" transform="translate(-1.651 -2.076)" fill="#203e92"/>
    <path id="Path_97" data-name="Path 97" d="M892.008,1083.421l-9.379-.084c.06-.062.115-.174.179-.18C885.885,1082.883,888.964,1082.554,892.008,1083.421Z" transform="translate(-11.696)" fill="#203e92"/>
    <path id="Path_98" data-name="Path 98" d="M929.53,1096.1c-.048,0-.095.007-.143.008l-.345-.284c.759-1.341.2-2.7.044-4.048C930.153,1093.123,929.76,1094.62,929.53,1096.1Z" transform="translate(-45.808 -6.553)" fill="#203e92"/>
    <path id="Path_99" data-name="Path 99" d="M869.984,1156.073a6.569,6.569,0,0,1,3.691.01l-.01.035c-.349,0-.713-.118-1.026.142H870A.261.261,0,0,0,869.984,1156.073Z" transform="translate(-2.403 -53.618)" fill="#011d81"/>
    <path id="Path_100" data-name="Path 100" d="M920.125,1086a10.437,10.437,0,0,1-2.148-1.05A2.2,2.2,0,0,1,920.125,1086Z" transform="translate(-37.676 -1.534)" fill="#203e92"/>
    <path id="Path_101" data-name="Path 101" d="M867.08,1149.013c.418.719-.247,1.414-.047,2.129C866.357,1150.417,866.949,1149.72,867.08,1149.013Z" transform="translate(0 -48.62)" fill="#203e92"/>
    <path id="Path_102" data-name="Path 102" d="M926.884,1089.646a1.1,1.1,0,0,1-.847-.776A.97.97,0,0,1,926.884,1089.646Z" transform="translate(-43.6 -4.417)" fill="#203e92"/>
    <path id="Path_103" data-name="Path 103" d="M880,1157.031c.313-.26.677-.143,1.026-.141a.78.78,0,0,0,.046.143A1.764,1.764,0,0,1,880,1157.031Z" transform="translate(-9.764 -54.388)" fill="#203e92"/>
    <path id="Path_104" data-name="Path 104" d="M868.456,1156.793a.261.261,0,0,1,.013.188c-.215.077-.435.175-.564-.127Z" transform="translate(-0.875 -54.338)" fill="#203e92"/>
    <path id="Path_105" data-name="Path 105" d="M881.855,1084.688c0,.181-.086.263-.267.246Z" transform="translate(-10.931 -1.343)" fill="#203e92"/>
    <path id="Path_106" data-name="Path 106" d="M900.321,1105.447l.345.284a8.087,8.087,0,0,1-7.7,6.062,6.551,6.551,0,0,0-2.724.279c-.578-.746-.11-1.608.067-2.223a39.2,39.2,0,0,1,.846-3.927c.194-.485.417-.961.948-.957C894.85,1104.984,897.628,1104.529,900.321,1105.447Z" transform="translate(-17.088 -16.175)" fill="#011f6b"/>
  </g>
</svg>
