<svg xmlns="http://www.w3.org/2000/svg" width="74" height="75" viewBox="0 0 74 75">
  <g id="Group_907" data-name="Group 907" transform="translate(-456 -144)">
    <path id="Path_1401" data-name="Path 1401" d="M514.738,175.045H471.989c-2.274,0-4.118,2.172-4.118,4.852v22.251c0,2.68,1.844,4.852,4.118,4.852h42.749c2.274,0,4.118-2.172,4.118-4.852V179.9C518.856,177.217,517.012,175.045,514.738,175.045Z" fill="#f2f2f2"/>
    <path id="Path_1402" data-name="Path 1402" d="M524.819,154.291H518.5c-.066,6.115-3.095,11.04-6.823,11.04s-6.757-4.925-6.823-11.04H481.39c0,.1,0,.192,0,.289,0,6.21-3.056,11.244-6.826,11.244s-6.826-5.034-6.826-11.244c0-.1,0-.192.005-.289h-6.566c-2.862,0-5.181,2.733-5.181,6.1v52.5c0,3.372,2.319,6.1,5.181,6.1h63.638c2.862,0,5.181-2.733,5.181-6.1V160.4C530,157.024,527.681,154.291,524.819,154.291Zm.111,52.339c0,3.016-2.076,5.461-4.636,5.461H466.36c-2.56,0-4.635-2.445-4.635-5.461V175.141c0-3.016,2.075-5.461,4.635-5.461h53.934c2.56,0,4.636,2.445,4.636,5.461Z" fill="#f2f2f2"/>
    <ellipse id="Ellipse_81" data-name="Ellipse 81" cx="5.842" cy="9.624" rx="5.842" ry="9.624" transform="translate(468.789 144)" fill="#f2f2f2"/>
    <ellipse id="Ellipse_82" data-name="Ellipse 82" cx="5.842" cy="9.624" rx="5.842" ry="9.624" transform="translate(505.891 144)" fill="#f2f2f2"/>
  </g>
</svg>

