<svg xmlns="http://www.w3.org/2000/svg" width="85.164" height="84.265" viewBox="0 0 85.164 84.265">
  <g id="Group_350" data-name="Group 350" transform="translate(-276.639 -930.175)">
    <path id="Path_298" data-name="Path 298" d="M329.86,1013.68a32.144,32.144,0,0,1-15.95-4.81,92.807,92.807,0,0,1-32.89-33.56c-4.69-8.06-6.3-16.79-1.39-25.57,2.83-5.06,6.99-8.16,13.05-8.21a4.5,4.5,0,0,1,4.79,3.22c1.79,5.42,3.82,10.79,5.08,16.34.37,1.62-1.2,4.08-2.52,5.6-4.4,5.05-4.55,4.98-.58,10.57,4.7,6.6,10.24,12.31,17.38,16.35,1.88,1.06,3.16,1.06,4.51-.73a24.565,24.565,0,0,1,3.29-3.32,6.075,6.075,0,0,1,6.61-1.3c4.49,1.61,9.08,2.96,13.65,4.36,3.27,1.01,4.26,3.27,3.97,6.48a13.143,13.143,0,0,1-6.91,10.89c-3.66,1.97-7.81,3-11.75,4.45A5.292,5.292,0,0,1,329.86,1013.68Z" fill="#f2f2f2"/>
    <path id="Path_299" data-name="Path 299" d="M323.67,930.25a40.923,40.923,0,0,1,38.06,37.63c.03.31.04.62.04.94-.01,1.62.46,3.77-1.87,3.95-2.53.19-2.4-2.05-2.54-3.8a38.057,38.057,0,0,0-33.38-34.27,2.509,2.509,0,0,1-.62-.07c-1.57-.57-4.15.4-4.17-2.57C319.17,930.32,320.08,930,323.67,930.25Z" fill="#f2f2f2"/>
    <path id="Path_300" data-name="Path 300" d="M349.98,971.42c-.22.26-1,1.21-1.79,2.15-.71-.93-1.93-1.8-2.06-2.8-1.8-13.97-11.2-23.52-25.15-25.31-1.49-.19-3.34-.16-2.86-2.19.18-.78,2.13-1.63,3.27-1.61C336.12,941.9,349.54,955.39,349.98,971.42Z" fill="#f2f2f2"/>
    <path id="Path_301" data-name="Path 301" d="M319.88,953.37c9.74.3,19.02,9.62,19.14,18.47.01.83-1.11,1.67-1.7,2.51-.85-.81-2.25-1.49-2.46-2.44-1.44-6.76-5.08-11.52-11.75-13.73-.98-.33-2.16-.26-2.99-.78a11.288,11.288,0,0,1-2.17-2.42C318.78,954.29,319.6,953.6,319.88,953.37Z" fill="#f2f2f2"/>
  </g>
</svg>
