<svg xmlns="http://www.w3.org/2000/svg" width="32.256" height="77.035" viewBox="0 0 32.256 77.035">
  <g id="Group_1047" data-name="Group 1047" transform="translate(-794.496 -290.726)">
    <g id="Group_1045" data-name="Group 1045">
      <g id="Group_1044" data-name="Group 1044">
        <g id="Group_1043" data-name="Group 1043">
          <path id="Path_1613" data-name="Path 1613" d="M819.3,341.724q0,10.717,0,21.434a4.368,4.368,0,0,1-2.795,4.386,3.429,3.429,0,0,1-4.24-1.707,7.015,7.015,0,0,1-.738-3.059c-.059-8.037-.033-16.075-.033-24.113a2.525,2.525,0,0,0-.022-.92c-.2-.457-.475-1.133-.806-1.2-.661-.142-.907.479-.9,1.2.008,2.408,0,4.815,0,7.222,0,6.019.018,12.038-.007,18.056-.015,3.608-3,5.809-5.675,4.212a4.609,4.609,0,0,1-2.131-4.319q.012-14.211,0-28.423,0-7.047,0-14.1c0-.826.194-1.94-.949-1.895-1.127.044-.874,1.174-.875,1.981q-.008,8.912.015,17.822a2.974,2.974,0,0,1-1.6,2.865,2.188,2.188,0,0,1-2.873-.418,4.678,4.678,0,0,1-1.06-2.624c-.093-5.706-.177-11.42-.01-17.122.183-6.244,3.041-10.641,8.186-12.855a18.924,18.924,0,0,1,16.276.28c4.9,2.36,7.466,6.737,7.621,12.7.147,5.664.044,11.337.026,17.006a3.183,3.183,0,0,1-1.97,3.207,2.558,2.558,0,0,1-3.144-1.311,4.294,4.294,0,0,1-.44-1.858c-.028-5.824-.009-11.649-.006-17.473a4.2,4.2,0,0,0-.052-1.381c-.133-.355-.57-.831-.826-.8-.337.044-.687.487-.914.852-.131.21-.037.6-.037.913q0,10.716,0,21.433Z" fill="#f2f2f2"/>
        </g>
      </g>
      <circle id="Ellipse_138" data-name="Ellipse 138" cx="7.217" cy="7.217" r="7.217" transform="translate(803.408 290.726)" fill="#f2f2f2"/>
    </g>
    <g id="Group_1046" data-name="Group 1046">
      <path id="Path_1614" data-name="Path 1614" d="M812.845,312.326c.123-.162.24-.332.372-.49a4.169,4.169,0,0,1,2.009-1.4,3.024,3.024,0,0,1,3.726,1.6,4.849,4.849,0,0,1,.019,4.328,8.216,8.216,0,0,1-1.693,2.371,17.753,17.753,0,0,1-4.325,3.18.217.217,0,0,1-.229,0,18.321,18.321,0,0,1-3.634-2.516,10.1,10.1,0,0,1-2.158-2.583,5.084,5.084,0,0,1-.44-4.247,3.269,3.269,0,0,1,1.246-1.739,3.1,3.1,0,0,1,3.1-.248,4.507,4.507,0,0,1,1.92,1.651c.02.028.039.057.06.084C812.82,312.318,812.83,312.32,812.845,312.326Z" fill="#010d3e"/>
    </g>
  </g>
</svg>

