<svg xmlns="http://www.w3.org/2000/svg" width="49.566" height="76.406" viewBox="0 0 49.566 76.406">
  <g id="Group_989" data-name="Group 989" transform="translate(-417.973 -292.602)">
    <path id="Path_1545" data-name="Path 1545" d="M457.986,311.7a3.319,3.319,0,0,1-4.281.623c-8.8-5.524-9.27-4.96-19.141-4.634-4.255.14-12.2,4.676-12.906,8.715-.684,3.934.348,8.143,1.305,12.061a3.234,3.234,0,0,0,.976,1.5,3.312,3.312,0,0,0,5.3-.93,3.91,3.91,0,0,0,.344-1.058c.291-1.786-.427-3.758-.806-5.629-.536-2.644-.1-4.255,1.361-4.981a3.3,3.3,0,0,1,4.683,3.516,86.2,86.2,0,0,1-1.956,9.98c-2.225,7.88-.845,10.317,7.4,11.708,2.528.427,5.049.893,7.9,1.416,1.906.35,3.426.56,2.6,4.124-.528,2.273,0,0-1.365,6.953a4.7,4.7,0,0,0,.469,2.449,3.309,3.309,0,0,0,5.157,1.431,4.99,4.99,0,0,0,1.717-2.113c5.417-15.495.134-18.09-8.57-21.374a3.348,3.348,0,0,1-2.174-3.63c.527-3.411,1.059-6.86,1.6-10.379.378-2.444,3.05-3.385,5.21-2.181,4.066,2.266,8.734,2.416,11.223-4.371,1.4-3.829,4.907-10.01,2.913-11.446-5.154-3.711-5.776,4.949-8.6,7.866C458.221,311.438,458.108,311.563,457.986,311.7Z" fill="#f2f2f2"/>
    <path id="Path_1546" data-name="Path 1546" d="M435.554,342.546a13.634,13.634,0,0,1-1.6-1.109,1.307,1.307,0,0,0-1.93.351c-4.739,6.706-9.113,12.656-13.012,19.054a8.543,8.543,0,0,0-.99,3.32c-.392,3.022,1.881,5.517,4.249,4.684a4.353,4.353,0,0,0,2.37-1.588c5.205-8.048,16.4-18.044,13.713-22.17-.044-.067.012-1.073-2.8-2.542C435.454,342.494,435.663,342.606,435.554,342.546Z" fill="#f2f2f2"/>
    <circle id="Ellipse_96" data-name="Ellipse 96" cx="7.107" cy="7.107" r="7.107" transform="translate(436.705 292.602)" fill="#f2f2f2"/>
  </g>
</svg>
