<svg xmlns="http://www.w3.org/2000/svg" width="34.117" height="77.007" viewBox="0 0 34.117 77.007">
  <g id="Group_190" data-name="Group 190" transform="translate(-479.74 -291.887)">
    <g id="Group_188" data-name="Group 188">
      <path id="Path_174" data-name="Path 174" d="M513.69,364.72l-8.91-26.41a3.062,3.062,0,0,0-.22-.49V320.84a2.734,2.734,0,0,0,.21-.3l8.77-16.6a1.378,1.378,0,0,0,.16-.64.53.53,0,0,0-.11-.71l-9.75-9.96c-.67-.68-2.72-.95-4.28-.57-1.17.29-1.68.86-1.24,1.37l8.92,9.99-6.49,10.72h-8.18l-6.3-10.42,9.15-10.24c.44-.52-.07-1.09-1.24-1.37-1.56-.38-3.61-.11-4.28.57l-9.75,9.96a.615.615,0,0,0-.2.39,1.347,1.347,0,0,0,.02,1.22l8.65,16.37v17.51a3.249,3.249,0,0,0-.18.43l-8.54,26.09a3.188,3.188,0,0,0,1.27,3.67h0a2.958,2.958,0,0,0,4.37-1.52l9.96-26.61a3.155,3.155,0,0,0,.15-1.73h1.55a3.117,3.117,0,0,0,.2,1.49l10.4,26.93a3.115,3.115,0,0,0,4.56,1.54A3.152,3.152,0,0,0,513.69,364.72Z" fill="#f2f2f2"/>
    </g>
    <g id="Group_189" data-name="Group 189">
      <circle id="Ellipse_22" data-name="Ellipse 22" cx="6.07" cy="6.07" r="6.07" transform="translate(490.49 300.38)" fill="#f2f2f2"/>
    </g>
  </g>
</svg>
