<svg xmlns="http://www.w3.org/2000/svg" width="70.559" height="70.61" viewBox="0 0 70.559 70.61">
  <g id="Group_1064" data-name="Group 1064" transform="translate(-615.126 -838.417)">
    <path id="Path_1635" data-name="Path 1635" d="M670.586,859.89c-.553.6-1.057,1.214-1.636,1.75-.42.389-.392.671-.112,1.14a21.209,21.209,0,0,1,2.985,9.7,21.479,21.479,0,1,1-16.312-19.632,20.721,20.721,0,0,1,8.761,4.53l-5.407,5.419a13.809,13.809,0,1,0,.081,21.741,13.558,13.558,0,0,0,3.791-16.749,13.68,13.68,0,0,1-1.361,1.42,1.687,1.687,0,0,0-.579,2.036,10.716,10.716,0,1,1-9.223-8.205,9.9,9.9,0,0,1,5.213,2.106c-1.7,1.7-3.347,3.327-4.969,4.982a1.55,1.55,0,0,1-1.318.544,3,3,0,0,0-3.17,3.028,3.047,3.047,0,0,0,3.069,3.069,3,3,0,0,0,3.026-3.175,1.571,1.571,0,0,1,.548-1.317c5.391-5.372,10.835-10.693,16.109-16.177,1.65-1.716,3.279-2.781,5.705-2.381a1.614,1.614,0,0,0,1.168-.467c2.208-2.153,4.376-4.345,6.553-6.529.163-.164.3-.355.571-.685h-6.1V839.98l-5.875,5.9a35.288,35.288,0,1,0,3.082,52.9c13.121-12.992,13-32.114,4.826-44.074l-2.163,2.2c.112.2.259.472.411.739a31.549,31.549,0,0,1,3.884,21.414,32.207,32.207,0,1,1-13.459-31.838c1.219.842,1.946,1.7,1.655,3.212-.088.458.013,1.065-.248,1.356-1.093,1.217-2.29,2.34-3.445,3.494-11.071-9.865-27.664-7.222-35.85,3.624a24.546,24.546,0,0,0,36.663,32.427A24.4,24.4,0,0,0,670.586,859.89Z" fill="#fff"/>
    <path id="Path_1636" data-name="Path 1636" d="M670.586,859.89a24.5,24.5,0,0,1-36.611,32.069A24.647,24.647,0,0,1,630.8,858.9c8.186-10.846,24.779-13.489,35.85-3.624,1.155-1.154,2.352-2.277,3.445-3.494.261-.291.16-.9.248-1.356.291-1.511-.436-2.37-1.655-3.212a32.209,32.209,0,1,0,13.459,31.838,31.549,31.549,0,0,0-3.884-21.414c-.152-.267-.3-.537-.411-.739l2.163-2.2c8.178,11.96,8.295,31.082-4.826,44.074a35.276,35.276,0,1,1-3.082-52.9l5.875-5.9v6.063h6.1c-.273.33-.408.521-.571.685-2.177,2.184-4.345,4.376-6.553,6.529a1.614,1.614,0,0,1-1.168.467c-2.426-.4-4.055.665-5.705,2.381-5.274,5.484-10.718,10.8-16.109,16.177a1.571,1.571,0,0,0-.548,1.317,3,3,0,0,1-3.026,3.175,3.047,3.047,0,0,1-3.069-3.069,3,3,0,0,1,3.17-3.028,1.55,1.55,0,0,0,1.318-.544c1.622-1.655,3.271-3.284,4.969-4.982a9.9,9.9,0,0,0-5.213-2.106,10.735,10.735,0,1,0,9.223,8.205,1.687,1.687,0,0,1,.579-2.036,13.68,13.68,0,0,0,1.361-1.42,13.558,13.558,0,0,1-3.791,16.749,13.806,13.806,0,1,1-.081-21.741l5.407-5.419a20.721,20.721,0,0,0-8.761-4.53,21.489,21.489,0,1,0,16.312,19.632,21.209,21.209,0,0,0-2.985-9.7c-.28-.469-.308-.751.112-1.14C669.529,861.1,670.033,860.489,670.586,859.89Z" fill="#010d3e"/>
  </g>
</svg>
