<svg xmlns="http://www.w3.org/2000/svg" width="49.566" height="76.407" viewBox="0 0 49.566 76.407">
  <g id="Group_995" data-name="Group 995" transform="translate(-415.814 -392.897)">
    <path id="Path_1556" data-name="Path 1556" d="M455.827,412a3.318,3.318,0,0,1-4.281.622c-8.8-5.524-9.27-4.959-19.14-4.634-4.255.14-12.205,4.676-12.907,8.715-.684,3.934.349,8.143,1.3,12.062a3.25,3.25,0,0,0,.976,1.5,3.313,3.313,0,0,0,5.3-.931,3.973,3.973,0,0,0,.344-1.057c.291-1.787-.427-3.759-.807-5.63-.536-2.643-.1-4.254,1.362-4.981a3.3,3.3,0,0,1,4.682,3.516,86.113,86.113,0,0,1-1.955,9.98c-2.225,7.881-.846,10.317,7.4,11.709,2.528.427,5.049.892,7.895,1.415,1.906.35,3.426.56,2.6,4.125-.527,2.273,0,0-1.364,6.952a4.686,4.686,0,0,0,.468,2.449,3.309,3.309,0,0,0,5.157,1.431,4.985,4.985,0,0,0,1.718-2.113c5.417-15.495.134-18.09-8.571-21.374a3.347,3.347,0,0,1-2.174-3.629c.527-3.411,1.06-6.861,1.6-10.379.377-2.444,3.049-3.386,5.21-2.182,4.066,2.266,8.733,2.417,11.223-4.37,1.4-3.829,4.907-10.011,2.912-11.447-5.153-3.711-5.776,4.949-8.6,7.866C456.063,411.732,455.95,411.857,455.827,412Z" fill="#010d3e"/>
    <path id="Path_1557" data-name="Path 1557" d="M433.4,442.841a13.8,13.8,0,0,1-1.606-1.109,1.306,1.306,0,0,0-1.93.351c-4.739,6.706-9.113,12.655-13.011,19.053a8.526,8.526,0,0,0-.991,3.32c-.392,3.023,1.882,5.517,4.249,4.685a4.358,4.358,0,0,0,2.371-1.589c5.2-8.048,16.4-18.044,13.712-22.169-.044-.068.012-1.074-2.794-2.542C433.3,442.788,433.505,442.9,433.4,442.841Z" fill="#010d3e"/>
    <circle id="Ellipse_103" data-name="Ellipse 103" cx="7.107" cy="7.107" r="7.107" transform="translate(434.546 392.897)" fill="#010d3e"/>
  </g>
</svg>

