<svg xmlns="http://www.w3.org/2000/svg" width="85.167" height="84.3" viewBox="0 0 85.167 84.3">
  <g id="Group_1073" data-name="Group 1073" transform="translate(-285.651 -1033.123)">
    <path id="Path_1645" data-name="Path 1645" d="M338.873,1116.628a32.268,32.268,0,0,1-15.953-4.806,92.847,92.847,0,0,1-32.887-33.555c-4.689-8.063-6.3-16.79-1.395-25.568,2.828-5.06,6.991-8.159,13.049-8.208,2.379-.019,4.041.97,4.786,3.224,1.793,5.421,3.825,10.8,5.077,16.342.366,1.619-1.2,4.083-2.518,5.6-4.4,5.054-4.555,4.983-.583,10.569,4.7,6.6,10.24,12.307,17.38,16.355,1.876,1.064,3.156,1.056,4.506-.725a24.158,24.158,0,0,1,3.291-3.317,6.073,6.073,0,0,1,6.613-1.3c4.494,1.61,9.084,2.956,13.649,4.362,3.267,1.006,4.264,3.272,3.969,6.485a13.139,13.139,0,0,1-6.912,10.889c-3.658,1.965-7.814,3-11.75,4.451Z" fill="#010d3e"/>
    <path id="Path_1646" data-name="Path 1646" d="M332.683,1033.2a40.94,40.94,0,0,1,38.064,37.634c.026.311.041.624.038.936-.012,1.623.463,3.771-1.869,3.948-2.534.192-2.4-2.048-2.544-3.8a38.059,38.059,0,0,0-33.377-34.274,2.671,2.671,0,0,1-.619-.066c-1.572-.57-4.154.4-4.175-2.569C328.189,1033.271,329.093,1032.947,332.683,1033.2Z" fill="#010d3e"/>
    <path id="Path_1647" data-name="Path 1647" d="M358.992,1074.371l-1.792,2.153c-.712-.932-1.931-1.8-2.061-2.805-1.8-13.971-11.2-23.523-25.153-25.31-1.491-.19-3.341-.157-2.86-2.186.185-.776,2.135-1.629,3.267-1.611C345.138,1044.846,358.554,1058.341,358.992,1074.371Z" fill="#010d3e"/>
    <path id="Path_1648" data-name="Path 1648" d="M328.9,1056.317c9.742.3,19.024,9.624,19.144,18.474.011.829-1.106,1.673-1.7,2.51-.848-.805-2.253-1.492-2.455-2.436-1.445-6.761-5.078-11.521-11.751-13.73-.983-.326-2.162-.262-2.995-.784a11.447,11.447,0,0,1-2.175-2.42Z" fill="#010d3e"/>
  </g>
</svg>
