<svg xmlns="http://www.w3.org/2000/svg" width="74" height="75" viewBox="0 0 74 75">
  <g id="Group_1054" data-name="Group 1054" transform="translate(-350.928 -835.284)">
    <path id="Path_1618" data-name="Path 1618" d="M409.666,866.329H366.917c-2.274,0-4.117,2.172-4.117,4.852v22.251c0,2.68,1.843,4.852,4.117,4.852h42.749c2.275,0,4.118-2.172,4.118-4.852V871.181C413.784,868.5,411.941,866.329,409.666,866.329Z" fill="#010d3e"/>
    <path id="Path_1619" data-name="Path 1619" d="M419.748,845.575h-6.319c-.066,6.116-3.094,11.04-6.823,11.04s-6.756-4.924-6.823-11.04H376.318c0,.1,0,.192,0,.289,0,6.21-3.056,11.244-6.826,11.244s-6.826-5.034-6.826-11.244c0-.1,0-.192,0-.289h-6.566c-2.861,0-5.181,2.733-5.181,6.1v52.5c0,3.371,2.32,6.1,5.181,6.1h63.639c2.861,0,5.18-2.733,5.18-6.1v-52.5C424.928,848.308,422.609,845.575,419.748,845.575Zm.11,52.339c0,3.016-2.075,5.462-4.635,5.462H361.288c-2.56,0-4.635-2.446-4.635-5.462V866.426c0-3.017,2.075-5.462,4.635-5.462h53.935c2.56,0,4.635,2.445,4.635,5.462Z" fill="#010d3e"/>
    <ellipse id="Ellipse_139" data-name="Ellipse 139" cx="5.842" cy="9.624" rx="5.842" ry="9.624" transform="translate(363.717 835.284)" fill="#010d3e"/>
    <ellipse id="Ellipse_140" data-name="Ellipse 140" cx="5.842" cy="9.624" rx="5.842" ry="9.624" transform="translate(400.819 835.284)" fill="#010d3e"/>
  </g>
</svg>
