<svg xmlns="http://www.w3.org/2000/svg" width="66.297" height="64.927" viewBox="0 0 66.297 64.927">
  <g id="Group_1083" data-name="Group 1083" transform="translate(-541.551 -1052.141)">
    <path id="Path_1686" data-name="Path 1686" d="M604.953,1107.938H602.3c.008-.087.026-.171.026-.261v-29.862a2.788,2.788,0,0,0-2.788-2.788h-3.554a2.788,2.788,0,0,0-2.788,2.788v29.862c0,.09.018.174.026.261H587.05c0-.049.015-.095.015-.145V1077.93a2.789,2.789,0,0,0-2.788-2.788h-3.555a2.788,2.788,0,0,0-2.788,2.788v29.863c0,.05.012.1.015.145h-6.176V1078.1a2.788,2.788,0,0,0-2.788-2.788h-3.554a2.788,2.788,0,0,0-2.788,2.788v29.834h-6.132V1078.22a2.788,2.788,0,0,0-2.788-2.788h-3.555a2.788,2.788,0,0,0-2.788,2.788v29.718h-2.827a2.788,2.788,0,0,0-2.788,2.788v3.555a2.789,2.789,0,0,0,2.788,2.788h60.4a2.788,2.788,0,0,0,2.788-2.788v-3.555A2.788,2.788,0,0,0,604.953,1107.938Z" fill="#010d3e"/>
    <path id="Path_1687" data-name="Path 1687" d="M607.21,1070.715l-31.876-18.4a1.274,1.274,0,0,0-1.27,0l-31.876,18.4a1.27,1.27,0,0,0,.636,2.37h63.751A1.27,1.27,0,0,0,607.21,1070.715Z" fill="#010d3e"/>
  </g>
</svg>
