<svg xmlns="http://www.w3.org/2000/svg" width="32.264" height="77.04" viewBox="0 0 32.264 77.04">
  <g id="Group_285" data-name="Group 285" transform="translate(-794.094 -392.27)">
    <g id="Group_283" data-name="Group 283">
      <g id="Group_281" data-name="Group 281">
        <g id="Group_280" data-name="Group 280">
          <g id="Group_279" data-name="Group 279">
            <path id="Path_256" data-name="Path 256" d="M818.9,443.27q0,10.71,0,21.43a4.368,4.368,0,0,1-2.8,4.39,3.431,3.431,0,0,1-4.24-1.71,7.078,7.078,0,0,1-.74-3.06c-.06-8.04-.03-16.08-.03-24.11a2.551,2.551,0,0,0-.02-.92c-.2-.46-.48-1.13-.81-1.2-.66-.14-.91.48-.9,1.2.01,2.41,0,4.81,0,7.22,0,6.02.02,12.04-.01,18.06-.01,3.61-3,5.81-5.68,4.21a4.617,4.617,0,0,1-2.13-4.32q.015-14.205,0-28.42v-14.1c0-.83.19-1.94-.95-1.89s-.87,1.17-.87,1.98c-.01,5.94.01,11.88.01,17.82a2.957,2.957,0,0,1-1.6,2.86,2.179,2.179,0,0,1-2.87-.42,4.634,4.634,0,0,1-1.06-2.62c-.09-5.71-.18-11.42-.01-17.12.18-6.24,3.04-10.64,8.19-12.86a18.919,18.919,0,0,1,16.28.28c4.9,2.36,7.47,6.74,7.62,12.7.15,5.66.04,11.34.03,17.01a3.194,3.194,0,0,1-1.97,3.21,2.548,2.548,0,0,1-3.14-1.31,4.208,4.208,0,0,1-.44-1.86c-.03-5.82-.01-11.65-.01-17.47a4.194,4.194,0,0,0-.05-1.38c-.13-.36-.57-.83-.83-.8-.34.04-.69.49-.91.85-.13.21-.04.6-.04.91q-.015,10.725-.02,21.44Z" fill="#010d3e"/>
          </g>
        </g>
      </g>
      <g id="Group_282" data-name="Group 282">
        <circle id="Ellipse_59" data-name="Ellipse 59" cx="7.22" cy="7.22" r="7.22" transform="translate(803 392.27)" fill="#010d3e"/>
      </g>
    </g>
    <g id="Group_284" data-name="Group 284">
      <path id="Path_257" data-name="Path 257" d="M812.44,413.87c.12-.16.24-.33.37-.49a4.121,4.121,0,0,1,2.01-1.4,3.034,3.034,0,0,1,3.73,1.6,4.85,4.85,0,0,1,.02,4.33,8.272,8.272,0,0,1-1.69,2.37,17.6,17.6,0,0,1-4.33,3.18.235.235,0,0,1-.23,0,17.844,17.844,0,0,1-3.63-2.52,10.3,10.3,0,0,1-2.16-2.58,5.078,5.078,0,0,1-.44-4.25,3.277,3.277,0,0,1,1.25-1.74,3.1,3.1,0,0,1,3.1-.25,4.517,4.517,0,0,1,1.92,1.65.554.554,0,0,0,.06.08C812.41,413.87,812.42,413.87,812.44,413.87Z" fill="#f2f2f2"/>
    </g>
  </g>
</svg>
