<svg xmlns="http://www.w3.org/2000/svg" width="58.657" height="75" viewBox="0 0 58.657 75">
  <g id="Group_865" data-name="Group 865" transform="translate(-203.41 -145)">
    <path id="Path_1381" data-name="Path 1381" d="M233.77,220c-9.423-.133-17.111-2.113-24.033-6.654a38.365,38.365,0,0,1-4.221-3.36,6.769,6.769,0,0,1-2.1-5.156,25.7,25.7,0,0,1,1.751-9.494c2.48-6.881,7.518-11.207,14.141-13.886a33.755,33.755,0,0,1,11.47-2.358,36.274,36.274,0,0,1,15.618,2.48,23.172,23.172,0,0,1,15.093,18.688c.2,1.159.4,2.322.525,3.491a7.875,7.875,0,0,1-3.274,7.348,39.243,39.243,0,0,1-18.428,8.173C237.758,219.675,235.165,219.849,233.77,220Z" fill="#f2f2f2"/>
    <path id="Path_1382" data-name="Path 1382" d="M232.565,177.071a16.036,16.036,0,1,1,16.162-16.008A16.087,16.087,0,0,1,232.565,177.071Z" fill="#f2f2f2"/>
  </g>
</svg>
