<svg xmlns="http://www.w3.org/2000/svg" width="66.315" height="70.991" viewBox="0 0 66.315 70.991">
  <g id="Group_84" data-name="Group 84" transform="translate(-686.139 -146.999)">
    <g id="Group_74" data-name="Group 74">
      <path id="Path_36" data-name="Path 36" d="M745.4,200.61c-2.51-.51-4.72-1.56-6.66-1.2-2.02.37-3.82,2.06-5.66,3.25a11.1,11.1,0,0,0-2.27,1.94,3.887,3.887,0,0,0-1.09,2.11c-.11,3.63-.05,7.27-.05,11.28H708.99c0-3.71-.03-7.23.01-10.74.02-1.45.11-2.79-1.95-2.82-.41-.01-.9-.53-1.19-.93-3.58-4.97-6.77-5.69-12.4-2.44-.09-1.74-.24-3.31-.24-4.87.01-3.19.05-6.39.19-9.58.1-2.17,1.09-3.73,3.51-3.67,2.18.05,3.22,1.27,3.41,3.46.25,3,.69,5.98,1.06,8.97a1.835,1.835,0,0,0,.26.53h35.57c.26-2.99.5-6.05.82-9.1.3-2.9,1.73-4.41,3.99-4.17,2.64.29,3.39,2.09,3.38,4.47C745.38,191.67,745.4,196.22,745.4,200.61Z" fill="#f2f2f2"/>
    </g>
    <g id="Group_75" data-name="Group 75">
      <path id="Path_37" data-name="Path 37" d="M728.91,156.63a9.655,9.655,0,1,1-9.8-9.63A9.64,9.64,0,0,1,728.91,156.63Z" fill="#f2f2f2"/>
    </g>
    <g id="Group_76" data-name="Group 76">
      <path id="Path_38" data-name="Path 38" d="M719.05,193.96a9.006,9.006,0,0,1,.2-18.01,9.006,9.006,0,1,1-.2,18.01Z" fill="#f2f2f2"/>
    </g>
    <g id="Group_77" data-name="Group 77">
      <path id="Path_39" data-name="Path 39" d="M738.45,180.42c-2.84-.29-5.29-.53-8.32-.83-8.24-9.18-14.99-9.2-21.82.09-2.81.23-5.26.43-7.73.63-.62-3.27,2.9-7.98,6.33-9.25a33.07,33.07,0,0,1,24.83.14C735.66,172.8,737.85,176.11,738.45,180.42Z" fill="#f2f2f2"/>
    </g>
    <g id="Group_78" data-name="Group 78">
      <path id="Path_40" data-name="Path 40" d="M737.85,209.34c-1.95.17-3.42-.47-3.39-2.93a4.848,4.848,0,0,1,5.19-4.78c2.8.01,4.52,1.67,4.48,4.34C744.09,208.38,742.48,209.26,737.85,209.34Z" fill="#f2f2f2"/>
    </g>
    <g id="Group_79" data-name="Group 79">
      <path id="Path_41" data-name="Path 41" d="M700.4,209.34c-4.69-.22-6.15-1.17-6.01-3.68a3.85,3.85,0,0,1,4.26-3.95c3.43.18,5.48,2.04,5.38,4.91C703.93,209.41,701.99,209.46,700.4,209.34Z" fill="#f2f2f2"/>
    </g>
    <g id="Group_80" data-name="Group 80">
      <path id="Path_42" data-name="Path 42" d="M752.43,186.46c.06,2.29-.38,4.2-2.95,4.16-2.63-.05-2.76-2.13-2.8-4.13-.04-2.02.49-3.84,2.83-3.85C751.99,182.63,752.59,184.47,752.43,186.46Z" fill="#f2f2f2"/>
    </g>
    <g id="Group_81" data-name="Group 81">
      <path id="Path_43" data-name="Path 43" d="M736.56,186.5c.07,2.16-.3,4.13-2.86,4.11-2.58-.01-2.81-2.03-2.84-4.08-.03-2.01.43-3.84,2.76-3.89C736.12,182.58,736.7,184.42,736.56,186.5Z" fill="#f2f2f2"/>
    </g>
    <g id="Group_82" data-name="Group 82">
      <path id="Path_44" data-name="Path 44" d="M707.55,186.87c.21,2.03-.46,3.74-2.81,3.59-2.92-.2-2.63-2.71-2.76-4.74-.13-2.01,1.03-3.2,2.91-3.09C707.4,182.79,707.76,184.71,707.55,186.87Z" fill="#f2f2f2"/>
    </g>
    <g id="Group_83" data-name="Group 83">
      <path id="Path_45" data-name="Path 45" d="M686.22,186.23c-.37-2.11.54-3.52,2.63-3.6s2.63,1.57,2.67,3.37c.01.73.22,1.62-.12,2.14-.62.96-1.7,2.45-2.37,2.34-1-.16-1.91-1.43-2.66-2.39C686.05,187.68,686.26,186.86,686.22,186.23Z" fill="#f2f2f2"/>
    </g>
  </g>
</svg>
