<svg xmlns="http://www.w3.org/2000/svg" width="67.37" height="81.06" viewBox="0 0 67.37 81.06">
  <g id="Group_338" data-name="Group 338" transform="translate(-67.52 -1037.42)">
    <g id="Group_336" data-name="Group 336">
      <path id="Path_286" data-name="Path 286" d="M120.92,1065.93a12.34,12.34,0,0,1-12.34-12.34v-15.92H79.86a12.34,12.34,0,0,0-12.34,12.34v56.13a12.34,12.34,0,0,0,12.34,12.34H122.3a12.34,12.34,0,0,0,12.34-12.34v-40.21Z" fill="#f2f2f2"/>
      <g id="Group_335" data-name="Group 335">
        <path id="Path_287" data-name="Path 287" d="M134.89,1065.68l-26.05-28.26C108.83,1037.42,96.47,1077.16,134.89,1065.68Z" fill="#010d3e"/>
      </g>
    </g>
    <g id="Group_337" data-name="Group 337">
      <path id="Path_288" data-name="Path 288" d="M105.51,1098.62H95.39a6.141,6.141,0,0,1-6.14-6.14V1080.4a6.141,6.141,0,0,1,6.14-6.14h10.12a6.141,6.141,0,0,1,6.14,6.14v12.08A6.141,6.141,0,0,1,105.51,1098.62Z" fill="#010d3e"/>
      <ellipse id="Ellipse_63" data-name="Ellipse 63" cx="6.41" cy="7.83" rx="6.41" ry="7.83" transform="translate(94.04 1066.51)" fill="none" stroke="#010d3e" stroke-miterlimit="10" stroke-width="2.943"/>
      <path id="Path_289" data-name="Path 289" d="M100.65,1091.41h0a1.856,1.856,0,0,1-1.86-1.86v-5.51a1.856,1.856,0,0,1,1.86-1.86h0a1.856,1.856,0,0,1,1.86,1.86v5.51A1.857,1.857,0,0,1,100.65,1091.41Z" fill="#f2f2f2"/>
    </g>
  </g>
</svg>
