<svg xmlns="http://www.w3.org/2000/svg" xmlns:xlink="http://www.w3.org/1999/xlink" width="91" height="91" viewBox="0 0 91 91">
  <defs>
    <filter id="Ellipse_70" x="0" y="0" width="91" height="91" filterUnits="userSpaceOnUse">
      <feOffset dy="3" input="SourceAlpha"/>
      <feGaussianBlur stdDeviation="3" result="blur"/>
      <feFlood flood-opacity="0.561"/>
      <feComposite operator="in" in2="blur"/>
      <feComposite in="SourceGraphic"/>
    </filter>
    <filter id="Path_125">
      <feOffset input="SourceAlpha"/>
      <feGaussianBlur stdDeviation="2" result="blur-2"/>
      <feFlood flood-color="#010d3e" result="color"/>
      <feComposite operator="out" in="SourceGraphic" in2="blur-2"/>
      <feComposite operator="in" in="color"/>
      <feComposite operator="in" in2="SourceGraphic"/>
    </filter>
    <filter id="Path_126">
      <feOffset input="SourceAlpha"/>
      <feGaussianBlur stdDeviation="2" result="blur-3"/>
      <feFlood flood-color="#010d3e" result="color-2"/>
      <feComposite operator="out" in="SourceGraphic" in2="blur-3"/>
      <feComposite operator="in" in="color-2"/>
      <feComposite operator="in" in2="SourceGraphic"/>
    </filter>
  </defs>
  <g id="Group_1177" data-name="Group 1177" transform="translate(-3 -671)">
    <g transform="matrix(1, 0, 0, 1, 3, 671)" filter="url(#Ellipse_70)">
      <circle id="Ellipse_70-2" data-name="Ellipse 70" cx="36.5" cy="36.5" r="36.5" transform="translate(9 6)" fill="#26364f"/>
    </g>
    <g id="Group_218" data-name="Group 218" transform="translate(34.659 695.927)">
      <g data-type="innerShadowGroup">
        <path id="Path_125-2" data-name="Path 125" d="M217.738,198.183a20.464,20.464,0,0,1-11.342-3.109,18.08,18.08,0,0,1-1.992-1.57,3.146,3.146,0,0,1-.99-2.409,11.9,11.9,0,0,1,.826-4.435,10.941,10.941,0,0,1,6.674-6.487,16.07,16.07,0,0,1,5.413-1.1,17.276,17.276,0,0,1,7.371,1.159,10.841,10.841,0,0,1,7.123,8.731c.095.541.19,1.085.248,1.631a3.664,3.664,0,0,1-1.545,3.433,18.612,18.612,0,0,1-8.7,3.818C219.62,198.031,218.4,198.112,217.738,198.183Z" transform="translate(-203.41 -163.145)" fill="#f2f2f2"/>
        <g transform="matrix(1, 0, 0, 1, -31.66, -24.93)" filter="url(#Path_125)">
          <path id="Path_125-3" data-name="Path 125" d="M217.738,198.183a20.464,20.464,0,0,1-11.342-3.109,18.08,18.08,0,0,1-1.992-1.57,3.146,3.146,0,0,1-.99-2.409,11.9,11.9,0,0,1,.826-4.435,10.941,10.941,0,0,1,6.674-6.487,16.07,16.07,0,0,1,5.413-1.1,17.276,17.276,0,0,1,7.371,1.159,10.841,10.841,0,0,1,7.123,8.731c.095.541.19,1.085.248,1.631a3.664,3.664,0,0,1-1.545,3.433,18.612,18.612,0,0,1-8.7,3.818C219.62,198.031,218.4,198.112,217.738,198.183Z" transform="translate(-171.75 -138.22)" fill="#fff"/>
        </g>
      </g>
      <g data-type="innerShadowGroup">
        <path id="Path_126-2" data-name="Path 126" d="M224.178,159.983a7.492,7.492,0,1,1,7.627-7.479A7.553,7.553,0,0,1,224.178,159.983Z" transform="translate(-210.418 -145)" fill="#f2f2f2"/>
        <g transform="matrix(1, 0, 0, 1, -31.66, -24.93)" filter="url(#Path_126)">
          <path id="Path_126-3" data-name="Path 126" d="M224.178,159.983a7.492,7.492,0,1,1,7.627-7.479A7.553,7.553,0,0,1,224.178,159.983Z" transform="translate(-178.76 -120.07)" fill="#fff"/>
        </g>
      </g>
    </g>
  </g>
</svg>
