<svg xmlns="http://www.w3.org/2000/svg" width="9.802" height="22" viewBox="0 0 9.802 22">
  <g id="Group_332" data-name="Group 332" transform="translate(-593.415 -386.435)">
    <path id="Path_226" data-name="Path 226" d="M602.289,387.436a4.627,4.627,0,0,0-1.153-.5c-.59-.169-1.184-.325-1.776-.486a.4.4,0,0,0-.107-.015h0a.464.464,0,0,0-.274.2.364.364,0,0,0,.006.45,3.8,3.8,0,0,1,.289.439,1.18,1.18,0,0,0,.823.579,4.927,4.927,0,0,1,1.333.49c.251.141.378.349.136.566a3.11,3.11,0,0,1-2.078,1.092,1.953,1.953,0,0,0-1.184.34,1.36,1.36,0,0,1-1.208.146c-.227-.068-.442-.173-.676-.219-.227-.128-.418-.012-.612.09a4.011,4.011,0,0,0-1.892,2.256,9.474,9.474,0,0,0-.454,4.161c.044.572.191.8.625.818a.411.411,0,0,1,.386.338c.252,1.431.514,2.859.748,4.291.258,1.578.86,3.109.686,4.749a1.117,1.117,0,0,0,.416,1.056l.769.161c.663-.168.838-.649.837-1.256a23.205,23.205,0,0,1,.261-4.735,9.755,9.755,0,0,0,.172,1.179,14.614,14.614,0,0,1,.465,3.905.784.784,0,0,0,.547.854l1.242-.413a.915.915,0,0,0,.147-.514q-.019-4.536,0-9.072c0-.334-.117-.379-.415-.374-.769.011-1.541.008-2.308-.044a18.4,18.4,0,0,1-2.727-.308c-.2-.043-.5-.108-.485-.29.024-.407.445-.349.719-.442.157-.053.394-.137.357.195-.031.276.069.39.355.412,1.3.1,2.592.217,3.9.223.458,0,.627-.092.616-.6-.037-1.722,0-3.445-.024-5.168a.77.77,0,0,1,.482-.849,4.47,4.47,0,0,0,1.442-1.08A1.568,1.568,0,0,0,602.289,387.436Zm-6.813,9.269c-.831.2-.845.19-.839-.662a7.011,7.011,0,0,1,.481-2.817.412.412,0,0,1,.787.171c0,1.028,0,2.006.01,2.985C595.92,396.756,595.655,396.663,595.476,396.705Z" transform="translate(0 0)" fill="#f2f2f2"/>
    <circle id="Ellipse_51" data-name="Ellipse 51" cx="1.843" cy="1.843" r="1.843" transform="translate(595.743 386.665)" fill="#f2f2f2"/>
  </g>
</svg>
