<svg xmlns="http://www.w3.org/2000/svg" width="97.89" height="62.13" viewBox="0 0 97.89 62.13">
  <path id="Path_1038" data-name="Path 1038" d="M858.931,673.932A15.919,15.919,0,0,0,838.4,658.938a24.2,24.2,0,0,0-46.181,4.9c-.8-.082-1.462-.126-1.964-.126A17.952,17.952,0,0,0,772.3,681.66c0,9.914,5.654,17.35,14.282,21.171,2.382,1.055,9.058,2.141,17.654,2.784v-19.69H795.11l20.232-16.662,20.233,16.662h-9.125v20.169c20.658-.655,41.728-4.656,43.291-16v-.007a12.894,12.894,0,0,0-10.812-16.152Z" transform="translate(-772.299 -643.964)" fill="#fff"/>
</svg>
