<svg id="Group_1147" data-name="Group 1147" xmlns="http://www.w3.org/2000/svg" width="84.73" height="92.433" viewBox="0 0 84.73 92.433">
  <path id="Path_1024" data-name="Path 1024" d="M747.491,66.082v46.956H701.207l.066-70.064h30.812v-7.7H701.274a7.728,7.728,0,0,0-7.7,7.7V120a7.728,7.728,0,0,0,7.7,7.7h46.217a7.728,7.728,0,0,0,7.7-7.7V66.082Z" transform="translate(-693.571 -35.27)" fill="#f2f2f2"/>
  <path id="Path_1025" data-name="Path 1025" d="M761.229,42.974V39.122a3.864,3.864,0,0,0-3.852-3.852H734.269a3.864,3.864,0,0,0-3.852,3.852v15.4a3.864,3.864,0,0,0,3.852,3.852h23.108a3.863,3.863,0,0,0,3.852-3.851V50.677l7.7,7.7V35.27Zm-7.7,7.7h-15.4v-7.7h15.4Zm1.859-9.272H736.9V52.957h18.486Z" transform="translate(-684.201 -35.27)" fill="#f2f2f2"/>
  <g id="Group_1139" data-name="Group 1139" transform="translate(14.507 23.464)">
    <path id="Path_1026" data-name="Path 1026" d="M722.443,92.792c-5.371-.077-9.752-1.205-13.7-3.793a22.02,22.02,0,0,1-2.406-1.915,3.861,3.861,0,0,1-1.2-2.939,14.639,14.639,0,0,1,1-5.412,13.274,13.274,0,0,1,8.06-7.915,19.243,19.243,0,0,1,6.539-1.345,20.694,20.694,0,0,1,8.9,1.414,13.207,13.207,0,0,1,8.6,10.653c.115.661.231,1.323.3,1.989a4.489,4.489,0,0,1-1.866,4.189,22.369,22.369,0,0,1-10.5,4.658C724.715,92.606,723.238,92.706,722.443,92.792Z" transform="translate(-705.137 -50.042)" fill="#f2f2f2"/>
    <path id="Path_1027" data-name="Path 1027" d="M720.223,72.257a9.14,9.14,0,1,1,9.212-9.124A9.17,9.17,0,0,1,720.223,72.257Z" transform="translate(-703.603 -53.977)" fill="#f2f2f2"/>
  </g>
</svg>
