<svg xmlns="http://www.w3.org/2000/svg" width="64.129" height="75.123" viewBox="0 0 64.129 75.123">
  <g id="Group_884" data-name="Group 884" transform="translate(-310.105 -32.281)">
    <g id="Group_883" data-name="Group 883" opacity="0.33">
      <g id="Group_882" data-name="Group 882">
        <path id="Path_1389" data-name="Path 1389" d="M372.952,64.346a30.783,30.783,0,1,0-50.567,23.576l0,0,19.789,18.2,19.788-18.2,0,0A30.711,30.711,0,0,0,372.952,64.346Z" fill="#020202" stroke="#020202" stroke-miterlimit="10" stroke-width="0.082"/>
        <g id="Group_881" data-name="Group 881">
          <g id="Group_880" data-name="Group 880">
            <path id="Path_1390" data-name="Path 1390" d="M342.17,107.4a1.28,1.28,0,0,1-.869-.339l-19.788-18.2-.035-.033a32.065,32.065,0,1,1,41.383,0l-.035.033-19.788,18.2A1.28,1.28,0,0,1,342.17,107.4ZM323.327,87.052l18.843,17.327,18.843-17.328a1.358,1.358,0,0,1,.116-.111,29.5,29.5,0,1,0-37.919,0A1.126,1.126,0,0,1,323.327,87.052Z" fill="#020202"/>
          </g>
        </g>
      </g>
    </g>
  </g>
</svg>
