<svg xmlns="http://www.w3.org/2000/svg" xmlns:xlink="http://www.w3.org/1999/xlink" width="69.953" height="69.955" viewBox="0 0 69.953 69.955">
  <defs>
    <linearGradient id="linear-gradient" x1="0.154" y1="0.073" x2="0.715" y2="0.846" gradientUnits="objectBoundingBox">
       <stop offset="0" stop-color="#ff931e"/>
      <stop offset="0.193" stop-color="#fe971e"/>
      <stop offset="0.412" stop-color="#fea51e"/>
      <stop offset="0.643" stop-color="#fdbb1f"/>
      <stop offset="0.881" stop-color="#fcdb20"/>
      <stop offset="1" stop-color="#fcee21"/>
    </linearGradient>
    <clipPath id="clip-path">
      <path id="Path_1569" data-name="Path 1569" d="M400.975,587.191c0-3.612,6.367-3.955,6.519,0a29.035,29.035,0,0,0,28.577,28.578,28.578,28.578,0,1,0-22.562-46.125l7.522,7.516H400.975V557.107l7.973,7.973a34.976,34.976,0,1,1-7.973,22.111Zm23.4,4.389a2.262,2.262,0,0,1-2.238-2.287c0-.063,0-.125.009-.187a2.358,2.358,0,0,1,2.229-2.475h10.037V568.79s0-1.9,2.532-1.9,2.518,1.9,2.518,1.9v19.175a3.615,3.615,0,0,1-3.615,3.615H424.374Z" fill="url(#linear-gradient)"/>
    </clipPath>
  </defs>
  <g id="Group_1013" data-name="Group 1013" transform="translate(-400.975 -552.333)" clip-path="url(#clip-path)">
    <g id="icons_Time" data-name="icons Time">
      <g id="color_primary" data-name="color primary">
        <rect id="color_primary_copy" data-name="color primary copy" width="87.739" height="87.739" transform="translate(392.202 543.321)" fill="url(#linear-gradient)"/>
      </g>
    </g>
  </g>
</svg>
