<svg id="profile" xmlns="http://www.w3.org/2000/svg" width="33.234" height="42.494" viewBox="0 0 33.234 42.494">
  <path id="Path_125" data-name="Path 125" d="M220.612,202.254c-5.339-.075-9.695-1.2-13.617-3.77a21.737,21.737,0,0,1-2.392-1.9,3.835,3.835,0,0,1-1.189-2.921,14.562,14.562,0,0,1,.992-5.379,13.2,13.2,0,0,1,8.012-7.868,19.125,19.125,0,0,1,6.5-1.336,20.553,20.553,0,0,1,8.849,1.405,13.129,13.129,0,0,1,8.552,10.588c.114.657.228,1.316.3,1.978a4.462,4.462,0,0,1-1.855,4.163,22.235,22.235,0,0,1-10.441,4.631C222.871,202.069,221.4,202.168,220.612,202.254Z" transform="translate(-203.41 -159.759)" fill="#aaa"/>
  <path id="Path_126" data-name="Path 126" d="M225.681,163.171a9.086,9.086,0,1,1,9.157-9.07A9.115,9.115,0,0,1,225.681,163.171Z" transform="translate(-209.162 -145)" fill="#aaa"/>
</svg>
