<svg id="schedule" xmlns="http://www.w3.org/2000/svg" width="41.928" height="42.494" viewBox="0 0 41.928 42.494">
  <path id="Path_123" data-name="Path 123" d="M494.425,175.045H470.2a2.567,2.567,0,0,0-2.333,2.749V190.4a2.567,2.567,0,0,0,2.333,2.749h24.221a2.567,2.567,0,0,0,2.333-2.749V177.794A2.567,2.567,0,0,0,494.425,175.045Z" transform="translate(-461.145 -157.455)" fill="#aaa"/>
  <path id="Path_124" data-name="Path 124" d="M494.992,154.291h-3.58c-.037,3.465-1.754,6.255-3.866,6.255s-3.828-2.79-3.866-6.255h-13.3c0,.055,0,.109,0,.164,0,3.519-1.732,6.371-3.868,6.371s-3.868-2.852-3.868-6.371c0-.055,0-.109,0-.164h-3.72A3.229,3.229,0,0,0,456,157.75V187.5a3.229,3.229,0,0,0,2.936,3.459h36.057a3.229,3.229,0,0,0,2.936-3.459V157.75A3.229,3.229,0,0,0,494.992,154.291Zm.063,29.655a2.889,2.889,0,0,1-2.627,3.094H461.87a2.889,2.889,0,0,1-2.626-3.094V166.1a2.889,2.889,0,0,1,2.626-3.094h30.559a2.889,2.889,0,0,1,2.627,3.094Z" transform="translate(-456 -148.46)" fill="#aaa"/>
  <ellipse id="Ellipse_17" data-name="Ellipse 17" cx="3.31" cy="5.453" rx="3.31" ry="5.453" transform="translate(7.246)" fill="#aaa"/>
  <ellipse id="Ellipse_18" data-name="Ellipse 18" cx="3.31" cy="5.453" rx="3.31" ry="5.453" transform="translate(28.268)" fill="#aaa"/>
</svg>
