<svg xmlns="http://www.w3.org/2000/svg" width="36.5" height="36.5" viewBox="0 0 36.5 36.5">
  <g id="cancled" transform="translate(-6657 1009.696)">
    <ellipse id="Ellipse_164" data-name="Ellipse 164" cx="14.5" cy="12.5" rx="14.5" ry="12.5" transform="translate(6661 -1002.521)" fill="#fff"/>
    <path id="cancled-2" data-name="cancled" d="M20.5,2.32A18.25,18.25,0,1,0,38.75,20.57,18.252,18.252,0,0,0,20.5,2.32Zm8.824,24.4a.642.642,0,0,1,.188.457.626.626,0,0,1-.188.457L27.564,29.4a.633.633,0,0,1-.457.188.654.654,0,0,1-.457-.188L20.5,23.243l-6.144,6.168a.619.619,0,0,1-.457.188.654.654,0,0,1-.457-.188l-1.76-1.768a.642.642,0,0,1-.188-.457.626.626,0,0,1,.188-.457l6.168-6.192-6.184-6.11a.655.655,0,0,1,0-.921l1.76-1.768a.649.649,0,0,1,.913,0l6.168,6.086,6.168-6.086a.649.649,0,0,1,.913,0l1.76,1.768a.655.655,0,0,1,0,.921l-6.184,6.11,6.16,6.184Z" transform="translate(6654.75 -1012.016)" fill="#cc2121"/>
  </g>
</svg>
