<svg xmlns="http://www.w3.org/2000/svg" width="196.618" height="143.455" viewBox="0 0 196.618 143.455">
  <g id="logo_with_text_light" transform="translate(518.209 1894.689)">
    <g id="Group_1148" data-name="Group 1148" transform="translate(-462.489 -1893.689)">
      <g id="xone_logo" data-name="xone logo" transform="translate(0 0)">
        <g id="Group_1129" data-name="Group 1129">
          <g id="Group_1126" data-name="Group 1126">
            <g id="Group_1125" data-name="Group 1125">
              <path id="Path_1715" data-name="Path 1715" d="M159.458,103.714A42.589,42.589,0,1,0,89.5,136.208l-.006,0,27.378,25.079,27.378-25.079-.005,0A42.258,42.258,0,0,0,159.458,103.714Z" transform="translate(-74.28 -61.29)" fill="#f9a152" stroke="#fff" stroke-miterlimit="10" stroke-width="2"/>
            </g>
          </g>
        </g>
        <g id="Group_1131" data-name="Group 1131" transform="translate(42.485 1.484)">
          <g id="Group_1130" data-name="Group 1130">
            <path id="Path_1717" data-name="Path 1717" d="M346.927,108.98c0-22.605-18.631-40.93-41.615-40.93,8.794,0,15.923,18.325,15.923,40.93,0,12.586-2.212,23.841-5.69,31.348l0,0L305.31,164.526l26.754-24.195-.006,0A40.564,40.564,0,0,0,346.927,108.98Z" transform="translate(-305.31 -68.05)" fill="#f36d40"/>
          </g>
        </g>
        <g id="Group_1135" data-name="Group 1135" transform="translate(34.206 14.672)">
          <g id="Group_1134" data-name="Group 1134">
            <g id="Group_1132" data-name="Group 1132">
              <circle id="Ellipse_153" data-name="Ellipse 153" cx="9.17" cy="9.17" r="9.17" stroke="#fff" stroke-width="2"/>
              <circle id="Ellipse_154" data-name="Ellipse 154" cx="9.17" cy="9.17" r="9.17" fill="rgba(0,0,0,0)" stroke="#fff" stroke-miterlimit="10" stroke-width="2"/>
            </g>
            <g id="Group_1133" data-name="Group 1133" opacity="0.33">
              <circle id="Ellipse_155" data-name="Ellipse 155" cx="9.17" cy="9.17" r="9.17" fill="#010101" stroke="#fff" stroke-width="2"/>
              <circle id="Ellipse_156" data-name="Ellipse 156" cx="9.17" cy="9.17" r="9.17" fill="rgba(0,0,0,0)" stroke="#fff" stroke-miterlimit="10" stroke-width="2"/>
            </g>
          </g>
        </g>
        <g id="Group_1139" data-name="Group 1139" transform="translate(19.944 31.481)">
          <g id="Group_1138" data-name="Group 1138" transform="translate(0 0)">
            <g id="Group_1136" data-name="Group 1136">
              <path id="Path_1718" data-name="Path 1718" d="M181.954,239.043l5.8-5.095a1.169,1.169,0,0,1,1.759.255l5.313,8.454a1.168,1.168,0,0,0,1.5.43l22.221-10.727a1.167,1.167,0,0,1,1.3,1.91l-25.808,23.769a1.168,1.168,0,0,1-1.789-.252l-10.524-17.26A1.168,1.168,0,0,1,181.954,239.043Z" transform="translate(-181.556 -232.234)" stroke="#fff" stroke-width="2"/>
              <path id="Path_1719" data-name="Path 1719" d="M181.954,239.043l5.8-5.095a1.169,1.169,0,0,1,1.759.255l5.313,8.454a1.168,1.168,0,0,0,1.5.43l22.221-10.727a1.167,1.167,0,0,1,1.3,1.91l-25.808,23.769a1.168,1.168,0,0,1-1.789-.252l-10.524-17.26A1.168,1.168,0,0,1,181.954,239.043Z" transform="translate(-181.556 -232.234)" fill="none" stroke="#fff" stroke-miterlimit="10" stroke-width="2"/>
            </g>
            <g id="Group_1137" data-name="Group 1137" opacity="0.33">
              <path id="Path_1720" data-name="Path 1720" d="M181.954,239.043l5.8-5.095a1.169,1.169,0,0,1,1.759.255l5.313,8.454a1.168,1.168,0,0,0,1.5.43l22.221-10.727a1.167,1.167,0,0,1,1.3,1.91l-25.808,23.769a1.168,1.168,0,0,1-1.789-.252l-10.524-17.26A1.168,1.168,0,0,1,181.954,239.043Z" transform="translate(-181.556 -232.234)" fill="#010101" stroke="#fff" stroke-width="2"/>
              <path id="Path_1721" data-name="Path 1721" d="M181.954,239.043l5.8-5.095a1.169,1.169,0,0,1,1.759.255l5.313,8.454a1.168,1.168,0,0,0,1.5.43l22.221-10.727a1.167,1.167,0,0,1,1.3,1.91l-25.808,23.769a1.168,1.168,0,0,1-1.789-.252l-10.524-17.26A1.168,1.168,0,0,1,181.954,239.043Z" transform="translate(-181.556 -232.234)" fill="none" stroke="#fff" stroke-miterlimit="10" stroke-width="2"/>
            </g>
          </g>
        </g>
        <g id="Group_1143" data-name="Group 1143" transform="translate(21.974 48.988)">
          <g id="Group_1142" data-name="Group 1142">
            <g id="Group_1140" data-name="Group 1140">
              <path id="Path_1722" data-name="Path 1722" d="M233.448,349.758l-10.773-20.81a1.437,1.437,0,0,0-2.174-.461l-27.448,21.672c.887,1.524-.523.358-.439.483a1.188,1.188,0,0,0,1.262.472l22.786-5.581a1.436,1.436,0,0,1,1.8.658l6.052,11.31.011.035.042.066.061.112.147-.112h7.774a1.441,1.441,0,0,0,1.269-.755q1.118-2.077,2.191-4.224a1.439,1.439,0,0,0-1.286-2.085h0A1.439,1.439,0,0,1,233.448,349.758Z" transform="translate(-192.61 -328.171)" stroke="#707070" stroke-width="2"/>
              <path id="Path_1723" data-name="Path 1723" d="M233.448,349.758l-10.773-20.81a1.437,1.437,0,0,0-2.174-.461l-27.448,21.672c.887,1.524-.523.358-.439.483a1.188,1.188,0,0,0,1.262.472l22.786-5.581a1.436,1.436,0,0,1,1.8.658l6.052,11.31.011.035.042.066.061.112.147-.112h7.774a1.441,1.441,0,0,0,1.269-.755q1.118-2.077,2.191-4.224a1.439,1.439,0,0,0-1.286-2.085h0A1.439,1.439,0,0,1,233.448,349.758Z" transform="translate(-192.61 -328.171)" fill="none" stroke="#fff" stroke-miterlimit="10" stroke-width="2"/>
            </g>
            <g id="Group_1141" data-name="Group 1141" opacity="0.33">
              <path id="Path_1724" data-name="Path 1724" d="M233.448,349.758l-10.773-20.81a1.437,1.437,0,0,0-2.174-.461l-27.448,21.672c.887,1.524-.523.358-.439.483a1.188,1.188,0,0,0,1.262.472l22.786-5.581a1.436,1.436,0,0,1,1.8.658l6.052,11.31.011.035.042.066.061.112.147-.112h7.774a1.441,1.441,0,0,0,1.269-.755q1.118-2.077,2.191-4.224a1.439,1.439,0,0,0-1.286-2.085h0A1.439,1.439,0,0,1,233.448,349.758Z" transform="translate(-192.61 -328.171)" fill="#010101" stroke="#707070" stroke-width="2"/>
              <path id="Path_1725" data-name="Path 1725" d="M233.448,349.758l-10.773-20.81a1.437,1.437,0,0,0-2.174-.461l-27.448,21.672c.887,1.524-.523.358-.439.483a1.188,1.188,0,0,0,1.262.472l22.786-5.581a1.436,1.436,0,0,1,1.8.658l6.052,11.31.011.035.042.066.061.112.147-.112h7.774a1.441,1.441,0,0,0,1.269-.755q1.118-2.077,2.191-4.224a1.439,1.439,0,0,0-1.286-2.085h0A1.439,1.439,0,0,1,233.448,349.758Z" transform="translate(-192.61 -328.171)" fill="none" stroke="#fff" stroke-miterlimit="10" stroke-width="2"/>
            </g>
          </g>
        </g>
        <g id="Group_1147" data-name="Group 1147" transform="translate(21.184 34.841)">
          <g id="Group_1146" data-name="Group 1146">
            <g id="Group_1144" data-name="Group 1144">
              <path id="Path_1726" data-name="Path 1726" d="M227.023,251.279l-38.188,34.838a1.566,1.566,0,0,0,1.849,2.507l30.067-17.7a1.564,1.564,0,0,0,.621-.68l8.121-17.137A1.566,1.566,0,0,0,227.023,251.279Z" transform="translate(-188.308 -250.858)" fill="#fff"/>
            </g>
            <g id="Group_1145" data-name="Group 1145" opacity="0.33">
              <path id="Path_1727" data-name="Path 1727" d="M227.023,251.279l-38.188,34.838a1.566,1.566,0,0,0,1.849,2.507l30.067-17.7a1.564,1.564,0,0,0,.621-.68l8.121-17.137A1.566,1.566,0,0,0,227.023,251.279Z" transform="translate(-188.308 -250.858)" fill="#fff"/>
            </g>
          </g>
        </g>
      </g>
    </g>
    <g id="Layer_x0020_1" transform="translate(-518.209 -1775.873)">
      <path id="Path_1728" data-name="Path 1728" d="M307.25,85.518c6.08-1.557,8.273,7.811,2.118,9.173C303.495,95.989,301.145,87.082,307.25,85.518Zm-.4-4.8a9.492,9.492,0,1,0,10.873,7.768A9.419,9.419,0,0,0,306.849,80.721Z" transform="translate(-278.193 -75.004)" fill="#fff" fill-rule="evenodd"/>
      <path id="Path_1729" data-name="Path 1729" d="M916.553,92.038c2.69-.046,6.219.629,6.309-2.345.094-3.114-3.638-2.424-6.315-2.459a4.1,4.1,0,0,1,3.7-2.309c2.654-.11,2.87,1.283,4.317,1.636a2.387,2.387,0,0,0,2.935-2.715c-.191-1.3-1.733-2.268-3.052-2.865a9.479,9.479,0,0,0-13.439,8.559c-.044,6.528,6.673,11.8,13.328,8.776,5.658-2.571,2.6-6.178.164-5.54-1.439.377-1.747,1.674-4.24,1.563a4.134,4.134,0,0,1-3.706-2.3Z" transform="translate(-847.998 -74.552)" fill="#fff" fill-rule="evenodd"/>
      <path id="Path_1730" data-name="Path 1730" d="M9.716,89.446c-.883-.631-3.285-4.806-3.9-4.983H.185c.532,1.316,5.99,8.011,6.412,9.144-.774,1.451-6.224,8.249-6.6,9.331l5.781.007c.644-.792,1.282-1.738,1.9-2.606A11.9,11.9,0,0,1,9.673,97.8c.714.841,1.233,1.668,1.849,2.519s1.306,1.745,1.894,2.623l5.78,0c-.2-.889-5.748-7.8-6.573-9.336.291-.726,2.621-3.715,3.224-4.562.523-.735,3.09-4.074,3.152-4.581l-5.727,0L9.716,89.446Z" transform="translate(0 -78.619)" fill="#fff" fill-rule="evenodd"/>
      <path id="Path_1731" data-name="Path 1731" d="M640.1,96.951l4.739.023c.318-2.587.053-7.224.046-10,0-1.831-.008-3.048,1.353-3.71a2.366,2.366,0,0,1,3.334,1.414c.391,1.252.071,7.948.13,9.852.113,3.606,4.787,3.695,4.787-.175V85.8a7.2,7.2,0,0,0-10.372-6.833c-1.081.555-.8.873-1.939.19a10.711,10.711,0,0,0-2.08-1.1v18.9Z" transform="translate(-595.828 -72.652)" fill="#fff" fill-rule="evenodd"/>
      <path id="Path_1732" data-name="Path 1732" d="M2146.1,110.524c0-1.921,1.856-3.3,3.824-3.3a3.634,3.634,0,0,1,3.819,3.3H2146.1Zm10.884,6.84c-.979-.8-1.469-1.786-2.362-2.392-1.14.572-2.028,1.8-5,1.377a3.937,3.937,0,0,1-3.509-3.116l11.95-.028c1.957-10.175-12.763-12.793-15.983-4.621-2.592,6.577,2.435,12.27,9.8,11.465C2153.952,119.824,2156.444,118.8,2156.987,117.365Z" transform="translate(-1993.284 -96.575)" fill="#fff" fill-rule="evenodd"/>
      <path id="Path_1733" data-name="Path 1733" d="M1864.833,105.438l-.066-1.65-4.409-.046-.019,15.881,4.588.027c.692-4.254-1.834-11.914,3.593-12.16,5.559-.252,2.62,7.547,3.56,12.158l4.541-.01c.2-2.159.029-5.1.032-7.307,0-4.061-.5-8.567-6.121-8.822-3-.136-4.017.728-5.7,1.928Z" transform="translate(-1731.671 -96.338)" fill="#fff" fill-rule="evenodd"/>
      <path id="Path_1734" data-name="Path 1734" d="M2636.961,114.227c-.283,1.066-1.2,2.312-1.3,3.287,5.609,3.554,16.111,1.424,14.063-4.819-1.363-4.155-8.329-2.611-9.284-4.442-.381-1.86,1.628-2.027,3.293-1.961a11.04,11.04,0,0,1,4.163,1.141,15.418,15.418,0,0,0,1.406-3.366c-2.951-1.132-6.439-1.923-9.79-.681-4.1,1.52-4.3,5.407-2.611,7.373,2.063,2.394,7.948,1.608,8.549,3.2.688,1.818-2.768,1.8-3.891,1.691-2.252-.216-2.995-1-4.6-1.421Z" transform="translate(-2453.366 -95.648)" fill="#fff" fill-rule="evenodd"/>
      <path id="Path_1735" data-name="Path 1735" d="M2409.1,114.455a14.392,14.392,0,0,0-1.534,3.325c2.99,1.207,5.87,2.232,9.809,1.3a6.7,6.7,0,0,0,3.684-2.158,4.568,4.568,0,0,0,.374-4.66c-1.719-3.145-5.929-1.942-8.425-3.334-1.952-1.089.1-4.079,6.831-1.3a20.143,20.143,0,0,0,1.452-3.31c-2.927-1.2-6.42-1.962-9.88-.712-3.787,1.367-4.382,5.256-2.556,7.3,2.171,2.435,7.756,1.728,8.5,3.09,1.013,1.861-2.447,1.958-3.723,1.852-2.172-.181-2.933-.811-4.528-1.4Z" transform="translate(-2241.052 -95.844)" fill="#fff" fill-rule="evenodd"/>
      <path id="Path_1736" data-name="Path 1736" d="M1320.706,22.234l-2.417.074-.019,3.56,2.445.024.022,11.983h4.592l.025-12.008,3.952-.009.028-3.509-4.065-.062c-.112-1.029-.028-2.168.864-2.693,1.115-.655,2.235-.06,3.076.224l1.21-3.339a7.821,7.821,0,0,0-6.94-.042c-2.139,1.132-2.528,2.868-2.773,5.795Z" transform="translate(-1227.093 -14.565)" fill="#fff" fill-rule="evenodd"/>
      <path id="Path_1737" data-name="Path 1737" d="M1649.365,59.864l-2.444.016-.011,3.508,2.425.049c.429,4.407-1.77,11.467,4.92,12.186a6.781,6.781,0,0,0,4.735-.957,10.439,10.439,0,0,0-1.221-3.165c-1.711.744-3.639.84-3.767-1.55-.1-1.835-.093-4.606.015-6.438l3.913-.089.048-3.559-3.954-.014-.041-3.85H1649.4Z" transform="translate(-1533.003 -52.127)" fill="#fff" fill-rule="evenodd"/>
      <path id="Path_1738" data-name="Path 1738" d="M1545.58,122.842l4.548.055.066-15.917-4.6.019Z" transform="translate(-1438.681 -99.581)" fill="#fff" fill-rule="evenodd"/>
      <path id="Path_1739" data-name="Path 1739" d="M1539.636.128c-3.451.818-2.415,5.737,1.558,4.947C1544.483,4.421,1543.757-.849,1539.636.128Z" transform="translate(-1431.204 -0.008)" fill="#fff" fill-rule="evenodd"/>
    </g>
  </g>
</svg>
