<svg xmlns="http://www.w3.org/2000/svg" width="812.209" height="594.967" viewBox="0 0 812.209 594.967">
  <g id="Group_1149" data-name="Group 1149" transform="translate(518.209 1900.189)">
    <g id="Group_1148" data-name="Group 1148" transform="translate(1088.859 -363.09)">
      <g id="xone_logo" data-name="xone logo" transform="translate(-1375.895 -1529.6)">
        <g id="Group_1129" data-name="Group 1129" transform="translate(-1 -1)">
          <g id="Group_1126" data-name="Group 1126">
            <g id="Group_1125" data-name="Group 1125">
              <path id="Path_1715" data-name="Path 1715" d="M426.144,236.541c0-96.789-78.765-175.251-175.928-175.251S74.28,139.752,74.28,236.541A174.581,174.581,0,0,0,137.136,370.77l-.023.015,113.1,103.6,113.1-103.6-.023-.015A174.563,174.563,0,0,0,426.144,236.541Z" transform="translate(-74.28 -61.29)" fill="#f9a152" stroke="#fff" stroke-miterlimit="10" stroke-width="13"/>
            </g>
          </g>
        </g>
        <g id="Group_1131" data-name="Group 1131" transform="translate(174.502 5.129)">
          <g id="Group_1130" data-name="Group 1130">
            <path id="Path_1717" data-name="Path 1717" d="M477.224,237.129c0-93.38-76.964-169.079-171.907-169.079,36.329,0,65.777,75.7,65.777,169.079,0,51.99-9.138,98.485-23.5,129.494l.008.015L305.31,466.584l110.52-99.947-.023-.015C453.348,335.614,477.224,289.126,477.224,237.129Z" transform="translate(-305.31 -68.05)" fill="#f36d40"/>
          </g>
        </g>
        <g id="Group_1135" data-name="Group 1135" transform="translate(140.301 59.609)">
          <g id="Group_1134" data-name="Group 1134">
            <g id="Group_1132" data-name="Group 1132">
              <circle id="Ellipse_153" data-name="Ellipse 153" cx="37.88" cy="37.88" r="37.88" stroke="#fff" stroke-width="5"/>
              <circle id="Ellipse_154" data-name="Ellipse 154" cx="37.88" cy="37.88" r="37.88" fill="rgba(0,0,0,0)" stroke="#fff" stroke-miterlimit="10" stroke-width="5"/>
            </g>
            <g id="Group_1133" data-name="Group 1133" opacity="0.33">
              <circle id="Ellipse_155" data-name="Ellipse 155" cx="37.88" cy="37.88" r="37.88" fill="#010101" stroke="#fff" stroke-width="5"/>
              <circle id="Ellipse_156" data-name="Ellipse 156" cx="37.88" cy="37.88" r="37.88" fill="rgba(0,0,0,0)" stroke="#fff" stroke-miterlimit="10" stroke-width="5"/>
            </g>
          </g>
        </g>
        <g id="Group_1139" data-name="Group 1139" transform="translate(45.615 93.246)">
          <g id="Group_1138" data-name="Group 1138" transform="translate(35.772 35.801)">
            <g id="Group_1136" data-name="Group 1136">
              <path id="Path_1718" data-name="Path 1718" d="M183.2,260.362l23.974-21.046a4.828,4.828,0,0,1,7.268,1.055l21.948,34.922a4.823,4.823,0,0,0,6.183,1.775l91.792-44.314a4.822,4.822,0,0,1,5.364,7.89L233.118,338.832a4.823,4.823,0,0,1-7.389-1.039l-43.472-71.3A4.826,4.826,0,0,1,183.2,260.362Z" transform="translate(-181.556 -232.234)" stroke="#fff" stroke-width="5"/>
              <path id="Path_1719" data-name="Path 1719" d="M183.2,260.362l23.974-21.046a4.828,4.828,0,0,1,7.268,1.055l21.948,34.922a4.823,4.823,0,0,0,6.183,1.775l91.792-44.314a4.822,4.822,0,0,1,5.364,7.89L233.118,338.832a4.823,4.823,0,0,1-7.389-1.039l-43.472-71.3A4.826,4.826,0,0,1,183.2,260.362Z" transform="translate(-181.556 -232.234)" fill="none" stroke="#fff" stroke-miterlimit="10" stroke-width="5"/>
            </g>
            <g id="Group_1137" data-name="Group 1137" opacity="0.33">
              <path id="Path_1720" data-name="Path 1720" d="M183.2,260.362l23.974-21.046a4.828,4.828,0,0,1,7.268,1.055l21.948,34.922a4.823,4.823,0,0,0,6.183,1.775l91.792-44.314a4.822,4.822,0,0,1,5.364,7.89L233.118,338.832a4.823,4.823,0,0,1-7.389-1.039l-43.472-71.3A4.826,4.826,0,0,1,183.2,260.362Z" transform="translate(-181.556 -232.234)" fill="#010101" stroke="#fff" stroke-width="5"/>
              <path id="Path_1721" data-name="Path 1721" d="M183.2,260.362l23.974-21.046a4.828,4.828,0,0,1,7.268,1.055l21.948,34.922a4.823,4.823,0,0,0,6.183,1.775l91.792-44.314a4.822,4.822,0,0,1,5.364,7.89L233.118,338.832a4.823,4.823,0,0,1-7.389-1.039l-43.472-71.3A4.826,4.826,0,0,1,183.2,260.362Z" transform="translate(-181.556 -232.234)" fill="none" stroke="#fff" stroke-miterlimit="10" stroke-width="5"/>
            </g>
          </g>
        </g>
        <g id="Group_1143" data-name="Group 1143" transform="translate(89.774 201.365)">
          <g id="Group_1142" data-name="Group 1142">
            <g id="Group_1140" data-name="Group 1140">
              <path id="Path_1722" data-name="Path 1722" d="M361.308,417.345l-44.5-85.965a5.937,5.937,0,0,0-8.983-1.9L194.438,419c3.664,6.3-2.162,1.479-1.813,2a4.909,4.909,0,0,0,5.212,1.95l94.128-23.056A5.931,5.931,0,0,1,299.4,402.6l25,46.719.046.144.174.273.25.463.607-.463h32.115a5.952,5.952,0,0,0,5.242-3.118q4.62-8.581,9.051-17.449a5.946,5.946,0,0,0-5.311-8.611h0A5.945,5.945,0,0,1,361.308,417.345Z" transform="translate(-192.61 -328.171)"/>
              <path id="Path_1723" data-name="Path 1723" d="M361.308,417.345l-44.5-85.965a5.937,5.937,0,0,0-8.983-1.9L194.438,419c3.664,6.3-2.162,1.479-1.813,2a4.909,4.909,0,0,0,5.212,1.95l94.128-23.056A5.931,5.931,0,0,1,299.4,402.6l25,46.719.046.144.174.273.25.463.607-.463h32.115a5.952,5.952,0,0,0,5.242-3.118q4.62-8.581,9.051-17.449a5.946,5.946,0,0,0-5.311-8.611h0A5.945,5.945,0,0,1,361.308,417.345Z" transform="translate(-192.61 -328.171)" fill="none" stroke="#fff" stroke-miterlimit="10" stroke-width="5"/>
            </g>
            <g id="Group_1141" data-name="Group 1141" opacity="0.33">
              <path id="Path_1724" data-name="Path 1724" d="M361.308,417.345l-44.5-85.965a5.937,5.937,0,0,0-8.983-1.9L194.438,419c3.664,6.3-2.162,1.479-1.813,2a4.909,4.909,0,0,0,5.212,1.95l94.128-23.056A5.931,5.931,0,0,1,299.4,402.6l25,46.719.046.144.174.273.25.463.607-.463h32.115a5.952,5.952,0,0,0,5.242-3.118q4.62-8.581,9.051-17.449a5.946,5.946,0,0,0-5.311-8.611h0A5.945,5.945,0,0,1,361.308,417.345Z" transform="translate(-192.61 -328.171)" fill="#010101"/>
              <path id="Path_1725" data-name="Path 1725" d="M361.308,417.345l-44.5-85.965a5.937,5.937,0,0,0-8.983-1.9L194.438,419c3.664,6.3-2.162,1.479-1.813,2a4.909,4.909,0,0,0,5.212,1.95l94.128-23.056A5.931,5.931,0,0,1,299.4,402.6l25,46.719.046.144.174.273.25.463.607-.463h32.115a5.952,5.952,0,0,0,5.242-3.118q4.62-8.581,9.051-17.449a5.946,5.946,0,0,0-5.311-8.611h0A5.945,5.945,0,0,1,361.308,417.345Z" transform="translate(-192.61 -328.171)" fill="none" stroke="#fff" stroke-miterlimit="10" stroke-width="5"/>
            </g>
          </g>
        </g>
        <g id="Group_1147" data-name="Group 1147" transform="translate(86.51 142.923)">
          <g id="Group_1146" data-name="Group 1146">
            <g id="Group_1144" data-name="Group 1144">
              <path id="Path_1726" data-name="Path 1726" d="M348.237,252.6,190.487,396.509c-5.743,5.235.941,14.293,7.64,10.356l124.2-73.121a6.463,6.463,0,0,0,2.564-2.807l33.548-70.792C361.484,253.735,353.48,247.817,348.237,252.6Z" transform="translate(-188.308 -250.858)" fill="#fff"/>
            </g>
            <g id="Group_1145" data-name="Group 1145" opacity="0.33">
              <path id="Path_1727" data-name="Path 1727" d="M348.237,252.6,190.487,396.509c-5.743,5.235.941,14.293,7.64,10.356l124.2-73.121a6.463,6.463,0,0,0,2.564-2.807l33.548-70.792C361.484,253.735,353.48,247.817,348.237,252.6Z" transform="translate(-188.308 -250.858)" fill="#fff"/>
            </g>
          </g>
        </g>
      </g>
    </g>
    <g id="Layer_x0020_1" transform="translate(-518.209 -1407.008)">
      <path id="Path_1728" data-name="Path 1728" d="M333.508,100.991c25.117-6.431,34.177,32.268,8.748,37.891C317.994,144.245,308.286,107.451,333.508,100.991Zm-1.66-19.817c-19.534,3.36-36.528,21.2-32.345,45.582,3.3,19.243,22.14,35.957,45.677,31.691,19.005-3.443,35.542-21.585,31.585-45.185C373.5,93.831,355.076,77.174,331.848,81.174Z" transform="translate(-213.475 -57.549)" fill="#fff" fill-rule="evenodd"/>
      <path id="Path_1729" data-name="Path 1729" d="M933.916,129.442c11.114-.191,25.688,2.6,26.063-9.688.389-12.866-15.028-10.014-26.085-10.16,1.811-4.837,7.786-9.226,15.274-9.537,10.963-.454,11.857,5.3,17.834,6.757A9.862,9.862,0,0,0,979.127,95.6c-.789-5.386-7.16-9.368-12.606-11.837-27.254-12.351-55.334,8.263-55.514,35.357-.18,26.968,27.565,48.751,55.057,36.254,23.371-10.62,10.743-25.52.677-22.885-5.943,1.557-7.217,6.914-17.514,6.457-7.234-.32-13.494-4.54-15.308-9.5Z" transform="translate(-650.722 -57.203)" fill="#fff" fill-rule="evenodd"/>
      <path id="Path_1730" data-name="Path 1730" d="M40.134,105.057c-3.646-2.609-13.568-19.854-16.12-20.585H.766c2.2,5.437,24.743,33.094,26.485,37.774C24.054,128.24,1.54,156.322,0,160.791l23.88.029c2.66-3.271,5.3-7.18,7.837-10.766,1.651-2.331,6.011-9.4,8.24-10.5,2.951,3.474,5.094,6.891,7.637,10.406,2.529,3.5,5.394,7.208,7.826,10.837l23.877.02c-.846-3.671-23.745-32.234-27.154-38.568,1.2-3,10.826-15.346,13.32-18.846,2.16-3.037,12.763-16.831,13.02-18.925L54.825,84.46l-14.691,20.6Z" transform="translate(0 -60.323)" fill="#fff" fill-rule="evenodd"/>
      <path id="Path_1731" data-name="Path 1731" d="M640.109,156.126l19.577.094c1.314-10.686.217-29.843.191-41.325-.017-7.563-.031-12.591,5.589-15.326a9.773,9.773,0,0,1,13.774,5.843c1.617,5.171.294,32.831.537,40.7.466,14.894,19.774,15.263,19.774-.723l0-35.345c0-26.783-25.885-36.931-42.845-28.225-4.466,2.291-3.291,3.606-8.008.786-2.311-1.383-6.029-3.846-8.594-4.554l.006,78.079Z" transform="translate(-457.216 -55.745)" fill="#fff" fill-rule="evenodd"/>
      <path id="Path_1732" data-name="Path 1732" d="M2160.852,131.733c.011-7.934,7.666-13.617,15.8-13.626,8.083-.011,15.671,5.709,15.777,13.628l-31.577,0Zm44.962,28.257c-4.046-3.3-6.068-7.377-9.757-9.883-4.709,2.363-8.377,7.448-20.66,5.689-7.3-1.051-13.214-5.749-14.494-12.871l49.365-.114c8.086-42.031-52.722-52.848-66.025-19.088-10.708,27.168,10.057,50.685,40.474,47.359C2193.277,170.147,2203.571,165.924,2205.814,159.99Z" transform="translate(-1529.573 -74.102)" fill="#fff" fill-rule="evenodd"/>
      <path id="Path_1733" data-name="Path 1733" d="M1878.9,111.52l-.271-6.814-18.211-.189-.077,65.6,18.951.111c2.857-17.571-7.577-49.217,14.84-50.234,22.963-1.043,10.823,31.177,14.706,50.225l18.76-.04c.817-8.92.12-21.057.131-30.185.02-16.777-2.08-35.391-25.285-36.442-12.406-.563-16.594,3.009-23.545,7.963Z" transform="translate(-1328.82 -73.92)" fill="#fff" fill-rule="evenodd"/>
      <path id="Path_1734" data-name="Path 1734" d="M2641.034,150.147c-1.168,4.4-4.96,9.551-5.374,13.577,23.171,14.68,66.553,5.883,58.094-19.908-5.631-17.163-34.405-10.786-38.351-18.351-1.572-7.683,6.726-8.371,13.6-8.1,8.1.32,10.94,2.471,17.194,4.711,1.557-3.354,5.5-10.457,5.808-13.906-12.191-4.674-26.6-7.946-40.442-2.814-16.934,6.28-17.78,22.337-10.786,30.457,8.523,9.888,32.834,6.643,35.317,13.211,2.84,7.511-11.434,7.434-16.074,6.986-9.3-.891-12.371-4.129-18.988-5.868Z" transform="translate(-1882.623 -73.391)" fill="#fff" fill-rule="evenodd"/>
      <path id="Path_1735" data-name="Path 1735" d="M2413.907,150.429c-1.849,2.22-5.943,11.6-6.337,13.737,12.351,4.986,24.248,9.22,40.52,5.357,6.471-1.537,12.448-5.123,15.217-8.914,3.608-4.934,4.937-13.037,1.543-19.251-7.1-12.991-24.491-8.023-34.8-13.771-8.063-4.5.409-16.851,28.22-5.354,1.226-2.331,5.723-11.274,6-13.671-12.091-4.977-26.52-8.106-40.814-2.943-15.646,5.648-18.1,21.714-10.557,30.171,8.969,10.057,32.037,7.14,35.094,12.763,4.183,7.688-10.108,8.088-15.38,7.651-8.971-.746-12.117-3.351-18.706-5.771Z" transform="translate(-1719.701 -73.541)" fill="#fff" fill-rule="evenodd"/>
      <path id="Path_1736" data-name="Path 1736" d="M1328.333,42.861l-9.983.306-.08,14.706,10.1.1.091,49.5h18.968l.1-49.605,16.326-.037.117-14.494-16.791-.254c-.463-4.251-.114-8.954,3.568-11.123,4.609-2.706,9.231-.249,12.706.926l5-13.791c-8.98-4.3-19.891-4.82-28.668-.174-8.834,4.674-10.443,11.846-11.454,23.937Z" transform="translate(-941.626 -11.17)" fill="#fff" fill-rule="evenodd"/>
      <path id="Path_1737" data-name="Path 1737" d="M1657.05,71.96l-10.094.066-.046,14.491,10.017.2c1.774,18.206-7.311,47.368,20.325,50.339,7.111.763,15.123-.28,19.56-3.954-.451-3.214-3.408-11.028-5.046-13.074-7.068,3.074-15.031,3.469-15.563-6.4-.409-7.58-.386-19.025.06-26.6l16.165-.369.2-14.7-16.331-.057L1676.127,56H1657.2l-.149,15.96Z" transform="translate(-1176.37 -39.994)" fill="#fff" fill-rule="evenodd"/>
      <path id="Path_1738" data-name="Path 1738" d="M1545.58,172.5l18.786.226.271-65.751-19.023.077Z" transform="translate(-1103.991 -76.409)" fill="#fff" fill-rule="evenodd"/>
      <path id="Path_1739" data-name="Path 1739" d="M1546.177.506c-14.257,3.38-9.974,23.7,6.437,20.434C1566.2,18.237,1563.2-3.531,1546.177.506Z" transform="translate(-1098.253 0)" fill="#fff" fill-rule="evenodd"/>
    </g>
  </g>
</svg>
