<svg xmlns="http://www.w3.org/2000/svg" width="364.864" height="428.408" viewBox="0 0 364.864 428.408">
  <g id="Group_1148" data-name="Group 1148" transform="translate(1383.395 1537.1)">
    <g id="xone_logo" data-name="xone logo" transform="translate(-1375.895 -1529.6)">
      <g id="Group_1129" data-name="Group 1129" transform="translate(-1 -1)">
        <g id="Group_1126" data-name="Group 1126">
          <g id="Group_1125" data-name="Group 1125">
            <path id="Path_1715" data-name="Path 1715" d="M426.144,236.541c0-96.789-78.765-175.251-175.928-175.251S74.28,139.752,74.28,236.541A174.581,174.581,0,0,0,137.136,370.77l-.023.015,113.1,103.6,113.1-103.6-.023-.015A174.563,174.563,0,0,0,426.144,236.541Z" transform="translate(-74.28 -61.29)" fill="#f9a152" stroke="#fff" stroke-miterlimit="10" stroke-width="13"/>
          </g>
        </g>
      </g>
      <g id="Group_1131" data-name="Group 1131" transform="translate(174.502 5.129)">
        <g id="Group_1130" data-name="Group 1130">
          <path id="Path_1717" data-name="Path 1717" d="M477.224,237.129c0-93.38-76.964-169.079-171.907-169.079,36.329,0,65.777,75.7,65.777,169.079,0,51.99-9.138,98.485-23.5,129.494l.008.015L305.31,466.584l110.52-99.947-.023-.015C453.348,335.614,477.224,289.126,477.224,237.129Z" transform="translate(-305.31 -68.05)" fill="#f36d40"/>
        </g>
      </g>
      <g id="Group_1135" data-name="Group 1135" transform="translate(140.301 59.609)">
        <g id="Group_1134" data-name="Group 1134">
          <g id="Group_1132" data-name="Group 1132">
            <circle id="Ellipse_153" data-name="Ellipse 153" cx="37.88" cy="37.88" r="37.88" stroke="#fff" stroke-width="5"/>
            <circle id="Ellipse_154" data-name="Ellipse 154" cx="37.88" cy="37.88" r="37.88" fill="rgba(0,0,0,0)" stroke="#fff" stroke-miterlimit="10" stroke-width="5"/>
          </g>
          <g id="Group_1133" data-name="Group 1133" opacity="0.33">
            <circle id="Ellipse_155" data-name="Ellipse 155" cx="37.88" cy="37.88" r="37.88" fill="#010101" stroke="#fff" stroke-width="5"/>
            <circle id="Ellipse_156" data-name="Ellipse 156" cx="37.88" cy="37.88" r="37.88" fill="rgba(0,0,0,0)" stroke="#fff" stroke-miterlimit="10" stroke-width="5"/>
          </g>
        </g>
      </g>
      <g id="Group_1139" data-name="Group 1139" transform="translate(45.615 93.246)">
        <g id="Group_1138" data-name="Group 1138" transform="translate(35.772 35.801)">
          <g id="Group_1136" data-name="Group 1136">
            <path id="Path_1718" data-name="Path 1718" d="M183.2,260.362l23.974-21.046a4.828,4.828,0,0,1,7.268,1.055l21.948,34.922a4.823,4.823,0,0,0,6.183,1.775l91.792-44.314a4.822,4.822,0,0,1,5.364,7.89L233.118,338.832a4.823,4.823,0,0,1-7.389-1.039l-43.472-71.3A4.826,4.826,0,0,1,183.2,260.362Z" transform="translate(-181.556 -232.234)" stroke="#fff" stroke-width="5"/>
            <path id="Path_1719" data-name="Path 1719" d="M183.2,260.362l23.974-21.046a4.828,4.828,0,0,1,7.268,1.055l21.948,34.922a4.823,4.823,0,0,0,6.183,1.775l91.792-44.314a4.822,4.822,0,0,1,5.364,7.89L233.118,338.832a4.823,4.823,0,0,1-7.389-1.039l-43.472-71.3A4.826,4.826,0,0,1,183.2,260.362Z" transform="translate(-181.556 -232.234)" fill="none" stroke="#fff" stroke-miterlimit="10" stroke-width="5"/>
          </g>
          <g id="Group_1137" data-name="Group 1137" opacity="0.33">
            <path id="Path_1720" data-name="Path 1720" d="M183.2,260.362l23.974-21.046a4.828,4.828,0,0,1,7.268,1.055l21.948,34.922a4.823,4.823,0,0,0,6.183,1.775l91.792-44.314a4.822,4.822,0,0,1,5.364,7.89L233.118,338.832a4.823,4.823,0,0,1-7.389-1.039l-43.472-71.3A4.826,4.826,0,0,1,183.2,260.362Z" transform="translate(-181.556 -232.234)" fill="#010101" stroke="#fff" stroke-width="5"/>
            <path id="Path_1721" data-name="Path 1721" d="M183.2,260.362l23.974-21.046a4.828,4.828,0,0,1,7.268,1.055l21.948,34.922a4.823,4.823,0,0,0,6.183,1.775l91.792-44.314a4.822,4.822,0,0,1,5.364,7.89L233.118,338.832a4.823,4.823,0,0,1-7.389-1.039l-43.472-71.3A4.826,4.826,0,0,1,183.2,260.362Z" transform="translate(-181.556 -232.234)" fill="none" stroke="#fff" stroke-miterlimit="10" stroke-width="5"/>
          </g>
        </g>
      </g>
      <g id="Group_1143" data-name="Group 1143" transform="translate(89.774 201.365)">
        <g id="Group_1142" data-name="Group 1142">
          <g id="Group_1140" data-name="Group 1140">
            <path id="Path_1722" data-name="Path 1722" d="M361.308,417.345l-44.5-85.965a5.937,5.937,0,0,0-8.983-1.9L194.438,419c3.664,6.3-2.162,1.479-1.813,2a4.909,4.909,0,0,0,5.212,1.95l94.128-23.056A5.931,5.931,0,0,1,299.4,402.6l25,46.719.046.144.174.273.25.463.607-.463h32.115a5.952,5.952,0,0,0,5.242-3.118q4.62-8.581,9.051-17.449a5.946,5.946,0,0,0-5.311-8.611h0A5.945,5.945,0,0,1,361.308,417.345Z" transform="translate(-192.61 -328.171)"/>
            <path id="Path_1723" data-name="Path 1723" d="M361.308,417.345l-44.5-85.965a5.937,5.937,0,0,0-8.983-1.9L194.438,419c3.664,6.3-2.162,1.479-1.813,2a4.909,4.909,0,0,0,5.212,1.95l94.128-23.056A5.931,5.931,0,0,1,299.4,402.6l25,46.719.046.144.174.273.25.463.607-.463h32.115a5.952,5.952,0,0,0,5.242-3.118q4.62-8.581,9.051-17.449a5.946,5.946,0,0,0-5.311-8.611h0A5.945,5.945,0,0,1,361.308,417.345Z" transform="translate(-192.61 -328.171)" fill="none" stroke="#fff" stroke-miterlimit="10" stroke-width="5"/>
          </g>
          <g id="Group_1141" data-name="Group 1141" opacity="0.33">
            <path id="Path_1724" data-name="Path 1724" d="M361.308,417.345l-44.5-85.965a5.937,5.937,0,0,0-8.983-1.9L194.438,419c3.664,6.3-2.162,1.479-1.813,2a4.909,4.909,0,0,0,5.212,1.95l94.128-23.056A5.931,5.931,0,0,1,299.4,402.6l25,46.719.046.144.174.273.25.463.607-.463h32.115a5.952,5.952,0,0,0,5.242-3.118q4.62-8.581,9.051-17.449a5.946,5.946,0,0,0-5.311-8.611h0A5.945,5.945,0,0,1,361.308,417.345Z" transform="translate(-192.61 -328.171)" fill="#010101"/>
            <path id="Path_1725" data-name="Path 1725" d="M361.308,417.345l-44.5-85.965a5.937,5.937,0,0,0-8.983-1.9L194.438,419c3.664,6.3-2.162,1.479-1.813,2a4.909,4.909,0,0,0,5.212,1.95l94.128-23.056A5.931,5.931,0,0,1,299.4,402.6l25,46.719.046.144.174.273.25.463.607-.463h32.115a5.952,5.952,0,0,0,5.242-3.118q4.62-8.581,9.051-17.449a5.946,5.946,0,0,0-5.311-8.611h0A5.945,5.945,0,0,1,361.308,417.345Z" transform="translate(-192.61 -328.171)" fill="none" stroke="#fff" stroke-miterlimit="10" stroke-width="5"/>
          </g>
        </g>
      </g>
      <g id="Group_1147" data-name="Group 1147" transform="translate(86.51 142.923)">
        <g id="Group_1146" data-name="Group 1146">
          <g id="Group_1144" data-name="Group 1144">
            <path id="Path_1726" data-name="Path 1726" d="M348.237,252.6,190.487,396.509c-5.743,5.235.941,14.293,7.64,10.356l124.2-73.121a6.463,6.463,0,0,0,2.564-2.807l33.548-70.792C361.484,253.735,353.48,247.817,348.237,252.6Z" transform="translate(-188.308 -250.858)" fill="#fff"/>
          </g>
          <g id="Group_1145" data-name="Group 1145" opacity="0.33">
            <path id="Path_1727" data-name="Path 1727" d="M348.237,252.6,190.487,396.509c-5.743,5.235.941,14.293,7.64,10.356l124.2-73.121a6.463,6.463,0,0,0,2.564-2.807l33.548-70.792C361.484,253.735,353.48,247.817,348.237,252.6Z" transform="translate(-188.308 -250.858)" fill="#fff"/>
          </g>
        </g>
      </g>
    </g>
  </g>
</svg>
