<svg xmlns="http://www.w3.org/2000/svg" width="183.591" height="114.426" viewBox="0 0 183.591 114.426">
  <g id="Group_1030" data-name="Group 1030" transform="translate(-872.354 -143.175)">
    <ellipse id="Ellipse_116" data-name="Ellipse 116" cx="25.717" cy="5.143" rx="25.717" ry="5.143" transform="translate(937.045 247.314)" opacity="0.09"/>
    <path id="Path_1577" data-name="Path 1577" d="M971.3,248.439a6.568,6.568,0,0,0-3.658,1,86.049,86.049,0,0,1,.322-11.514c-2.748,5.88-2.075,10.063-1.114,12.266a1.923,1.923,0,0,0-.386,1.127c0,1.59,3.342,1.6,6.013,1.6s3.659-.009,3.659-1.6S973.976,248.439,971.3,248.439Z" fill="#071223"/>
    <path id="Path_1578" data-name="Path 1578" d="M955.077,248.239a6.568,6.568,0,0,1,3.658,1,85.868,85.868,0,0,0-.322-11.514c2.749,5.88,2.075,10.064,1.115,12.266a1.922,1.922,0,0,1,.385,1.127c0,1.59-3.342,1.6-6.012,1.6s-3.659-.009-3.659-1.6S952.407,248.239,955.077,248.239Z" fill="#071223"/>
    <path id="Path_1579" data-name="Path 1579" d="M916.278,225.11a7.815,7.815,0,0,1,3.016-7,33.942,33.942,0,0,0-1.706,6.636c1.686.118,3.031,2.4,3.031,5.215,0,2.887-1.417,5.227-3.165,5.227s-3.166-2.34-3.166-5.227C914.288,227.76,915.112,225.881,916.278,225.11Z" fill="#071223"/>
    <path id="Path_1580" data-name="Path 1580" d="M920.248,240.171s-6.023-23.972-2.989-93.566l80.877-3.413s1.043,83.627,2.75,95.1C1000.886,238.291,926.081,242.052,920.248,240.171Z" fill="#f3ece2"/>
    <path id="Path_1581" data-name="Path 1581" d="M1008.186,149.924l-10.05-6.732s-.474,89.316,2.75,95.1l10.24-6.257S1007.333,186.427,1008.186,149.924Z" fill="#bca180"/>
    <path id="Path_1582" data-name="Path 1582" d="M955.469,162.913l42.857-1.327,9.671,5.025.189-16.687-10.05-6.732s-69.854,1.251-80.645,3.2l-.048,18.761S954.223,162.962,955.469,162.913Z" fill="#f4410b"/>
    <path id="Path_1583" data-name="Path 1583" d="M998.018,161.576l.208-.007,9.671,5.026.065-5.738c0-3.7.041-7.37.124-10.95l-10.05-6.732S998,150.728,998.018,161.576Z" fill="#af2500"/>
    <g id="Group_1026" data-name="Group 1026">
      <path id="Path_1584" data-name="Path 1584" d="M925.046,235.906s-5.232-16.533-2.6-64.532L992.7,169.02s.906,57.677,2.388,65.589C995.092,234.609,930.113,237.2,925.046,235.906Z" fill="none" stroke="#e2ded7" stroke-miterlimit="10" stroke-width="0.768"/>
      <line id="Line_30" data-name="Line 30" x2="3.232" y2="65.873" transform="translate(948.582 170.475)" fill="none" stroke="#e0d9d1" stroke-miterlimit="10" stroke-width="0.768"/>
      <line id="Line_31" data-name="Line 31" x2="2.924" y2="65.411" transform="translate(934.73 170.937)" fill="none" stroke="#e0d9d1" stroke-miterlimit="10" stroke-width="0.768"/>
      <line id="Line_32" data-name="Line 32" x2="1.693" y2="66.489" transform="translate(967.666 169.398)" fill="none" stroke="#e0d9d1" stroke-miterlimit="10" stroke-width="0.768"/>
      <line id="Line_33" data-name="Line 33" x2="3.694" y2="66.027" transform="translate(980.133 169.551)" fill="none" stroke="#e0d9d1" stroke-miterlimit="10" stroke-width="0.768"/>
      <line id="Line_34" data-name="Line 34" y1="2.155" x2="71.414" transform="translate(921.802 187.251)" fill="none" stroke="#e0d9d1" stroke-miterlimit="10" stroke-width="0.768"/>
      <line id="Line_35" data-name="Line 35" y1="2.463" x2="71.568" transform="translate(922.109 204.951)" fill="none" stroke="#e0d9d1" stroke-miterlimit="10" stroke-width="0.768"/>
      <line id="Line_36" data-name="Line 36" y1="0.923" x2="71.414" transform="translate(922.879 222.342)" fill="none" stroke="#e0d9d1" stroke-miterlimit="10" stroke-width="0.768"/>
    </g>
    <g id="Group_1027" data-name="Group 1027">
      <ellipse id="Ellipse_117" data-name="Ellipse 117" cx="7.333" cy="11.84" rx="7.333" ry="11.84" transform="translate(937.352 196.69)" fill="#fff"/>
      <path id="Path_1585" data-name="Path 1585" d="M952.595,208.745c0,6.539-3.284,11.84-7.334,11.84s4.285-5.432,4.285-11.971-8.335-11.709-4.285-11.709S952.595,202.206,952.595,208.745Z" fill="#f2f2f2"/>
      <ellipse id="Ellipse_118" data-name="Ellipse 118" cx="5.488" cy="8.86" rx="5.488" ry="8.86" transform="translate(939.182 202.801)" fill="#05f"/>
      <ellipse id="Ellipse_119" data-name="Ellipse 119" cx="7.037" cy="5.59" rx="7.037" ry="5.59" transform="translate(930.595 191.622)" fill="#ddcdbf"/>
      <ellipse id="Ellipse_120" data-name="Ellipse 120" cx="7.966" cy="6.219" rx="7.966" ry="6.219" transform="translate(928.418 189.704)" fill="#f3ece2"/>
      <ellipse id="Ellipse_121" data-name="Ellipse 121" cx="3.721" cy="6.008" rx="3.721" ry="6.008" transform="translate(940.835 206.404)" fill="#020202"/>
      <path id="Path_1586" data-name="Path 1586" d="M947.857,210.111c0,5.387-6.4,12.142-3.064,12.142s6.042-4.367,6.042-9.755-2.705-9.755-6.042-9.755S947.857,204.723,947.857,210.111Z" fill="#0052d6"/>
      <path id="Path_1587" data-name="Path 1587" d="M936.636,216.744s4.544-.143,12.257,2.076c0,0,.769-3.173-1.569-2.258s-3.354-1.27-4.675-.3-1.474-2.388-4.168-.457a2.493,2.493,0,0,1-2.185-1.118A3.118,3.118,0,0,0,936.636,216.744Z" fill="#06d5ea"/>
      <ellipse id="Ellipse_122" data-name="Ellipse 122" cx="11.363" cy="4.01" rx="11.363" ry="4.01" transform="translate(926.512 215.881)" fill="#f3ece2"/>
      <ellipse id="Ellipse_123" data-name="Ellipse 123" cx="1.535" cy="1.181" rx="1.535" ry="1.181" transform="translate(941.072 207.112)" fill="#f2f2f2"/>
      <ellipse id="Ellipse_124" data-name="Ellipse 124" cx="0.984" cy="1.102" rx="0.984" ry="1.102" transform="translate(947.053 213.25)" fill="#f2f2f2"/>
    </g>
    <ellipse id="Ellipse_125" data-name="Ellipse 125" cx="8.074" cy="13.036" rx="8.074" ry="13.036" transform="translate(960.223 192.024)" fill="#f2f2f2"/>
    <ellipse id="Ellipse_126" data-name="Ellipse 126" cx="7.233" cy="13.036" rx="7.233" ry="13.036" transform="translate(960.223 192.097)" fill="#fff"/>
    <ellipse id="Ellipse_127" data-name="Ellipse 127" cx="6.042" cy="9.755" rx="6.042" ry="9.755" transform="translate(962.271 198.752)" fill="#05f"/>
    <path id="Path_1588" data-name="Path 1588" d="M971.377,206.154c0,5.388-6.4,12.143-3.064,12.143s6.042-4.368,6.042-9.755-2.7-9.756-6.042-9.756S971.377,200.767,971.377,206.154Z" fill="#0052d6"/>
    <ellipse id="Ellipse_128" data-name="Ellipse 128" cx="7.748" cy="6.154" rx="7.748" ry="6.154" transform="translate(968.313 186.444)" fill="#f3ece2"/>
    <path id="Path_1589" data-name="Path 1589" d="M968.376,192.6c0,3.4,3.469,6.154,7.748,6.154s7.748-2.755,7.748-6.154c0,0-4.61,3.838-8.889,3.838S968.376,189.2,968.376,192.6Z" fill="#ddcdbf"/>
    <ellipse id="Ellipse_129" data-name="Ellipse 129" cx="4.097" cy="6.615" rx="4.097" ry="6.615" transform="translate(964.342 202.719)" fill="#020202"/>
    <path id="Path_1590" data-name="Path 1590" d="M977.159,214.1s-5-.157-13.5,2.286c0,0-.846-3.493,1.728-2.486s3.693-1.4,5.148-.336,1.622-2.63,4.588-.5a2.745,2.745,0,0,0,2.406-1.231A3.439,3.439,0,0,1,977.159,214.1Z" fill="#06d5ea"/>
    <ellipse id="Ellipse_130" data-name="Ellipse 130" cx="12.51" cy="4.415" rx="12.51" ry="4.415" transform="translate(963.284 213.152)" fill="#f3ece2"/>
    <ellipse id="Ellipse_131" data-name="Ellipse 131" cx="1.69" cy="1.3" rx="1.69" ry="1.3" transform="translate(968.896 203.498)" fill="#f2f2f2"/>
    <ellipse id="Ellipse_132" data-name="Ellipse 132" cx="1.083" cy="1.213" rx="1.083" ry="1.213" transform="translate(963.523 210.257)" fill="#f2f2f2"/>
    <path id="Path_1591" data-name="Path 1591" d="M945.922,227.427c6.874-2.036,18.925-5.037,26.064-3.549a.271.271,0,0,1,.2.163c.294.7,1.517,3.956-.6,5.59-2.253,1.741,5.306-7.691-25.519-1.662A.281.281,0,0,1,945.922,227.427Z"/>
    <g id="Group_1028" data-name="Group 1028">
      <path id="Path_1592" data-name="Path 1592" d="M931.676,219.964a2.46,2.46,0,0,1-4.026-2.783c.695-1,4.278-2.019,4.4-1.9C932.147,215.38,932.371,218.959,931.676,219.964Z" fill="#06d5ea"/>
      <path id="Path_1593" data-name="Path 1593" d="M928.786,219.769a1.6,1.6,0,0,1-.949-1.872S929.189,219.421,928.786,219.769Z" fill="#f2f2f2"/>
    </g>
    <g id="Group_1029" data-name="Group 1029">
      <path id="Path_1594" data-name="Path 1594" d="M977.373,217.233a2.459,2.459,0,0,0,4.026-2.782c-.7-1.005-4.278-2.019-4.4-1.9C976.9,212.65,976.678,216.229,977.373,217.233Z" fill="#06d5ea"/>
      <path id="Path_1595" data-name="Path 1595" d="M980.263,217.038a1.6,1.6,0,0,0,.949-1.871S979.86,216.691,980.263,217.038Z" fill="#f2f2f2"/>
    </g>
    <path id="Path_1596" data-name="Path 1596" d="M1006.608,220.767a7.814,7.814,0,0,0-3.016-7,33.893,33.893,0,0,1,1.705,6.636c-1.685.117-3.03,2.4-3.03,5.215,0,2.887,1.417,5.227,3.165,5.227s3.165-2.34,3.165-5.227C1008.6,223.417,1007.773,221.538,1006.608,220.767Z" fill="#071223"/>
    <line id="Line_37" data-name="Line 37" x1="24.364" y1="11.734" transform="translate(878.32 173.206)" fill="none" stroke="#d2d2d2" stroke-miterlimit="10" stroke-width="3.074"/>
    <line id="Line_38" data-name="Line 38" x1="24.364" y2="11.734" transform="translate(877.055 208.125)" fill="none" stroke="#d2d2d2" stroke-miterlimit="10" stroke-width="3.074"/>
    <line id="Line_39" data-name="Line 39" x1="24.364" y1="11.734" transform="translate(1025.346 206.74)" fill="none" stroke="#d2d2d2" stroke-miterlimit="10" stroke-width="3.074"/>
    <line id="Line_40" data-name="Line 40" x1="24.364" y2="11.734" transform="translate(1024.563 173.455)" fill="none" stroke="#d2d2d2" stroke-miterlimit="10" stroke-width="3.074"/>
    <line id="Line_41" data-name="Line 41" x2="27.042" transform="translate(872.354 196.32)" fill="none" stroke="#d2d2d2" stroke-miterlimit="10" stroke-width="3.074"/>
    <line id="Line_42" data-name="Line 42" x2="27.042" transform="translate(1028.902 196.943)" fill="none" stroke="#d2d2d2" stroke-miterlimit="10" stroke-width="3.074"/>
  </g>
</svg>
