<svg xmlns="http://www.w3.org/2000/svg" width="19.594" height="33.873" viewBox="0 0 19.594 33.873">
  <path id="_15min" data-name="15min" d="M15.722,32.631a.867.867,0,0,1-.393-.332L9.86,23.706l2.79-2.78,5.787,9.313a2.169,2.169,0,0,1-.5,2.2,1.561,1.561,0,0,1-1.127.436A2.907,2.907,0,0,1,15.722,32.631Zm-14.553-.2C-.656,32.1.2,30.066.2,30.066c1.823-7.726,4.377-8.716,5.27-9.476a4.212,4.212,0,0,0,1.158-2.122L6.708,13.4a14.174,14.174,0,0,1-.079-2.349c1.884-4.7,3.875-4.165,4.756-3.96a1,1,0,0,1,.383.182c4.554,3.506,4.441,5.833,4.441,5.833l-.09,4.5c-.277,1.758-2.274,1.069-2.274,1.069-.757-.449-.66-1.652-.66-1.652l-.019-2.633c-.039-.428-.68-.975-.68-.975l-.04,5.188c-.039,2.262-3.183,4.29-4.736,4.914s-3.886,6.969-3.966,7.167c-.069.17-.647,1.785-2.159,1.785A2.331,2.331,0,0,1,1.169,32.43Zm.019-18.362a1.25,1.25,0,0,1,.714-.632l2.3-1.07c.372-.212,1.171-.621,1.171-.621l.709-.574a24.268,24.268,0,0,1,.049,3.045L2.32,16.177C-.08,15.837,1.188,14.068,1.188,14.068ZM6.228,3.213A3.213,3.213,0,1,1,9.44,6.425,3.212,3.212,0,0,1,6.228,3.213Z" transform="translate(0.5 0.5)" fill="#010d3e" stroke="rgba(0,0,0,0)" stroke-miterlimit="10" stroke-width="1"/>
</svg>
