<svg xmlns="http://www.w3.org/2000/svg" width="21.873" height="33.718" viewBox="0 0 21.873 33.718">
  <g id="_30min" data-name="30min" transform="translate(-417.973 -292.602)">
    <path id="Path_190" data-name="Path 190" d="M437.566,306.585a1.465,1.465,0,0,1-1.889.275c-3.884-2.438-4.091-2.189-8.447-2.045-1.878.062-5.386,2.064-5.7,3.846a13.39,13.39,0,0,0,.576,5.322,1.427,1.427,0,0,0,.431.661,1.461,1.461,0,0,0,2.338-.41,1.725,1.725,0,0,0,.152-.467,7.355,7.355,0,0,0-.356-2.484c-.237-1.167-.044-1.878.6-2.2a1.458,1.458,0,0,1,2.067,1.552,38.031,38.031,0,0,1-.863,4.4c-.982,3.477-.373,4.553,3.265,5.167,1.116.188,2.228.394,3.484.625.841.154,1.512.247,1.147,1.82-.233,1,0,0-.6,3.068a2.073,2.073,0,0,0,.207,1.081,1.46,1.46,0,0,0,2.276.632,2.2,2.2,0,0,0,.758-.932c2.391-6.838.059-7.983-3.782-9.432a1.477,1.477,0,0,1-.959-1.6c.233-1.505.467-3.027.707-4.58a1.492,1.492,0,0,1,2.3-.962c1.794,1,3.854,1.066,4.953-1.929.62-1.69,2.165-4.417,1.286-5.051-2.274-1.638-2.549,2.184-3.8,3.471C437.669,306.468,437.62,306.523,437.566,306.585Z" transform="translate(-1.935 -5.553)" fill="#010d3e"/>
    <path id="Path_191" data-name="Path 191" d="M425.731,341.767a6.014,6.014,0,0,1-.708-.489.577.577,0,0,0-.852.155c-2.091,2.959-4.022,5.585-5.742,8.408a3.77,3.77,0,0,0-.437,1.465c-.173,1.334.83,2.435,1.875,2.067a1.921,1.921,0,0,0,1.046-.7c2.3-3.552,7.238-7.963,6.051-9.784-.019-.03.005-.474-1.233-1.122C425.687,341.744,425.779,341.794,425.731,341.767Z" transform="translate(0 -27.125)" fill="#010d3e"/>
    <circle id="Ellipse_23" data-name="Ellipse 23" cx="3.136" cy="3.136" r="3.136" transform="translate(426.239 292.602)" fill="#010d3e"/>
  </g>
</svg>
