<svg xmlns="http://www.w3.org/2000/svg" width="22.399" height="32.082" viewBox="0 0 22.399 32.082">
  <g id="_60min" data-name="60min" transform="translate(-529.172 -310.726)" style="isolation: isolate">
    <g id="Group_294" data-name="Group 294" transform="translate(529.172 325.764)">
      <ellipse id="Ellipse_25" data-name="Ellipse 25" cx="2.257" cy="6.789" rx="2.257" ry="6.789" transform="translate(0 3.465)" fill="#010d3e"/>
      <path id="Path_193" data-name="Path 193" d="M534.06,338.821c-2.42,1.617-3.844,2.574-3.24,4.306s4.81.911,7.646-.2c2.709-1.064,9.168-.912,1.116-5.653C538,336.34,536.48,337.2,534.06,338.821Z" transform="translate(-529.876 -336.888)" fill="#010d3e"/>
    </g>
    <g id="Group_295" data-name="Group 295" transform="translate(537.957 325.689)">
      <ellipse id="Ellipse_26" data-name="Ellipse 26" cx="2.257" cy="6.789" rx="2.257" ry="6.789" transform="translate(9.1 3.465)" fill="#010d3e"/>
      <path id="Path_194" data-name="Path 194" d="M560.157,338.682c2.42,1.617,3.844,2.574,3.239,4.306s-4.809.911-7.646-.2c-2.708-1.064-9.168-.912-1.117-5.653C556.215,336.2,557.738,337.064,560.157,338.682Z" transform="translate(-550.729 -336.749)" fill="#010d3e"/>
    </g>
    <path id="Subtraction_7" data-name="Subtraction 7" d="M-3233.116-1127.224c-1.023,0-2.155-1.612-2.631-3.749a7.988,7.988,0,0,1-.114-3.168,7.568,7.568,0,0,1,2.631-4.251,10.657,10.657,0,0,1,1.145-.912,5.473,5.473,0,0,0,2.331,3.551,11.355,11.355,0,0,1-.988,1.021,10.193,10.193,0,0,1-1.552,1.175,8.956,8.956,0,0,1,.44,1.418c.529,2.367.085,4.553-.988,4.874A.948.948,0,0,1-3233.116-1127.224Z" transform="translate(3767.088 1455.45)" fill="#010d3e" stroke="rgba(0,0,0,0)" stroke-miterlimit="10" stroke-width="1"/>
    <path id="Subtraction_6" data-name="Subtraction 6" d="M-3223.77-1127.3h0a.948.948,0,0,1-.273-.04c-1.073-.321-1.517-2.509-.989-4.875a9.022,9.022,0,0,1,.441-1.417,10.154,10.154,0,0,1-1.553-1.175,11.277,11.277,0,0,1-1.082-1.132,5.475,5.475,0,0,0,2.1-3.649,10.317,10.317,0,0,1,1.465,1.121,7.574,7.574,0,0,1,2.631,4.251,7.992,7.992,0,0,1-.113,3.168C-3221.616-1128.917-3222.747-1127.3-3223.77-1127.3Z" transform="translate(3770.885 1455.45)" fill="#010d3e" stroke="rgba(0,0,0,0)" stroke-miterlimit="10" stroke-width="1"/>
    <path id="Subtraction_8" data-name="Subtraction 8" d="M-3230.524-1124.371a5.257,5.257,0,0,1-5.251-5.251v-6.035a5.218,5.218,0,0,1,.431-2.086,5.435,5.435,0,0,0,4.821,2.91,5.436,5.436,0,0,0,4.821-2.91,5.213,5.213,0,0,1,.431,2.086v6.035A5.257,5.257,0,0,1-3230.524-1124.371Z" transform="translate(3770.885 1455.45)" fill="#010d3e"/>
    <circle id="Ellipse_27" data-name="Ellipse 27" cx="3.946" cy="3.946" r="3.946" transform="translate(536.416 310.726)" fill="#010d3e"/>
  </g>
</svg>
