<svg xmlns="http://www.w3.org/2000/svg" width="36.51" height="43.162" viewBox="0 0 36.51 43.162">
  <path id="location_pin" d="M-4111.245,190.85h0l-11.413-10.494a17.734,17.734,0,0,1-6.342-13.6,17.639,17.639,0,0,1,5.2-12.555,17.639,17.639,0,0,1,12.555-5.2,17.637,17.637,0,0,1,12.554,5.2,17.638,17.638,0,0,1,5.2,12.555,17.724,17.724,0,0,1-6.343,13.6l-11.412,10.5ZM-4111,160a5.006,5.006,0,0,0-5,5,5.006,5.006,0,0,0,5,5,5.006,5.006,0,0,0,5-5A5.006,5.006,0,0,0-4111,160Z" transform="translate(4129.5 -148.5)" fill="#010d3e" stroke="rgba(0,0,0,0)" stroke-miterlimit="10" stroke-width="1"/>
</svg>
