<svg xmlns="http://www.w3.org/2000/svg" xmlns:xlink="http://www.w3.org/1999/xlink" width="189" height="229" viewBox="0 0 189 229">
  <defs>
    <clipPath id="clip-path">
      <rect id="Rectangle_205" data-name="Rectangle 205" width="189" height="229"  fill="#fff" stroke="#707070" stroke-width="1"/>
    </clipPath>
  </defs>
  <g id="boxing_header" transform="translate(-200 15)" clip-path="url(#clip-path)">
    <g id="Group_1149" data-name="Group 1149">
      <g id="Group_791" data-name="Group 791" transform="translate(274.002 59)">
        <path id="Path_725" data-name="Path 725" d="M1859.825,783.531s-6.176-9.823-10.625-4.586-4.418,35.257-4.418,35.257l4.035,25.946,9.932-7.249s-3.764-19.122-.852-26.453S1859.825,783.531,1859.825,783.531Z" transform="translate(-1777.008 -769.41)" fill="#151010"/>
        <path id="Path_726" data-name="Path 726" d="M1925.339,920.533s12.52-22.256,13.215-24.863,5.912-5.043,10.605-3.738-9.848,38.164-9.848,38.164-15.885,13.389-15.885,15.127-6.086,3.478-8.52,0-3.65-29.385-2.955-32.861,13.736-1.218,13.736-1.218S1922.3,921.925,1925.339,920.533Z" transform="translate(-1896.824 -832.93)" fill="#eaab78"/>
        <g id="Bottom" transform="translate(0 103.65)">
          <path id="Path_727" data-name="Path 727" d="M1863.521,1004.4c-.176-1.218-6.641-5.966-9.631-6.479l3.285,22.648" transform="translate(-1784.584 -995.755)" fill="#c07a48"/>
          <path id="Path_728" data-name="Path 728" d="M1846.2,1409.793s2.738-19.823.781-26.864c0,0-5.73,4.558-15.057,2.865,0,0,2.67,16.357,2.277,16.917S1844.633,1410.313,1846.2,1409.793Z" transform="translate(-1759.001 -1209.977)" fill="#eaab78"/>
          <path id="Path_729" data-name="Path 729" d="M1836.334,1409.184s2.738-19.822.781-26.863l-3.477.27s-1.293,24.555-1.684,25.115S1834.769,1409.706,1836.334,1409.184Z" transform="translate(-1749.137 -1209.639)" fill="#c07a48"/>
          <g id="Group_740" data-name="Group 740" transform="translate(38.257 191.074)">
            <path id="Path_730" data-name="Path 730" d="M1873.7,1427.524a8.216,8.216,0,0,1,3.881,7.066c0,4.951-.584,10.484-.584,10.484s-3.287,1.388-16.43,1.983a42.255,42.255,0,0,0-10.029,1.3c-5.5,1.388-10.408,1.539-23.793-1.23,0,0-.5,1.071,1.568,2.492s-10.512-3-1.924-7.794c0,0,8.4,2.666,20.473-6.28,0,0,9.77-5.145,10-6.395,0,0,6.98-2.869,8.176-.306A35.8,35.8,0,0,0,1873.7,1427.524Z" transform="translate(-1823.353 -1425.865)" fill="#d17a20"/>
            <path id="Path_731" data-name="Path 731" d="M1848.683,1472.923s.684-1.065,14.074-.814,10.146-4.4,8.629-5.8-23.318-.375-26.811.921-21.43,1.665-23.426.689-3.18,3.512,6.219,4.2S1832.15,1475.153,1848.683,1472.923Z" transform="translate(-1817.04 -1447.07)" fill="#f0f0f0"/>
            <path id="Path_732" data-name="Path 732" d="M1856.581,1447.54c2.072,1.421-10.514-3-1.924-7.794,0,0,8.4,2.666,20.473-6.279,0,0,11.883-8.433,12.113-9.684,0,0,4.867.419,6.064,2.982,0,0-10.957,6.3-7.307,5.1,0,0,2.018-.8,2.014,4.146s-13.414,5.366-13.414,5.366,1.047.422-12.1,1.017c0,0-8.016-.931-9.031,3.019" transform="translate(-1851.621 -1423.783)" fill="#fd911e"/>
          </g>
          <path id="Path_733" data-name="Path 733" d="M1890.279,1444.063s-.7-31.576,2.018-33.132c0,0-8.152.1-16.238.444,0,0-1.811,25.732-1.514,28.168S1890.279,1444.063,1890.279,1444.063Z" transform="translate(-1822.506 -1225.559)" fill="#eaab78"/>
          <path id="Path_734" data-name="Path 734" d="M1853.855,997.336v31.76l37.861-21.264s1.273-4.932,1.1-6.148S1877.487,986.035,1853.855,997.336Z" transform="translate(-1813.878 -993.04)" fill="#eaab78"/>
          <path id="Path_735" data-name="Path 735" d="M1853.811,997.917l3.287,22.648,6-10.085a49.574,49.574,0,0,0,.346-6.085C1863.268,1003.179,1857.1,997.788,1853.811,997.917Z" transform="translate(-1784.506 -995.752)" fill="#c07a48"/>
          <path id="Path_736" data-name="Path 736" d="M1878.325,1444.063s-.7-31.576,2.018-33.132c0,0-.24.444-3.719.754,0,0-2.385,27.162-2.086,29.6S1878.325,1444.063,1878.325,1444.063Z" transform="translate(-1810.552 -1225.559)" fill="#c07a48"/>
          <path id="Path_737" data-name="Path 737" d="M1818.85,1061.712c-2.783-6.606-2.437-22.256-2.437-22.256,9.738-11.128,38.6-13.215,38.6-13.215.348,15.3,12.17,25.387,12.17,25.387s13.563,17.039-4.869,50.422c-4.875,8.832-8.3,15.773-10.727,21.231.143,9.1,1.42,20.168,6.207,26.062,9.041,11.128,6.607,35.123,6.607,35.123-3.475,3.722-11.021,3.371-15.059,2.864a39.937,39.937,0,0,1-3.371,10,111.075,111.075,0,0,1-16,0c-1.736-11.127-8-45.9-10.779-58.42s2.088-27.124,2.088-27.124C1811.2,1080.143,1821.631,1068.32,1818.85,1061.712Z" transform="translate(-1776.423 -1011.514)" fill="#ff931e"/>
          <path id="Path_738" data-name="Path 738" d="M1906.553,1121.621s-15.129,22.332-17.387,43.39C1889.166,1165.011,1890.73,1127.417,1906.553,1121.621Z" transform="translate(-1843.264 -1064.584)" fill="#d37a20"/>
          <path id="Path_739" data-name="Path 739" d="M1916.845,1124.088s2.262,10.781,4.348,12.694S1920.841,1122.456,1916.845,1124.088Z" transform="translate(-1870.944 -1065.892)" fill="#d37a20"/>
          <path id="Path_740" data-name="Path 740" d="M1864.3,1253.423s6.08-12.095,8.951-12.133-5.3-1.429-5.3-1.429-5.738,4.347-6.955,11.3-2.26,13.388,5.738,29.905-2.955,35.43-2.955,35.43l3.477-.308a52.13,52.13,0,0,0,4-36.687C1865.864,1258.987,1864.3,1267.507,1864.3,1253.423Z" transform="translate(-1797.706 -1130.374)" fill="#d37a20"/>
          <path id="Path_741" data-name="Path 741" d="M1817.814,1027.085s5.77,18.175,13.246,26.124-5.562,58.719-14.258,67.761l5.3,1.428s31.387-43.679,15.217-70.8c0,0-10.652-10.345-12.172-25.385A22.686,22.686,0,0,0,1817.814,1027.085Z" transform="translate(-1746.559 -1011.482)" fill="#d37a20"/>
          <path id="Path_742" data-name="Path 742" d="M1845.243,1303.4s-2.605-25.731-6.26-29.384-5.475-27.541-5.475-27.541l2.574-1.477s.816,19.282,6.205,26.062,6.607,14.779,6.607,35.122l-3.348,2.122Z" transform="translate(-1760.917 -1133.232)" fill="#d37a20"/>
          <path id="Path_743" data-name="Path 743" d="M2031.843,1203.018" transform="translate(-2031.843 -1109.873)" fill="#ff931e"/>
          <g id="Group_741" data-name="Group 741" transform="translate(33.018 207.441)">
            <path id="Path_744" data-name="Path 744" d="M1905.791,1508.415s-7.076,1.651-8.232,3.523-1.543,5.725-16.074,4.074-13.889-2.969-13.889-2.969,5.238-4.6,27.133-3.2c1.412.091.387-10.073,8.232-7.816C1904.973,1502.607,1906.688,1508.188,1905.791,1508.415Z" transform="translate(-1866.193 -1483.505)" fill="#f2f2f2"/>
            <path id="Path_745" data-name="Path 745" d="M1901.474,1461.7s9.646,0,8.1,16.514c0,0,.424,2.421-3.969,4.184,0,0-3.49,1.321-4.135,3.964s-3.342,4.844-18.389,2.861a18.055,18.055,0,0,0-8.486.765c-3.986,1.547-3.088-5.058,2.057-8.03s8.228-11.89,7.717-14.972S1888.359,1458.4,1901.474,1461.7Z" transform="translate(-1871.909 -1460.679)" fill="#d37a20"/>
            <path id="Path_746" data-name="Path 746" d="M1920.578,1461.7s-7.453-4.259-8.994,12.254c0,0,8.9,4.1,4.51,5.862,0,0-4.082.413-4.727,3.056s5.867,8.333-9.18,6.351a18.056,18.056,0,0,0-8.486.765c-3.988,1.547-3.088-5.058,2.057-8.03s8.23-11.89,7.717-14.972S1907.461,1458.4,1920.578,1461.7Z" transform="translate(-1891.215 -1460.679)" fill="#ff931e"/>
          </g>
        </g>
        <path id="Path_747" data-name="Path 747" d="M1919.078,925.257a6.49,6.49,0,0,1-.359,2.141c-.457,1.286-2.684,16.794-1.588,17.889,1.908,1.909,21.281-54.231,25.975-52.927s-9.848,38.164-9.848,38.164-15.885,13.389-15.885,15.127-2.174-9.759-4.607-13.235.217-18.561.912-22.039,5.957,1.2,5.957,1.2S1919.092,918.517,1919.078,925.257Z" transform="translate(-1890.771 -833.358)" fill="#c07a48"/>
        <path id="Path_748" data-name="Path 748" d="M1876.749,813.843l.654-5.608s3.85,1.826,3.883-3.13,1.725-12.127-3.623-7.954c0,0-23.861-6.912-27.775-4.955s-1.693,16.561-1.693,16.561l2.867,10.432s2.217,7.694,10.955,5.086,4.256,12.691-2.893,12.148-7.367,19.54-7.367,19.54l17.389,2.086,13.082-9,5.371-20.244s-6.676-.751-8.629-4.664S1876.749,813.843,1876.749,813.843Z" transform="translate(-1805.856 -777.444)" fill="#eaab78"/>
        <path id="Path_749" data-name="Path 749" d="M1872.559,821.85l.654-5.607s3.85,1.826,3.883-3.129c.021-3.717.467-7.139-1.566-6.858a2.321,2.321,0,0,0-1.453,3.652c1.895,2.66,4.443,6.842.441,5.292-26.65-10.315-25.43-6.65-25.43-6.65l1.826,6.52s16.82,2.738.781,16.431c0,0,19.275,8.085,3.238,12.931-6.863,2.074-7.367,19.539-7.367,19.539l17.389,2.087,13.082-9,5.371-20.243s-6.676-.752-8.629-4.665S1872.559,821.85,1872.559,821.85Z" transform="translate(-1801.667 -785.452)" fill="#c07a48"/>
        <g id="Top" transform="translate(29.847 51.09)">
          <path id="Path_750" data-name="Path 750" d="M1897.509,874.9s-18.777,19.125-16.256,22.517,13.387,1.217,13.387,1.217,8.781,26.688,1.393,37.121c0,0-10.113-14.432-38.961-4,0,0-14.332-10.084-8.422-22.082s20.777-27.21,20.777-27.21l1.045,1.217s-15.387,16.6-15.734,18.517,15.734-.7,20.6-5.911,21.473-21.734,21.473-21.734Z" transform="translate(-1846.942 -874.553)" fill="#ff931e"/>
          <path id="Path_751" data-name="Path 751" d="M1887.616,943.308l-6.084-17.212c2.52,3.389,13.387,1.217,13.387,1.217s8.781,26.688,1.393,37.121c0,0-10.113-14.432-38.961-4,0,0-15.109-10.5-8.422-22.082,3.4-5.882,2.871,7.563,2.871,7.563h0s3.736,3.913,3.391,5.825,9.566-3.168,16.518-4.781c7.3-1.7,14.971,6.433,14.971,6.433Z" transform="translate(-1847.221 -903.232)" fill="#d37a20"/>
          <path id="Path_752" data-name="Path 752" d="M1917.495,953.323s-11.3-.261-14.432,1.826S1917.495,953.323,1917.495,953.323Z" transform="translate(-1890.052 -918.375)" fill="#d37a20"/>
        </g>
        <path id="Path_753" data-name="Path 753" d="M1847.532,908.032s6.848-28.341-3.062-33.557c0,0-8.521.87-12.605,0s-7.91,7.651-3.564,13.214c0,0,1.041.174,1.391,14.779,0,0-3.479-7.129-5.738-8.346s-12.344,5.043-12.344,5.043l1.389,4.867s.176,13.041,9.389,21.561c0,0,5.564,10.779,11.652,4.868S1848.337,912.379,1847.532,908.032Z" transform="translate(-1752.144 -823.385)" fill="#eaab78"/>
        <path id="Path_754" data-name="Path 754" d="M1842.91,908.11s6.848-28.342-3.062-33.558c0,0-1.113,8.71-.7,12.866.172,1.74,2.781,14.084-1.045,27.3,0,0-2.607,3.824-12.008,14.558,0,0-11.428-9.351-13.689-10.567h0s-3.859-1.557,5.354,6.964c0,0,5.564,10.78,11.652,4.867S1843.715,912.457,1842.91,908.11Z" transform="translate(-1747.522 -823.462)" fill="#c07a48"/>
        <path id="Path_755" data-name="Path 755" d="M1857.849,952.854s-.777-10.1-1.033-16.865S1851.578,950.3,1857.849,952.854Z" transform="translate(-1779.27 -856.904)" fill="#c07a48"/>
        <path id="Path_756" data-name="Path 756" d="M1892.577,784.692s3.131-14.736-4.3-19.952-19.951-9.128-26.861.652c0,0-2.314.392-2.332,9s2.592,8.216,2.592,8.216S1885.667,773.739,1892.577,784.692Z" transform="translate(-1816.596 -759.378)" fill="#ff931e"/>
        <path id="Path_757" data-name="Path 757" d="M1905.412,804.622s17.557-7.489,20.451-5.7,4.326-4.079,1.846-5.122S1900.326,790.93,1905.412,804.622Z" transform="translate(-1872.594 -778.135)" fill="#ff931e"/>
        <path id="Path_758" data-name="Path 758" d="M1917.68,809.546s12.609-1.5,14.8-4.093c.48-.565,4.746-.632,2.268-1.676S1916.846,798.012,1917.68,809.546Z" transform="translate(-1884.863 -783.058)" fill="#d37a20"/>
        <path id="Path_759" data-name="Path 759" d="M1904.729,793.252s10.4,3.2,13.293,4.988,4.326-4.079,1.846-5.123S1915.883,790.854,1904.729,793.252Z" transform="translate(-1864.753 -777.454)" fill="#d37a20"/>
        <path id="Path_760" data-name="Path 760" d="M1867.627,788.365s3.338-15.046-4.3-19.951l-3.793-2.435-.018,8.607c-.018,8.607-.381,8.686-.381,8.686S1861.984,782.671,1867.627,788.365Z" transform="translate(-1791.741 -763.051)" fill="#d37a20"/>
        <path id="Path_761" data-name="Path 761" d="M1959.04,854.246s12.182,2.478,9.846-15.909-24.279-8.606-25.043,0-1.453,19.3,0,25.69c0,0-5.064,4.042-1.543,16.952,0,0,.117,4.243,15.053,2.252,0,0,2.09-13.544,1.408-14.679,0,0,1.734-2.178,2.285-7S1962.608,853.2,1959.04,854.246Z" transform="translate(-1928.91 -797.505)" fill="#ff931e"/>
        <path id="Path_762" data-name="Path 762" d="M1956.465,866.256s15.02,1.888,9.85-15.909c-.836-2.869-2.877,1.651-3.639,10.259s-9.457-.715-8,5.675c0,0-18.469,13.8-14.947,26.708,0,0,.117,4.242,15.055,2.251,0,0,2.088-13.544,1.406-14.679,0,0,1.734-2.177,2.287-7S1960.033,865.213,1956.465,866.256Z" transform="translate(-1926.338 -809.515)" fill="#d37a20"/>
        <path id="Path_763" data-name="Path 763" d="M1963.085,859.758s9.936,2.7,8.965,11.975c0,0-3.193.808-4.449,0s-.793-5.894-7.35-7.719S1962.173,857.849,1963.085,859.758Z" transform="translate(-1939.265 -814.966)" fill="#d37a20"/>
        <g id="Group_742" data-name="Group 742" transform="translate(34.646 28.624)">
          <path id="Path_764" data-name="Path 764" d="M1901.1,872.566s-15.883.875-15.949,2.684-12.205-27.922-12.205-27.922-11.727,1.3-13.553-9,6.391-13.823,12-14.345,16.084,1.565,16.387,3.521,8.389,11.75,9.563,22.111S1901.1,872.566,1901.1,872.566Z" transform="translate(-1859.134 -823.905)" fill="#ff931e"/>
          <path id="Path_765" data-name="Path 765" d="M1930.888,845.361s-.064,11.476,2.555,12.52-13.279,1.824-11.33-12.52C1922.113,845.361,1928.845,839.754,1930.888,845.361Z" transform="translate(-1919.631 -834.457)" fill="#d37a20"/>
          <path id="Path_766" data-name="Path 766" d="M1893.236,857.643s-4.641-.275-6.172.7h0a186.292,186.292,0,0,1-6.045-22.748c-1.828-10.3-20.434-11.083-14.828-11.605s16.084,1.565,16.389,3.521,8.389,11.75,9.563,22.111S1893.236,857.643,1893.236,857.643Z" transform="translate(-1853.937 -823.905)" fill="#d37a20"/>
          <path id="Path_767" data-name="Path 767" d="M1866.009,902.128l-6.875,2.61,5.811,12.532a64.612,64.612,0,0,0,15.949-2.684s-1.574-13.737-2.666-14.924S1866.009,902.128,1866.009,902.128Z" transform="translate(-1838.927 -865.925)" fill="#f2f2f2"/>
          <path id="Path_768" data-name="Path 768" d="M1859.134,900.165h0l3.734,15.087a17.494,17.494,0,0,0,5.105-.859s-1.574-13.738-2.666-14.924S1859.134,900.165,1859.134,900.165Z" transform="translate(-1826.007 -865.731)" fill="#ccc"/>
        </g>
        <path id="Path_769" data-name="Path 769" d="M1972.47,911.724a16.455,16.455,0,0,1-5.672-2.608c-2.979-2.086-4.365,14.766-1.545,16.953,0,0-5.02,3.483,13.16,2.377,1.092-.067,2.711.143,2.836-.942l.678-12.644c.035-.658.443-1.157-.213-1.219A57.358,57.358,0,0,1,1972.47,911.724Z" transform="translate(-1951.865 -842.594)" fill="#f2f2f2"/>
        <path id="Path_770" data-name="Path 770" d="M1966.669,913.894a28.135,28.135,0,0,0-2.838-.988c3.273,1.589.908,15.7,3.727,17.887,0,0,2.521.041,5.055-.177,1.088-.093,2.711.144,2.836-.942l.678-12.644c.035-.658.443-1.157-.213-1.218A57.267,57.267,0,0,1,1966.669,913.894Z" transform="translate(-1946.064 -844.764)" fill="#ccc"/>
      </g>
      <g id="Group_760" data-name="Group 760" transform="translate(211.454 -14.902)">
        <path id="Path_1008" data-name="Path 1008" d="M2071.621,895.962s4.747,13.873,25.92,13.144,27.748-6.207,30.3-13.144,4.38-129.971,0-138.368-16.24-13.143-26.375-12.778-17.072-.365-29.85,12.412S2071.621,895.962,2071.621,895.962Z" transform="translate(-2065.942 -702.831)" fill="#ff931e"/>
        <path id="Path_1009" data-name="Path 1009" d="M2071.621,895.961s4.747,13.873,25.92,13.144-17.477-21.906-14.921-28.842,9.264-114.546,4.883-122.944,24.1-12.869,13.967-12.5-17.072-.365-29.85,12.413S2071.621,895.961,2071.621,895.961Z" transform="translate(-2065.942 -702.829)" fill="#d37a20"/>
        <path id="Path_1010" data-name="Path 1010" d="M2111.27,656.272s-29.938,46-27.382,70.462l-5.112,2.555s-.122-48.191,29.694-77.034" transform="translate(-2073.462 -648.605)"/>
        <path id="Path_1011" data-name="Path 1011" d="M2170.482,643.438s18.254,54.033,14.969,77.764h5.818S2182.529,652.565,2170.482,643.438Z" transform="translate(-2127.198 -643.438)"/>
        <path id="Path_1012" data-name="Path 1012" d="M2156.245,643.438s-6.382,38.335-4.833,41.985S2160.992,685.788,2156.245,643.438Z" transform="translate(-2115.882 -643.438)"/>
      </g>
    </g>
  </g>
</svg>
