<svg xmlns="http://www.w3.org/2000/svg" width="18.697" height="37" viewBox="0 0 18.697 37">
  <g id="boxing" transform="translate(-146.002 -189)">
    <g id="Group_743" data-name="Group 743" transform="translate(-1665.607 -568.577)">
      <path id="Path_725" data-name="Path 725" d="M1844.8,778.035s.632-1.005,1.087-.469.452,3.608.452,3.608l-.413,2.655-1.016-.742a7.337,7.337,0,0,0,.087-2.707A7.445,7.445,0,0,1,1844.8,778.035Z" transform="translate(-31.667 -17.211)" fill="#151010"/>
      <path id="Path_726" data-name="Path 726" d="M1914.291,894.533s-1.281-2.277-1.352-2.544-.6-.516-1.085-.383,1.008,3.905,1.008,3.905a13.035,13.035,0,0,1,1.625,1.548c0,.178.623.356.872,0a11.973,11.973,0,0,0,.3-3.362c-.071-.356-1.406-.125-1.406-.125S1914.6,894.675,1914.291,894.533Z" transform="translate(-95.604 -126.19)" fill="#eaab78"/>
      <g id="Bottom" transform="translate(1811.826 769.984)">
        <path id="Path_727" data-name="Path 727" d="M1853.892,998.583a2.14,2.14,0,0,1,.985-.663l-.336,2.317" transform="translate(-1852.19 -997.698)" fill="#c07a48"/>
        <path id="Path_728" data-name="Path 728" d="M1832.074,1385.678a11.015,11.015,0,0,1-.08-2.749,2.006,2.006,0,0,0,1.541.293s-.273,1.674-.233,1.731A3.462,3.462,0,0,1,1832.074,1385.678Z" transform="translate(-1831.217 -1365.232)" fill="#eaab78"/>
        <path id="Path_729" data-name="Path 729" d="M1832.074,1385.07a11.014,11.014,0,0,1-.08-2.749l.356.028s.132,2.512.172,2.57S1832.234,1385.123,1832.074,1385.07Z" transform="translate(-1831.217 -1364.652)" fill="#c07a48"/>
        <g id="Group_740" data-name="Group 740" transform="translate(0.153 19.551)">
          <path id="Path_730" data-name="Path 730" d="M1823.752,1427.525a.84.84,0,0,0-.4.723c0,.507.06,1.073.06,1.073a6.18,6.18,0,0,0,1.681.2,4.322,4.322,0,0,1,1.026.133,4.917,4.917,0,0,0,2.435-.126s.051.11-.161.255,1.076-.307.2-.8a2.508,2.508,0,0,1-2.095-.643,5.181,5.181,0,0,1-1.023-.654s-.714-.294-.837-.031A3.667,3.667,0,0,1,1823.752,1427.525Z" transform="translate(-1823.192 -1427.355)" fill="#d17a20"/>
          <path id="Path_731" data-name="Path 731" d="M1822.237,1466.382s-.07-.109-1.44-.083-1.038-.45-.883-.594a9.363,9.363,0,0,1,2.743.094,8.436,8.436,0,0,0,2.4.071c.2-.1.325.359-.636.43A4.641,4.641,0,0,1,1822.237,1466.382Z" transform="translate(-1819.763 -1463.736)" fill="#f0f0f0"/>
          <path id="Path_732" data-name="Path 732" d="M1855.381,1426.215c-.212.145,1.076-.307.2-.8a2.508,2.508,0,0,1-2.095-.642,9.854,9.854,0,0,1-1.24-.991s-.5.043-.62.305c0,0,1.121.645.748.521,0,0-.206-.082-.206.424s1.373.549,1.373.549-.107.043,1.238.1c0,0,.82-.1.924.309" transform="translate(-1850.177 -1423.784)" fill="#fd911e"/>
        </g>
        <path id="Path_733" data-name="Path 733" d="M1874.719,1414.322s.071-3.231-.207-3.39c0,0,.834.01,1.662.045,0,0,.185,2.633.155,2.882S1874.719,1414.322,1874.719,1414.322Z" transform="translate(-1871.874 -1391.964)" fill="#eaab78"/>
        <path id="Path_734" data-name="Path 734" d="M1857.844,993.48v3.25l-3.874-2.176a3.39,3.39,0,0,1-.113-.629C1853.875,993.8,1855.425,992.323,1857.844,993.48Z" transform="translate(-1852.155 -993.04)" fill="#eaab78"/>
        <path id="Path_735" data-name="Path 735" d="M1854.8,997.915l-.336,2.317-.614-1.032a5.1,5.1,0,0,1-.036-.623A1.644,1.644,0,0,1,1854.8,997.915Z" transform="translate(-1852.114 -997.694)" fill="#c07a48"/>
        <path id="Path_736" data-name="Path 736" d="M1874.719,1414.322s.071-3.231-.207-3.39c0,0,.025.045.381.077,0,0,.244,2.779.213,3.028S1874.719,1414.322,1874.719,1414.322Z" transform="translate(-1871.874 -1391.964)" fill="#c07a48"/>
        <path id="Path_737" data-name="Path 737" d="M1821.837,1029.871a7.954,7.954,0,0,0,.249-2.277c-1-1.139-3.95-1.352-3.95-1.352a3.856,3.856,0,0,1-1.245,2.6s-1.388,1.744.5,5.159c.5.9.85,1.614,1.1,2.172a4.738,4.738,0,0,1-.635,2.667c-.925,1.139-.676,3.594-.676,3.594a1.963,1.963,0,0,0,1.541.293,4.091,4.091,0,0,0,.345,1.023,11.362,11.362,0,0,0,1.637,0c.178-1.139.818-4.7,1.1-5.978a6.076,6.076,0,0,0-.214-2.775C1822.62,1031.757,1821.552,1030.547,1821.837,1029.871Z" transform="translate(-1816.399 -1024.735)" fill="#ff931e"/>
        <path id="Path_738" data-name="Path 738" d="M1889.168,1121.621a11.741,11.741,0,0,1,1.779,4.44S1890.787,1122.214,1889.168,1121.621Z" transform="translate(-1885.865 -1115.785)" fill="#d37a20"/>
        <path id="Path_739" data-name="Path 739" d="M1917.368,1123.984a4.473,4.473,0,0,1-.445,1.3C1916.71,1125.479,1916.96,1123.817,1917.368,1123.984Z" transform="translate(-1912.286 -1118.03)" fill="#d37a20"/>
        <path id="Path_740" data-name="Path 740" d="M1861.139,1241.25s-.622-1.238-.916-1.241.542-.146.542-.146a2.052,2.052,0,0,1,.712,1.156,4.2,4.2,0,0,1-.587,3.06,4.324,4.324,0,0,0,.3,3.625l-.356-.031a5.333,5.333,0,0,1-.409-3.754C1860.979,1241.819,1861.139,1242.691,1861.139,1241.25Z" transform="translate(-1858.174 -1228.659)" fill="#d37a20"/>
        <path id="Path_741" data-name="Path 741" d="M1819.272,1026.276a8.9,8.9,0,0,1-1.355,2.673c-.765.813.569,6.008,1.459,6.933l-.542.146s-3.211-4.469-1.557-7.245a4.642,4.642,0,0,0,1.245-2.6A2.321,2.321,0,0,1,1819.272,1026.276Z" transform="translate(-1816.784 -1024.68)" fill="#d37a20"/>
        <path id="Path_742" data-name="Path 742" d="M1833.884,1250.975s.267-2.633.64-3.007.56-2.818.56-2.818l-.263-.151a6.421,6.421,0,0,1-.635,2.667c-.552.694-.676,1.512-.676,3.594l.343.217Z" transform="translate(-1832.733 -1233.563)" fill="#d37a20"/>
        <path id="Path_743" data-name="Path 743" d="M2031.843,1203.018" transform="translate(-2022.064 -1193.487)" fill="#ff931e"/>
        <g id="Group_741" data-name="Group 741" transform="translate(2.324 21.226)">
          <path id="Path_744" data-name="Path 744" d="M1867.617,1502.391s.724.169.842.36.158.586,1.645.417,1.421-.3,1.421-.3-.536-.471-2.776-.327c-.145.009-.04-1.031-.842-.8C1867.7,1501.8,1867.525,1502.367,1867.617,1502.391Z" transform="translate(-1867.592 -1499.842)" fill="#f2f2f2"/>
          <path id="Path_745" data-name="Path 745" d="M1872.961,1460.784s-.987,0-.829,1.69c0,0-.043.248.406.428,0,0,.357.135.423.406s.342.5,1.882.293a1.849,1.849,0,0,1,.868.078c.408.158.316-.517-.21-.822a1.981,1.981,0,0,1-.79-1.532C1874.764,1461.01,1874.3,1460.446,1872.961,1460.784Z" transform="translate(-1871.909 -1460.68)" fill="#d37a20"/>
          <path id="Path_746" data-name="Path 746" d="M1891.215,1460.784s.763-.436.92,1.254c0,0-.911.42-.461.6,0,0,.418.042.484.313s-.6.853.939.65a1.849,1.849,0,0,1,.868.078c.408.158.316-.517-.21-.822a1.981,1.981,0,0,1-.79-1.532C1893.018,1461.01,1892.557,1460.446,1891.215,1460.784Z" transform="translate(-1890.143 -1460.68)" fill="#ff931e"/>
        </g>
      </g>
      <path id="Path_747" data-name="Path 747" d="M1914.312,895.705a.665.665,0,0,0,.037.219,7.228,7.228,0,0,1,.162,1.831c-.2.2-2.177-5.549-2.658-5.416s1.008,3.905,1.008,3.905a13.034,13.034,0,0,1,1.625,1.548,10.412,10.412,0,0,1,.471-1.354c.249-.356-.022-1.9-.093-2.255s-.609.122-.609.122S1914.311,895.015,1914.312,895.705Z" transform="translate(-95.604 -126.923)" fill="#c07a48"/>
      <path id="Path_748" data-name="Path 748" d="M1848.678,794.1l-.067-.574s-.394.187-.4-.32-.177-1.241.371-.814c0,0,2.442-.707,2.842-.507s.173,1.695.173,1.695l-.293,1.067a.833.833,0,0,1-1.121.52c-.894-.267-.436,1.3.3,1.243s.754,2,.754,2l-1.779.214-1.339-.921-.55-2.071s.683-.077.883-.477A3.187,3.187,0,0,0,1848.678,794.1Z" transform="translate(-34.327 -30.995)" fill="#eaab78"/>
      <path id="Path_749" data-name="Path 749" d="M1848.678,807.836l-.067-.574s-.394.187-.4-.32c0-.38-.048-.731.16-.7a.237.237,0,0,1,.149.374c-.194.272-.455.7-.045.542,2.727-1.055,2.6-.68,2.6-.68l-.187.667s-1.721.28-.08,1.681c0,0-1.972.827-.331,1.323.7.212.754,2,.754,2l-1.779.214-1.339-.921-.55-2.071s.683-.077.883-.477A3.187,3.187,0,0,0,1848.678,807.836Z" transform="translate(-34.327 -44.733)" fill="#c07a48"/>
      <g id="Top" transform="translate(1813.225 764.606)">
        <path id="Path_750" data-name="Path 750" d="M1847.373,874.589s1.921,1.957,1.663,2.3-1.37.125-1.37.125-.9,2.731-.142,3.8c0,0,1.035-1.477,3.987-.409,0,0,1.466-1.032.862-2.26a14.264,14.264,0,0,0-2.126-2.784l-.107.125a20.663,20.663,0,0,1,1.61,1.895c.036.2-1.61-.071-2.108-.6s-2.2-2.224-2.2-2.224Z" transform="translate(-1847.222 -874.553)" fill="#ff931e"/>
        <path id="Path_751" data-name="Path 751" d="M1848.414,927.857l.623-1.761c-.258.347-1.37.125-1.37.125s-.9,2.731-.142,3.8c0,0,1.035-1.477,3.987-.409,0,0,1.546-1.074.862-2.26-.348-.6-.294.774-.294.774h0s-.382.4-.347.6-.979-.324-1.69-.489c-.747-.173-1.532.658-1.532.658Z" transform="translate(-1847.222 -923.757)" fill="#d37a20"/>
        <path id="Path_752" data-name="Path 752" d="M1902.691,953.315a4.208,4.208,0,0,1,1.477.187C1904.488,953.715,1902.691,953.315,1902.691,953.315Z" transform="translate(-1900.173 -949.739)" fill="#d37a20"/>
      </g>
      <path id="Path_753" data-name="Path 753" d="M1811.845,877.854s-.7-2.9.313-3.434a5.882,5.882,0,0,0,1.29,0c.418-.089.809.783.365,1.352,0,0-.107.018-.142,1.512,0,0,.356-.729.587-.854s1.263.516,1.263.516l-.142.5a3.361,3.361,0,0,1-.961,2.206s-.569,1.1-1.192.5S1811.762,878.3,1811.845,877.854Z" transform="translate(0 -109.814)" fill="#eaab78"/>
      <path id="Path_754" data-name="Path 754" d="M1811.845,877.987s-.7-2.9.313-3.434a8.35,8.35,0,0,1,.071,1.317,6.51,6.51,0,0,0,.107,2.793s.267.391,1.229,1.49c0,0,1.169-.957,1.4-1.081h0s.4-.159-.548.713c0,0-.569,1.1-1.192.5S1811.762,878.431,1811.845,877.987Z" transform="translate(0 -109.947)" fill="#c07a48"/>
      <path id="Path_755" data-name="Path 755" d="M1854.7,936.518s.079-1.033.106-1.726S1855.341,936.257,1854.7,936.518Z" transform="translate(-41.134 -167.321)" fill="#c07a48"/>
      <path id="Path_756" data-name="Path 756" d="M1859.148,761.969s-.32-1.508.44-2.042,2.042-.934,2.749.067c0,0,.237.04.239.921s-.265.841-.265.841S1859.855,760.848,1859.148,761.969Z" transform="translate(-45.317)" fill="#ff931e"/>
      <path id="Path_757" data-name="Path 757" d="M1907.14,794.269s-1.8-.766-2.093-.583-.443-.417-.189-.524S1907.661,792.868,1907.14,794.269Z" transform="translate(-88.893 -32.18)" fill="#ff931e"/>
      <path id="Path_758" data-name="Path 758" d="M1919.472,802.715s-1.29-.153-1.515-.419c-.049-.058-.486-.065-.232-.172S1919.558,801.535,1919.472,802.715Z" transform="translate(-101.225 -40.627)" fill="#d37a20"/>
      <path id="Path_759" data-name="Path 759" d="M1906.408,792.006a10.145,10.145,0,0,0-1.36.51c-.3.183-.443-.417-.189-.524S1905.267,791.761,1906.408,792.006Z" transform="translate(-88.893 -31.011)" fill="#d37a20"/>
      <path id="Path_760" data-name="Path 760" d="M1859.208,768.27s-.342-1.54.44-2.041l.388-.249,0,.881a3.254,3.254,0,0,0,.039.889S1859.785,767.687,1859.208,768.27Z" transform="translate(-45.368 -6.301)" fill="#d37a20"/>
      <path id="Path_761" data-name="Path 761" d="M1942.092,830.6s-1.247.254-1.008-1.628,2.484-.881,2.563,0a10.167,10.167,0,0,1,0,2.629s.518.414.158,1.735c0,0-.012.434-1.54.23a9.4,9.4,0,0,1-.144-1.5,1.486,1.486,0,0,1-.234-.717C1941.83,830.851,1941.726,830.491,1942.092,830.6Z" transform="translate(-123.569 -65.413)" fill="#ff931e"/>
      <path id="Path_762" data-name="Path 762" d="M1940.4,851.2s-1.537.193-1.008-1.628c.085-.294.294.169.372,1.05s.968-.073.819.581c0,0,1.89,1.412,1.53,2.733,0,0-.012.434-1.541.23a9.406,9.406,0,0,1-.144-1.5,1.486,1.486,0,0,1-.234-.716C1940.136,851.455,1940.033,851.095,1940.4,851.2Z" transform="translate(-121.876 -86.017)" fill="#d37a20"/>
      <path id="Path_763" data-name="Path 763" d="M1958.707,859.332a1.214,1.214,0,0,0-.917,1.225s.327.083.455,0,.081-.6.752-.79S1958.8,859.137,1958.707,859.332Z" transform="translate(-139.54 -95.37)" fill="#d37a20"/>
      <g id="Group_742" data-name="Group 742" transform="translate(1813.766 762.307)">
        <path id="Path_764" data-name="Path 764" d="M1859.134,828.884s1.625.09,1.632.275,1.249-2.857,1.249-2.857,1.2.133,1.387-.921a1.218,1.218,0,0,0-1.228-1.468c-.574-.053-1.646.16-1.677.36a7.359,7.359,0,0,0-.979,2.262C1859.4,827.6,1859.134,828.884,1859.134,828.884Z" transform="translate(-1859.134 -823.905)" fill="#ff931e"/>
        <path id="Path_765" data-name="Path 765" d="M1922.238,843.124s.006,1.174-.261,1.281,1.359.187,1.159-1.281C1923.136,843.124,1922.447,842.551,1922.238,843.124Z" transform="translate(-1919.096 -842.008)" fill="#d37a20"/>
        <path id="Path_766" data-name="Path 766" d="M1865.144,827.357a1.61,1.61,0,0,1,.632.071h0a19.084,19.084,0,0,0,.619-2.328c.187-1.054,2.091-1.134,1.517-1.187s-1.646.16-1.677.36a7.362,7.362,0,0,0-.979,2.262C1865.135,827.6,1865.144,827.357,1865.144,827.357Z" transform="translate(-1864.871 -823.905)" fill="#d37a20"/>
        <path id="Path_767" data-name="Path 767" d="M1860.657,899.7l.7.267-.594,1.282a6.611,6.611,0,0,1-1.632-.275,9.017,9.017,0,0,1,.273-1.527C1859.519,899.329,1860.657,899.7,1860.657,899.7Z" transform="translate(-1859.134 -895.999)" fill="#f2f2f2"/>
        <path id="Path_768" data-name="Path 768" d="M1860.039,899.188h0l-.382,1.544a1.79,1.79,0,0,1-.522-.088,9.017,9.017,0,0,1,.273-1.527C1859.519,899,1860.039,899.188,1860.039,899.188Z" transform="translate(-1859.134 -895.665)" fill="#ccc"/>
      </g>
      <path id="Path_769" data-name="Path 769" d="M1964.7,909.223a1.683,1.683,0,0,0,.58-.267c.3-.214.447,1.511.158,1.735,0,0,.514.356-1.347.243-.112-.007-.277.015-.29-.1l-.069-1.294c0-.067-.045-.118.022-.125A5.861,5.861,0,0,0,1964.7,909.223Z" transform="translate(-145.204 -142.771)" fill="#f2f2f2"/>
      <path id="Path_770" data-name="Path 770" d="M1964.7,912.946a2.857,2.857,0,0,1,.29-.1c-.335.163-.093,1.606-.381,1.83,0,0-.258,0-.517-.018-.111-.01-.277.015-.29-.1l-.069-1.294c0-.067-.045-.118.022-.125A5.863,5.863,0,0,0,1964.7,912.946Z" transform="translate(-145.204 -146.494)" fill="#ccc"/>
    </g>
    <g id="Group_760" data-name="Group 760" transform="translate(157.377 189)">
      <path id="Path_1008" data-name="Path 1008" d="M2066.586,761.943s.538,1.574,2.94,1.491,3.147-.7,3.438-1.491.5-14.742,0-15.695a3.342,3.342,0,0,0-2.992-1.449,3.91,3.91,0,0,0-3.386,1.408C2065.136,747.656,2066.586,761.943,2066.586,761.943Z" transform="translate(-2065.942 -740.036)" fill="#ff931e"/>
      <path id="Path_1009" data-name="Path 1009" d="M2066.586,761.941s.538,1.574,2.94,1.491-1.982-2.485-1.693-3.271,1.051-12.993.554-13.945,2.734-1.46,1.584-1.418a3.911,3.911,0,0,0-3.386,1.408C2065.136,747.654,2066.586,761.941,2066.586,761.941Z" transform="translate(-2065.942 -740.034)" fill="#d37a20"/>
      <path id="Path_1010" data-name="Path 1010" d="M2082.463,652.712s-3.4,5.218-3.106,7.992l-.58.29s-.014-5.466,3.368-8.738" transform="translate(-2078.174 -651.842)"/>
      <path id="Path_1011" data-name="Path 1011" d="M2170.483,643.438s2.071,6.129,1.7,8.821h.66S2171.849,644.473,2170.483,643.438Z" transform="translate(-2165.573 -643.438)"/>
      <path id="Path_1012" data-name="Path 1012" d="M2151.745,643.438a34.46,34.46,0,0,0-.548,4.762C2151.372,648.614,2152.283,648.242,2151.745,643.438Z" transform="translate(-2147.167 -643.438)"/>
    </g>
  </g>
</svg>
