<svg xmlns="http://www.w3.org/2000/svg" width="37.17" height="31.172" viewBox="0 0 37.17 31.172">
  <g id="endurance" transform="translate(-1870.028 -81.735)">
    <g id="Group_744" data-name="Group 744" transform="translate(1874.573 98.088)">
      <path id="Path_771" data-name="Path 771" d="M1921.726,368.243h19.529v-6.311C1935.59,364.812,1931.065,367.117,1921.726,368.243Z" transform="translate(-1921.726 -353.654)" fill="#d17a20"/>
      <path id="Path_772" data-name="Path 772" d="M2149.937,302.643c-1.053.571-2.416,1.266-3.651,1.847v6.4h9.409V299.057A58.426,58.426,0,0,1,2149.937,302.643Z" transform="translate(-2126.546 -296.306)" fill="#fd911e"/>
      <path id="Path_773" data-name="Path 773" d="M2259.008,267.764a34.051,34.051,0,0,1-3.265,2.605v11.983h3.265Z" transform="translate(-2226.382 -267.764)" fill="#ffb269"/>
    </g>
    <g id="Group_746" data-name="Group 746" transform="translate(1870.028 81.735)">
      <path id="Path_774" data-name="Path 774" d="M1884.011,218.22s1.146-.229,3.044-2.75,4.288-2.75,5.467-4.714a8.373,8.373,0,0,1,2.913-2.881,15.7,15.7,0,0,0,1.211-2.553c0-.393.131-1.178,2.226-2.062,0,0-.36,1.408,3.339,3.437,0,0,1.637-.229,1.6-1.113s5.2,2.324,5.761,3.928a3.1,3.1,0,0,1,.327.72c.065.295-1.244,1.768-1.669,1.964a32,32,0,0,1-4.354,2.619c-2.521,1.179-1.8,2.881-1.8,2.881l-2.226-2.521a1.934,1.934,0,0,0,1.244-.557,19.309,19.309,0,0,0,2.422-1.833,3.875,3.875,0,0,1,2.226-2.046,2.741,2.741,0,0,0-2-.835,8.022,8.022,0,0,1-3.634-.851s.164.458-2.75,2.03a23.924,23.924,0,0,1-2.521,1.9c-.786.426-2.291,1.539-3.012,1.6s-2.75,2.422-4.419,3.175a8.713,8.713,0,0,0-1.8,2.291C1885.288,220.97,1882.244,221,1884.011,218.22Z" transform="translate(-1882.282 -192.578)" fill="#f5a980"/>
      <path id="Path_775" data-name="Path 775" d="M1881.319,218.22s1.146-.229,3.044-2.75,4.288-2.75,5.467-4.714a8.373,8.373,0,0,1,2.913-2.881,15.7,15.7,0,0,0,1.211-2.553c0-.393.131-1.178,2.226-2.062,0,0-.36,1.408,3.339,3.437,0,0,1.637-.229,1.6-1.113s5.2,2.324,5.761,3.928a3.1,3.1,0,0,1,.327.72c.065.295-2.848.262-3.273.458s-.426,1.637-2.946,2.815-3.106,2.489-3.106,2.489l-.724-.819a1.934,1.934,0,0,0,1.244-.557,19.309,19.309,0,0,0,2.422-1.833,3.875,3.875,0,0,1,2.226-2.046s.753-1.686-.687-1.784-3.7.753-4.943.1c0,0-2.1-8.118-3.562-1.309,0,0-1.578,2.521-2.364,2.946s-3.175,2.619-3.9,2.684-2.913,3.765-4.583,4.517a1.837,1.837,0,0,0-1.506,1.015C1881.188,219.824,1879.552,221,1881.319,218.22Z" transform="translate(-1879.59 -192.578)" fill="#a96545"/>
      <path id="Path_776" data-name="Path 776" d="M1902.917,217.519s-.016.472,1.882-2.049,4.288-2.75,5.467-4.714a8.373,8.373,0,0,1,2.913-2.881,15.7,15.7,0,0,0,1.211-2.553c0-.393.131-1.178,2.226-2.062,0,0-.36,1.408,3.339,3.437,0,0,1.637-.229,1.6-1.113s5.2,2.324,5.761,3.928a3.1,3.1,0,0,1,.327.72c.066.295-1.244,1.768-1.669,1.964a19.922,19.922,0,0,1-4.354,2.619c-1.524.618-1.345.947-1.345.947l-1.255-1.292h0a16.105,16.105,0,0,0,2.239-1.685,3.874,3.874,0,0,1,2.226-2.046,2.74,2.74,0,0,0-2-.835,8.022,8.022,0,0,1-3.634-.851s.164.458-2.75,2.03a23.919,23.919,0,0,1-2.521,1.9c-.786.426-2.292,1.539-3.012,1.6s-2.75,2.422-4.419,3.175l-.777.8Z" transform="translate(-1900.026 -192.578)" fill="#fd911e"/>
      <g id="Group_745" data-name="Group 745" transform="translate(16.185 22.383)">
        <path id="Path_777" data-name="Path 777" d="M2056.569,357.5s0-.169-1.494-1.137-.793-1.241-.521-1.283a12.191,12.191,0,0,1,2.893,2.1,10.974,10.974,0,0,0,2.536,1.819c.293.041.09.625-1,0S2058.229,358.975,2056.569,357.5Z" transform="translate(-2054.149 -353.434)" fill="#f0f0f0"/>
        <path id="Path_778" data-name="Path 778" d="M2061.327,336.367a1.094,1.094,0,0,0-.954.492c-.368.547-.716,1.2-.716,1.2a8.043,8.043,0,0,0,1.667,1.441,5.633,5.633,0,0,1,1.011.89,6.4,6.4,0,0,0,2.72,1.634s-.024.156-.359.159,1.384.451.792-.718c0,0-1.126-.331-1.794-2.217a6.742,6.742,0,0,1-.629-1.45s-.558-.836-.88-.642A4.78,4.78,0,0,1,2061.327,336.367Z" transform="translate(-2059.173 -336.365)" fill="#d17a20"/>
        <path id="Path_779" data-name="Path 779" d="M2089.235,349.748c-.334,0,1.384.451.792-.718,0,0-1.126-.331-1.794-2.217a12.83,12.83,0,0,1-.618-1.971s-.569-.316-.892-.122c0,0,.741,1.511.428,1.107,0,0-.163-.239-.531.308s1.083,1.591,1.083,1.591-.147-.031,1.26,1.012c0,0,.955.493.773,1.005" transform="translate(-2083.712 -343.929)" fill="#fd911e"/>
      </g>
      <path id="Path_780" data-name="Path 780" d="M1878.4,373.181a1.28,1.28,0,0,0-1.615.6,20.234,20.234,0,0,1,0,3.492s.272,1.157,2.3.895c0,0,.235-.458.366-.349s-.153-.48-.786-.5a3.168,3.168,0,0,0,.589-1.9C1879.147,374.476,1877.51,374.767,1878.4,373.181Z" transform="translate(-1876.196 -347.481)" fill="#fd911e"/>
      <path id="Path_781" data-name="Path 781" d="M1870.3,374.614s-.48.246-.153,1.249a8.354,8.354,0,0,1,.153,2.815,1.992,1.992,0,0,0,2.624.917s.78.065.366-.633c0,0-.339-.153-.366.349,0,0-1.795.306-2.3-.895a8.752,8.752,0,0,0,.03-3.012.693.693,0,0,1,.289-.894C1871.5,374.1,1870.3,374.614,1870.3,374.614Z" transform="translate(-1870.028 -348.628)" fill="#f0f0f0"/>
      <path id="Path_782" data-name="Path 782" d="M2177.9,97.329s-.017,1.726-1.228,1.894,1.228,2.623,1.228,2.623a6.767,6.767,0,0,1,1.4-.625c.306-.012-.421-1.379.1-2.144s1.743-2.413,1.743-2.413A2.361,2.361,0,0,0,2177.9,97.329Z" transform="translate(-2149.405 -94.994)" fill="#fbb28a"/>
      <path id="Path_783" data-name="Path 783" d="M2024.932,111.114c-.348-.829-2.664-1.135-2.9-1.135a4.574,4.574,0,0,1-1.03-.415,10.349,10.349,0,0,0-2.159.458c-1.2.24-2.882,1.811-3.462,1.637a1.491,1.491,0,0,0-1.078.109s-.218.327-.109.044-.109-.48-.437-.456-.065.7-.289.7a3.1,3.1,0,0,0-1.479-.2c-.786.153-.044.5.393.567s1.7,1.135,1.79.938a5.978,5.978,0,0,1,1.331-.742c.568.087.7-.2,1.353-.218s1-.436,1.266-.371,3.214-.146,3.214-.146h0a5.824,5.824,0,0,0,1.784,1.237A1.637,1.637,0,0,0,2024.932,111.114Z" transform="translate(-1999.196 -107.098)" fill="#f5a980"/>
      <path id="Path_784" data-name="Path 784" d="M2025.274,124.691c-.348-.829-1.882.568-2.118.568s-1.478-.11-1.478-.11a6.39,6.39,0,0,0-2.8-.108c-1.2.24-2.475,1.025-3.055.85a4.122,4.122,0,0,0-1.746.2,3.363,3.363,0,0,0,.458-.7c.109-.284-.109-.48-.436-.456s-.322,1.023-.546,1.023-.393-.415-1.178-.262-.087.24.349.305,1.7,1.135,1.79.938a5.978,5.978,0,0,1,1.331-.742c.567.087.7-.2,1.353-.218s1-.436,1.266-.371,3.214-.146,3.214-.146h0a5.824,5.824,0,0,0,1.784,1.237A1.637,1.637,0,0,0,2025.274,124.691Z" transform="translate(-1999.538 -120.675)" fill="#a96545"/>
      <path id="Path_785" data-name="Path 785" d="M2177.148,97.329s-.016,1.726-1.228,1.894.651,1.406.651,1.406-.185-1.062.12-1.074,1.633.27,2.159-.5,1.544-2.4,1.544-2.4A2.361,2.361,0,0,0,2177.148,97.329Z" transform="translate(-2148.658 -94.994)" fill="#a96545"/>
      <path id="Path_786" data-name="Path 786" d="M2067.824,133.07s-4.452,2.422-4.856,2.2c0,0,.557,1.135-1.6,1.113s-3.775-3.055-3.339-3.437,2.379-1.56,2.662-2.28,4.91-3.928,6.525-4.5c0,0,1.55.087,1.7.306s.807,1.171.677,1.426-2.161-.422-2.379,1.826a7.216,7.216,0,0,1,.437,1.031A9.408,9.408,0,0,0,2067.824,133.07Z" transform="translate(-2041.434 -122.268)" fill="#fd911e"/>
      <path id="Path_787" data-name="Path 787" d="M1902.917,217.519s-.016.472,1.882-2.049,4.288-2.75,5.467-4.714a8.373,8.373,0,0,1,2.913-2.881,15.7,15.7,0,0,0,1.211-2.553c0-.393.131-1.178,2.226-2.062,0,0-3.11,2.586.589,4.616,0,0,5.2,1.866,5.167.982s1.653.338,2.209,1.942c0,0-2,.949-1.931,1.244s-1.288,1.418-1.714,1.615a5.4,5.4,0,0,0-.895.567l-.787.481-.23-.237h0a16.105,16.105,0,0,0,2.239-1.685,3.874,3.874,0,0,1,2.226-2.046,2.74,2.74,0,0,0-2-.835,8.022,8.022,0,0,1-3.634-.851s-3.339.087-3.252-2.139c.021-.524-.691,2.656-1.309,2.99,0,0-1.484.581-2.27,1.007s-2.27,2.4-2.99,2.463-1.539,2.193-3.208,2.946c0,0-.741.679-1.518,1.481Z" transform="translate(-1900.026 -192.578)" fill="#d17a20"/>
      <path id="Path_788" data-name="Path 788" d="M2067.824,132.973s-4.452,2.422-4.856,2.2c0,0,.557,1.135-1.6,1.113s-3.775-3.055-3.339-3.437,2.379-1.56,2.662-2.28,4.91-3.928,6.525-4.5c0,0,.7-.319-3.431,2.766a42.763,42.763,0,0,1-5.493,3.807c-1.232.758,2.679,2.01,2.307,2.79-.414.866,2.558-.951,2.39-.573-.6,1.362,3.708-2.005,3.773-2.111.475-.774-1.213-2.3-.879-2.786,1.748-2.525,1.732-1.489,1.732-1.489s-.533.838-.4,1.154a7.215,7.215,0,0,1,.437,1.031A9.408,9.408,0,0,0,2067.824,132.973Z" transform="translate(-2041.434 -122.17)" fill="#d17a20"/>
      <path id="Path_789" data-name="Path 789" d="M2114.059,123.195s.461.873,1.007,1.048S2113.969,124.2,2114.059,123.195Z" transform="translate(-2092.604 -119.551)" fill="#a96545"/>
      <path id="Path_790" data-name="Path 790" d="M2129.792,119.223a1.059,1.059,0,0,1-.7.349C2128.635,119.616,2128.846,119.262,2129.792,119.223Z" transform="translate(-2106.109 -115.928)" fill="#a96545"/>
      <path id="Path_791" data-name="Path 791" d="M2149.384,119.223" transform="translate(-2124.828 -115.928)" fill="#a96545"/>
      <path id="Path_792" data-name="Path 792" d="M2166.556,149.073a3.279,3.279,0,0,0-.681-2.794s-.214-.509-.017-.582-1.695.085-1.982.672a1.7,1.7,0,0,0,.04,2.185,6.227,6.227,0,0,0,.633,3.661l.873,1.7s.48.546.764.546.109-.239.829-.283a15.537,15.537,0,0,0,4.736-2.488s.633.044,1.68-1.048-1.069-1.811-1.069-1.811-.807.2-.938.458-.349-.044-.284,1.222a16.083,16.083,0,0,1-2.16.96c-.284,0-1.309-.284-1.658-.131C2167.32,151.342,2167.974,150.23,2166.556,149.073Z" transform="translate(-2137.7 -140.06)" fill="#f5a980"/>
      <path id="Path_793" data-name="Path 793" d="M2164.963,156.985s.607-2.1-.458-3.082a10.113,10.113,0,0,1-.2-2.462c.2-.073-.146-.824-.433-.238a1.7,1.7,0,0,0,.04,2.185,6.227,6.227,0,0,0,.633,3.661l.873,1.7s.48.546.764.546.109-.239.829-.283a15.536,15.536,0,0,0,4.736-2.488s.633.044,1.68-1.048-1.069-1.811-1.069-1.811.873.977.742,1.239-1.7.027-1.637,1.292c0,0-2.27,1.811-4.256,1.266-.273-.075.458-1.44.109-1.288C2167.32,156.178,2166.381,158.142,2164.963,156.985Z" transform="translate(-2137.7 -144.895)" fill="#a96545"/>
      <path id="Path_794" data-name="Path 794" d="M2269.441,167.123a9.008,9.008,0,0,1-1.206.861c-.125-.01-.606-.992-.955-1.232s.306-1.812.786-1.681-.333.88-.48,1.353.764-.655,1.135-.633.306.437.022.524-.677.219-.677.437.851-.48,1.026-.415.185.436-.78.807c0,0-.2.306.169.262S2268.983,166.861,2269.441,167.123Z" transform="translate(-2232.271 -157.739)" fill="#a96545"/>
      <path id="Path_795" data-name="Path 795" d="M2251.123,174.813s.659-.576.637-.99.153-.589.371-.262.415.895.24,1A7.323,7.323,0,0,1,2251.123,174.813Z" transform="translate(-2217.624 -165.333)" fill="#f5a980"/>
      <path id="Path_796" data-name="Path 796" d="M2207.579,105.244s-.295.557-.6.546-.807-.476-1.026-.445-.687-1.6-.338-1.921c0,0-.327-.994-.033-1.245s.6-.338.72.065,1.408-1.517,1.408-1.517a4.028,4.028,0,0,1,.884.949c.12.327.437,1.058.044,1.429s-.022,1.048-.109,1.288-.273.022-.382.033S2207.862,105.212,2207.579,105.244Z" transform="translate(-2175.973 -99.058)" fill="#f5a980"/>
      <path id="Path_797" data-name="Path 797" d="M2206.661,103.8s-1.328-.41-.062,1.663c.159.261-.111-.153-.329-.122s-.687-1.6-.338-1.921c0,0-.273-.82.022-1.07s.546-.513.666-.109,1.408-1.517,1.408-1.517a3.824,3.824,0,0,0,0,1.2c.12.327.788,1.054.4,1.434-.97.96-.618.879-.706,1.12s-.033.391-.142.4S2206.65,103.236,2206.661,103.8Z" transform="translate(-2176.29 -99.058)" fill="#a96545"/>
      <path id="Path_798" data-name="Path 798" d="M2209.055,119.223a.576.576,0,0,0-.2.535c.065.327-.01.4-.01.4A1.766,1.766,0,0,0,2209.055,119.223Z" transform="translate(-2179.064 -115.928)" fill="#f5a980"/>
      <path id="Path_799" data-name="Path 799" d="M2188.023,85.8a1.094,1.094,0,0,0,.745-.77c.172-.633,1.278-.485,1.3.161a1.571,1.571,0,0,1-.16.909h.4a.872.872,0,0,1,.7-1.07s-.218-1.4,0-1.44,1.048.24,1.08.764.513-.065.513-.48-.786-1.92-3.012-2.139c0,0-1,.175-1.178.786s-.817-.218-.768,1.157.245,1.526-.279,1.811C2187.369,85.488,2187.873,85.857,2188.023,85.8Z" transform="translate(-2159.474 -81.735)" fill="#020001"/>
    </g>
  </g>
</svg>
