<svg xmlns="http://www.w3.org/2000/svg" xmlns:xlink="http://www.w3.org/1999/xlink" width="202" height="165" viewBox="0 0 202 165">
  <defs>
    <clipPath id="clip-path">
      <rect id="Rectangle_206" data-name="Rectangle 206" width="202" height="165"  fill="#fff" stroke="#707070" stroke-width="1"/>
    </clipPath>
  </defs>
  <g id="endurance_header" transform="translate(-188 -49)" clip-path="url(#clip-path)">
    <g id="Group_792" data-name="Group 792" transform="translate(200.697 57.5)">
      <g id="Group_744" data-name="Group 744" transform="translate(0 103.547)">
        <path id="Path_771" data-name="Path 771" d="M2060.912,406.909H1921.727V361.932C1962.1,382.46,1994.349,398.884,2060.912,406.909Z" transform="translate(-1828.386 -302.936)" fill="#d17a20"/>
        <path id="Path_772" data-name="Path 772" d="M2187.323,324.616c7.509,4.068,17.219,9.026,26.022,13.165v45.645h-67.059V299.057A416.544,416.544,0,0,0,2187.323,324.616Z" transform="translate(-2121.503 -279.452)" fill="#fd911e"/>
        <path id="Path_773" data-name="Path 773" d="M2255.744,267.764s7.9,7.507,23.267,18.567v85.407h-23.267Z" transform="translate(-2255.744 -267.764)" fill="#ffb269"/>
      </g>
      <g id="Group_746" data-name="Group 746" transform="translate(0.002)">
        <path id="Path_774" data-name="Path 774" d="M2068.024,309.881s-8.166-1.633-21.7-19.6-30.563-19.6-38.962-33.6a59.668,59.668,0,0,0-20.765-20.531s-8.632-15.4-8.632-18.2-.932-8.4-15.864-14.7c0,0,2.566,10.032-23.8,24.5,0,0-11.665-1.633-11.432-7.932s-37.1,16.565-41.061,28a22.069,22.069,0,0,0-2.333,5.133c-.467,2.1,8.865,12.6,11.9,14s13.066,10.265,31.03,18.664,12.831,20.531,12.831,20.531l15.865-17.964s-3.966.233-8.866-3.966-8.632-4.666-17.265-13.065c0,0-2.333-8.166-15.864-14.582,0,0,3.966-5.249,14.232-5.949s17.031-1.4,25.9-6.066c0,0-1.166,3.266,19.6,14.465,0,0,12.366,10.5,17.965,13.532s16.332,10.966,21.464,11.432,19.6,17.264,31.494,22.63c0,0,10.5,9.8,12.833,16.332S2080.623,329.712,2068.024,309.881Z" transform="translate(-1815.436 -127.125)" fill="#f5a980"/>
        <path id="Path_775" data-name="Path 775" d="M2065.063,309.881s-8.166-1.633-21.7-19.6-30.564-19.6-38.962-33.6a59.681,59.681,0,0,0-20.764-20.531s-8.633-15.4-8.633-18.2-.933-8.4-15.865-14.7c0,0,2.567,10.032-23.8,24.5,0,0-11.666-1.633-11.433-7.932s-37.1,16.565-41.061,28a22.051,22.051,0,0,0-2.334,5.133c-.466,2.1,20.3,1.866,23.331,3.266s3.033,11.665,21,20.065,22.139,17.737,22.139,17.737l5.157-5.839s-3.965.233-8.865-3.966-8.633-4.666-17.265-13.065c0,0-2.334-8.166-15.865-14.582,0,0-5.366-12.015,4.9-12.715s26.364,5.367,35.23.7c0,0,14.932-57.86,25.383-9.332,0,0,11.246,17.964,16.845,21s22.63,18.665,27.762,19.131,20.765,26.831,32.663,32.2c0,0,8.4.7,10.733,7.232S2077.662,329.712,2065.063,309.881Z" transform="translate(-1812.474 -127.125)" fill="#a96545"/>
        <path id="Path_776" data-name="Path 776" d="M2079.2,304.887s.116,3.361-13.416-14.6-30.563-19.6-38.962-33.6a59.668,59.668,0,0,0-20.765-20.531s-8.632-15.4-8.632-18.2-.932-8.4-15.864-14.7c0,0,2.566,10.032-23.8,24.5,0,0-11.665-1.633-11.432-7.932s-37.1,16.565-41.062,28a22.082,22.082,0,0,0-2.332,5.133c-.468,2.1,8.864,12.6,11.9,14s12.6,11.2,31.03,18.664c10.863,4.4,9.583,6.75,9.583,6.75l8.942-9.207h0c-4.9-4.2-7.326-3.609-15.96-12.008,0,0-2.332-8.166-15.863-14.582,0,0,3.965-5.249,14.232-5.949s17.031-1.4,25.9-6.066c0,0-1.166,3.266,19.6,14.465,0,0,12.365,10.5,17.965,13.532s16.332,10.966,21.464,11.432,19.6,17.264,31.494,22.63l5.541,5.716Z" transform="translate(-1834.888 -127.125)" fill="#fd911e"/>
        <g id="Group_745" data-name="Group 745" transform="translate(103.66 159.525)">
          <path id="Path_777" data-name="Path 777" d="M2079.339,372.329s-.023-1.2,10.651-8.1,5.651-8.845,3.714-9.142-18.555,12.07-20.617,14.94-15.985,12.674-18.076,12.964-.639,4.452,7.124.011S2067.51,382.851,2079.339,372.329Z" transform="translate(-2050.684 -343.355)" fill="#f0f0f0"/>
          <path id="Path_778" data-name="Path 778" d="M2090.209,336.377a7.794,7.794,0,0,1,6.8,3.505c2.624,3.9,5.1,8.564,5.1,8.564s-1.851,2.834-11.882,10.273a40.175,40.175,0,0,0-7.2,6.342c-3.6,4.011-7.377,6.729-19.383,11.647,0,0,.171,1.111,2.555,1.131s-9.864,3.215-5.646-5.115c0,0,8.027-2.355,12.785-15.8,0,0,4.964-9.23,4.483-10.337,0,0,3.975-5.96,6.275-4.577A34.083,34.083,0,0,0,2090.209,336.377Z" transform="translate(-2059.655 -336.365)" fill="#d17a20"/>
          <path id="Path_779" data-name="Path 779" d="M2093.1,380.935c2.384.02-9.865,3.215-5.646-5.115,0,0,8.027-2.356,12.785-15.8,0,0,4.883-12.939,4.4-14.047,0,0,4.052-2.251,6.354-.868,0,0-5.283,10.77-3.049,7.886,0,0,1.159-1.7,3.784,2.2s-7.715,11.338-7.715,11.338,1.047-.224-8.984,7.215c0,0-6.8,3.516-5.509,7.163" transform="translate(-2086.562 -339.463)" fill="#fd911e"/>
        </g>
        <path id="Path_780" data-name="Path 780" d="M1884.479,373.726s7.777-3.057,11.51,4.254c0,0-1.4,19.753,0,24.885,0,0-1.942,8.244-16.369,6.377,0,0-1.673-3.267-2.607-2.488s1.089-3.422,5.6-3.578c0,0-4.978-6.844-4.2-13.532S1890.857,385.026,1884.479,373.726Z" transform="translate(-1635.312 -190.557)" fill="#fd911e"/>
        <path id="Path_781" data-name="Path 781" d="M1892.2,376.233s3.422,1.75,1.089,8.9-1.245,18.975-1.089,20.064-7.54,11.821-18.7,6.533c0,0-5.561.467-2.606-4.51,0,0,2.413-1.089,2.606,2.488,0,0,12.791,2.178,16.368-6.377,0,0-2.444-13.849-.211-21.467,0,0,1.9-3.414-2.057-6.371S1892.2,376.233,1892.2,376.233Z" transform="translate(-1629.192 -191.027)" fill="#f0f0f0"/>
        <path id="Path_782" data-name="Path 782" d="M2199.464,103.807s.118,12.3,8.75,13.5-8.75,18.7-8.75,18.7-7.785-4.37-9.965-4.457,3-9.826-.746-15.283-12.422-17.2-12.422-17.2S2190.718,90.309,2199.464,103.807Z" transform="translate(-2137.602 -87.164)" fill="#fbb28a"/>
        <path id="Path_783" data-name="Path 783" d="M2012.176,120.741c2.478-5.909,18.985-8.089,20.667-8.089s7.34-2.955,7.34-2.955c1.554-.779,6.843,1.555,15.389,3.266s20.539,12.91,24.677,11.665a10.623,10.623,0,0,1,7.683.778s1.555,2.333.778.311.778-3.422,3.111-3.248.466,4.959,2.057,4.959,4.941-2.488,10.541-1.4.311,3.577-2.8,4.043-12.133,8.088-12.755,6.688-9.487-5.288-9.487-5.288c-4.045.622-4.979-1.4-9.645-1.556s-7.154-3.111-9.022-2.644-22.9-1.038-22.9-1.038v0c-3.825,4.822-12.715,8.817-12.715,8.817C2016.229,136.76,2009.7,126.651,2012.176,120.741Z" transform="translate(-1930.684 -92.121)" fill="#f5a980"/>
        <path id="Path_784" data-name="Path 784" d="M2012.55,126.3c2.48-5.909,13.415,4.05,15.1,4.05s10.536-.786,10.536-.786c1.556-.779,11.4-2.48,19.948-.769s17.637,7.3,21.775,6.058,12.444,1.4,12.444,1.4a23.956,23.956,0,0,1-3.266-4.977c-.779-2.022.777-3.422,3.11-3.248s2.3,7.292,3.888,7.292,2.8-2.955,8.4-1.866.622,1.711-2.489,2.177-12.132,8.088-12.754,6.689-9.488-5.288-9.488-5.288c-4.044.622-4.977-1.4-9.644-1.556s-7.155-3.111-9.022-2.644-22.9-1.038-22.9-1.038v0c-3.825,4.822-12.714,8.817-12.714,8.817C2016.6,142.32,2010.072,132.211,2012.55,126.3Z" transform="translate(-1931.06 -97.681)" fill="#a96545"/>
        <path id="Path_785" data-name="Path 785" d="M2198.645,103.807s.116,12.3,8.749,13.5-4.637,10.021-4.637,10.021,1.321-7.567-.858-7.654-11.637,1.923-15.386-3.534-11-17.075-11-17.075S2189.9,90.309,2198.645,103.807Z" transform="translate(-2136.783 -87.164)" fill="#a96545"/>
        <path id="Path_786" data-name="Path 786" d="M2070.676,175.324s31.728,17.264,34.606,15.709c0,0-3.967,8.087,11.432,7.932s26.908-21.775,23.8-24.5-16.953-11.121-18.974-16.253-35-28-46.5-32.041c0,0-11.044.622-12.133,2.178s-5.754,8.345-4.821,10.161,15.4-3.006,16.954,13.014c0,0-3.11,6.3-3.11,7.348S2072.075,173.768,2070.676,175.324Z" transform="translate(-1993.841 -98.333)" fill="#fd911e"/>
        <path id="Path_787" data-name="Path 787" d="M2057.327,304.887s.116,3.361-13.415-14.6-30.563-19.6-38.962-33.6a59.668,59.668,0,0,0-20.765-20.531s-8.632-15.4-8.632-18.2-.932-8.4-15.865-14.7c0,0,22.165,18.431-4.2,32.9,0,0-37.058,13.3-36.825,7s-11.781,2.411-15.746,13.843c0,0,14.226,6.766,13.761,8.866s9.18,10.11,12.213,11.509a38.489,38.489,0,0,1,6.378,4.044l5.608,3.431,1.641-1.688h0c-4.9-4.2-7.326-3.609-15.96-12.008,0,0-2.332-8.166-15.863-14.582,0,0,3.965-5.249,14.232-5.949s17.03-1.4,25.9-6.066c0,0,23.8.622,23.175-15.243-.146-3.735,4.925,18.931,9.332,21.308,0,0,10.577,4.141,16.176,7.174s16.177,17.09,21.308,17.556,10.966,15.632,22.864,21c0,0,5.279,4.839,10.82,10.555Z" transform="translate(-1813.019 -127.125)" fill="#d17a20"/>
        <path id="Path_788" data-name="Path 788" d="M2057.954,175.284s31.727,17.264,34.606,15.71c0,0-3.968,8.088,11.432,7.932s26.907-21.775,23.8-24.5-16.952-11.121-18.975-16.253-35-28-46.5-32.041c0,0-4.978-2.275,24.454,19.715,31.665,23.654,30.546,21.83,39.152,27.13,8.778,5.405-19.095,14.327-16.441,19.881,2.947,6.169-18.23-6.78-17.031-4.083,4.312,9.709-26.425-14.292-26.887-15.048-3.387-5.519,8.646-16.416,6.267-19.854-12.457-18-12.341-10.613-12.341-10.613s3.8,5.97,2.828,8.225c0,0-3.112,6.3-3.112,7.347S2059.353,173.729,2057.954,175.284Z" transform="translate(-1981.121 -98.293)" fill="#d17a20"/>
        <path id="Path_789" data-name="Path 789" d="M2122.025,123.2s-3.287,6.222-7.176,7.466S2122.669,130.35,2122.025,123.2Z" transform="translate(-2010.018 -97.22)" fill="#a96545"/>
        <path id="Path_790" data-name="Path 790" d="M2128.861,119.223a7.547,7.547,0,0,0,4.976,2.488C2137.1,122.023,2135.6,119.5,2128.861,119.223Z" transform="translate(-2032.741 -95.737)" fill="#a96545"/>
        <path id="Path_791" data-name="Path 791" d="M2149.384,119.223" transform="translate(-2059.484 -95.737)" fill="#a96545"/>
        <path id="Path_792" data-name="Path 792" d="M2214.565,169.857s-2.733-12.911,4.855-19.91c0,0,1.522-3.631.123-4.149s12.08.608,14.127,4.789,5,6.9-.286,15.573c0,0,2.177,15.983-4.51,26.093l-6.223,12.132s-3.421,3.888-5.442,3.888-.777-1.706-5.911-2.019-28.307-12.29-33.751-17.734c0,0-4.511.311-11.976-7.466s7.621-12.91,7.621-12.91,5.753,1.4,6.688,3.267,2.489-.311,2.022,8.71c0,0,13.375,6.843,15.4,6.843s9.332-2.022,11.821-.933C2209.121,186.032,2204.455,178.1,2214.565,169.857Z" transform="translate(-2155.307 -105.619)" fill="#f5a980"/>
        <path id="Path_793" data-name="Path 793" d="M2225.92,193.766s-4.324-14.964,3.266-21.963c0,0,2.8-17.026,1.4-17.544s1.037-5.874,3.084-1.693,5,6.9-.286,15.573c0,0,2.177,15.983-4.51,26.093l-6.223,12.132s-3.421,3.888-5.442,3.888-.777-1.706-5.911-2.019-28.307-12.29-33.751-17.734c0,0-4.511.311-11.976-7.466s7.621-12.91,7.621-12.91-6.221,6.966-5.288,8.832,12.132.189,11.665,9.21c0,0,16.178,12.91,30.331,9.021,1.948-.536-3.268-10.265-.78-9.176C2209.121,188.012,2215.81,202.011,2225.92,193.766Z" transform="translate(-2155.307 -107.599)" fill="#a96545"/>
        <path id="Path_794" data-name="Path 794" d="M2267.183,179.74s7.7,6.21,8.592,6.138,4.317-7.069,6.8-8.781-2.178-12.911-5.6-11.977,2.371,6.271,3.421,9.643-5.443-4.666-8.086-4.511-2.178,3.111-.156,3.733,4.821,1.558,4.821,3.112-6.066-3.423-7.309-2.956-1.321,3.11,5.561,5.755c0,0,1.437,2.178-1.208,1.866S2270.447,177.873,2267.183,179.74Z" transform="translate(-2267.183 -112.859)" fill="#a96545"/>
        <path id="Path_795" data-name="Path 795" d="M2260.5,183.531s-4.7-4.1-4.541-7.058-1.09-4.2-2.645-1.866-2.955,6.377-1.711,7.155S2260.5,183.531,2260.5,183.531Z" transform="translate(-2234.339 -115.968)" fill="#f5a980"/>
        <path id="Path_796" data-name="Path 796" d="M2214.362,132.923s2.1,3.966,4.278,3.888,5.755-3.39,7.311-3.173,4.9-11.431,2.409-13.695c0,0,2.334-7.085.234-8.874s-4.278-2.411-5.132.466-10.033-10.81-10.033-10.81-5.444,4.433-6.3,6.766-3.11,7.543-.312,10.187.156,7.466.779,9.177,1.943.155,2.72.233S2212.339,132.69,2214.362,132.923Z" transform="translate(-2174.7 -88.829)" fill="#f5a980"/>
        <path id="Path_797" data-name="Path 797" d="M2219.251,122.657s9.467-2.924.445,11.852c-1.136,1.859.792-1.088,2.347-.87s4.9-11.431,2.41-13.695c0,0,1.945-5.841-.156-7.629s-3.889-3.655-4.743-.778-10.033-10.81-10.033-10.81.857,6.189,0,8.522-5.613,7.512-2.876,10.221c6.913,6.844,4.407,6.268,5.031,7.979s.236,2.786,1.014,2.864S2219.33,118.609,2219.251,122.657Z" transform="translate(-2170.796 -88.829)" fill="#a96545"/>
        <path id="Path_798" data-name="Path 798" d="M2208.871,119.223a4.1,4.1,0,0,1,1.4,3.81c-.467,2.333.074,2.844.074,2.844A12.589,12.589,0,0,1,2208.871,119.223Z" transform="translate(-2157.703 -95.737)" fill="#f5a980"/>
        <path id="Path_799" data-name="Path 799" d="M2220.033,110.708a7.8,7.8,0,0,1-5.307-5.487c-1.227-4.511-9.105-3.458-9.288,1.148s1.14,6.481,1.14,6.481h-2.88s1.4-6.385-4.972-7.629c0,0,1.555-9.954,0-10.266s-7.467,1.711-7.7,5.444-3.656-.467-3.656-3.422,5.6-13.687,21.465-15.243c0,0,7.153,1.244,8.4,5.6s5.82-1.555,5.476,8.243-1.744,10.879,1.988,12.905C2224.7,108.483,2221.105,111.114,2220.033,110.708Z" transform="translate(-2158.596 -81.735)" fill="#020001"/>
      </g>
    </g>
  </g>
</svg>
