<svg xmlns="http://www.w3.org/2000/svg" width="17.4" height="34.343" viewBox="0 0 17.4 34.343">
  <g id="functional_training" transform="translate(-551.328 -30.372)">
    <g id="Legs" transform="translate(551.328 36.977)">
      <path id="Path_616" data-name="Path 616" d="M568.4,423.182s.8.217.927.464.174.753,1.811.536,1.564-.39,1.564-.39-.59-.605-3.056-.421c-.159.012-.043-1.325-.927-1.028C568.488,422.418,568.294,423.152,568.4,423.182Z" transform="translate(-566.959 -396.496)" fill="#f2f2f2"/>
      <path id="Path_617" data-name="Path 617" d="M554.224,232.92a41.735,41.735,0,0,0-.174,5.606c.188,1.651,1.666-.3,1.666-.3a5.037,5.037,0,0,1,.666-2.636,9.277,9.277,0,0,0,1.318-3.259c.13-1.086,1.869-3.158.971-4.722l-.319-.377-2.318-2.39a6.69,6.69,0,0,1-1.869-1.376s0,.232-1.666,1.3a3.573,3.573,0,0,0-.463,4.519,3.959,3.959,0,0,0,2.781,1.608A8.568,8.568,0,0,0,554.224,232.92Z" transform="translate(-551.412 -214.1)" fill="#432d1b"/>
      <path id="Path_618" data-name="Path 618" d="M585.224,228.748a39.4,39.4,0,0,0-1.42,4.433,46.3,46.3,0,0,1-2.093,5.345c-.7,1.507,1.666-.3,1.666-.3a5.036,5.036,0,0,1,.666-2.636,9.28,9.28,0,0,0,1.318-3.259c.13-1.086,1.869-3.158.971-4.722l-.319-.377-2.318-2.39a6.69,6.69,0,0,1-1.869-1.376" transform="translate(-579.08 -214.1)" fill="#7c4c32"/>
      <path id="Path_619" data-name="Path 619" d="M570.932,110.985a4.04,4.04,0,0,0-2.053,4.443c.521,3.27-2.957,5.541-2.957,5.541l7.043.738a2.832,2.832,0,0,1,.617-1.879,3.51,3.51,0,0,0,1.271-2.064,11.333,11.333,0,0,0,.781-1.021c.565-.793,2.717-.272,2.717-.272s.576-3.933-2.205-4.856a19.7,19.7,0,0,0-3.792-1.369A2.483,2.483,0,0,0,570.932,110.985Z" transform="translate(-564.715 -110.246)" fill="#432d1b"/>
      <path id="Path_620" data-name="Path 620" d="M572.032,393.475s-1.086,0-.913,2.173c0,0-.048.319.447.55a.859.859,0,0,1,.466.522c.072.348.377.637,2.071.377a1.754,1.754,0,0,1,.956.1c.449.2.348-.665-.232-1.057a2.717,2.717,0,0,1-.869-1.97C574.016,393.765,573.509,393.04,572.032,393.475Z" transform="translate(-569.465 -369.932)" fill="#d37a20"/>
      <path id="Path_621" data-name="Path 621" d="M694.981,289.639a4.722,4.722,0,0,0-1.113,3.133s-.159,3.1-.7,3.94,2.155-.1,2.155-.1a6.293,6.293,0,0,1,1.22-3.39,6,6,0,0,0,1.2-3.3S695.452,289.015,694.981,289.639Z" transform="translate(-681.379 -274.604)" fill="#432d1b"/>
      <path id="Path_622" data-name="Path 622" d="M557.609,232.326c.13-1.086,1.869-3.158.971-4.722l-.319-.377-2.318-2.39a6.69,6.69,0,0,1-1.869-1.376s0,.232-1.666,1.3a3.573,3.573,0,0,0-.464,4.519,3.959,3.959,0,0,0,2.781,1.608,8.565,8.565,0,0,0-.594,2.028" transform="translate(-551.328 -214.1)" fill="#d37a20"/>
      <path id="Path_623" data-name="Path 623" d="M711.343,294.121s-.681.652-.8,2.854a30.382,30.382,0,0,1-1.535,3.549c-.536.84.794.087.794.087a6.293,6.293,0,0,1,1.22-3.39,6,6,0,0,0,1.2-3.3S711.814,293.5,711.343,294.121Z" transform="translate(-695.856 -278.603)" fill="#7c4c32"/>
      <path id="Path_624" data-name="Path 624" d="M624.978,240.541s2.636.333,2.97.348a9.017,9.017,0,0,1,3.064.782s1.847.34,2.3,1.506c0,0,.221,2-.336,2.542a8.032,8.032,0,0,0-3.245-.085s.335-.741.549-.8a4.641,4.641,0,0,0-2.024.258,9,9,0,0,1-4.686.29c-2.39-.3.188-2.629.188-2.629S625.014,241.417,624.978,240.541Z" transform="translate(-616.661 -229.767)" fill="#d37a20"/>
      <path id="Path_625" data-name="Path 625" d="M604.351,236.735a2.9,2.9,0,0,0,2.578-.21s.282,1.043-1.572,2.991-2.483-3.353-2.483-3.353S604.057,236.639,604.351,236.735Z" transform="translate(-598.612 -225.751)" fill="#d37a20"/>
      <path id="Path_626" data-name="Path 626" d="M571,230.859c.176-1.08,1.864-3.29.966-4.855l-.319-.377-2.318-2.39a6.691,6.691,0,0,1-1.869-1.376s.122.237-1.543,1.309c0,0,1.848-.061,3.47,2.488,0,0,.758,3.754.178,5.439" transform="translate(-564.715 -212.633)" fill="#ff931e"/>
      <path id="Path_627" data-name="Path 627" d="M582.642,393.475s.839-.56,1.013,1.612c0,0-1,.54-.508.771,0,0,.46.054.532.4s-.661,1.1,1.034.836a1.754,1.754,0,0,1,.956.1c.449.2.348-.665-.232-1.057a2.716,2.716,0,0,1-.869-1.97C584.627,393.765,584.12,393.04,582.642,393.475Z" transform="translate(-580.053 -369.932)" fill="#ff931e"/>
      <path id="Path_628" data-name="Path 628" d="M685.086,398.416s-.076-.141-1.651-.174-1.173-.619-.989-.793a9.806,9.806,0,0,1,3.148.25,8.835,8.835,0,0,0,2.751.2c.239-.117.359.47-.75.514S687.019,398.785,685.086,398.416Z" transform="translate(-671.433 -373.646)" fill="#f2f2f2"/>
      <path id="Path_629" data-name="Path 629" d="M685.886,369.154s-.467-.2-.489.445,0,1.521,0,1.521a6.531,6.531,0,0,0,1.923.337,4.554,4.554,0,0,1,1.173.217,5.153,5.153,0,0,0,2.8-.044s.054.141-.2.315,1.249-.337.261-1c0,0-1,.3-2.379-.913a14.853,14.853,0,0,1-.63-1.347s-1.325.065-1.478.391A1.486,1.486,0,0,1,685.886,369.154Z" transform="translate(-674.302 -347.317)" fill="#d37a20"/>
      <path id="Path_630" data-name="Path 630" d="M707.6,371.946c-.25.174,1.249-.337.261-1,0,0-1,.3-2.379-.913a14.854,14.854,0,0,1-.63-1.347s-1.325.065-1.478.391c0,0,1.26.869.837.7,0,0-.234-.114-.255.527s1.554.76,1.554.76-.125.049,1.418.191c0,0,.946-.082,1.048.435" transform="translate(-690.8 -347.317)" fill="#ff931e"/>
      <path id="Path_631" data-name="Path 631" d="M624.174,111.452s2.053,1.295.292,4.1c-2.868,4.57-2.138,5.916-2.138,5.916l2.281.239a2.832,2.832,0,0,1,.617-1.879,3.509,3.509,0,0,0,1.271-2.064,11.35,11.35,0,0,0,.781-1.021c.565-.793,2.717-.272,2.717-.272s.576-3.933-2.205-4.856A19.694,19.694,0,0,0,624,110.246C623.26,110.268,624.174,111.452,624.174,111.452Z" transform="translate(-616.381 -110.246)" fill="#7c4c32"/>
      <path id="Path_632" data-name="Path 632" d="M651.912,240.541s2.636.333,2.97.348a9.017,9.017,0,0,1,3.064.782s1.847.34,2.3,1.506c0,0,.221,2-.336,2.542a4.519,4.519,0,0,0-1.017-.169s.06-1.226.274-1.28c0,0,0-2-.775-1.622s-1.466-.892-3.875-.84c-.333.007.175-.936.175-.936S653.1,240.642,651.912,240.541Z" transform="translate(-643.595 -229.767)" fill="#ff931e"/>
      <path id="Path_633" data-name="Path 633" d="M620.736,240.751a2.9,2.9,0,0,0,2.578-.21s.282,1.043-1.572,2.991,1.234-2.292,1.234-2.292S621.4,241.475,620.736,240.751Z" transform="translate(-614.997 -229.767)" fill="#ff931e"/>
    </g>
    <g id="Body" transform="translate(555.214 35.185)">
      <path id="Path_634" data-name="Path 634" d="M631.729,88.571s-.326,2-1.441,2.267,2.868,1.992,3.216,1.876.8-1.292.8-1.292a1.269,1.269,0,0,1-.235-1.142A2.677,2.677,0,0,1,631.729,88.571Z" transform="translate(-627.466 -88.571)" fill="#7c4c32"/>
      <path id="Path_635" data-name="Path 635" d="M602.052,122.513s-.159.478-.377.579a4.952,4.952,0,0,1-.493,2.52s-1.115.536-1.318.942a10.334,10.334,0,0,1-1.333,1.463,7.028,7.028,0,0,1,.128-3.834,4.705,4.705,0,0,1,.017-2.5,3.894,3.894,0,0,1,1.879-2.433C601.618,118.791,602.675,121.34,602.052,122.513Z" transform="translate(-598.332 -116.661)" fill="#593c26"/>
      <path id="Path_636" data-name="Path 636" d="M620.669,115.987s1.55.76,1.644,3.455a1.923,1.923,0,0,0,1.152,1.977c1.333.543,2.042-2,2.042-2s-.488-2.658-.867-2.89l.367.051a1.792,1.792,0,0,1,.7,3.281c-1.091.806.2.587.2.587s.855,2.115-1.7,2.571a3.834,3.834,0,0,0-.507.826,23.289,23.289,0,0,1-4.063-.058c-.181-.072.536-3.094,1.7-3.477,0,0,.671-.479.625-.822s-.592-3.354-1.648-3.236Z" transform="translate(-617.846 -113.72)" fill="#ff931e"/>
      <path id="Path_637" data-name="Path 637" d="M674.909,124.556s.833,2.6-.152,2.731-.3.243-.413-.473-.036.827-.232.856,1.094.29,1.3-.138a7.636,7.636,0,0,0-.1-2.89c-.152-.25-.4-1.555-.646-1.6S674.892,124.5,674.909,124.556Z" transform="translate(-667.828 -120.188)" fill="#432d1b"/>
      <path id="Path_638" data-name="Path 638" d="M605.759,175.554a6.677,6.677,0,0,0-1.941,1.854,5,5,0,0,0-1.1,1.13,5.9,5.9,0,0,1-3.126,1.449c-1.084.09-.652-4.323-.652-4.323l2.724.6s.71.29,3.505-1.854C605.165,174.41,606.121,174.874,605.759,175.554Z" transform="translate(-598.808 -167.312)" fill="#593c26"/>
      <path id="Path_639" data-name="Path 639" d="M618.448,122.513s-.159.478-.377.579a4.952,4.952,0,0,1-.493,2.52s-1.115.536-1.318.942a18.316,18.316,0,0,1,.52-2.484,18.945,18.945,0,0,0,.985-2.8s-.614.111-.2-.891-1.682-.672-.62-1.129S619.071,121.34,618.448,122.513Z" transform="translate(-614.745 -116.661)" fill="#7c4c32"/>
      <path id="Path_640" data-name="Path 640" d="M681.382,180.445h3.95a2.863,2.863,0,1,0-3.95,0Z" transform="translate(-673.7 -168.32)" fill="#050505"/>
      <path id="Path_641" data-name="Path 641" d="M609.664,175.554a6.677,6.677,0,0,0-1.941,1.854,5,5,0,0,0-1.1,1.13,5.9,5.9,0,0,1-3.126,1.449c-1.084.09.464-1.521.464-1.521l3.639-1.754s1.952-1.094,1.474-2.3C609.07,174.41,610.026,174.874,609.664,175.554Z" transform="translate(-602.713 -167.312)" fill="#7c4c32" stroke="#593c26" stroke-miterlimit="10" stroke-width="1"/>
      <path id="Path_642" data-name="Path 642" d="M694.849,156.906s.406-.167.507.2.616,1.941-.579,2.028-.5-2.219-.5-2.219Z" transform="translate(-686.16 -151.22)" fill="#7c4c32"/>
      <path id="Path_643" data-name="Path 643" d="M676.986,149.449a2.819,2.819,0,0,1,.485,2.271s-.011.395-1.666.235c0,0,.261-.424-.594-1.144a9.7,9.7,0,0,0,.775-1.362,1.481,1.481,0,0,1,1.358-.76s-.818.478-.654.6S676.965,149.3,676.986,149.449Z" transform="translate(-668.855 -143.713)" fill="#593c26"/>
      <path id="Path_644" data-name="Path 644" d="M694.452,150.729s.152-.674-1.3-.467-.92-.493-.92-.493a2.429,2.429,0,0,1,2.96.2C696.582,151.239,694.452,150.729,694.452,150.729Z" transform="translate(-684.376 -144.319)" fill="#050505"/>
      <path id="Path_645" data-name="Path 645" d="M724.724,157.241a1.27,1.27,0,0,0-.522-1.494s-.445-.172-.543.1-.608.848-.413,1.076a9.443,9.443,0,0,0,1.313.851S724.7,157.319,724.724,157.241Z" transform="translate(-712.877 -150.144)" fill="#7c4c32"/>
      <path id="Path_646" data-name="Path 646" d="M716.1,156.691a3.084,3.084,0,0,0,.728-.228c.141-.109.445-.167.489-.078a.4.4,0,0,1-.272.585c-.434.167.206,1.188,1,1.242a.5.5,0,0,1-.413.437c-.369.041-1.325-.6-1.412-.513A2.7,2.7,0,0,1,716.1,156.691Z" transform="translate(-706.319 -150.738)" fill="#593c26"/>
      <path id="Path_647" data-name="Path 647" d="M649.9,126.216a3.43,3.43,0,0,0,.811.333C650.869,126.534,650.07,126.186,649.9,126.216Z" transform="translate(-645.634 -123.101)" fill="#432d1b"/>
    </g>
    <g id="Head" transform="translate(557.327 30.372)">
      <path id="Path_648" data-name="Path 648" d="M637.309,31.838s1.617-3.02,4.287-.391-4.287,5.6-4.287,5.6S636.311,32.93,637.309,31.838Z" transform="translate(-635.792 -30.372)" fill="#050505"/>
      <path id="Path_649" data-name="Path 649" d="M671.358,129.468a1.113,1.113,0,0,0,.464-.094C671.966,129.28,672.068,129.613,671.358,129.468Z" transform="translate(-667.432 -121.172)" fill="#432d1b"/>
      <path id="Path_650" data-name="Path 650" d="M660.151,43.979s-.261-2.158,1.072-2.332,2.173.435,2.173,1.593a8.562,8.562,0,0,0-.145,1.391,3.306,3.306,0,0,1-.348,2.057c-.478.826-.608.739-1.518.521S659.326,47.036,660.151,43.979Z" transform="translate(-656.892 -40.688)" fill="#7c4c32"/>
      <path id="Path_651" data-name="Path 651" d="M646.443,67.922s-.922-.884-1.089,0a1.613,1.613,0,0,0,.31.985s.058.8.065,1,1.183.765,1.183.765Z" transform="translate(-643.578 -64.457)" fill="#7c4c32"/>
      <path id="Path_652" data-name="Path 652" d="M631.4,88.571s-.326,2-1.441,2.267,2.245.21,2.593.094,1.029-.287,1.029-.287-.052.244.162-.365A2.677,2.677,0,0,1,631.4,88.571Z" transform="translate(-629.252 -83.759)" fill="#593c26"/>
      <path id="Path_653" data-name="Path 653" d="M659.809,44.088s-.261-2.158,1.072-2.332-.319.84-.319,2c0,0-.681,1.043,1.144,1.1a2.263,2.263,0,0,0-1.434.884c-.478.826,1.489,1.828.579,1.61S658.983,47.144,659.809,44.088Z" transform="translate(-656.549 -40.796)" fill="#593c26"/>
      <path id="Path_654" data-name="Path 654" d="M649.344,72.454s-.194.608.182.927S649.293,72.57,649.344,72.454Z" transform="translate(-647.193 -68.974)" fill="#593c26"/>
      <path id="Path_655" data-name="Path 655" d="M625.308,52.033a1.927,1.927,0,0,1-1.425-1.8c0-1.434,1.16-2.282,1.6-2.195S624.93,51.547,625.308,52.033Z" transform="translate(-623.883 -46.569)" fill="#050505"/>
    </g>
  </g>
</svg>
