<svg xmlns="http://www.w3.org/2000/svg" xmlns:xlink="http://www.w3.org/1999/xlink" width="159" height="161" viewBox="0 0 159 161">
  <defs>
    <clipPath id="clip-path">
      <rect id="Rectangle_203" data-name="Rectangle 203" width="159" height="161"  fill="#fff" stroke="#707070" stroke-width="1"/>
    </clipPath>
  </defs>
  <g id="function_training_header" transform="translate(-231 -53)" clip-path="url(#clip-path)">
    <g id="Group_788" data-name="Group 788" transform="translate(231 57.53)">
      <g id="Legs" transform="translate(0 52.753)">
        <path id="Path_616" data-name="Path 616" d="M602.734,429.352s-6.364,1.735-7.4,3.7-1.389,6.017-14.462,4.281-12.5-3.118-12.5-3.118,4.715-4.836,24.413-3.36c1.269.1.347-10.586,7.4-8.214C602,423.25,603.542,429.114,602.734,429.352Z" transform="translate(-475.226 -216.202)" fill="#f2f2f2"/>
        <path id="Path_617" data-name="Path 617" d="M588.988,299.013s2.892,31.586,1.388,44.776-13.305-2.43-13.305-2.43,1.041-8.562-5.322-21.057-9.487-17.355-10.529-26.032-14.926-25.223-7.752-37.719l2.545-3.008,18.512-19.091s10.066-4.974,14.925-10.991c0,0,0,1.851,13.306,10.413,0,0,16.66,15.735,3.7,36.1,0,0-5.553,9.835-22.214,12.843C584.244,282.815,588.466,292.654,588.988,299.013Z" transform="translate(-472.472 -148.688)" fill="#432d1b"/>
        <path id="Path_618" data-name="Path 618" d="M592.479,265.692s10.816,29.045,11.339,35.4a369.784,369.784,0,0,0,16.721,42.693c5.6,12.038-13.306-2.43-13.306-2.43s1.042-8.562-5.322-21.057-9.487-17.355-10.529-26.032-14.925-25.223-7.752-37.719l2.546-3.008,18.512-19.091s10.066-4.974,14.926-10.991" transform="translate(-502.574 -148.688)" fill="#7c4c32"/>
        <path id="Path_619" data-name="Path 619" d="M625.583,116.149s20.566,9.372,16.4,35.491S665.6,195.895,665.6,195.895l-56.258,5.894s.536-9.1-4.932-15-6.074-4.339-10.153-16.488a90.554,90.554,0,0,1-6.237-8.157c-4.512-6.334-21.7-2.17-21.7-2.17s-4.6-31.412,17.615-38.789c0,0,24.384-11.107,30.284-10.934S625.583,116.149,625.583,116.149Z" transform="translate(-536.257 -110.246)" fill="#432d1b"/>
        <path id="Path_620" data-name="Path 620" d="M597.517,394.414s8.678,0,7.29,17.355c0,0,.381,2.545-3.57,4.4,0,0-3.141,1.388-3.72,4.166s-3.008,5.091-16.544,3.008a14.013,14.013,0,0,0-7.636.8c-3.587,1.627-2.777-5.315,1.851-8.439s7.4-12.5,6.942-15.735S585.715,390.942,597.517,394.414Z" transform="translate(-479.034 -206.37)" fill="#d37a20"/>
        <path id="Path_621" data-name="Path 621" d="M715.225,291.175s7.964,7.441,8.889,25.028c0,0,1.273,24.76,5.554,31.47s-17.216-.81-17.216-.81.322-12.38-9.744-27.073-9.6-26.38-9.6-26.38S711.46,286.188,715.225,291.175Z" transform="translate(-684.885 -171.084)" fill="#432d1b"/>
        <path id="Path_622" data-name="Path 622" d="M561.129,294.27c-1.041-8.678-14.925-25.223-7.752-37.719l2.546-3.008,18.512-19.091s10.066-4.974,14.926-10.991c0,0,0,1.851,13.305,10.413,0,0,16.661,15.735,3.7,36.1,0,0-5.554,9.835-22.215,12.843,0,0,4.222,9.839,4.744,16.2" transform="translate(-472.321 -148.688)" fill="#d37a20"/>
        <path id="Path_623" data-name="Path 623" d="M715.945,296.51s5.438,5.206,6.363,22.793c0,0,7.984,21.636,12.264,28.346s-6.339.694-6.339.694.322-12.38-9.744-27.073-9.6-26.38-9.6-26.38S712.181,291.523,715.945,296.51Z" transform="translate(-700.666 -172.564)" fill="#7c4c32"/>
        <path id="Path_624" data-name="Path 624" d="M689.424,240.541s-21.059,2.662-23.719,2.777a72.028,72.028,0,0,0-24.47,6.248S626.483,252.284,622.9,261.6c0,0-1.768,15.967,2.687,20.3,0,0,10.844-3.156,25.917-.681,0,0-2.678-5.922-4.389-6.352,0,0,9.975-.95,16.164,2.058s18.339,4.744,37.429,2.314-1.5-21-1.5-21S689.134,247.541,689.424,240.541Z" transform="translate(-616.874 -154.487)" fill="#d37a20"/>
        <path id="Path_625" data-name="Path 625" d="M623.587,240.733s-11.334,4.8-20.59-1.678c0,0-2.256,8.331,12.553,23.892s19.834-26.784,19.834-26.784S625.934,239.963,623.587,240.733Z" transform="translate(-530.446 -153.001)" fill="#d37a20"/>
        <path id="Path_626" data-name="Path 626" d="M575.727,293.727c-1.4-8.626-14.888-26.279-7.715-38.775l2.545-3.008,18.513-19.09s10.066-4.975,14.925-10.991c0,0-.978,1.891,12.327,10.453,0,0-14.757-.488-27.715,19.875,0,0-6.053,29.981-1.425,43.445" transform="translate(-486.979 -148.145)" fill="#ff931e"/>
        <path id="Path_627" data-name="Path 627" d="M609.059,394.414s-6.7-4.477-8.093,12.879c0,0,8.008,4.31,4.057,6.161,0,0-3.673.434-4.252,3.211s5.279,8.757-8.258,6.673a14.014,14.014,0,0,0-7.637.8c-3.586,1.627-2.777-5.315,1.851-8.439s7.4-12.5,6.942-15.735S597.257,390.942,609.059,394.414Z" transform="translate(-490.759 -206.37)" fill="#ff931e"/>
        <path id="Path_628" data-name="Path 628" d="M709.57,405.593s.607-1.128,13.191-1.388,9.372-4.946,7.9-6.334-21.913.52-25.144,2-20.065,2.555-21.975,1.625-2.864,3.755,5.987,4.1S694.125,408.544,709.57,405.593Z" transform="translate(-679.633 -207.744)" fill="#f2f2f2"/>
        <path id="Path_629" data-name="Path 629" d="M731.848,372.418s3.732-1.562,3.9,3.558,0,12.149,0,12.149-3.036,1.562-15.359,2.69a36.381,36.381,0,0,0-9.372,1.736c-5.119,1.648-9.718,2-22.388-.348,0,0-.433,1.128,1.562,2.517s-9.978-2.69-2.082-7.983c0,0,7.984,2.43,19-7.289,0,0,4.859-9.459,5.033-10.76,0,0,10.587.521,11.8,3.124C723.951,371.811,728.464,373.807,731.848,372.418Z" transform="translate(-685.387 -197.998)" fill="#d37a20"/>
        <path id="Path_630" data-name="Path 630" d="M708.18,394.719c2,1.389-9.979-2.69-2.082-7.983,0,0,7.983,2.43,19-7.289,0,0,4.859-9.459,5.032-10.76,0,0,10.587.521,11.8,3.124,0,0-10.066,6.942-6.682,5.554,0,0,1.866-.911,2.039,4.208s-12.409,6.07-12.409,6.07,1,.4-11.325,1.523c0,0-7.56-.651-8.373,3.471" transform="translate(-703.372 -197.998)" fill="#ff931e"/>
        <path id="Path_631" data-name="Path 631" d="M669.141,119.88s-16.395,10.34-2.335,32.743c22.909,36.5,17.079,47.257,17.079,47.257l-18.219,1.909s.535-9.1-4.932-15-6.075-4.339-10.153-16.488a90.522,90.522,0,0,1-6.237-8.157c-4.513-6.334-21.7-2.17-21.7-2.17s-4.6-31.412,17.615-38.789c0,0,24.383-11.107,30.284-10.934S669.141,119.88,669.141,119.88Z" transform="translate(-592.404 -110.246)" fill="#7c4c32"/>
        <path id="Path_632" data-name="Path 632" d="M718.786,240.541s-21.058,2.662-23.719,2.777a72.025,72.025,0,0,0-24.47,6.248s-14.752,2.718-18.338,12.033c0,0-1.768,15.967,2.687,20.3,0,0,1.189-.578,8.125-1.349,0,0-.481-9.792-2.191-10.221,0,0,0-15.967,6.19-12.959s11.71-7.128,30.949-6.71c2.661.057-1.4-7.477-1.4-7.477S709.3,241.351,718.786,240.541Z" transform="translate(-646.235 -154.487)" fill="#ff931e"/>
        <path id="Path_633" data-name="Path 633" d="M641.45,242.219s-11.335,4.8-20.591-1.678c0,0-2.256,8.331,12.553,23.893s-9.854-18.31-9.854-18.31S636.132,248,641.45,242.219Z" transform="translate(-548.309 -154.487)" fill="#ff931e"/>
      </g>
      <g id="Body" transform="translate(7.932 38.438)">
        <path id="Path_634" data-name="Path 634" d="M650.677,88.571s2.6,15.966,11.513,18.107-22.908,15.908-25.686,14.983-6.413-10.317-6.413-10.317,3.592-4.261,1.878-9.121C631.97,102.223,644.14,102.571,650.677,88.571Z" transform="translate(-584.729 -88.571)" fill="#7c4c32"/>
        <path id="Path_635" data-name="Path 635" d="M599.815,145.711s1.272,3.818,3.007,4.629c0,0-.694,14.115,3.934,20.131,0,0,8.909,4.281,10.529,7.521s10.644,11.686,10.644,11.686,4.212-13.228-1.019-30.622c0,0,3.211-11.991-.132-20s-6.522-15.782-15.008-19.432S594.84,136.34,599.815,145.711Z" transform="translate(-529.526 -98.969)" fill="#593c26"/>
        <path id="Path_636" data-name="Path 636" d="M666.645,115.987s-12.381,6.074-13.132,27.594c0,0,1.446,11.454-9.2,15.793S628,143.408,628,143.408s3.9-21.231,6.925-23.082l-2.933.4c-8.011-.175-20.121,15.478-5.612,26.206,8.711,6.44-1.562,4.686-1.562,4.686s-6.826,16.892,13.595,20.537c0,0,3.991,5.265,4.05,6.595s31.008.116,32.453-.463-4.28-24.71-13.594-27.772c0,0-5.361-3.825-4.995-6.568s4.73-26.791,13.164-25.845Z" transform="translate(-589.183 -97.88)" fill="#ff931e"/>
        <path id="Path_637" data-name="Path 637" d="M678.947,135.157s-6.652,20.768,1.216,21.81,2.429,1.939,3.3-3.775.29,6.609,1.851,6.84-8.735,2.314-10.413-1.1-.4-21.085.81-23.082,3.2-12.418,5.157-12.8S679.088,134.7,678.947,135.157Z" transform="translate(-635.502 -100.274)" fill="#432d1b"/>
        <path id="Path_638" data-name="Path 638" d="M599.506,183.55s4.86,1.967,15.5,14.81c0,0,7.447,5.785,8.814,9.024s16.315,10.854,24.971,11.57,5.211-34.531,5.211-34.531l-21.757,4.8s-5.669,2.314-28-14.809C604.249,174.41,596.613,178.113,599.506,183.55Z" transform="translate(-555.019 -117.717)" fill="#593c26"/>
        <path id="Path_639" data-name="Path 639" d="M617.708,145.711s1.273,3.818,3.008,4.629c0,0-.694,14.115,3.934,20.131,0,0,8.909,4.281,10.528,7.521s-4.156-19.843-4.156-19.843-2.64-4.994-7.87-22.387c0,0,4.905.89,1.562-7.116s13.436-5.369,4.951-9.019S612.733,136.34,617.708,145.711Z" transform="translate(-547.277 -98.969)" fill="#7c4c32"/>
        <path id="Path_640" data-name="Path 640" d="M719.139,214.931H687.591a22.871,22.871,0,1,1,31.548,0Z" transform="translate(-680.494 -118.091)" fill="#050505"/>
        <path id="Path_641" data-name="Path 641" d="M603.763,183.55s4.86,1.967,15.5,14.81c0,0,7.447,5.785,8.815,9.024s16.314,10.854,24.971,11.57-3.7-12.148-3.7-12.148L620.28,192.8s-15.592-8.738-11.774-18.386C608.505,174.41,600.87,178.113,603.763,183.55Z" transform="translate(-559.276 -117.717)" fill="#7c4c32" stroke="#593c26" stroke-miterlimit="10" stroke-width="1"/>
        <path id="Path_642" data-name="Path 642" d="M699.7,157.173s-3.242-1.331-4.052,1.562-4.917,15.5,4.628,16.2,3.973-17.721,3.973-17.721Z" transform="translate(-669.096 -111.761)" fill="#7c4c32"/>
        <path id="Path_643" data-name="Path 643" d="M679.664,154.8s-6.363,7.9-3.876,18.136c0,0,.087,3.152,13.3,1.88,0,0-2.083-3.384,4.744-9.14a77.473,77.473,0,0,1-6.189-10.876c-1.909-4.6-8.245-6.422-10.847-6.074,0,0,6.536,3.818,5.221,4.772S679.838,153.584,679.664,154.8Z" transform="translate(-644.607 -108.982)" fill="#593c26"/>
        <path id="Path_644" data-name="Path 644" d="M701.788,160.4s-1.214-5.38,10.413-3.732,7.349-3.938,7.349-3.938-12.509-8.591-23.64,1.579S701.788,160.4,701.788,160.4Z" transform="translate(-682.263 -109.206)" fill="#050505"/>
        <path id="Path_645" data-name="Path 645" d="M723.779,168.055s-2.863-6.482,4.166-11.933c0,0,3.558-1.372,4.338.8s4.86,6.771,3.3,8.592-10.488,6.8-10.488,6.8S723.994,168.679,723.779,168.055Z" transform="translate(-718.399 -111.362)" fill="#7c4c32"/>
        <path id="Path_646" data-name="Path 646" d="M731.586,159.135s-4.685-.955-5.813-1.823-3.558-1.334-3.906-.623-1.3,3.343,2.17,4.673-1.649,9.487-7.984,9.921c0,0,.348,3.162,3.3,3.49s10.586-4.792,11.28-4.1S732.627,161.911,731.586,159.135Z" transform="translate(-709.719 -111.582)" fill="#593c26"/>
        <path id="Path_647" data-name="Path 647" d="M656.544,126.228s-5.206,2.777-6.479,2.661S655.173,125.994,656.544,126.228Z" transform="translate(-590.595 -101.353)" fill="#432d1b"/>
      </g>
      <g id="Head" transform="translate(39.113 0)">
        <path id="Path_648" data-name="Path 648" d="M675.979,42.083s-12.915-24.123-34.241-3.123,34.241,44.69,34.241,44.69S683.956,50.8,675.979,42.083Z" transform="translate(-636.15 -30.372)" fill="#050505"/>
        <path id="Path_649" data-name="Path 649" d="M675.892,130.245a8.889,8.889,0,0,1-3.7-.752C671.033,128.742,670.223,131.4,675.892,130.245Z" transform="translate(-655.298 -63.982)" fill="#432d1b"/>
        <path id="Path_650" data-name="Path 650" d="M685.784,60.479s2.082-17.239-8.562-18.627-17.354,3.471-17.354,12.727c0,0,1.62,9.719,1.156,11.108s-1.041,9.834,2.777,16.429,4.858,5.905,12.126,4.165S692.379,84.892,685.784,60.479Z" transform="translate(-659.868 -34.191)" fill="#7c4c32"/>
        <path id="Path_651" data-name="Path 651" d="M649.1,70.666s7.361-7.058,8.7,0c0,0,.183,4.743-2.478,7.867,0,0-.463,6.363-.521,7.984s-9.449,6.107-9.449,6.107Z" transform="translate(-620.035 -42.989)" fill="#7c4c32"/>
        <path id="Path_652" data-name="Path 652" d="M648.443,88.571s2.6,15.966,11.513,18.107-17.933,1.678-20.711.752-8.215-2.292-8.215-2.292.419,1.945-1.294-2.915C629.736,102.223,641.906,102.571,648.443,88.571Z" transform="translate(-613.676 -50.133)" fill="#593c26"/>
        <path id="Path_653" data-name="Path 653" d="M674.808,60.519s2.083-17.239-8.561-18.627,2.546,6.711,2.545,15.967c0,0,5.439,8.33-9.14,8.793-1.463.046,7.636.463,11.454,7.058s-11.9,14.6-4.628,12.86S681.4,84.932,674.808,60.519Z" transform="translate(-648.891 -34.231)" fill="#593c26"/>
        <path id="Path_654" data-name="Path 654" d="M651.731,72.454s1.547,4.859-1.454,7.4S652.136,73.379,651.731,72.454Z" transform="translate(-616.964 -44.661)" fill="#593c26"/>
        <path id="Path_655" data-name="Path 655" d="M626.21,80.012s11.382-2.95,11.382-14.4S628.329,47.384,624.8,48.078,629.231,76.127,626.21,80.012Z" transform="translate(-585.643 -36.368)" fill="#050505"/>
      </g>
    </g>
  </g>
</svg>
