<svg xmlns="http://www.w3.org/2000/svg" xmlns:xlink="http://www.w3.org/1999/xlink" width="214" height="185" viewBox="0 0 214 185">
  <defs>
    <clipPath id="clip-path">
      <rect id="Rectangle_204" data-name="Rectangle 204" width="214" height="185" fill="#fff"/>
    </clipPath>
  </defs>
  <g id="gymnastics_header" transform="translate(-176 -30)" clip-path="url(#clip-path)">
    <g id="Gymnastics" transform="translate(178.581 28.393)">
      <path id="Path_800" data-name="Path 800" d="M2274.121,827.357s-9.047-2.607-26.217-42.32c0,0-8.589-27.178-9.508-31.3s.153-15.468-9.968-15.314c0,0-9.2-.613-15.179-3.987s-13.494-1.994-13.494-1.994-21.16-12.114-24.535-16.253-9.66-5.214-9.66-5.214l6.442-8.74s2.606.307,6.287,3.987c0,0,26.527,6.594,28.52,9.967,0,0,17.94,3.68,19.627,4.906a20.785,20.785,0,0,1,14.719-1.839c7.974,2.146,29.287,6.9,43.853-.154s12.421-5.98,25.914-5.366a11.425,11.425,0,0,0,7.207-.461c4.143-1.533,13.036-2.607,22.693-7.053s36.188-12.88,36.188-12.88,7.818-3.374,9.507-5.06,13.033,6.134,8.588,11.347c0,0-7.052-1.533-30.056,16.1,0,0-14.872,9.506-23.614,8.28s-18.7,10.12-37.26,13.187c0,0-4.447,1.226-5.214,13.953s-3.526,16.714-2.45,23.614.307,20.7.307,20.7,16.558,9.967,22.23,21.314l.615,3.834s-.46-10.12-26.987-8.28Z" transform="translate(-2143.329 -634.603)" fill="#814f35"/>
      <path id="Path_801" data-name="Path 801" d="M2174.274,938.4s3.375,10.887,13.493,3.527c0,0,3.067-3.221,8.435-1.227s23.155,7.82,23.155,7.82,8.431,11.96,36.646,7.053a84.94,84.94,0,0,1,15.639,5.367s6.748,2.606,12.422,2.3c0,0,22.692,7.053,31.739-3.833s8.433-15.487,7.359-23.46-21.621-8.28-26.218-7.053c0,0-15.641-9.354-29.747,4.14,0,0-6.9,0-11.5-1.687l-7.822,1.226s-23-1.839-32.2-5.213c0,0-19.167-5.367-28.368-8.894S2174.274,938.4,2174.274,938.4Z" transform="translate(-2147.75 -751.32)" fill="#814f35"/>
      <path id="Path_802" data-name="Path 802" d="M2424.236,896.608s12.879,3.68,20.854-.613c0,0-.612-.154,3.529-1.533s7.206-12.42,23-14.567,8.893-2.913,19.782-2.913c0,0,4.907-3.833,7.052-3.068s8.738,6.9,8.128,8.894-9.047,6.441-9.047,6.441a15.979,15.979,0,0,0-16.1,4.446,30.637,30.637,0,0,1-16,8.894s2.509,3.527-22.329,20.854S2397.864,909.949,2424.236,896.608Z" transform="translate(-2268.299 -728.848)" fill="#814f35"/>
      <path id="Path_803" data-name="Path 803" d="M2274.121,836.105s-9.047-2.607-26.217-42.321c0,0-8.589-27.178-9.508-31.3s.153-15.467-9.968-15.314c0,0-9.2-.613-15.179-3.986s-13.494-1.994-13.494-1.994-21.16-12.113-24.535-16.254-9.66-5.214-9.66-5.214l2.473-3.357s6.268,2.131,9.947,5.811c0,0,20.548,12.726,22.542,16.1,0,0,15.639-1.073,26.526,4.6,0,0,6.595,1.84,14.567,3.987s43.24-.46,57.806-7.513,6.134-7.973,15.946-7.207c0,0,5.675,3.834,9.817,2.3a188.938,188.938,0,0,0,19.473-7.513c9.659-4.447,32.814-14.721,32.814-14.721s8.74-3.067,10.425-4.753,11.654-4.293,7.208.92c0,0-7.052-1.532-30.056,16.1,0,0-14.872,9.506-23.614,8.28s-18.7,10.119-37.26,13.186c0,0-4.447,1.226-5.214,13.954s-25.913-9.354-24.84-2.454-19.473,4.294-19.473,4.294-11.805,4.139-6.133,15.487l5.519,20.087s6.746,14.566,12.575,22.847Z" transform="translate(-2143.329 -643.352)" fill="#593c26"/>
      <path id="Path_804" data-name="Path 804" d="M2173.166,945.215s3.375,10.887,13.5,3.526c0,0,3.066-3.221,8.431-1.227s23.153,7.82,23.153,7.82,8.434,11.96,36.649,7.054a84.893,84.893,0,0,1,15.637,5.366s6.749,2.608,12.422,2.3c0,0,22.7,7.054,31.741-3.834s-32.2,5.06-33.273-2.912-32.243-6.654-36.844-5.427c0,0-22.805-4.081-21.585-6.994,0,0-17.932-4.754-22.532-6.439l-14.106-1.228s-6.593,9.967-10.58,1.228c0,0,11.346-8.894,2.147-12.421S2173.166,945.215,2173.166,945.215Z" transform="translate(-2146.645 -758.136)" fill="#593c26"/>
      <path id="Path_805" data-name="Path 805" d="M2338.919,690.55s-1.5,4.83,0,7.934,3.679,7.36,3.679,7.36a37.505,37.505,0,0,0,4.829,1.726c.692,0,4.732-.307,5.854,0s3.807,5.289-4.7,11.04-20.01,25.53-25.763,19.09-2.069-19.206-2.069-19.206l-1.612-8.97s-7.931,3.45-9.886-3.45h0s-4.6-4.484-3.453-8.74a14.546,14.546,0,0,1-.321-4.716c.321-2.07-2.668-3.564-3.128-10,0,0,.633-1.464.72-5.793s5.491-9.273,5.491-9.273,7.129-6.21,17.824,5.635l9.428,7.706s4.489-2.185,5.062,1.839S2338.919,690.55,2338.919,690.55Z" transform="translate(-2212.726 -623.379)" fill="#814f35"/>
      <path id="Path_806" data-name="Path 806" d="M2317.755,696.48s-5.259,2.53-3.767,5.635a5.459,5.459,0,0,1-.6,5.635s7.59,2.99,8.278,2.99.143,17.864,1.265,18.171,34.156-14.375,25.647-8.625-20.01,25.53-25.763,19.09-2.069-19.206-2.069-19.206l-1.612-8.969s-7.931,3.449-9.886-3.451h0s-4.6-4.485-3.453-8.74a14.543,14.543,0,0,1-.321-4.715c.321-2.07-2.668-3.565-3.128-10.005,0,0,.633-1.464.72-5.791s5.491-9.273,5.491-9.273-7.468,22.1,7.887,13.876a.783.783,0,0,1,.986,1.174l-3.79,4.706a1.971,1.971,0,0,0,2.335,3.035c9.447-4.175,4.145-2.777,4.541-.021C2321.093,696.021,2317.755,696.48,2317.755,696.48Z" transform="translate(-2212.726 -625.054)" fill="#593c26"/>
      <path id="Path_807" data-name="Path 807" d="M2424.236,900.426s14.566,21.007,22.54,16.714c0,0,11.041-8.433,15.182-9.814s-5.127-3.228,10.122-7.875c14.41-4.391,11.654-10.985,22.539-10.985,0,0,6.46-7.841,8.606-7.074s3.964,3.241,3.354,5.234-9.047,6.44-9.047,6.44a15.979,15.979,0,0,0-16.1,4.446,30.633,30.633,0,0,1-16,8.894s2.509,3.527-22.329,20.853S2397.864,913.766,2424.236,900.426Z" transform="translate(-2268.299 -732.667)" fill="#593c26"/>
      <path id="Path_808" data-name="Path 808" d="M2304.391,761.263s-2.479-12.366,4.2-15.843l5.073,1.12s-8.2.922-6.976,12.73c0,0,8.434,5.366,9.353,5.366s4.141,6.287,6.286,10.428,3.066,1.686,3.066,1.686,8.128-15.487,14.262-16.254,15.845-14.9,17.394-15.643,8.7-3.959,9.721-4.219-9.328,4.836-13.468,15.568c0,0,3.636,12.957,18.914,9.546,0,0-5.729,37.375-5.266,56.388a25.228,25.228,0,0,1,11.122,8.184s11.878,5.924,11.417,17.884c0,0-2.51-10.192-15.208-9.2,0,0-4.724-1.994-11.473,0,0,0-11.458-6.168-20.24-1.38l-8.782,4.787s-13.378-21.431-14.257-27.292c0,0-14.324-37.6-12.508-43.888C2307.026,771.23,2302.166,764.136,2304.391,761.263Z" transform="translate(-2213.468 -661.277)" fill="#ff931e"/>
      <path id="Path_809" data-name="Path 809" d="M2304.391,761.263s-2.479-12.367,4.2-15.843l5.073,1.12s-8.2.923-6.976,12.73c0,0,4.216,17.94,5.137,17.94s7.636,1.651,9.783,5.791,3.786-6.251,3.786-6.251,8.128-15.487,14.262-16.253,15.845-14.9,17.394-15.643,8.7-3.959,9.721-4.219-14.389,5.448-18.527,16.183c0,0-3.68,12.266-3.987,11.5,0,0-24.152,7.085-23.691,26.1,0,0,1.31,11.833,6.439,18.217,0,0,8.511,7.59,8.05,19.55,0,0,12.821-2.134,15.578-2.676a1.33,1.33,0,0,1,.8.084c2.666,1.124,17.529,7.6,11.378,9.415,0,0-11.458-6.168-20.24-1.38l-8.782,4.788s-13.378-21.432-14.257-27.294c0,0-14.324-37.6-12.508-43.888C2307.026,771.231,2302.166,764.136,2304.391,761.263Z" transform="translate(-2213.468 -661.278)" fill="#d37a20"/>
      <path id="Path_810" data-name="Path 810" d="M2419.429,816.682s-20.478-31.039-11.356-33.616c0,0,5,6.219,15.858,4.214l-3.9,31.2Z" transform="translate(-2265.177 -682.809)" fill="#d37a20"/>
      <path id="Path_811" data-name="Path 811" d="M2128.121,895.308s-.229-.23,3.91,0,11.5-2.761,15.64,1.61a49,49,0,0,0,6.439,2.477c1.612.283,11.043,10.346,18.4,14.17s-15.64,18.543-15.64,18.543-7.36,2.53-8.281-16.33c0,0-5.291-11.73-13.57-14.72S2128.121,895.308,2128.121,895.308Z" transform="translate(-2124.292 -739.355)" fill="#814f35"/>
      <path id="Path_812" data-name="Path 812" d="M2582.029,868.855s1.843-9.315,7.594-5.291c0,0,1.724,1.5,5.521,1.5s5.172.346,5.519,1.265c0,0,5.176,1.84,2.185,4.945s-6.668,6.325-6.668,7.935a12.422,12.422,0,0,1-4.832,0c-1.956-.575-5.864,3.22-7.591,3.22s-7.131-8.739-7.131-8.739Z" transform="translate(-2351.875 -723.137)" fill="#814f35"/>
      <path id="Path_813" data-name="Path 813" d="M2310.208,660.152s-1.151-4.6,5.519-9.775,13.11-7.13,15.985-7.015,6.784-2.42,14.6,8.393,0,27.948,0,27.948-3.565,3.795-3.447,7.245,0-7.935,0-7.935,5.286-12.65-3.106-9.66-1.585,8.049-7.347,1.61a19.636,19.636,0,0,0-9.786-13.34S2311.933,654.288,2310.208,660.152Z" transform="translate(-2216.676 -611.841)" fill="#151010"/>
      <path id="Path_814" data-name="Path 814" d="M2353.645,613.5s-10.694-22.2.577-27.83,27.139-6.67,28.519-5.865,2.417,4.255,1.381,7.014,5.781-.115,11.055,5.751,1.513,8.97,0,8.97-5.3-1.84-9.1,3.45c0,0,9.544-1.495,10.578.115s-1.84,9.2-3.565,9.43,4.486,1.725-1.036,9.085,3.122,5.289,3.122,5.289-1.74,2.876-7.261,2.99-1.375,12.157-20.183,10.908" transform="translate(-2236.425 -579.568)" fill="#151010"/>
      <path id="Path_815" data-name="Path 815" d="M2587.68,883.438s2.015-4.2,7.763-.173a5.041,5.041,0,0,1,4.891-2.8c3.793,0,5.02-1.459,5.365-.539h0c-2.99,3.1-6.668,6.324-6.668,7.935a12.446,12.446,0,0,1-4.832,0c-1.955-.576-5.864,3.22-7.591,3.22s-4.51-4.794-4.51-4.794Z" transform="translate(-2354.654 -731.798)" fill="#593c26"/>
      <path id="Path_816" data-name="Path 816" d="M2128.121,894.775s.979-2.932,3.91,0c3.334,3.335,3.91,2.3,8.051,6.67,0,0,7.473,8.572,9.084,8.855s-8.623,13.8,17.252,13.916c8.292.037-9.546,7.36-9.546,7.36s-7.36,2.529-8.281-16.33c0,0-5.291-11.73-13.57-14.72S2128.121,894.775,2128.121,894.775Z" transform="translate(-2124.292 -738.822)" fill="#593c26"/>
      <path id="Path_817" data-name="Path 817" d="M2149.947,702.5s-4.292-7.13-7.821-10.12-4.215-4.14-5.594-2.683a10.6,10.6,0,0,1-4.677-4.447s-3.3.153-1.992,2.377,3.525,4.907,3.449,5.136-5.061-2.146-5.672-2.836-3.449-4.371-4.6-.767c0,0-3.908-1-2.143,2.53s10.118,6.748,11.573,9.737c0,0-.229.921-2.763,1.074s.078,2.76.078,2.76a31.445,31.445,0,0,1,12.883,4.294" transform="translate(-2120.437 -633.187)" fill="#814f35"/>
      <path id="Path_818" data-name="Path 818" d="M2146.076,707.186s-6.439-.906-9.965-3.9-.536-11.882-1.915-10.426a69.544,69.544,0,0,0-3.3-6.134s-2.147-.614-.844,1.61a26.224,26.224,0,0,1,2.379,7.054c-.079.23-8.589-4.83-9.2-5.521s4.677,4.141,3.527,5.368c0,0-7.437-6.365-5.672-2.837s10.118,6.747,11.576,9.737a2.319,2.319,0,0,1-2.377,2.453c-2.53.154-.307,1.38-.307,1.38a31.435,31.435,0,0,1,12.88,4.294" transform="translate(-2120.628 -633.896)" fill="#593c26"/>
      <path id="Path_819" data-name="Path 819" d="M2638.966,696.913s-.612-4.754-4.6-6.516-6.59-2.377-7.741-3.144a12.215,12.215,0,0,0-3.986-1.073s3.835-3.45-8.586-11.347c0,0,4.827-1.38,6.593-.92,0,0,24-10.2,25.836-12.344,0,0,2.068-.383,2.147,1.61,0,0,3.451.613,1.46,3.834s-7.134,5.29-8.513,5.213,1.915,1.532,10.04-2.377c0,0,3.148-.767,1.383,3.833,0,0-4.294,2.99-11.655,2.607a47.488,47.488,0,0,0,8.818-.076c3.07-.537.69,4.293-5.286,4.447s-9.126.69-7.287,5.444c0,0,5.827,1.533,4.14,10.273C2641.726,696.377,2641.117,698.138,2638.966,696.913Z" transform="translate(-2370.865 -621.155)" fill="#814f35"/>
      <path id="Path_820" data-name="Path 820" d="M2647.808,701.034s-.611-4.754-4.6-6.517-6.593-2.376-7.745-3.143a12.241,12.241,0,0,0-3.985-1.074l.229-3.084s9.164,2.241,10.927,2.7c0,0,2.107-10.428,3.948-12.573,0,0,11.5-8.357,11.574-6.364,0,0,2.76-3.067.768.153s-7.821,4.446-8.356,7.586c-.235,1.363,3.22,2.151,7.745-1.453,0,0,5.29-4.063,3.523.537l-12.114,5.29s4.448-.306,7.517-.844,2.45,2.377-3.528,2.53-11.883,3.143-10.044,7.9c0,0,1.688.613,6.9,7.82C2650.572,700.5,2649.958,702.259,2647.808,701.034Z" transform="translate(-2379.708 -625.275)" fill="#593c26"/>
    </g>
  </g>
</svg>
