<svg xmlns="http://www.w3.org/2000/svg" width="37.19" height="41.43" viewBox="0 0 37.19 41.43">
  <g id="Hiit" transform="translate(-972.3 -519.796)">
    <g id="legs" transform="translate(972.3 537.15)">
      <g id="Group_730" data-name="Group 730" transform="translate(1.261)">
        <path id="Path_656" data-name="Path 656" d="M987.1,908.856l-.027-.013A.055.055,0,0,0,987.1,908.856Z" transform="translate(-987.072 -892.995)" fill="#b37d66"/>
        <path id="Path_657" data-name="Path 657" d="M1008.793,728.843a5.393,5.393,0,0,0-.8-2.432c-3.269-2.128-4.979-1.368-4.979-1.368a1.894,1.894,0,0,0-1.026-.646c-.038-.722-.456-.684-.456-.684-4.257,2.85-8.437-.57-8.437-.57a8.471,8.471,0,0,0-2.315,3.647l-.156.229a15.293,15.293,0,0,1-.912,2.318,22.1,22.1,0,0,0-1.368,5.891c.074,1.325-.673,3.826-.961,3.776a4.876,4.876,0,0,0,1.76.557c.494-.076.152-2.128,1.52-3.763s.988-.532,1.976-4.295c0,0-.19-.912,0-.95a2.28,2.28,0,0,0,2.326-.2h0s2.2-1.207,3.184-.6,1.824.532,4.029.76,3.231-1.482,3.535-.8a1.888,1.888,0,0,1-.076,1.444c-.608,2.432.684,3.5.684,3.5.95,3.116.608,3.763.608,3.763l1.862.3s-.19-.19.228-4.865S1008.793,730.021,1008.793,728.843Z" transform="translate(-987.358 -723.142)" fill="#b37d66"/>
      </g>
      <g id="Group_734" data-name="Group 734" transform="translate(1.274)">
        <g id="Group_733" data-name="Group 733">
          <g id="Group_731" data-name="Group 731" transform="translate(0 15.848)">
            <path id="Path_658" data-name="Path 658" d="M987.255,908.856l-.027-.013A.055.055,0,0,0,987.255,908.856Z" transform="translate(-987.228 -908.843)" fill="#733926"/>
          </g>
          <g id="Group_732" data-name="Group 732" transform="translate(0.027)">
            <path id="Path_659" data-name="Path 659" d="M1006.657,729.793c0-1.178,1.5-3.383,1.5-3.383-3.268-2.128-4.979-1.368-4.979-1.368a1.893,1.893,0,0,0-1.026-.646c-.038-.722-.456-.684-.456-.684-4.257,2.85-8.437-.57-8.437-.57a8.471,8.471,0,0,0-2.314,3.647l-.156.229a15.3,15.3,0,0,1-.912,2.318,22.1,22.1,0,0,0-1.368,5.891c.074,1.325-.673,3.826-.961,3.776.185.09.419.633.872.563.494-.076-.342-3.2,1.026-4.833s.532-.418,1.52-4.181c0,0,1.621-3.5,2.318-.57.039.164.592,1.246,1.845.37h0s2.2-1.207,3.184-.6,1.824.532,4.029.76,3.23-1.482,3.534-.8a1.887,1.887,0,0,1-.076,1.444c-.608,2.432.684,3.5.684,3.5.95,3.116.608,3.763.608,3.763l1.862.3s-2.142-.38-1.724-5.055S1006.657,730.971,1006.657,729.793Z" transform="translate(-987.542 -723.142)" fill="#733926"/>
          </g>
        </g>
      </g>
      <g id="Group_735" data-name="Group 735" transform="translate(1.274 0.003)">
        <path id="Path_660" data-name="Path 660" d="M987.255,908.892l-.027-.013A.055.055,0,0,0,987.255,908.892Z" transform="translate(-987.228 -893.031)" fill="#ff931e"/>
        <path id="Path_661" data-name="Path 661" d="M1017.379,728.879a5.393,5.393,0,0,0-.8-2.432c-3.269-2.128-4.979-1.368-4.979-1.368a1.893,1.893,0,0,0-1.026-.646c-.038-.722-.456-.684-.456-.684-4.257,2.85-8.437-.57-8.437-.57a8.472,8.472,0,0,0-2.314,3.647l-.156.229a15.294,15.294,0,0,1-.912,2.318,36.186,36.186,0,0,0-1.368,5.891c-.146,1.413-.175,1.574-.175,1.574a12.468,12.468,0,0,0,1.922-.127,2.507,2.507,0,0,1,.571-.877c1.37-1.633.988-.532,1.976-4.295,0,0-.19-.912,0-.95a2.28,2.28,0,0,0,2.326-.2h0s2.2-1.207,3.184-.6,1.824.532,4.029.76,3.23-1.482,3.534-.8a1.887,1.887,0,0,1-.076,1.444c-.608,2.432.684,3.5.684,3.5l.347,1.247,2.212-.362.14-1.683C1018,729.218,1017.379,730.057,1017.379,728.879Z" transform="translate(-995.944 -723.178)" fill="#ff931e"/>
      </g>
      <g id="Group_736" data-name="Group 736" transform="translate(1.28 0.028)">
        <path id="Path_662" data-name="Path 662" d="M987.327,909.186l-.027-.013A.056.056,0,0,0,987.327,909.186Z" transform="translate(-987.3 -893.325)" fill="#d37a20"/>
        <path id="Path_663" data-name="Path 663" d="M1014.866,730.076c0-1.178,1.416-1.178,1.416-1.178-3.268-2.128-2.784.38-2.784.38-.266-.456-2.689.161-2.689.161-.038-.722-2.537-2.29-2.537-2.29-4.257,2.851-6.517-3.677-6.517-3.677-1.434,1.489-1.849,1.977-2.085,2.921,4.481-.176,4.315,2.125,3.956,3.269a.818.818,0,0,1-.856.571c-.715-.067-2.052-.208-3.923-.475-1.1-.157-1.7,4.437-1.843,5.8-.146,1.412-.175,1.574-.175,1.574.456.067.318.06.318.06.195-.46.7-5.157,1.016-5.536,1.369-1.633,3.268,1.973,3.136.177,0,0-.19-.912,0-.95a2.28,2.28,0,0,0,2.326-.2h0s2.2-1.207,3.184-.6,1.824.532,4.029.76,3.23-1.482,3.534-.8a1.888,1.888,0,0,1-.076,1.444c-.608,2.432.684,3.5.684,3.5l.347,1.247,2.212-.362s-2.509-.693-2.369-2.376C1015.559,728.819,1014.866,731.254,1014.866,730.076Z" transform="translate(-996.016 -723.472)" fill="#d37a20"/>
      </g>
      <g id="Group_737" data-name="Group 737" transform="translate(0 15.456)">
        <path id="Path_664" data-name="Path 664" d="M977.485,935.149s-.672.232-.782.5-.147.8-1.527.572-1.319-.417-1.319-.417.5-.647,2.578-.449c.134.013.037-1.416.782-1.1C977.407,934.333,977.571,935.117,977.485,935.149Z" transform="translate(-973.724 -931.648)" fill="#f2f2f2"/>
        <path id="Path_665" data-name="Path 665" d="M975.316,904.384s.916,0,.77,2.32a.647.647,0,0,1-.377.588.853.853,0,0,0-.393.557c-.061.371-.318.681-1.747.4a1.188,1.188,0,0,0-.806.107c-.379.217-.293-.711.2-1.128a3.315,3.315,0,0,0,.733-2.1C973.643,904.694,974.07,903.92,975.316,904.384Z" transform="translate(-972.508 -904.241)" fill="#d37a20"/>
        <path id="Path_666" data-name="Path 666" d="M975.089,904.384s-.708-.6-.854,1.722c0,0,.846.576.428.824a.548.548,0,0,0-.449.429c-.061.371.557,1.171-.872.892a1.187,1.187,0,0,0-.806.107c-.379.217-.293-.711.2-1.128a3.315,3.315,0,0,0,.733-2.1C973.416,904.694,973.843,903.92,975.089,904.384Z" transform="translate(-972.3 -904.241)" fill="#ff931e"/>
      </g>
      <g id="Group_738" data-name="Group 738" transform="translate(19.864 14.46)">
        <path id="Path_667" data-name="Path 667" d="M1208.15,927.638s-.083-.172-1.808-.211-1.285-.753-1.083-.964a9.707,9.707,0,0,1,3.447.3,8.738,8.738,0,0,0,3.013.247c.261-.142.393.572-.821.625S1210.268,928.087,1208.15,927.638Z" transform="translate(-1205.056 -923.503)" fill="#f2f2f2"/>
        <path id="Path_668" data-name="Path 668" d="M1209.033,893.144s-.026-.352-.05.427a7.687,7.687,0,0,1-.486,1.964,6.543,6.543,0,0,0,2.106.409,4.542,4.542,0,0,1,1.285.264,5.1,5.1,0,0,0,3.069-.053s.059.172-.214.383,1.368-.41.286-1.215c0,0-1.094.37-2.605-1.109,0,0-.666-1.44-.69-1.638,0,0-1.452.079-1.618.476A1.482,1.482,0,0,1,1209.033,893.144Z" transform="translate(-1208.204 -892.576)" fill="#d37a20"/>
        <path id="Path_669" data-name="Path 669" d="M1232.084,896.539c-.274.211,1.368-.41.285-1.215,0,0-1.094.37-2.605-1.109,0,0-.666-1.44-.69-1.638,0,0-1.452.079-1.618.476,0,0,1.38,1.057.916.845,0,0-.256-.139-.28.641s1.7.924,1.7.924-.137.06,1.553.232c0,0,1.036-.1,1.148.528" transform="translate(-1225.544 -892.576)" fill="#ff931e"/>
      </g>
    </g>
    <path id="Path_670" data-name="Path 670" d="M1080.972,563.356s.776-2,1.3-3.637,1.66-.429,1.66-.429l.144,5.554S1080.315,566.447,1080.972,563.356Z" transform="translate(-99.327 -35.733)"/>
    <g id="body" transform="translate(979.549 525.839)">
      <path id="Path_671" data-name="Path 671" d="M1065.515,602.654a6.044,6.044,0,0,1-.228-2.584s.253-.1.228-.963c0,0,1.7-.456.937-2.635a10.775,10.775,0,0,1-.228-5.093c.076-.279-1.926-.152-1.926-.152a17.372,17.372,0,0,1-2.711-.608,26.35,26.35,0,0,0-2.99,1.394,3.837,3.837,0,0,1,.963,4.434,2.636,2.636,0,0,0-.329,2.508c.634,1.165-.811,1.419-.811,1.419a4.2,4.2,0,0,0-1.166,1.318C1056.926,602.4,1061.562,605.239,1065.515,602.654Z" transform="translate(-1057.238 -590.609)" fill="#b37d66"/>
      <path id="Path_672" data-name="Path 672" d="M1060.693,605.306s-1.622-1.568.633-3.877c0,0,4.915-.076,4.89-.938,0,0-4.738,1.6-5.5-.583a2.676,2.676,0,0,1,.608-3.116c.076-.279-.051-3.04-.051-3.04s.058-1.023.058-1.175a18.835,18.835,0,0,0-2.49,1.225,3.837,3.837,0,0,1,.963,4.434,2.636,2.636,0,0,0-.329,2.508c.633,1.166-.811,1.419-.811,1.419a4.2,4.2,0,0,0-1.166,1.318C1057.172,604.191,1058.514,604.622,1060.693,605.306Z" transform="translate(-1057.434 -592.399)" fill="#733926"/>
    </g>
    <g id="right_arm" data-name="right arm" transform="translate(987.744 526.609)">
      <path id="Path_673" data-name="Path 673" d="M1153.674,604.895a.627.627,0,0,0,.558-.33c.2-.355-.228,1.242.633,2.787a10.017,10.017,0,0,1,.279,2.306c-.1.608,1.647,1.216,2,.279,0,0,.507-.152.405-1.773s-.836-1.039-.836-1.039a22.9,22.9,0,0,1,.051-2.863c.127-.532.228-2.914-.836-3.623s-.937-1.039-1.875-1.013S1153.043,604.464,1153.674,604.895Z" transform="translate(-1153.264 -599.623)" fill="#733926"/>
      <path id="left_arm" data-name="left arm" d="M1159.326,603.324s.076,2.053.279,1.7a6.152,6.152,0,0,0,.531,2.609s-.109,1.368-.21,1.976,1.377,1.267,1.731.329c0,0-.177-.405.405-1.773.637-1.495-.836-1.039-.836-1.039a22.9,22.9,0,0,1,.051-2.863c.127-.532.228-2.914-.836-3.623s-.937-1.039-1.875-1.013S1158.7,602.893,1159.326,603.324Z" transform="translate(-1157.776 -599.623)" fill="#b37d66"/>
    </g>
    <g id="top" transform="translate(981.557 526.018)">
      <path id="Path_674" data-name="Path 674" d="M1081.509,602.29l5.3-.3a.975.975,0,0,0,.228-.963s1.85-.456.887-2.787-.507-4.611-.178-4.941c0,0-.695-.306-.791-.178s.784,5.162-2.1,4.41-1.784-1.868-2.2-4.823l-.595.288s.461,3.9-.958,5.4C1081.1,598.388,1080.115,603.227,1081.509,602.29Z" transform="translate(-1080.764 -592.703)" fill="#ff931e"/>
      <path id="Path_675" data-name="Path 675" d="M1081.509,602.29l.557-.032a1.6,1.6,0,0,0,.051-1.032s5.219.32,5.612-.639c.043-.106.437.69-5.358-.2,0,0-.107-1.268-.2-1.14s.87.623.481-2.331a36.658,36.658,0,0,0-.3-4.215l-.284.288s.461,3.9-.958,5.4C1081.1,598.388,1080.115,603.227,1081.509,602.29Z" transform="translate(-1080.764 -592.703)" fill="#d37a20"/>
      <path id="Path_676" data-name="Path 676" d="M1128.388,662.57a3.408,3.408,0,0,1,.279,1.647c-.178.532.709.355.709.355s-.634-2-.329-2.229S1128.641,662.747,1128.388,662.57Z" transform="translate(-1124.324 -656.353)" fill="#d37a20"/>
    </g>
    <g id="Right_Arm-2" data-name="Right Arm" transform="translate(978.86 526.306)">
      <path id="Path_677" data-name="Path 677" d="M1052.6,596.253a8.856,8.856,0,0,0-2.838,1.951,4.14,4.14,0,0,0-.481,3.167c.253.988-.076.811.2,2.534a16.3,16.3,0,0,1,.355,2.61.652.652,0,0,0,.253.659,9.923,9.923,0,0,0,1.14,3.446c1.064,1.571,1.7,2.407,1.7,3.268s1.8-.127,1.8-.127-1.571-2.939-1.52-3.573a9.1,9.1,0,0,0-1.064-2.61,53.077,53.077,0,0,0,.051-6.106,6.794,6.794,0,0,0,1.267-4.611l-.355-.786Z" transform="translate(-1049.162 -596.076)" fill="#b37d66"/>
      <path id="Path_678" data-name="Path 678" d="M1053.14,596.253a8.856,8.856,0,0,0-2.838,1.951,4.14,4.14,0,0,0-.481,3.167c.253.988-.076.811.2,2.534a16.3,16.3,0,0,1,.355,2.61.652.652,0,0,0,.253.659,9.932,9.932,0,0,0,1.14,3.446c1.064,1.571,1.7,2.407,1.7,3.268s.968.177.968.177-3.091-4.915-3.04-5.549a5.121,5.121,0,0,0-.456-1.774s.431-1.585-.405-5.194a5.446,5.446,0,0,0,.684-3.877l2.427-1.6Z" transform="translate(-1049.652 -596.076)" fill="#733926"/>
      <path id="Path_679" data-name="Path 679" d="M1070.2,658.474a2.265,2.265,0,0,0,.836-.152C1071.314,658.17,1070.908,658.195,1070.2,658.474Z" transform="translate(-1068.404 -652.925)" fill="#733926"/>
      <path id="Path_680" data-name="Path 680" d="M1070.2,723.472s.3.58.62.58S1071.668,723.982,1070.2,723.472Z" transform="translate(-1068.404 -712.6)" fill="#733926"/>
    </g>
    <g id="Head" transform="translate(982.868 519.796)">
      <path id="Path_681" data-name="Path 681" d="M1105.925,598.673a9.553,9.553,0,0,0-1.254,1c-.507.507-1.018-.368-1.018-.368s-.054-2.039-.059-2.09.469.418.532.329,0-.431,0-.431A9.96,9.96,0,0,0,1105.925,598.673Z" transform="translate(-1102.956 -590.516)" fill="#733926"/>
      <path id="Path_682" data-name="Path 682" d="M1099.095,534.108s1.875-.684,2.23.671a10.813,10.813,0,0,1,.177,2.559,6.288,6.288,0,0,1-1.2,2.977s-.436.431-.436.532-.429.241-.773.038-2.027-1.356-2.1-2.1v-.646s-.659-.259-.672-.674-.431-1.137,0-1.239.583.608.583.608a8.913,8.913,0,0,1,.076-2.154C1097.157,534.589,1098.246,533.74,1099.095,534.108Z" transform="translate(-1096.126 -532.729)" fill="#b37d66"/>
      <path id="Path_683" data-name="Path 683" d="M1101.1,534.975l2.23.671c-4.295.342-3.495,2.685-3.636,3.091-.342.988,2.184,2.445,1.8,2.584,0,0-.735-.152-.735-.051s.686.684.342.481-2.027-1.355-2.1-2.1V539s-.583-.541-.6-.956a8.335,8.335,0,0,0-.076-.957,3.234,3.234,0,0,0,.583,1.6,18.894,18.894,0,0,1,.076-3.148C1099.159,535.456,1100.248,534.607,1101.1,534.975Z" transform="translate(-1098.128 -533.595)" fill="#733926"/>
      <path id="Path_684" data-name="Path 684" d="M1114.533,572.21s.494-.253.38-1.09-1.935-.735-2.013-.659.6.557.572.7.757.367.96.215-.114.963,0,1.115.519.089.646,0S1114.533,572.21,1114.533,572.21Z" transform="translate(-1111.463 -566.092)" fill="#733926"/>
      <path id="Path_685" data-name="Path 685" d="M1101.386,523.924s.43-1.469.48-1.8,1.586.329,3.314-.405a1.8,1.8,0,0,1,.588,1.241,2.818,2.818,0,0,0-1.495-2.787,2.4,2.4,0,0,0-3.066.329s-.689,2.292-.471,2.818a10.639,10.639,0,0,1,.344,1.572C1101.17,525.2,1101.361,524.887,1101.386,523.924Z" transform="translate(-1100.304 -519.796)"/>
    </g>
    <g id="Rope" transform="translate(983.625 528.327)">
      <path id="Path_686" data-name="Path 686" d="M1204.652,642c-3.544-9.617-7.978-20.442-10.921-21.453-3.155-1.083-3.461-1.085-5.359.247s-2.736,3.1-2.7,3.752,1.534,0,1.534,0,2.538-3.524,3.866-2.878,2.05-.532,5.356,5.7a67.833,67.833,0,0,1,5.093,13.416s.4,1.306,1.063,3.1A22.212,22.212,0,0,0,1204.652,642Z" transform="translate(-1178.786 -619.76)" fill="#c6c6c6"/>
      <path id="Path_687" data-name="Path 687" d="M1204.652,642c-3.544-9.617-7.978-20.442-10.921-21.453-3.155-1.083-3.461-1.085-5.359.247s-2.736,3.1-2.7,3.752,1.947-2,1.947-2,2.934-2.226,4.261-1.58,1.507.136,4.813,6.369a58.763,58.763,0,0,1,4.827,13.454s.558,1.167,1.421,2.8A19.716,19.716,0,0,0,1204.652,642Z" transform="translate(-1178.786 -619.76)" fill="#f2f2f2"/>
      <path id="Path_688" data-name="Path 688" d="M1106.761,822.8s-1.78-2.225-1.629-.19.519,4.447,6.533,11.706a8.717,8.717,0,0,0,3.976,2.875,8.685,8.685,0,0,1,1.242-2.385C1107.988,831.949,1106.761,822.8,1106.761,822.8Z" transform="translate(-1105.113 -804.515)" fill="#f2f2f2"/>
      <path id="Path_689" data-name="Path 689" d="M1105.017,824.566a9.686,9.686,0,0,0,1.2,4.148,17.016,17.016,0,0,1-.587-2.97S1104.865,822.531,1105.017,824.566Z" transform="translate(-1104.997 -806.47)" fill="#c6c6c6"/>
      <path id="Path_690" data-name="Path 690" d="M1124.578,887.962a43.95,43.95,0,0,1-5.338-7.558c.916,3.245,3.205,8.247,8.811,10.247A9.022,9.022,0,0,1,1124.578,887.962Z" transform="translate(-1118.025 -858.16)" fill="#c6c6c6"/>
      <path id="Path_691" data-name="Path 691" d="M1238.387,1005.25h0Z" transform="translate(-1227.002 -972.351)" fill="#c6c6c6"/>
      <path id="Path_692" data-name="Path 692" d="M1222.483,1000.474q.251.1.5.186l.006-.016Q1222.733,1000.563,1222.483,1000.474Z" transform="translate(-1212.456 -967.982)" fill="#c6c6c6"/>
      <path id="Path_693" data-name="Path 693" d="M1228.366,1002.479a6.988,6.988,0,0,0,.855.222q-.436-.108-.849-.238Z" transform="translate(-1217.837 -969.802)" fill="#c6c6c6"/>
    </g>
    <g id="Hands" transform="translate(982.394 532.799)">
      <path id="Path_694" data-name="Path 694" d="M1092.854,804.4a8.414,8.414,0,0,0-.754,1.957c.114.19-.551-.418-.513-.722s-.722-1.159-.855-1.235-.3-1.959.077-2.186a4.7,4.7,0,0,1,1.8,0s.888,1.235.843,1.463.2,1.805,0,1.824S1092.828,804.606,1092.854,804.4Z" transform="translate(-1090.577 -791.019)" fill="#b37d66"/>
      <path id="Path_695" data-name="Path 695" d="M1180.518,672.153s.074,2.337-.2,2.47a2.473,2.473,0,0,1-2.137.16c-.912-.446-.342-1.206,0-1.054s.133-.57.551-.646S1179.188,672.4,1180.518,672.153Z" transform="translate(-1170.254 -672.153)" fill="#b37d66"/>
      <path id="Path_696" data-name="Path 696" d="M1092.915,803.208a9.72,9.72,0,0,0-.814,2.1c.114.19-.551-.418-.513-.722s-.722-1.159-.855-1.235-.3-1.959.077-2.186a1.272,1.272,0,0,1,.707-.2s-.233,1.851-.278,2.079a1.038,1.038,0,0,0,.615,1.007C1092.036,804.139,1092.889,803.417,1092.915,803.208Z" transform="translate(-1090.577 -789.977)" fill="#733926"/>
      <path id="Path_697" data-name="Path 697" d="M1179.108,684.224s1.484.215,1.21.348a2.473,2.473,0,0,1-2.137.16c-.912-.446-.342-1.206,0-1.054s.133-.57.551-.646S1177.778,684.471,1179.108,684.224Z" transform="translate(-1170.254 -682.102)" fill="#733926"/>
    </g>
  </g>
</svg>
