<svg xmlns="http://www.w3.org/2000/svg" xmlns:xlink="http://www.w3.org/1999/xlink" width="244" height="159" viewBox="0 0 244 159">
  <defs>
    <clipPath id="clip-path">
      <rect id="Rectangle_198" data-name="Rectangle 198" width="244" height="159" fill="#fff"/>
    </clipPath>
  </defs>
  <g id="hiit" transform="translate(-1644 2437)" clip-path="url(#clip-path)">
    <g id="Hiit-2" data-name="Hiit" transform="translate(1623.601 -2432)">
      <g id="legs" transform="translate(79.659 136.509)">
        <g id="Group_730" data-name="Group 730" transform="translate(31.451)">
          <path id="Path_656" data-name="Path 656" d="M987.072,908.947l.211-.1A.436.436,0,0,1,987.072,908.947Z" transform="translate(-815.772 -784.179)" fill="#b37d66"/>
          <path id="Path_657" data-name="Path 657" d="M990.286,767.985c0-9.267,6.278-19.133,6.278-19.133,25.71-16.742,39.163-10.762,39.163-10.762,2.094-3.588,8.071-5.083,8.071-5.083.3-5.68,3.588-5.381,3.588-5.381,33.484,22.422,66.368-4.484,66.368-4.484,11.282,11.712,16.348,21.262,18.206,28.69.393.579.8,1.174,1.226,1.8,0,0,5.68,17.339,7.175,18.235s11.36,35.576,10.762,46.338c-.579,10.423,5.291,30.1,7.563,29.7-1.457.712-10.28,4.929-13.841,4.381-3.886-.6-1.2-16.742-11.958-29.6s-7.772-4.185-15.545-33.781c0,0,1.495-7.175,0-7.473-1.3-.259-8.435,5.313-18.3-1.571h-.006s-17.273-9.492-25.046-4.709-14.349,4.185-31.689,5.979-25.411-11.659-27.8-6.277.6,11.36.6,11.36c4.785,19.133-5.381,27.5-5.381,27.5-7.474,24.513-4.783,29.6-4.783,29.6l-14.649,2.391s1.5-1.494-1.793-38.266S990.286,777.252,990.286,767.985Z" transform="translate(-987.385 -723.142)" fill="#b37d66"/>
        </g>
        <g id="Group_734" data-name="Group 734" transform="translate(34.248)">
          <g id="Group_733" data-name="Group 733" transform="translate(0)">
            <g id="Group_731" data-name="Group 731" transform="translate(168.398 124.664)">
              <path id="Path_658" data-name="Path 658" d="M987.228,908.947l.211-.1A.439.439,0,0,1,987.228,908.947Z" transform="translate(-987.228 -908.843)" fill="#733926"/>
            </g>
            <g id="Group_732" data-name="Group 732">
              <path id="Path_659" data-name="Path 659" d="M1005.585,775.459c0-9.268-11.765-26.607-11.765-26.607,25.71-16.742,39.163-10.762,39.163-10.762,2.093-3.588,8.071-5.083,8.071-5.083.3-5.68,3.588-5.381,3.588-5.381,33.483,22.422,66.368-4.484,66.368-4.484,11.281,11.712,16.346,21.262,18.2,28.69.393.579.8,1.174,1.227,1.8,0,0,5.68,17.339,7.175,18.235s11.359,35.576,10.762,46.338c-.579,10.423,5.291,30.1,7.562,29.7-1.455.712-3.3,4.977-6.859,4.429-3.886-.6,2.691-25.161-8.071-38.016s-4.186-3.288-11.958-32.884c0,0-12.749-27.5-18.236-4.485-.306,1.286-4.653,9.8-14.516,2.914h-.006s-17.272-9.492-25.044-4.709-14.351,4.185-31.69,5.979-25.41-11.659-27.8-6.277.6,11.36.6,11.36c4.783,19.133-5.381,27.5-5.381,27.5-7.474,24.513-4.783,29.6-4.783,29.6l-14.649,2.391s16.846-2.99,13.558-39.761S1005.585,784.727,1005.585,775.459Z" transform="translate(-987.542 -723.142)" fill="#733926"/>
            </g>
          </g>
        </g>
        <g id="Group_735" data-name="Group 735" transform="translate(31.442 0.024)">
          <path id="Path_660" data-name="Path 660" d="M987.228,908.983l.211-.1A.443.443,0,0,1,987.228,908.983Z" transform="translate(-816.025 -784.216)" fill="#ff931e"/>
          <path id="Path_661" data-name="Path 661" d="M999.562,768.021c0-9.268,6.277-19.133,6.277-19.133,25.71-16.742,39.163-10.762,39.163-10.762,2.092-3.588,8.071-5.083,8.071-5.083.3-5.68,3.588-5.381,3.588-5.381,33.482,22.421,66.367-4.485,66.367-4.485,11.282,11.712,16.346,21.262,18.206,28.69.393.579.8,1.174,1.226,1.8,0,0,5.681,17.338,7.176,18.235s9.651,35.617,10.761,46.339c1.152,11.112,1.376,12.382,1.376,12.382-3.587.522-15.12-1-15.12-1-1.533-3.62-2-3.923-4.492-6.9-10.773-12.847-7.773-4.185-15.546-33.781,0,0,1.495-7.175,0-7.474-1.3-.259-8.434,5.314-18.3-1.571h-.006s-17.273-9.492-25.046-4.709-14.349,4.185-31.69,5.979-25.409-11.659-27.8-6.278.6,11.36.6,11.36c4.783,19.133-5.382,27.5-5.382,27.5l-2.73,9.805-17.4-2.846-1.1-13.238C994.71,770.691,999.562,777.289,999.562,768.021Z" transform="translate(-996.757 -723.178)" fill="#ff931e"/>
        </g>
        <g id="Group_736" data-name="Group 736" transform="translate(33.506 0.222)">
          <path id="Path_662" data-name="Path 662" d="M987.3,909.276l.21-.1A.441.441,0,0,1,987.3,909.276Z" transform="translate(-818.207 -784.51)" fill="#d37a20"/>
          <path id="Path_663" data-name="Path 663" d="M1017.856,775.418c0-9.268-11.136-9.268-11.136-9.268,25.71-16.74,21.9,2.991,21.9,2.991,2.093-3.588,21.151,1.269,21.151,1.269.3-5.68,19.955-18.013,19.955-18.013,33.482,22.423,51.267-28.925,51.267-28.925,11.281,11.712,14.542,15.547,16.4,22.976-35.246-1.387-33.941,16.714-31.121,25.71a6.431,6.431,0,0,0,6.732,4.495c5.621-.525,16.139-1.636,30.861-3.736,8.67-1.236,13.384,34.9,14.5,45.622,1.151,11.11,1.375,12.382,1.375,12.382-3.588.523-2.5.472-2.5.472-1.532-3.622-5.491-40.567-7.988-43.543-10.772-12.848-25.71,15.52-24.667,1.392,0,0,1.494-7.175,0-7.474-1.3-.258-8.435,5.314-18.3-1.57h-.007s-17.271-9.491-25.044-4.708-14.349,4.185-31.69,5.979-25.41-11.659-27.8-6.279.6,11.36.6,11.36c4.783,19.134-5.381,27.5-5.381,27.5l-2.73,9.805-17.4-2.846s19.735-5.452,18.635-18.69C1012.407,765.532,1017.856,784.685,1017.856,775.418Z" transform="translate(-996.829 -723.472)" fill="#d37a20"/>
        </g>
        <g id="Group_737" data-name="Group 737" transform="translate(183.105 121.574)">
          <path id="Path_664" data-name="Path 664" d="M974.039,941.625s5.286,1.826,6.151,3.894,1.154,6.328,12.012,4.5,10.379-3.28,10.379-3.28-3.916-5.086-20.278-3.534c-1.055.1-.288-11.135-6.151-8.64C974.651,935.206,973.368,941.375,974.039,941.625Z" transform="translate(-973.856 -914.09)" fill="#f2f2f2"/>
          <path id="Path_665" data-name="Path 665" d="M978.706,905.369s-7.207,0-6.054,18.253c0,0-.318,2.677,2.965,4.625a6.709,6.709,0,0,1,3.089,4.381c.481,2.92,2.5,5.354,13.743,3.163a9.344,9.344,0,0,1,6.343.845c2.979,1.71,2.306-5.59-1.538-8.876s-6.151-13.143-5.766-16.55S988.508,901.718,978.706,905.369Z" transform="translate(-971.028 -904.241)" fill="#d37a20"/>
          <path id="Path_666" data-name="Path 666" d="M972.3,905.369s5.568-4.707,6.722,13.546c0,0-6.651,4.533-3.37,6.48a4.31,4.31,0,0,1,3.532,3.377c.481,2.921-4.385,9.21,6.859,7.02a9.342,9.342,0,0,1,6.343.845c2.979,1.71,2.307-5.59-1.538-8.876s-6.15-13.143-5.766-16.55S982.1,901.718,972.3,905.369Z" transform="translate(-964.469 -904.241)" fill="#ff931e"/>
        </g>
        <g id="Group_738" data-name="Group 738" transform="translate(0 113.743)">
          <path id="Path_667" data-name="Path 667" d="M1234.511,936.214s.654-1.351,14.223-1.662,10.107-5.923,8.516-7.586-23.63.624-27.116,2.39-21.639,3.061-23.7,1.945-3.088,4.5,6.459,4.913S1217.853,939.747,1234.511,936.214Z" transform="translate(-1202.222 -903.69)" fill="#f2f2f2"/>
          <path id="Path_668" data-name="Path 668" d="M1258.6,897.044s.2-2.768.391,3.363,3.82,15.445,3.82,15.445-3.275,1.87-16.563,3.221a35.741,35.741,0,0,0-10.107,2.078c-5.521,1.975-10.48,2.39-24.144-.416,0,0-.468,1.351,1.686,3.014s-10.763-3.221-2.246-9.56c0,0,8.609,2.91,20.493-8.727,0,0,5.242-11.327,5.427-12.886,0,0,11.418.623,12.728,3.74C1250.087,896.316,1254.952,898.706,1258.6,897.044Z" transform="translate(-1208.499 -892.576)" fill="#d37a20"/>
          <path id="Path_669" data-name="Path 669" d="M1232.641,923.749c2.153,1.662-10.762-3.221-2.245-9.56,0,0,8.609,2.91,20.495-8.727,0,0,5.24-11.327,5.425-12.886,0,0,11.418.623,12.728,3.74,0,0-10.856,8.313-7.205,6.651,0,0,2.01-1.091,2.2,5.041s-13.382,7.268-13.382,7.268,1.075.472-12.214,1.823c0,0-8.152-.779-9.029,4.156" transform="translate(-1227.456 -892.576)" fill="#ff931e"/>
        </g>
      </g>
      <path id="Path_670" data-name="Path 670" d="M1105.307,594.209s-6.1-15.762-10.219-28.609-13.058-3.372-13.058-3.372l-1.135,43.687S1110.476,618.523,1105.307,594.209Z" transform="translate(-886.279 -532.637)"/>
      <g id="body" transform="translate(161.499 47.537)">
        <path id="Path_671" data-name="Path 671" d="M1066.153,685.36s3.787-12.157,1.794-20.329c0,0-1.993-.8-1.794-7.574,0,0-13.354-3.588-7.373-20.727s2.391-37.867,1.793-40.06,15.147-1.2,15.147-1.2,21.325-3.588,21.325-4.784,23.517,10.961,23.517,10.961-17.14,14.749-7.573,34.878c0,0,7.573,10.562,2.59,19.731s6.378,11.16,6.378,11.16,6.578,4.784,9.168,10.364S1097.243,705.689,1066.153,685.36Z" transform="translate(-1057.239 -590.609)" fill="#b37d66"/>
        <path id="Path_672" data-name="Path 672" d="M1100.9,692.78s12.755-12.335-4.983-30.493c0,0-38.665-.6-38.465-7.375,0,0,37.268,12.556,43.247-4.584s-4.186-22.322-4.783-24.514.4-23.916.4-23.916-.455-8.044-.455-9.24,19.584,9.638,19.584,9.638-17.14,14.748-7.572,34.879c0,0,7.572,10.562,2.589,19.73s6.377,11.161,6.377,11.161,6.577,4.784,9.168,10.364S1118.041,687.4,1100.9,692.78Z" transform="translate(-1052.524 -591.252)" fill="#733926"/>
      </g>
      <g id="right_arm" data-name="right arm" transform="translate(136.074 53.589)">
        <path id="Path_673" data-name="Path 673" d="M1183.863,641.089a4.932,4.932,0,0,1-4.387-2.592c-1.592-2.789,1.8,9.766-4.98,21.924,0,0-2.989,13.353-2.193,18.137s-12.955,9.566-15.744,2.191c0,0-3.987-1.2-3.188-13.95s6.577-8.172,6.577-8.172.6-18.336-.4-22.521-1.793-22.92,6.577-28.5,7.374-8.17,14.748-7.971S1188.829,637.7,1183.863,641.089Z" transform="translate(-1152.114 -599.623)" fill="#733926"/>
        <path id="left_arm" data-name="left arm" d="M1180.977,628.732s-.6,16.148-2.194,13.359,2.6,8.365-4.178,20.522c0,0,.858,10.763,1.656,15.546s-10.831,9.965-13.62,2.59c0,0,1.4-3.189-3.188-13.95-5.008-11.758,6.578-8.172,6.578-8.172s.6-18.336-.4-22.521-1.793-22.92,6.578-28.5,7.374-8.17,14.748-7.971S1185.943,625.343,1180.977,628.732Z" transform="translate(-1158.197 -599.623)" fill="#b37d66"/>
      </g>
      <g id="top" transform="translate(161.251 48.944)">
        <path id="Path_674" data-name="Path 674" d="M1133.375,668.112l-41.655-2.391s-2.988-2.592-1.793-7.574c0,0-14.553-3.589-6.977-21.924s3.988-36.272,1.4-38.863c0,0,5.465-2.41,6.219-1.4s-6.17,40.6,16.5,34.687,14.036-14.694,17.28-37.94l4.68,2.265s-3.627,30.692,7.535,42.451C1136.564,637.419,1144.336,675.485,1133.375,668.112Z" transform="translate(-1080.764 -592.703)" fill="#ff931e"/>
        <path id="Path_675" data-name="Path 675" d="M1129.854,668.112l-4.382-.252s-1.6-3.138-.4-8.12c0,0-41.052,2.516-44.141-5.027-.341-.833-3.439,5.426,42.146-1.55,0,0,.84-9.974,1.595-8.969s-6.844,4.9-3.787-18.335c1-7.573-.854-9.91,2.392-33.156l2.23,2.265s-3.627,30.692,7.535,42.451C1133.041,637.419,1140.814,675.485,1129.854,668.112Z" transform="translate(-1077.242 -592.703)" fill="#d37a20"/>
        <path id="Path_676" data-name="Path 676" d="M1136.161,664.478s-3.587,8.769-2.193,12.954-5.58,2.791-5.58,2.791,4.983-15.734,2.592-17.533S1134.167,665.872,1136.161,664.478Z" transform="translate(-1109.658 -615.576)" fill="#d37a20"/>
      </g>
      <g id="Right_Arm-2" data-name="Right Arm" transform="translate(197.12 51.208)">
        <path id="Path_677" data-name="Path 677" d="M1065.9,597.472s17.538,7.971,22.321,15.346,5.78,17.139,3.787,24.912.6,6.378-1.594,19.93-2.989,17.539-2.79,20.528-.6,3.986-1.993,5.182-.6,14.749-8.969,27.105-13.353,18.934-13.353,25.71-14.15-1-14.15-1,12.356-23.12,11.958-28.1,8.37-20.528,8.37-20.528-2.193-43.248-.4-48.032c0,0-12.355-15.545-9.964-36.272l2.789-6.179Z" transform="translate(-1049.162 -596.076)" fill="#b37d66"/>
        <path id="Path_678" data-name="Path 678" d="M1059.9,597.472s17.538,7.971,22.321,15.346,5.781,17.139,3.787,24.912.6,6.378-1.594,19.93-2.989,17.539-2.79,20.528-.6,3.986-1.993,5.182-.6,14.749-8.969,27.105-13.353,18.934-13.353,25.71-7.613,1.4-7.613,1.4,24.315-38.665,23.916-43.647,3.588-13.951,3.588-13.951-3.39-12.465,3.188-40.857c0,0-7.773-9.766-5.381-30.493l-19.093-12.556Z" transform="translate(-1043.52 -596.076)" fill="#733926"/>
        <path id="Path_679" data-name="Path 679" d="M1077.474,660.152s-4.383,0-6.576-1.2S1071.893,657.96,1077.474,660.152Z" transform="translate(-1047.779 -616.505)" fill="#733926"/>
        <path id="Path_680" data-name="Path 680" d="M1077.912,723.472s-2.38,4.562-4.876,4.562S1066.353,727.48,1077.912,723.472Z" transform="translate(-1048.216 -637.95)" fill="#733926"/>
      </g>
      <g id="Head" transform="translate(166.199)">
        <path id="Path_681" data-name="Path 681" d="M1103.594,609.372a75.134,75.134,0,0,1,9.864,7.873c3.986,3.986,8.007-2.892,8.007-2.892s.428-16.036.467-16.441-3.691,3.289-4.189,2.59,0-3.388,0-3.388S1106.88,608.475,1103.594,609.372Z" transform="translate(-1083.733 -545.21)" fill="#733926"/>
        <path id="Path_682" data-name="Path 682" d="M1115.135,535.293s-14.749-5.381-17.539,5.281-.6,16.841-1.4,20.13,6.4,22.322,9.43,23.418c0,0,3.426,3.388,3.426,4.185s3.376,1.893,6.078.3,15.943-10.663,16.541-16.543v-5.082s5.183-2.036,5.282-5.3,3.388-8.946,0-9.744-4.585,4.783-4.585,4.783.8-16.244-.6-16.941S1121.81,532.4,1115.135,535.293Z" transform="translate(-1095.276 -524.444)" fill="#b37d66"/>
        <path id="Path_683" data-name="Path 683" d="M1115.854,535.6l-17.539,5.281c33.782,2.69,27.492,21.118,28.6,24.315,2.689,7.773-17.178,19.232-14.152,20.329,0,0,5.781-1.2,5.781-.4s-5.393,5.382-2.69,3.787,15.943-10.662,16.541-16.542v-5.082s4.584-4.257,4.684-7.523.874-10.994.6-7.524a25.437,25.437,0,0,1-4.583,12.606s.8-24.066-.6-24.763S1122.531,532.714,1115.854,535.6Z" transform="translate(-1095.993 -524.755)" fill="#733926"/>
        <path id="Path_684" data-name="Path 684" d="M1117.3,584.552s-3.885-1.993-2.989-8.57,15.224-5.78,15.835-5.182-4.719,4.384-4.5,5.48-5.957,2.89-7.551,1.695.9,7.573,0,8.769-4.085.7-5.082,0S1117.3,584.552,1117.3,584.552Z" transform="translate(-1098.242 -536.433)" fill="#733926"/>
        <path id="Path_685" data-name="Path 685" d="M1135.4,552.27s-3.38-11.559-3.779-14.15-12.474,2.591-26.068-3.188c0,0-5.026,4.583-4.626,9.765s-3.787-13.951,11.759-21.923,24.116,2.59,24.116,2.59,5.422,18.026,3.707,22.167-2.013,9.921-2.71,12.362S1135.589,559.843,1135.4,552.27Z" transform="translate(-1100.694 -519.796)"/>
      </g>
      <g id="Rope" transform="translate(0 67.107)">
        <path id="Path_686" data-name="Path 686" d="M1185.672,794.679c27.878-75.645,62.751-160.8,85.907-168.748,24.813-8.518,27.227-8.537,42.153,1.946s21.525,24.346,21.227,29.513-12.064,0-12.064,0-19.965-27.719-30.408-22.637-16.124-4.185-42.132,44.843-40.062,105.531-40.062,105.531-3.155,10.275-8.362,24.418A174.7,174.7,0,0,1,1185.672,794.679Z" transform="translate(-1185.672 -619.76)" fill="#c6c6c6"/>
        <path id="Path_687" data-name="Path 687" d="M1185.672,794.679c27.878-75.645,62.751-160.8,85.907-168.748,24.813-8.518,27.227-8.537,42.153,1.946s21.525,24.346,21.227,29.513-15.315-15.761-15.315-15.761-23.077-17.512-33.521-12.43-11.853,1.069-37.861,50.1-37.969,105.829-37.969,105.829-4.392,9.176-11.177,22.062A155.05,155.05,0,0,1,1185.672,794.679Z" transform="translate(-1185.672 -619.76)" fill="#f2f2f2"/>
        <path id="Path_688" data-name="Path 688" d="M1184.747,829.994s14-17.5,12.81-1.494-4.085,34.978-51.389,92.077c-10.1,12.185-20.753,19.167-31.273,22.615-2.486-6.723-5.42-13.207-9.772-18.758C1175.1,901.951,1184.747,829.994,1184.747,829.994Z" transform="translate(-994.26 -686.153)" fill="#f2f2f2"/>
        <path id="Path_689" data-name="Path 689" d="M1114.4,829.2c-.625,8.379-1.72,17.576-9.406,32.628a133.9,133.9,0,0,0,4.615-23.36S1115.595,813.2,1114.4,829.2Z" transform="translate(-911.104 -686.855)" fill="#c6c6c6"/>
        <path id="Path_690" data-name="Path 690" d="M1146.564,939.855c22.538-27.206,34.991-45.752,41.985-59.451-7.2,25.523-25.215,64.87-69.308,80.6C1128.467,957.195,1137.731,950.516,1146.564,939.855Z" transform="translate(-994.655 -705.43)" fill="#c6c6c6"/>
        <path id="Path_691" data-name="Path 691" d="M1238.387,1005.251h0Z" transform="translate(-1124.481 -746.466)" fill="#c6c6c6"/>
        <path id="Path_692" data-name="Path 692" d="M1226.479,1000.474q-1.976.819-3.95,1.461l-.046-.125Q1224.514,1001.172,1226.479,1000.474Z" transform="translate(-1101.894 -744.895)" fill="#c6c6c6"/>
        <path id="Path_693" data-name="Path 693" d="M1235.091,1002.588a54.907,54.907,0,0,1-6.725,1.746q3.433-.846,6.678-1.872Z" transform="translate(-1114.456 -745.55)" fill="#c6c6c6"/>
      </g>
      <g id="Hands" transform="translate(132.326 102.279)">
        <path id="Path_694" data-name="Path 694" d="M1095.952,820.1s6.823,13.9,5.927,15.4,4.335-3.288,4.036-5.68,5.68-9.118,6.726-9.715,2.372-15.412-.608-17.2-14.19.008-14.19.008-6.989,9.716-6.633,11.51-1.578,14.2-.012,14.349S1096.153,821.744,1095.952,820.1Z" transform="translate(-1033.048 -714.868)" fill="#b37d66"/>
        <path id="Path_695" data-name="Path 695" d="M1177.76,672.153s-.583,18.385,1.577,19.432,9.633,4.765,16.808,1.262,2.69-9.483,0-8.287-1.046-4.484-4.335-5.083S1188.224,674.1,1177.76,672.153Z" transform="translate(-1177.689 -672.153)" fill="#b37d66"/>
        <path id="Path_696" data-name="Path 696" d="M1090.578,818.57s7.3,15.056,6.406,16.551,4.335-3.288,4.036-5.68,5.68-9.118,6.726-9.717,2.372-15.411-.608-17.2a10,10,0,0,0-5.559-1.546s1.836,14.558,2.19,16.351-.815,6.129-4.841,7.922C1097.492,825.9,1090.779,820.215,1090.578,818.57Z" transform="translate(-1028.154 -714.494)" fill="#733926"/>
        <path id="Path_697" data-name="Path 697" d="M1187.472,692.42s-11.677,1.694-9.517,2.74,9.633,4.766,16.809,1.262,2.69-9.483,0-8.287-1.046-4.484-4.336-5.082S1197.935,694.363,1187.472,692.42Z" transform="translate(-1176.306 -675.728)" fill="#733926"/>
      </g>
    </g>
  </g>
</svg>
