<svg xmlns="http://www.w3.org/2000/svg" xmlns:xlink="http://www.w3.org/1999/xlink" width="192" height="221" viewBox="0 0 192 221">
  <defs>
    <clipPath id="clip-path">
      <rect id="Rectangle_204" data-name="Rectangle 204" width="192" height="221" fill="#fff" stroke="#707070" stroke-width="1"/>
    </clipPath>
  </defs>
  <g id="mobility_header" transform="translate(-198 7)" clip-path="url(#clip-path)">
    <g id="Mobility" transform="translate(213.575 -53.724)">
      <g id="Group_739" data-name="Group 739" transform="translate(0 125.028)">
        <path id="Path_698" data-name="Path 698" d="M864.838,691.662s-10,10.605-1.052,25.339,22.625,14.732,25.519,11.575,10.7-4.364,10.7-4.364-3.994-14.185-6.756-14.974-15.523-8.55-15.523-8.55S873.915,682.242,864.838,691.662Z" transform="translate(-851.915 -677.784)" fill="#0f0702"/>
        <path id="Path_699" data-name="Path 699" d="M876.575,693.116s-1.448,3.551-.593,10.325,9.8,18.746,9.8,18.746-20.63,6.953-21.365,7.128-2.116,1.62-.538-3.38c0,0-2.63-7.563-4.933-7.76s-11.115-1.447-11.576-2.565c0,0-4.078,1.249-6.314-1.776s.724-5.986,1.381-5.986,5.853-.2,5.458-2.433-9.208-4.539-9.208-5.525-11.9-8.025-2.959-18.416c0,0,13.746-2.5,14.732-1.907s2.894,2.893,9.537.262c0,0,4.21-1.25,3.552,4.8,0,0,6.577.065,8.55,4.407C872.1,689.038,876.575,689.63,876.575,693.116Z" transform="translate(-814.453 -676.262)" fill="#c07a47"/>
        <path id="Path_700" data-name="Path 700" d="M869.3,699.778a12.337,12.337,0,0,0-3.245,10.457c.855,6.774,19.206,11.97,19.206,11.97s-20.63,6.954-21.365,7.128-2.117,1.62-.537-3.38c0,0-2.632-7.563-4.933-7.76s-11.115-1.447-11.577-2.566c0,0-4.078,1.25-6.314-1.776s1.184-.066,1.843-.066,11.838,2.369,10.128-4.472c-.551-2.2-14.338-8.419-14.338-9.405s-11.906-8.025-2.96-18.417c0,0,12.8-2.336,11.767-1.833-7.76,3.775-17.292,12.027-10.648,9.4,0,0,11.706.92,11.05,6.971,0,0,9.789,8.577,11.761,12.919C859.136,708.946,869.3,696.291,869.3,699.778Z" transform="translate(-813.492 -676.281)" fill="#a06135"/>
        <path id="Path_701" data-name="Path 701" d="M886.85,773.721s-6.151-39.1,9.223-55.662,6.036,6.859,6.036,6.859,5.656,21.177,6.315,25.52,4.077,7.893,3.815,14.47-6.578,23.81-11.314,26.309S887.409,778.348,886.85,773.721Z" transform="translate(-885.635 -681.491)" fill="#0f0702"/>
        <path id="Path_702" data-name="Path 702" d="M888.329,676.059s-6.254-3.867-10.757,12.142,3.983,7.721,3.983,7.721,10.334-15.834,16.112-15.653" transform="translate(-863.172 -675.649)" fill="#0f0702"/>
      </g>
      <path id="Path_703" data-name="Path 703" d="M767.672,564.152s2.369,26.309,3.816,29.6,1.841,24.2,0,27.23,3.026,26.178-3.816,44.725a5.658,5.658,0,0,0,2.526,8.156c5.63,3.025,2.867,5.13,20.363,11.05s18.022,8.945,18.022,8.945,4.472.658,13.286,8.156,14.732,11.113,17.758,10.622c0,0-7.1-.23-17.495,22.4S793.06,754.1,793.06,754.1l-26.242-7.893s-2.83-.394-3.225-.92-.92,1.184-5,.263-5.919-1.709-7.234-1.052-.922,3.026,0,5.524,6.313,12.365,5.262,22.889,6.977,11.445,8.422,49.592c0,0,2.1,20.39,3.549,20.127s-12.1-5.13-12.1-5.13,4.736-8.945-5.393-24.2-9.209-29.73-9.209-29.73-6.577-17.1-7.1-23.547c0,0-10.786-10.918-11.18-23.021s-1.215-22.888,2.286-25.914,12.315-27.229,12.315-27.229,5.394-4.078,5.394-5.789-2.763-17.013,9.207-30.672c0,0,1.973-22.341,2.631-25.761s-3.42-.921,1.052-28.677-1.184-28.809-1.184-28.809S762.279,556.786,767.672,564.152Z" transform="translate(-676.611 -532.244)" fill="#c07a47"/>
      <path id="Path_704" data-name="Path 704" d="M743.3,564.4s2.369,26.309,3.816,29.6,1.841,24.2,0,27.23,3.026,26.178-3.816,44.726a5.657,5.657,0,0,0,2.526,8.156c5.631,3.025,2.867,5.13,20.363,11.05s18.022,8.945,18.022,8.945,4.472.658,13.286,8.156,14.733,11.113,17.759,10.621c0,0-7.1-.229-17.5,22.4s-29.073,19.074-29.073,19.074l-26.242-7.893s-2.83-.395-3.225-.921-.92,1.184-5,.263-5.919-1.71-7.234-1.052-.921,3.026,0,5.525,6.314,12.366,5.262,22.889,6.977,11.445,8.422,49.593c0,0,2.1,20.389,3.549,20.127s-7.466-3.792-7.466-3.792,6.874-17.321-3.255-32.581a36.482,36.482,0,0,1-5.131-29.993s-19.731-64.129,18.154-32.755c0,0,45.383,7.761,44.988-4.34s4.589-21.244,8.09-24.271-45.182-27.426-45.182-27.426-22.5-6.381-22.5-8.091,4.834-13.418,11.642-29.566c0,0,6.511-15.925-7.958-32.183-2.316-2.6,11.4,16.721,6.182-20.73-3.88-27.845-2.959-24.468-2.959-24.468S737.9,557.035,743.3,564.4Z" transform="translate(-652.236 -532.492)" fill="#a06135"/>
      <path id="Path_705" data-name="Path 705" d="M833.544,758.514s8.485-40.715,10.656-41.372-12.058-11.708-29.51-10.721c0,0-4.626-1.184-17.945,3.749l-22.921-3.025-.882,2.374s21.535,1.441,21.732,2.624,10.458,13.416,8.682,23.776-15,17.069-21.311,15.491c0,0-15.619-16.706-20.535-17.035l-1.573,2.56s15.006,9.344,20.531,16.843,10.261,14.4,18.745,14.8,32.558,0,32.558,0Z" transform="translate(-712.228 -555.529)" fill="#ff931e"/>
      <path id="Path_706" data-name="Path 706" d="M833.544,758.526s8.485-40.714,10.656-41.371-12.058-11.708-29.51-10.722c0,0,37.8,6.709,17.67,34.444l-1.775,4.955-1.908-2.1c-1.625-3.527-10.815-6.5-14.6-7.368-1.7-.389,13.626,6.987,15.983,12.958.988,2.5-.46-5.459-3.026,7.629-2.022,10.316-27.165,8.946-33.478,7.368,0,0-27.115-26.449-32.031-26.778l-1.589-.589s15.006,9.345,20.531,16.842,10.261,14.4,18.745,14.8,32.558,0,32.558,0Z" transform="translate(-712.228 -555.541)" fill="#d37a20"/>
      <g id="Legs" transform="translate(49.279 180.39)">
        <path id="Path_707" data-name="Path 707" d="M527.037,852.545s6.168-.639,9.471-1.382,12.234,14.01,9.274,16.377-10.34,3.749-16.812-.591S527.037,852.545,527.037,852.545Z" transform="translate(-266.56 -759.111)" fill="#a06135"/>
        <path id="Path_708" data-name="Path 708" d="M725.094,859.719a44.564,44.564,0,0,0-12.825-1.776c-7.5,0-29.6,4.342-44.989-2.367,0,0-6.314-.4-10.656.985s-12.431-6.511-29.4-7.695-31.176-6.117-40.253-12.036-23.284-12.432-32.36-22.495c0,0-1.973-.2-4.341-5.525s-8.091-6.512-8.091-6.512l62.156,1.184s3.749-.592,11.445,6.314c0,0,15.785,5.524,20.915,10.457s23.086,13.024,27.033,13.221,20.127-.987,30.584,5.525c0,0,20.522,5.722,25.652,4.341S728.054,856.168,725.094,859.719Z" transform="translate(-460.474 -751.292)" fill="#ff931e"/>
        <path id="Path_709" data-name="Path 709" d="M724.128,859.719a44.565,44.565,0,0,0-12.825-1.776c-7.5,0-29.6,4.342-44.989-2.367,0,0-6.314-.4-10.655.985s-12.431-6.511-29.4-7.695-31.176-6.117-40.252-12.036-23.284-12.432-32.361-22.495c0,0-1.974-.2-4.341-5.525s-8.09-6.512-8.09-6.512l37.091,14.6a10.925,10.925,0,0,1,3.219,1.966c3.6,3.163,13.137,11.564,19.28,17.076,0,0,35.715,6.02,40.845,10.952s30.387,3.058,34.334,3.255,28.549-1.48,39.007,5.032c0,0,1.8,5.327,6.929,3.947S727.088,856.168,724.128,859.719Z" transform="translate(-459.508 -751.292)" fill="#d37a20"/>
        <path id="Path_710" data-name="Path 710" d="M502.092,851.45s11.452,3.157,11.254,11.247-11.247,5.92-12.431,4.538c0,0,6.511,5.131,9.668,10.656s4.932,15.193,8.287,16.18,16.575-1.578,17.759-9.472-6.709-8.879-14.8-22.889c0,0,2.763-9.471-9.274-11.247S499.52,848.687,502.092,851.45Z" transform="translate(-236.296 -758.807)" fill="#ff931e"/>
        <path id="Path_711" data-name="Path 711" d="M508.3,852.5s4.509.394,4.312,8.483,16.406,20.917,15.222,19.535c0,0-4.143-1.578-.987,3.946s-17.562,8.682-14.207,9.669,16.575-1.578,17.759-9.471-6.709-8.879-14.8-22.889c0,0,2.763-9.471-9.274-11.247S505.726,849.737,508.3,852.5Z" transform="translate(-230.064 -758.871)" fill="#f2f2f2"/>
        <path id="Path_712" data-name="Path 712" d="M812.209,895.369s-2.466,14.4-1.677,16.673-13.615,10.261-16.97,6.611-4.736-14.6-4.736-14.6,1.382.1,4.341-6.314a4.385,4.385,0,0,1,.4-4.242C795.042,891.619,813,890.348,812.209,895.369Z" transform="translate(-753.588 -765.63)" fill="#a06135"/>
        <path id="Path_713" data-name="Path 713" d="M676.2,865.287s-2.861,6.314-1.382,8.387,7.355-3.118,18.576.513c0,0,5.3-38.7,7.669-43.726s6.807-11.444,1.38-34.629c0,0-1.936-2.664,2.584-3.157s13.893-.1,37.767,6.906,60.184-6.906,42.523-35.518c0,0-4.735-15-23.185-15.786,0,0-10.655-4.834-14.009-6.708,0,0-6.314-.394-11.247,13.813,0,0-27.131,1.282-40.055,7,0,0-12.728-.2-16.18,4.538a10.385,10.385,0,0,0-5.131,9.767s-1.282,15.489.887,22-.887,13.417,1.184,34.432S676.2,865.287,676.2,865.287Z" transform="translate(-635.235 -741.567)" fill="#ff931e"/>
        <path id="Path_714" data-name="Path 714" d="M679.867,857.756s-6.745,13.029-5.265,15.1-3-2.3,8.219,1.33c0,0,5.3-38.7,7.669-43.726s6.807-11.444,1.38-34.629c0,0-1.936-2.664,2.584-3.157s13.892-.1,37.767,6.906,60.184-6.906,42.523-35.518c0,0-4.736-15-23.185-15.786,0,0-10.655-4.834-14.009-6.708,0,0-6.314-.394-11.247,13.813,0,0,40.647-15.227,44.2,13.055,0,0,11.116,10.416-6.164,21.091a9.249,9.249,0,0,1-6.847,1.168c-12.465-2.747-54.845-11.669-54.341-5.947,0,0-17.561,3.092-15.39,9.6s-6.52,10.556-4.448,31.571S679.867,857.756,679.867,857.756Z" transform="translate(-624.667 -741.567)" fill="#d37a20"/>
        <path id="Path_715" data-name="Path 715" d="M817.171,941.817s.715-1.328,15.541-1.635,11.041-5.827,9.3-7.464-25.818.614-29.625,2.352-23.641,3.011-25.891,1.914-3.374,4.424,7.054,4.833S798.972,945.294,817.171,941.817Z" transform="translate(-781.896 -772.084)" fill="#f2f2f2"/>
        <path id="Path_716" data-name="Path 716" d="M842.629,909.954s4.4-1.841,4.6,4.192,0,14.313,0,14.313-3.578,1.84-18.1,3.17a42.9,42.9,0,0,0-11.041,2.045c-6.032,1.942-11.45,2.351-26.378-.41,0,0-.511,1.33,1.841,2.966s-11.758-3.171-2.454-9.408c0,0,9.405,2.864,22.39-8.587,0,0,5.726-11.144,5.93-12.679,0,0,12.474.614,13.9,3.682C833.326,909.239,838.642,911.59,842.629,909.954Z" transform="translate(-787.889 -767.826)" fill="#d37a20"/>
        <path id="Path_717" data-name="Path 717" d="M810.217,936.231c2.351,1.635-11.757-3.171-2.453-9.408,0,0,9.405,2.864,22.39-8.587,0,0,5.726-11.144,5.93-12.679,0,0,12.473.614,13.9,3.682,0,0-11.86,8.179-7.872,6.543,0,0,2.2-1.073,2.4,4.958s-14.619,7.152-14.619,7.152,1.175.465-13.342,1.794c0,0-8.908-.766-9.866,4.09" transform="translate(-804.552 -767.826)" fill="#ff931e"/>
      </g>
      <path id="Path_718" data-name="Path 718" d="M844.051,716.331s-1.249-1.275.79-3.552S848.318,713.063,844.051,716.331Z" transform="translate(-784.955 -556.427)" fill="#a06135"/>
      <path id="Path_719" data-name="Path 719" d="M865.7,685.113s2.651-3.815,0-2.894a12.4,12.4,0,0,1-5.282.527S865.145,686.007,865.7,685.113Z" transform="translate(-819.081 -551.651)" fill="#a06135"/>
      <path id="Path_720" data-name="Path 720" d="M865.859,691.4s-1.593.657-4.355-2.236,1.578,4.6-.657,5.394S865.859,691.4,865.859,691.4Z" transform="translate(-818.061 -552.68)" fill="#a06135"/>
      <path id="Path_721" data-name="Path 721" d="M818.457,900.786s-.936,3.06-8.829-2.846c0,0,.789-2.881,7.893-4.591s9.723-2.978,13.214-1.818c0,0,2-1.78,8-1.6s10.689.505,9.437,1.6,3.54,3.195,1.516,5.5a15.8,15.8,0,0,1-10.953,4.547c-3.984-.2-5.956,1.474-5.956,1.474s-1.986.689-2.045-3.52C830.735,899.532,818.867,898.751,818.457,900.786Z" transform="translate(-759.74 -584.932)" fill="#c07a47"/>
      <path id="Path_722" data-name="Path 722" d="M815.968,900.785s1.552,4.78-6.34-1.125c0,0,4.22-.786,11.323-2.5s13.61-1.82,17.1-.658c0,0-1.747-6.767,4.258-6.59s4.625.518,3.374,1.614,3.539,3.2,1.516,5.5a15.811,15.811,0,0,1-10.953,4.546c-3.983-.2-5.956,1.475-5.956,1.475s-1.985.688-2.044-3.521C828.247,899.531,816.378,898.749,815.968,900.785Z" transform="translate(-757.251 -584.93)" fill="#a06135"/>
      <path id="Path_723" data-name="Path 723" d="M812.474,548.63s8.484,5.248,12.234,12.391,10.589-2.328,10.589-2.328a20.112,20.112,0,0,0-.986-11.576c-2.435-6.381-1.579-15.522-3.289-16.049s-1.052,3.487-.658,8.353-2.367,2.1-2.367,2.1-3.026-9.564-2.829-10.5-.92-4.491-2.7-1.927c0,0,1.381,12.761,2.171,13.681,0,0-3.289-8.076-4.013-14.594,0,0-2.236-3.822-3.026,1.176s3.421,13.418,3.421,13.418h-.789c-.461,0-4.144-8.814-4.669-9.669s-.33-3.223-2.105-3.617.788,10.721,2.5,12.958l1.711,2.236s.591,2.17-.066,2.367-2.762-1.973-5.13-1.38-4.472,1.644-4.013,2.894S810.962,548.3,812.474,548.63Z" transform="translate(-744.236 -526.784)" fill="#c07a47"/>
      <path id="Path_724" data-name="Path 724" d="M813.422,547.482s11.839,5.814,15.588,12.957,5.525-1.658,5.525-1.658a20.11,20.11,0,0,0-.986-11.575c-2.435-6.381-1.579-15.523-3.289-16.049s.921,5.341,1.316,10.208-4.341.249-4.341.249-3.026-9.564-2.829-10.5.264-.4-1.512,2.165c0,0,1.117,8.617,1.907,9.537,0,0-4.209-8.025-4.933-14.543,0,0-.724-3.611-1.512,1.388s4.276,13.484,4.276,13.484-2.7-.277-3.158-.277-4.144-8.813-4.669-9.668-1.138-5.159-2.105-3.618c-.418.666,2.394,7.152,3.485,9.747,3.814,9.078,11.773,7.1,11.773,7.1s-3.222,3.815-3.88,4.013-10-5.275-12.365-4.684-3.684.8-3.224,2.053S811.91,547.153,813.422,547.482Z" transform="translate(-743.474 -526.82)" fill="#a06135"/>
    </g>
  </g>
</svg>
