<svg xmlns="http://www.w3.org/2000/svg" width="34.145" height="34.343" viewBox="0 0 34.145 34.343">
  <g id="mobility" transform="translate(-500.916 -526.784)">
    <g id="Group_739" data-name="Group 739" transform="translate(528.054 538.991)">
      <path id="Path_698" data-name="Path 698" d="M863.5,689.245a2.041,2.041,0,0,1,.1,2.474c-.873,1.438-2.209,1.438-2.491,1.13a2.263,2.263,0,0,0-1.045-.426s.39-1.385.66-1.462a15.706,15.706,0,0,0,1.516-.835S862.614,688.325,863.5,689.245Z" transform="translate(-857.755 -687.89)" fill="#0f0702"/>
      <path id="Path_699" data-name="Path 699" d="M833.3,680.808a2.175,2.175,0,0,1,.058,1.008,5.849,5.849,0,0,1-.957,1.83s2.014.679,2.086.7.207.158.053-.33c0,0,.257-.738.482-.758a3.511,3.511,0,0,0,1.13-.25.589.589,0,0,0,.616-.173.4.4,0,0,0-.135-.584c-.064,0-.571-.019-.533-.238s.9-.443.9-.539,1.162-.783.289-1.8a10.055,10.055,0,0,0-1.438-.186c-.1.058-.283.282-.931.026,0,0-.411-.122-.347.469,0,0-.642.006-.835.43C833.735,680.409,833.3,680.467,833.3,680.808Z" transform="translate(-832.356 -679.162)" fill="#c07a47"/>
      <path id="Path_700" data-name="Path 700" d="M833.435,681.559a1.2,1.2,0,0,1,.317,1.021c-.083.661-1.875,1.169-1.875,1.169s2.014.679,2.086.7.207.158.052-.33c0,0,.257-.738.482-.758a3.512,3.512,0,0,0,1.13-.25.589.589,0,0,0,.616-.173c.218-.3-.116-.006-.18-.006s-1.156.231-.989-.437c.054-.215,1.4-.822,1.4-.918s1.162-.783.289-1.8c0,0-1.25-.228-1.149-.179.758.369,1.688,1.174,1.04.917,0,0-1.143.09-1.079.681a6.556,6.556,0,0,0-1.148,1.261S833.435,681.219,833.435,681.559Z" transform="translate(-831.877 -679.265)" fill="#a06135"/>
      <path id="Path_701" data-name="Path 701" d="M888.115,718.15s.6-3.818-.9-5.434-.589.67-.589.67-.552,2.068-.617,2.492-.4.771-.372,1.413a4.76,4.76,0,0,0,1.1,2.569C887.2,720.1,888.06,718.6,888.115,718.15Z" transform="translate(-881.227 -709.146)" fill="#0f0702"/>
      <path id="Path_702" data-name="Path 702" d="M877.167,675.69s.611-.378,1.05,1.185-.389.754-.389.754-1.009-1.546-1.573-1.528" transform="translate(-872.616 -675.65)" fill="#0f0702"/>
    </g>
    <path id="Path_703" data-name="Path 703" d="M730.256,561.2a28.38,28.38,0,0,1-.372,2.89,7.4,7.4,0,0,0,0,2.659c.18.3-.3,2.556.372,4.367a.552.552,0,0,1-.247.8,4.864,4.864,0,0,1-1.988,1.079c-1.708.578-1.76.873-1.76.873a3.161,3.161,0,0,0-1.3.8c-.86.732-1.438,1.085-1.734,1.037,0,0,.694-.022,1.708,2.187a2.714,2.714,0,0,0,2.838,1.862l2.562-.771s.276-.039.315-.09.09.116.488.026.578-.167.706-.1.09.3,0,.539a4.634,4.634,0,0,0-.514,2.235c.1,1.027-.681,1.117-.822,4.842a9.269,9.269,0,0,1-.346,1.965,6.947,6.947,0,0,1,1.182-.5s-.462-.873.526-2.363a5.147,5.147,0,0,0,.9-2.9,13.98,13.98,0,0,0,.694-2.3,3.978,3.978,0,0,0,1.092-2.248c.039-1.182.119-2.235-.223-2.53a14.824,14.824,0,0,1-1.2-2.658s-.527-.4-.527-.565a3.837,3.837,0,0,0-.9-2.995s-.193-2.181-.257-2.515.334-.09-.1-2.8.116-2.813.116-2.813S730.783,560.479,730.256,561.2Z" transform="translate(-204.086 -31.299)" fill="#c07a47"/>
    <path id="Path_704" data-name="Path 704" d="M730.256,562.622a28.381,28.381,0,0,1-.372,2.89,7.4,7.4,0,0,0,0,2.658c.18.3-.3,2.556.372,4.367a.552.552,0,0,1-.247.8,4.864,4.864,0,0,1-1.988,1.079c-1.708.578-1.76.873-1.76.873a3.161,3.161,0,0,0-1.3.8c-.86.732-1.438,1.085-1.734,1.037,0,0,.694-.022,1.708,2.187a2.715,2.715,0,0,0,2.838,1.862l2.562-.771s.276-.039.315-.09.09.116.488.026.578-.167.706-.1.09.3,0,.539a4.634,4.634,0,0,0-.514,2.235c.1,1.027-.681,1.117-.822,4.842a9.269,9.269,0,0,1-.346,1.965c-.141-.026.729-.37.729-.37a3.719,3.719,0,0,1,.318-3.181,3.562,3.562,0,0,0,.5-2.928s1.926-6.261-1.772-3.2c0,0-4.431.758-4.392-.424a3.224,3.224,0,0,0-.79-2.37c-.342-.3,4.411-2.678,4.411-2.678a11.583,11.583,0,0,0,2.2-.79,27.037,27.037,0,0,0-1.137-2.887,3.123,3.123,0,0,1,.777-3.142c.226-.254-1.113,1.633-.6-2.024.379-2.719.289-2.389.289-2.389S730.783,561.9,730.256,562.622Z" transform="translate(-204.086 -32.723)" fill="#a06135"/>
    <path id="Path_705" data-name="Path 705" d="M761,711.395a30.672,30.672,0,0,0-1.04-4.039c-.212-.064,1.177-1.143,2.881-1.047a3.556,3.556,0,0,1,1.752.366l2.238-.3.086.232a13.564,13.564,0,0,0-2.122.256c-.019.116-1.021,1.31-.848,2.321a2.045,2.045,0,0,0,2.081,1.512s1.525-1.631,2.005-1.663l.154.25a9.406,9.406,0,0,0-2,1.644c-.539.732-1,1.406-1.83,1.445s-3.179,0-3.179,0Z" transform="translate(-237.779 -164.793)" fill="#ff931e"/>
    <path id="Path_706" data-name="Path 706" d="M761,711.463a30.672,30.672,0,0,0-1.04-4.039c-.212-.064,1.177-1.143,2.881-1.047,0,0-3.69.655-1.725,3.363l.173.484.186-.206c.159-.344,1.056-.634,1.426-.719.166-.038-1.33.682-1.56,1.265-.1.244.045-.533.3.745.2,1.007,2.652.873,3.268.719,0,0,2.647-2.582,3.127-2.614l.155-.057a9.407,9.407,0,0,0-2,1.644c-.539.732-1,1.406-1.83,1.445s-3.179,0-3.179,0Z" transform="translate(-237.779 -164.861)" fill="#d37a20"/>
    <g id="Legs" transform="translate(500.916 544.396)">
      <path id="Path_707" data-name="Path 707" d="M527.379,851.273s-.6-.062-.925-.135-1.194,1.368-.905,1.6a1.487,1.487,0,0,0,1.641-.058C527.822,852.256,527.379,851.273,527.379,851.273Z" transform="translate(-523.476 -842.151)" fill="#a06135"/>
      <path id="Path_708" data-name="Path 708" d="M542.295,807.906a4.351,4.351,0,0,1,1.252-.173c.732,0,2.89.424,4.392-.231a3.472,3.472,0,0,1,1.04.1c.424.135,1.214-.636,2.87-.751a8.474,8.474,0,0,0,3.93-1.175,14.89,14.89,0,0,0,3.159-2.2s.193-.019.424-.539a1.2,1.2,0,0,1,.79-.636l-6.068.116s-.366-.058-1.117.616a8.045,8.045,0,0,0-2.042,1.021,7.915,7.915,0,0,1-2.639,1.291,6.111,6.111,0,0,0-2.986.539,9.785,9.785,0,0,1-2.5.424C542.295,806.172,542.006,807.559,542.295,807.906Z" transform="translate(-538.796 -797.32)" fill="#ff931e"/>
      <path id="Path_709" data-name="Path 709" d="M541.408,807.906a4.351,4.351,0,0,1,1.252-.173c.732,0,2.89.424,4.392-.231a3.471,3.471,0,0,1,1.04.1c.424.135,1.214-.636,2.87-.751a8.474,8.474,0,0,0,3.93-1.175,14.89,14.89,0,0,0,3.159-2.2s.193-.019.424-.539a1.2,1.2,0,0,1,.79-.636l-3.621,1.425a1.067,1.067,0,0,0-.314.192c-.351.309-1.283,1.129-1.882,1.667,0,0-3.487.588-3.988,1.069s-2.967.3-3.352.318-2.787-.145-3.808.491a.569.569,0,0,1-.676.385C541.123,807.713,541.119,807.559,541.408,807.906Z" transform="translate(-537.91 -797.32)" fill="#d37a20"/>
      <path id="Path_710" data-name="Path 710" d="M504.3,849.451s-1.118.308-1.1,1.1,1.1.578,1.214.443a4.418,4.418,0,0,0-.944,1.04c-.308.539-.482,1.483-.809,1.58s-1.618-.154-1.734-.925.655-.867,1.445-2.235c0,0-.27-.925.905-1.1S504.551,849.181,504.3,849.451Z" transform="translate(-500.916 -840.406)" fill="#ff931e"/>
      <path id="Path_711" data-name="Path 711" d="M503.085,849.915s-.44.038-.421.828-1.6,2.042-1.486,1.907c0,0,.4-.154.1.385s1.715.848,1.387.944-1.618-.154-1.734-.925.655-.867,1.445-2.235c0,0-.27-.925.905-1.1S503.336,849.645,503.085,849.915Z" transform="translate(-500.916 -840.774)" fill="#f2f2f2"/>
      <path id="Path_712" data-name="Path 712" d="M788.829,892.185a8.957,8.957,0,0,1,.164,1.628c-.077.222,1.329,1,1.657.645a3.576,3.576,0,0,0,.462-1.426s-.135.01-.424-.616a.428.428,0,0,0-.039-.414C790.505,891.819,788.752,891.695,788.829,892.185Z" transform="translate(-765.219 -879.518)" fill="#a06135"/>
      <path id="Path_713" data-name="Path 713" d="M685.5,753.646s.279.616.135.819-.718-.3-1.814.05c0,0-.517-3.778-.749-4.269s-.665-1.117-.135-3.381c0,0,.189-.26-.252-.308a10.461,10.461,0,0,0-3.687.674c-2.331.684-5.876-.674-4.152-3.468a2.415,2.415,0,0,1,2.264-1.541s1.04-.472,1.368-.655c0,0,.617-.038,1.1,1.349a14.838,14.838,0,0,1,3.911.684s1.243-.019,1.58.443a1.014,1.014,0,0,1,.5.954,7.9,7.9,0,0,1-.087,2.148c-.212.636.087,1.31-.116,3.362A8.746,8.746,0,0,0,685.5,753.646Z" transform="translate(-660.165 -741.567)" fill="#ff931e"/>
      <path id="Path_714" data-name="Path 714" d="M684.11,752.91s.659,1.272.514,1.474.293-.225-.8.13c0,0-.517-3.778-.749-4.269s-.665-1.117-.135-3.381c0,0,.189-.26-.252-.308a10.461,10.461,0,0,0-3.687.674c-2.331.684-5.876-.674-4.152-3.468a2.415,2.415,0,0,1,2.264-1.541s1.04-.472,1.368-.655c0,0,.617-.038,1.1,1.349,0,0-3.969-1.487-4.315,1.275,0,0-1.085,1.017.6,2.059a.9.9,0,0,0,.669.114c1.217-.268,5.355-1.139,5.305-.581,0,0,1.714.3,1.5.938s.636,1.031.434,3.082A6.038,6.038,0,0,0,684.11,752.91Z" transform="translate(-660.165 -741.567)" fill="#d37a20"/>
      <path id="Path_715" data-name="Path 715" d="M787.589,933.094s-.07-.13-1.517-.16-1.078-.569-.908-.729a9.011,9.011,0,0,1,2.892.23,8.117,8.117,0,0,0,2.528.187c.22-.107.329.432-.689.472S789.365,933.434,787.589,933.094Z" transform="translate(-761.699 -916.523)" fill="#f2f2f2"/>
      <path id="Path_716" data-name="Path 716" d="M788.348,905.987s-.429-.18-.449.409,0,1.4,0,1.4a6,6,0,0,0,1.767.309,4.188,4.188,0,0,1,1.078.2,4.735,4.735,0,0,0,2.575-.04s.05.13-.18.29,1.148-.31.24-.918c0,0-.918.28-2.186-.838a13.655,13.655,0,0,1-.579-1.238s-1.218.06-1.358.359A1.366,1.366,0,0,1,788.348,905.987Z" transform="translate(-764.358 -892.111)" fill="#d37a20"/>
      <path id="Path_717" data-name="Path 717" d="M808.436,908.553c-.23.16,1.148-.31.24-.918,0,0-.918.28-2.186-.838a13.655,13.655,0,0,1-.579-1.238s-1.218.06-1.358.359c0,0,1.158.8.769.639,0,0-.215-.1-.235.484s1.427.7,1.427.7-.115.045,1.3.175c0,0,.87-.075.963.4" transform="translate(-779.655 -892.111)" fill="#ff931e"/>
    </g>
    <path id="Path_718" data-name="Path 718" d="M843.943,712.343s.122-.125-.077-.347S843.527,712.024,843.943,712.343Z" transform="translate(-314.652 -169.947)" fill="#a06135"/>
    <path id="Path_719" data-name="Path 719" d="M860.533,682.372s-.259-.372,0-.283a1.21,1.21,0,0,0,.516.051S860.588,682.459,860.533,682.372Z" transform="translate(-330.024 -142.558)" fill="#a06135"/>
    <path id="Path_720" data-name="Path 720" d="M860.418,688.791s.156.064.425-.218-.154.449.064.527S860.418,688.791,860.418,688.791Z" transform="translate(-330.024 -148.463)" fill="#a06135"/>
    <path id="Path_721" data-name="Path 721" d="M812.727,890.978s.091.3.862-.278c0,0-.077-.281-.771-.448s-.949-.291-1.29-.178a1.182,1.182,0,0,0-.781-.156c-.586.017-1.044.049-.921.156s-.346.312-.148.537a1.543,1.543,0,0,0,1.069.444.862.862,0,0,1,.582.144s.194.067.2-.344C811.528,890.856,812.687,890.78,812.727,890.978Z" transform="translate(-283.398 -333.357)" fill="#c07a47"/>
    <path id="Path_722" data-name="Path 722" d="M812.727,890.975s-.151.467.619-.11c0,0-.412-.077-1.105-.244a3.452,3.452,0,0,0-1.67-.064s.171-.661-.416-.643-.452.051-.329.158-.346.312-.148.537a1.543,1.543,0,0,0,1.069.444.862.862,0,0,1,.582.144s.194.067.2-.344C811.528,890.853,812.687,890.777,812.727,890.975Z" transform="translate(-283.398 -333.354)" fill="#a06135"/>
    <path id="Path_723" data-name="Path 723" d="M810.667,528.917a3.788,3.788,0,0,0-1.194,1.21c-.366.7-1.034-.227-1.034-.227a1.963,1.963,0,0,1,.1-1.13c.238-.623.154-1.515.321-1.567s.1.34.064.816.231.206.231.206a8.838,8.838,0,0,0,.276-1.026c-.019-.092.09-.438.263-.188a9.805,9.805,0,0,1-.212,1.336,6.513,6.513,0,0,0,.392-1.425s.218-.373.3.115a2.964,2.964,0,0,1-.334,1.31h.077c.045,0,.4-.86.456-.944s.032-.315.206-.353-.077,1.047-.244,1.265l-.167.218s-.058.212.006.231.27-.193.5-.135.437.161.392.283S810.815,528.885,810.667,528.917Z" transform="translate(-282.269)" fill="#c07a47"/>
    <path id="Path_724" data-name="Path 724" d="M810.5,529.007a4.056,4.056,0,0,0-1.522,1.265c-.366.7-.539-.162-.539-.162a1.963,1.963,0,0,1,.1-1.13c.238-.623.154-1.516.321-1.567s-.09.521-.128,1,.424.024.424.024a8.84,8.84,0,0,0,.276-1.026c-.019-.092-.026-.039.148.211a5.165,5.165,0,0,1-.186.931,4.946,4.946,0,0,0,.482-1.42s.071-.353.148.135a2.758,2.758,0,0,1-.417,1.316s.263-.027.308-.027.4-.86.456-.944.111-.5.206-.353a4.407,4.407,0,0,1-.34.952,1.01,1.01,0,0,1-1.149.694,3.009,3.009,0,0,0,.379.392c.064.019.976-.515,1.207-.457s.36.078.315.2S810.648,528.975,810.5,529.007Z" transform="translate(-282.269 -0.206)" fill="#a06135"/>
  </g>
</svg>
