<svg xmlns="http://www.w3.org/2000/svg" width="39.072" height="14.465" viewBox="0 0 39.072 14.465">
  <g id="Natal" transform="translate(-30.685 -617.702)">
    <path id="Path_949" data-name="Path 949" d="M82.417,754.06s.976.339,1.272,0-.021-1.93.233-2.1-2.227-.573-2.227-.573l-1.379,1.866Z" transform="translate(-45.626 -122.896)" fill="#a06135"/>
    <path id="Path_950" data-name="Path 950" d="M174.836,753.742a19.618,19.618,0,0,0,3.966-.148c1.039-.3,2.46.127,4.433,0s7-1.167,7-1.167l-.467-1.039s-3.266.064-3.542.4a6.491,6.491,0,0,0-4.009.4s-3.181-.133-3.266.39c0,0-1.739.1-2.015.48S174.412,753.127,174.836,753.742Z" transform="translate(-132.468 -122.896)" fill="#a06135"/>
    <path id="Path_951" data-name="Path 951" d="M35.646,745.869l1.962.74a6.14,6.14,0,0,0-.265,1.805c.127.361.382,1.209-.488,1.188a3.834,3.834,0,0,1-1.442-.127,2.179,2.179,0,0,0-1.612.233c-.382.318-3.966-.017-2.927-.57s.806-.108,1.654-.681,2.1-1.294,2.291-1.167S35.518,746.569,35.646,745.869Z" transform="translate(0 -117.822)" fill="#c07a47"/>
    <path id="Path_952" data-name="Path 952" d="M35.646,745.869l.857.323s-1.324,2.095-2.957,2.264a8.658,8.658,0,0,1-2.172.621c-.87-.021-.416.354,4.038.4.247,0-1.23-.085-1.612.233s-3.966-.017-2.927-.57.806-.108,1.654-.681,2.1-1.294,2.291-1.167S35.518,746.569,35.646,745.869Z" transform="translate(0 -117.822)" fill="#a06135"/>
    <path id="Path_953" data-name="Path 953" d="M181.109,741.138s.361-.484,1.569-.123,11.622-.3,12.259-.4,2.566-.027,1.888-1.795c0,0,.551-.559-.891-1.853s-2.46-.021-3.245.87a15.562,15.562,0,0,1-4.454.942,22.71,22.71,0,0,0-4.348.67c-.212,0-2.036.212-2.036.212a6.016,6.016,0,0,0-.976.276c-.17.106-2.184.238-2.375.511s-2.248.273-1.994.549.954.145.954.145-.191.237.276.131A33.722,33.722,0,0,0,181.109,741.138Z" transform="translate(-134.032 -109.129)" fill="#c07a47"/>
    <path id="Path_954" data-name="Path 954" d="M181.137,764.245s.361-.484,1.569-.123,11.622-.3,12.259-.4,2.566-.027,1.888-1.795c0,0-.742,1.938-2.248.254-1.716-1.92.168,1.523-1.888.98a24.721,24.721,0,0,1-3.309.217c-1.994.012-5.408.445-5.62.445s-1.76-.424-1.76-.424-.509.233-.679.339-2.354.13-2.545.4-2.524-.313-2.269-.038.954.145.954.145-.191.237.276.131S180.736,764.462,181.137,764.245Z" transform="translate(-134.06 -132.274)" fill="#a06135"/>
    <rect id="Rectangle_119" data-name="Rectangle 119" width="3.014" height="1.406" transform="translate(62.936 627.601)" fill="#a06135"/>
    <path id="Path_955" data-name="Path 955" d="M416.142,712.979a9.194,9.194,0,0,0,1.379,0c.509-.064-.106-.891.127-1.06s.233-.276.594-.255c0,0,.233-.4,1-.361,0,0,.4-.976.976-.254s.87.276.87.276a2.188,2.188,0,0,1,1.782.657c.551.764.339.912-1.166,1.294s-.552,1.1-.552,1.1.361.594-.276.763-.848-.551-.848-.551-.488-.361-.106-.53a4.343,4.343,0,0,1-2.248-.806s-.085,1.251.509,1.273,1.951-.106,1.951-.106.764.61.191.835-1.654.268-1.845.586a5.025,5.025,0,0,1-1.379.848,1.284,1.284,0,0,0,.3-1.654C416.927,713.87,416.64,712.965,416.142,712.979Z" transform="translate(-354.346 -85.568)" fill="#c07a47"/>
    <path id="Path_956" data-name="Path 956" d="M428.552,723.971s.7.142.263-.122c-.318-.191-.53-1.527-.3-1.7s-.035-.255.326-.233c0,0-.708.658.056.7a2.642,2.642,0,0,0,1.145,1.1,1.56,1.56,0,0,0,1.527-.191s1.889-1.7,2.441-.933.062.53-1.444.912-.551,1.1-.551,1.1.361.594-.276.764-.848-.551-.848-.551-.488-.361-.106-.53a4.343,4.343,0,0,1-2.248-.806s-.085,1.251.509,1.273,1.951-.106,1.951-.106.763.61.191.835-1.654.268-1.845.586a5.027,5.027,0,0,1-1.379.848,1.284,1.284,0,0,0,.3-1.654C427.8,724.1,429.049,723.958,428.552,723.971Z" transform="translate(-365.216 -95.803)" fill="#a06135"/>
    <path id="Path_957" data-name="Path 957" d="M457.66,714.746s.4-.53.53-.3.009.4.206.424S457.66,714.746,457.66,714.746Z" transform="translate(-392.513 -88.884)" fill="#a06135"/>
    <path id="Path_958" data-name="Path 958" d="M106.394,620.242s3.627-1.506,5.663-.17a6.555,6.555,0,0,1,2.609,4.051c.021.255,1.612-.871,2.842,1.092s3.5,5.886,1.429,5.907c0,0,1.561-1.633-1.472-3.839,0,0-.954-.212-2.312,1.421l-1.1.36a12.107,12.107,0,0,1-3.353.582,3.527,3.527,0,0,0-3.075-2.363c-2.63-.446-3.393,1.442-5.875-2.185,0,0-1.145-1.442-2.163-1.591a7.065,7.065,0,0,1-2.545-1.527s-.848-.382-.827-.148a7.049,7.049,0,0,1-.87,4.072,12.478,12.478,0,0,0-1.241,2.882l-1.962-.74s.254-1.612.445-1.7a7.808,7.808,0,0,0,.127-1.485,18.712,18.712,0,0,1,.509-3.733c.212-.488-.106-2.651.742-2.991a5.354,5.354,0,0,1,3.415-.276c1.4.361,6.575,1.972,7.444,2.418C104.825,620.284,105.843,620.242,106.394,620.242Z" transform="translate(-56.496)" fill="#ff931e"/>
    <path id="Path_959" data-name="Path 959" d="M110.372,658.839a4.512,4.512,0,0,1,4.21.53c3.945,3.022,5.172,2.174,8.4,2.174.488,0,.636-4.189,1.866-2.227s3.941,5.493,1.875,5.514c0,0,1.561-1.633-1.472-3.839,0,0-.954-.212-2.312,1.421l-1.1.36a12.109,12.109,0,0,1-3.353.582,3.527,3.527,0,0,0-3.075-2.363c-2.63-.446-3.393,1.442-5.875-2.185,0,0-1.145-1.442-2.163-1.591a7.064,7.064,0,0,1-2.545-1.527s-.848-.382-.827-.148a7.049,7.049,0,0,1-.87,4.072,12.476,12.476,0,0,0-1.241,2.882l-1.278-.482a6.076,6.076,0,0,0,1.042-.136h0a5.717,5.717,0,0,1,.566-1.861c.212-.488-.028-3.45.82-3.789s-.58-2.17.82-1.81,1.251.94,2.121,1.386C105.978,655.8,111.188,658.076,110.372,658.839Z" transform="translate(-64.281 -33.709)" fill="#d37a20"/>
    <path id="Path_960" data-name="Path 960" d="M424.035,726.82a11.27,11.27,0,0,1,2.593,0c1.393.167,3.066.355,3.487-.432s.846-1.564.394-2.391c0,0,.481-.134.311-.891s-1.046-1.682-1.188-1.488.4.817-.594,1.17-1.719.565-1.4,1.209.478,1.03-.469,1.043a7.8,7.8,0,0,0-2.008.369s-1.584.99-1.668,1.412S424.035,726.82,424.035,726.82Z" transform="translate(-361.1 -95.505)" fill="#201913"/>
    <path id="Path_961" data-name="Path 961" d="M112.46,664.662a8.056,8.056,0,0,1-.933,3.987,7.61,7.61,0,0,0-1.136,2.493l-1.282-.394a58.226,58.226,0,0,0,2.354-5.387c-.17-.106.233-1.888.233-1.888S112.757,663.771,112.46,664.662Z" transform="translate(-72.094 -42.077)" fill="#d37a20"/>
  </g>
</svg>
