<svg xmlns="http://www.w3.org/2000/svg" width="46.776" height="36.088" viewBox="0 0 46.776 36.088">
  <g id="olympic_weightlifting" transform="translate(1294 -978.498)">
    <g id="Body" transform="translate(-1282.781 993.424)">
      <path id="Path_884" data-name="Path 884" d="M1505.176,196.354a4.184,4.184,0,0,1,0-2.606,6.155,6.155,0,0,0,.534-2.766c-.135-.186,1.54-1.3,1.38-2.287,0,0-.851,2.074-2.127-1.755a6.042,6.042,0,0,0-2.021,1.17s-.106.292-.665-.106-.479,1.6-3.191,1.064c0,0-.559-.984,0-1.09s-1.888-1.09-2.553-1.17l-.373-.346s-.851.8-.558,2.978a3.614,3.614,0,0,0,.771.558,5.784,5.784,0,0,1,.638,2.5,17.778,17.778,0,0,1,.665,4.7c.16,3.329,3.136,3.522,3.881,2.934a12.114,12.114,0,0,1,1.006-2.3C1503.075,197.072,1504.3,196.141,1505.176,196.354Z" transform="translate(-1491.05 -186.462)" fill="#ff931e"/>
      <path id="Path_885" data-name="Path 885" d="M1505.176,196.354a4.184,4.184,0,0,1,0-2.606,6.155,6.155,0,0,0,.534-2.766c-.135-.186,1.54-1.3,1.38-2.287,0,0-.851,2.074-2.127-1.755,0,0,.821,3.866-.506,4.162-.708.158-.441,5.112-1.089,5.437-1.075.54-2.9,2.143-3.984,1.8-1.148-.363-1.307-6.267-1.68-7.729,0,0-1.516-1.17-.958-1.276s.452-2.446-.212-2.526l-.373-.346s-.851.8-.558,2.978a3.614,3.614,0,0,0,.771.558,5.784,5.784,0,0,1,.638,2.5,17.778,17.778,0,0,1,.665,4.7c.16,3.329,3.136,3.522,3.881,2.934a12.114,12.114,0,0,1,1.006-2.3C1503.075,197.072,1504.3,196.141,1505.176,196.354Z" transform="translate(-1491.05 -186.462)" fill="#d37a20"/>
      <path id="Path_886" data-name="Path 886" d="M1487.761,305.881s2.446,3,4.866,2.925,4.175.984,5.212-.186.691-4.574.691-4.574-2.82-3.214-4.1,1.945c0,0-3.083,1.167-3.881-2.609v-.324a15.267,15.267,0,0,0-2.606-.978S1489.064,302.8,1487.761,305.881Z" transform="translate(-1483.926 -292.319)" fill="#ff931e"/>
      <path id="Path_887" data-name="Path 887" d="M1487.761,305.881s2.446,3,4.866,2.925,4.175.984,5.212-.186a2.519,2.519,0,0,0,.292-2.659s-2.1-3.377-3.377,1.782c0,0-5.046,1.516-5.844-2.26l.233-2.154s-.585-1.2-1.2-1.25C1487.947,302.078,1489.064,302.8,1487.761,305.881Z" transform="translate(-1483.926 -292.319)" fill="#d37a20"/>
      <path id="Path_888" data-name="Path 888" d="M1578.586,307.774a1.182,1.182,0,0,1-.151-1.192c.239-.815-.612-1.977-.612-1.977a2.377,2.377,0,0,1-.958-1.622c-.062-1-.044.044-.044.044s-1.188.213-1.17-1.693.638-2.349,1.87-2.686,2.381.984,2.458,1.161a1.627,1.627,0,0,1,.155,1.409s.4.145.095,3.094.115,3.306.115,3.306S1578.923,308.1,1578.586,307.774Z" transform="translate(-1564.397 -289.129)" fill="#eaab78"/>
      <path id="Path_889" data-name="Path 889" d="M1449.717,305.783s-2.361-3.439-2.61-3.628-.947-.745-.947-.745,1.389-2.76.186-3.8c0,0-.848-.18-1.25-.275a1.763,1.763,0,0,0-1.985.437,2.426,2.426,0,0,0-.756,2.186,3.786,3.786,0,0,0,.969,1.607c.745.721,1.241,1.288,1.513,1.489a5.018,5.018,0,0,1,2.139,2.411C1447.684,307.118,1449.717,305.783,1449.717,305.783Z" transform="translate(-1442.324 -287.848)" fill="#eaab78"/>
      <g id="Group_751" data-name="Group 751" transform="translate(1.247 17.158)">
        <g id="Group_750" data-name="Group 750" transform="translate(12.471 0)">
          <path id="Path_890" data-name="Path 890" d="M1604.865,416.777s.662.2.771.429.144.7,1.5.5,1.3-.361,1.3-.361-.491-.56-2.54-.389c-.132.011-.036-1.226-.771-.951C1604.941,416.071,1604.781,416.75,1604.865,416.777Z" transform="translate(-1604.842 -413.746)" fill="#f2f2f2"/>
          <path id="Path_891" data-name="Path 891" d="M1607.841,389.855s-.9,0-.759,2.009c0,0-.04.295.371.509a.762.762,0,0,1,.387.482c.06.321.313.589,1.721.348a1.318,1.318,0,0,1,.794.093c.373.188.289-.615-.193-.977a2.657,2.657,0,0,1-.722-1.822C1609.49,390.123,1609.068,389.453,1607.841,389.855Z" transform="translate(-1606.879 -389.731)" fill="#d37a20"/>
          <path id="Path_892" data-name="Path 892" d="M1616.462,389.855s.7-.518.842,1.491c0,0-.833.5-.422.713,0,0,.382.05.442.372s-.549,1.014.859.773a1.319,1.319,0,0,1,.795.093c.373.188.289-.615-.193-.977a2.656,2.656,0,0,1-.722-1.822C1618.112,390.123,1617.69,389.453,1616.462,389.855Z" transform="translate(-1615.481 -389.731)" fill="#ff931e"/>
        </g>
        <path id="Path_893" data-name="Path 893" d="M1464.593,416.05s.078-.128,1.691-.157,1.2-.559,1.013-.716a11.351,11.351,0,0,0-3.224.226,10.23,10.23,0,0,1-2.818.184c-.245-.105-.367.425.768.464A5.628,5.628,0,0,0,1464.593,416.05Z" transform="translate(-1460.754 -412.979)" fill="#f2f2f2"/>
        <path id="Path_894" data-name="Path 894" d="M1463.056,390.153s.479-.177.5.4,0,1.374,0,1.374a7.478,7.478,0,0,1-1.969.3,5.245,5.245,0,0,0-1.2.2,5.961,5.961,0,0,1-2.871-.039s-.056.128.2.285-1.28-.3-.267-.9a3.017,3.017,0,0,0,2.437-.824,12.73,12.73,0,0,0,.645-1.217s1.358.059,1.513.353A1.708,1.708,0,0,0,1463.056,390.153Z" transform="translate(-1457.098 -389.731)" fill="#d37a20"/>
        <path id="Path_895" data-name="Path 895" d="M1457.715,392.674c.256.157-1.28-.3-.267-.9a3.017,3.017,0,0,0,2.437-.824,12.73,12.73,0,0,0,.645-1.217s1.358.059,1.513.353c0,0-1.291.785-.857.628,0,0,.239-.1.262.476s-1.591.686-1.591.686.128.045-1.452.172c0,0-.969-.074-1.074.392" transform="translate(-1457.098 -389.731)" fill="#ff931e"/>
      </g>
    </g>
    <g id="head" transform="translate(-1280.754 989.467)">
      <path id="Path_896" data-name="Path 896" d="M1535.225,195.69s2.376.4,2.978-.205-.089-1.154,0-1.839S1535.42,194.892,1535.225,195.69Z" transform="translate(-1529.411 -188.95)" fill="#c07a48"/>
      <path id="Path_897" data-name="Path 897" d="M1526.571,153.971a1.435,1.435,0,0,0-1.542,1.143c-.292,1.276-.346,1.569-.213,1.728s-.213,1.09.284,1.8a1.678,1.678,0,0,0,2.565.106c.934-.851.8-.934.792-1.3,0,0,.254.249.588-.821,0,0-.257-.479-.706.136C1528.338,156.763,1528.9,153.974,1526.571,153.971Z" transform="translate(-1519.817 -152.753)" fill="#eaab78"/>
      <path id="Path_898" data-name="Path 898" d="M1526.571,153.971a1.435,1.435,0,0,0-1.542,1.143c-.292,1.276-.346,1.569-.213,1.728s-.318.913.178,1.622.933.958,1.547.783c.119-.034-.89-.673-1.359-1.1-.366-.335.005-.974,0-1.135,0,0-.447-1.186,1.369-1.186a.1.1,0,0,0,.044-.182c-.394-.2-1.022-.419-1.318-.014A1.931,1.931,0,0,1,1526.571,153.971Z" transform="translate(-1519.817 -152.753)" fill="#c07a48"/>
      <path id="Path_899" data-name="Path 899" d="M1568.395,185.629s.132-.378.427-.289S1568.359,185.511,1568.395,185.629Z" transform="translate(-1559.779 -181.466)" fill="#c07a48"/>
      <path id="Path_900" data-name="Path 900" d="M1516.4,141.294s-.225-.485.508-.851.343-.922,1.667-.745.8-.756,2.367.863a1.375,1.375,0,0,1,.54.827c.036.461.437,0,.3.91,0,0,.4.39.166.638s.681-.165.074.567c0,0,.1,1.431-.582,1.419s-.958-.036-1.182.283-.473-.886-.366-.91.626-.059.319-.638-.437-.012-.437-.012-.106.13-.189-.012.154-.733-.52-1.276a3.834,3.834,0,0,1,.118-.721,3.512,3.512,0,0,0-2.446-.177,2.207,2.207,0,0,0-.5,1.454,5.866,5.866,0,0,0,0,.91c.04.414.05.566.05.566s-.66-.732-.447-1.264-.768-.414-.284-.993S1515.937,141.471,1516.4,141.294Z" transform="translate(-1511.269 -139.589)" fill="#0e0e0c"/>
      <path id="Path_901" data-name="Path 901" d="M1471.707,310.253s-2.361-3.439-2.61-3.628-.947-.745-.947-.745,1.389-2.76.186-3.8c0,0,.216,2.916-.186,2.822s-1.182-1.217-1.43-1.277c-1.29-.307,1.134,1.56,1.134,1.56s-1.725.059-.981.78a8.472,8.472,0,0,0,1.974,1.194,6.386,6.386,0,0,1,1.489,2.47C1471.046,311.282,1471.707,310.253,1471.707,310.253Z" transform="translate(-1466.342 -288.362)" fill="#c07a48"/>
      <path id="Path_902" data-name="Path 902" d="M1578.586,307.983a1.182,1.182,0,0,1-.151-1.192c.239-.815-.612-1.977-.612-1.977a2.377,2.377,0,0,1-.958-1.622c-.062-1-.044.044-.044.044s-1.188.213-1.17-1.693.638-2.349,1.87-2.686-1.377,1.832-1.3,2.009-.816,1.517.626,1.477c.07,0,.891-.435.957-.414.391.125-.293,1.1.083,2.1,1.336,3.569,2.457,3.794,2.457,3.794S1578.923,308.306,1578.586,307.983Z" transform="translate(-1566.424 -285.381)" fill="#c07a48"/>
    </g>
    <path id="Path_903" data-name="Path 903" d="M1313.4,120.379s-3,.9-3.562.661-.625-.948.15-1.16a8.163,8.163,0,0,1,2.8-.409C1313.229,119.635,1313.4,120.379,1313.4,120.379Z" transform="translate(-2603.414 868.337)" fill="#c5b9b2"/>
    <path id="Path_905" data-name="Path 905" d="M1325.446,60.089c.662,7.634,3.717,6.154,6.595,5.9s2.8-2.585,2.508-6-.738-5.847-3.579-6.367C1326.8,52.865,1325.15,56.674,1325.446,60.089Z" transform="translate(-2618.062 928.674)" fill="#0e256b"/>
    <ellipse id="Ellipse_68" data-name="Ellipse 68" cx="3.498" cy="6.206" rx="3.498" ry="6.206" transform="translate(-1290.234 982.654) rotate(-4.952)" fill="#010d3e"/>
    <path id="Path_906" data-name="Path 906" d="M1429.839,94.527s-8.963-.068-25.8,1.671c0,0-.331-.921-.083-.955s24.753-2.122,25.964-1.8S1429.839,94.527,1429.839,94.527Z" transform="translate(-2689.895 892.158)" fill="#c5b9b2"/>
    <path id="Path_907" data-name="Path 907" d="M1704.035,18c.662,7.634,3.717,6.154,6.594,5.9s2.8-2.585,2.508-6-.738-5.847-3.579-6.367C1705.39,10.778,1703.74,14.587,1704.035,18Z" transform="translate(-2964.695 967.208)" fill="#0e256b"/>
    <ellipse id="Ellipse_69" data-name="Ellipse 69" cx="3.498" cy="6.206" rx="3.498" ry="6.206" transform="translate(-1258.277 979.102) rotate(-4.952)" fill="#010d3e"/>
    <path id="Path_908" data-name="Path 908" d="M1781.882,78.574l6.188-.536a.961.961,0,0,0,.053-1.457l-6.365.552S1781.172,78.242,1781.882,78.574Z" transform="translate(-3035.679 907.568)" fill="#c5b9b2"/>
    <g id="arms" transform="translate(-1283.9 985.307)">
      <path id="Path_909" data-name="Path 909" d="M1612.323,115.737s-.071.266-.177.319a8.082,8.082,0,0,0-.656.727,9.159,9.159,0,0,0-2.712,2.624,33.764,33.764,0,0,0-2.543,2.761c-.532.9,1.6,2.606,1.6,2.606a28.185,28.185,0,0,0,2.517-3.771s.425-.55.709-.62a6.923,6.923,0,0,0,2.269-3.528S1614.113,115.542,1612.323,115.737Z" transform="translate(-1591.202 -113.572)" fill="#eaab78"/>
      <path id="Path_910" data-name="Path 910" d="M1669.688,92.535a.927.927,0,0,0-.89-.839s.419.52.774.118-.993-1.3-1.548-.674a1.8,1.8,0,0,0-.508,1.229,3.77,3.77,0,0,0,.993.668c.284.041,1.092.946,1.092.946A1.146,1.146,0,0,0,1669.688,92.535Z" transform="translate(-1647.388 -90.872)" fill="#c07a48"/>
      <path id="Path_911" data-name="Path 911" d="M1669.36,92.072a.677.677,0,0,0-.643-.886s-.208.177.147-.225-.284-1.016-.839-.39a1.8,1.8,0,0,0-.508,1.229,4.829,4.829,0,0,0,.993.449c.284.041,1.092,1.165,1.092,1.165A1.279,1.279,0,0,0,1669.36,92.072Z" transform="translate(-1647.388 -90.303)" fill="#eaab78"/>
      <path id="Path_912" data-name="Path 912" d="M1616.24,115.737s.922.585.815.638-.745,1.649-.975,1.9-.479.089-1.205,1.507c0,0-4.3,2.98-4.438,3.624s1.318,1.37,1.318,1.37a28.2,28.2,0,0,0,2.517-3.771s.426-.55.709-.62a6.923,6.923,0,0,0,2.269-3.528S1618.03,115.542,1616.24,115.737Z" transform="translate(-1595.119 -113.572)" fill="#c07a48"/>
      <path id="Path_913" data-name="Path 913" d="M1645.19,156.363s-.665-.075-.718-.315S1644.312,156.731,1645.19,156.363Z" transform="translate(-1626.258 -150.462)" fill="#c07a48"/>
      <path id="Path_914" data-name="Path 914" d="M1636.646,172.6s.233,1.166-.139,1.405S1637.37,173.506,1636.646,172.6Z" transform="translate(-1618.931 -165.651)" fill="#c07a48"/>
      <path id="Path_915" data-name="Path 915" d="M1432.962,128.7s.071.266.177.319a8.047,8.047,0,0,1,.656.727,9.162,9.162,0,0,1,2.712,2.624s1.135.75,1.276,1.395a9.8,9.8,0,0,1-.558,2.771s-2.172-1.95-2.3-2.57c0,0-.426-.55-.709-.62a6.922,6.922,0,0,1-2.269-3.528S1431.172,128.508,1432.962,128.7Z" transform="translate(-1431.553 -125.443)" fill="#eaab78"/>
      <path id="Path_916" data-name="Path 916" d="M1429.3,105.5a.927.927,0,0,1,.89-.839s-.419.52-.774.118.993-1.3,1.548-.674a1.8,1.8,0,0,1,.508,1.229,3.774,3.774,0,0,1-.993.668c-.284.041-1.092.946-1.092.946A1.146,1.146,0,0,1,1429.3,105.5Z" transform="translate(-1429.069 -102.744)" fill="#c07a48"/>
      <path id="Path_917" data-name="Path 917" d="M1432.07,105.038a.677.677,0,0,1,.644-.886s.207.177-.147-.225.284-1.016.839-.39a1.8,1.8,0,0,1,.508,1.229,4.836,4.836,0,0,1-.993.449c-.284.041-1.092,1.165-1.092,1.165A1.279,1.279,0,0,1,1432.07,105.038Z" transform="translate(-1431.513 -102.174)" fill="#eaab78"/>
      <path id="Path_918" data-name="Path 918" d="M1432.962,128.7s-.922.585-.816.638.745,1.649.975,1.9.479.089,1.205,1.507c0,0,3.019,2.27,3.161,2.914a.774.774,0,0,1-.262.88s-2.172-1.95-2.3-2.57c0,0-.426-.55-.709-.62a6.922,6.922,0,0,1-2.269-3.528S1431.172,128.508,1432.962,128.7Z" transform="translate(-1431.553 -125.443)" fill="#c07a48"/>
      <path id="Path_919" data-name="Path 919" d="M1471.7,169.329s.665-.075.718-.315S1472.573,169.7,1471.7,169.329Z" transform="translate(-1468.097 -162.333)" fill="#c07a48"/>
      <path id="Path_920" data-name="Path 920" d="M1483.6,185.564s-.233,1.166.139,1.405S1482.872,186.472,1483.6,185.564Z" transform="translate(-1478.781 -177.523)" fill="#c07a48"/>
    </g>
  </g>
</svg>
