<svg xmlns="http://www.w3.org/2000/svg" xmlns:xlink="http://www.w3.org/1999/xlink" width="293" height="220" viewBox="0 0 293 220">
  <defs>
    <clipPath id="clip-path">
      <rect id="Rectangle_199" data-name="Rectangle 199" width="293" height="220"  fill="#f10000"/>
    </clipPath>
  </defs>
  <g id="olympic_weightlifting_cover" transform="translate(-2238 2617)" clip-path="url(#clip-path)">
    <g id="olympic_weightlifting_cover-2" data-name="olympic_weightlifting_cover" transform="translate(3209 -1421.973)">
      <g id="Body" transform="translate(-877.239 -1084.211)">
        <path id="Path_884" data-name="Path 884" d="M1587.076,280.447s-4.548-12.38,0-24.759,6.356-24.507,5.073-26.275,14.633-12.379,13.117-21.728c0,0-8.084,19.707-20.211-16.674,0,0-13.136,4.547-19.2,11.116,0,0-1.011,2.779-6.318-1.01s-4.547,15.158-30.315,10.106c0,0-5.307-9.348,0-10.358s-17.938-10.358-24.255-11.117l-3.538-3.284s-8.085,7.579-5.3,28.3c0,0,5.3,4.8,7.328,5.306s6.568,18.443,6.062,23.749c0,0,4.8,13.035,6.317,44.667s29.794,33.466,36.877,27.874c0,0,4.7-14.525,9.555-21.806S1578.738,278.425,1587.076,280.447Z" transform="translate(-1453.846 -192.396)" fill="#ff931e"/>
        <path id="Path_885" data-name="Path 885" d="M1587.076,280.447s-4.548-12.38,0-24.759,6.356-24.507,5.073-26.275,14.633-12.379,13.117-21.728c0,0-8.084,19.707-20.211-16.674,0,0,7.8,36.732-4.81,39.546-6.729,1.5-4.186,48.568-10.349,51.659-10.219,5.126-27.529,20.365-37.854,17.1-10.906-3.453-12.422-59.541-15.959-73.436,0,0-14.4-11.117-9.1-12.128s4.3-23.243-2.021-24l-3.538-3.284s-8.085,7.579-5.3,28.3c0,0,5.3,4.8,7.328,5.306s6.568,18.443,6.062,23.749c0,0,4.8,13.035,6.317,44.667s29.794,33.466,36.877,27.874c0,0,4.7-14.525,9.555-21.806S1578.738,278.425,1587.076,280.447Z" transform="translate(-1452.863 -186.462)" fill="#d37a20"/>
        <path id="Path_886" data-name="Path 886" d="M1487.762,338.206S1511,366.755,1533.995,366s39.666,9.348,49.519-1.768,6.568-43.455,6.568-43.455-26.789-30.538-38.917,18.475c0,0-29.3,11.084-36.875-24.792v-3.083s-18.949-8.791-24.761-9.3C1489.528,302.078,1500.141,308.9,1487.762,338.206Z" transform="translate(-1451.322 -209.356)" fill="#ff931e"/>
        <path id="Path_887" data-name="Path 887" d="M1487.762,338.206S1511,366.755,1533.995,366s39.666,9.348,49.519-1.768,2.779-25.265,2.779-25.265-19.959-32.086-32.085,16.927c0,0-47.944,14.4-55.523-21.475l2.214-20.464s-5.557-11.369-11.37-11.874C1489.528,302.078,1500.141,308.9,1487.762,338.206Z" transform="translate(-1451.322 -209.356)" fill="#d37a20"/>
        <path id="Path_888" data-name="Path 888" d="M1603.528,385.813s-3.7-3.578-1.43-11.326-5.811-18.78-5.811-18.78-8.5-5.9-9.1-15.412-.42.421-.42.421-11.285,2.021-11.117-16.085,6.063-22.317,17.769-25.517,22.625,9.348,23.356,11.032,3.9,5.979,1.474,13.39c0,0,3.811,1.381.9,29.392s1.094,31.412,1.094,31.412S1606.729,388.887,1603.528,385.813Z" transform="translate(-1468.726 -208.667)" fill="#eaab78"/>
        <path id="Path_889" data-name="Path 889" d="M1512.561,378.786s-22.43-32.676-24.8-34.472-9-7.074-9-7.074,13.193-26.219,1.768-36.128c0,0-8.055-1.713-11.873-2.611s-9.206-3.929-18.865,4.155-7.186,20.773-7.186,20.773a35.961,35.961,0,0,0,9.206,15.271c7.076,6.85,11.791,12.239,14.374,14.149s13.586,7.186,20.325,22.906S1512.561,378.786,1512.561,378.786Z" transform="translate(-1442.325 -208.39)" fill="#eaab78"/>
        <g id="Group_751" data-name="Group 751" transform="translate(11.849 163.017)">
          <g id="Group_750" data-name="Group 750" transform="translate(118.487 0)">
            <path id="Path_890" data-name="Path 890" d="M1605.06,423.719s6.291,1.908,7.32,4.072,1.371,6.617,14.3,4.708,12.354-3.431,12.354-3.431-4.661-5.318-24.133-3.7c-1.254.1-.345-11.644-7.322-9.035C1605.788,417.007,1604.261,423.457,1605.06,423.719Z" transform="translate(-1604.842 -394.925)" fill="#f2f2f2"/>
            <path id="Path_891" data-name="Path 891" d="M1614.422,390.911s-8.578,0-7.207,19.089c0,0-.377,2.8,3.53,4.835,0,0,3.1,1.528,3.677,4.582s2.974,5.6,16.353,3.308a12.528,12.528,0,0,1,7.548.883c3.548,1.79,2.747-5.845-1.829-9.281s-7.318-13.743-6.862-17.306S1626.088,387.093,1614.422,390.911Z" transform="translate(-1605.282 -389.731)" fill="#d37a20"/>
            <path id="Path_892" data-name="Path 892" d="M1616.463,390.911s6.629-4.924,8,14.165c0,0-7.914,4.741-4.009,6.776,0,0,3.631.477,4.2,3.532s-5.219,9.632,8.161,7.34a12.536,12.536,0,0,1,7.551.883c3.545,1.79,2.745-5.845-1.83-9.281s-7.319-13.743-6.864-17.306S1628.13,387.093,1616.463,390.911Z" transform="translate(-1607.143 -389.731)" fill="#ff931e"/>
          </g>
          <path id="Path_893" data-name="Path 893" d="M1494.365,423.936s.742-1.212,16.069-1.492,11.419-5.313,9.622-6.8-26.7.56-30.634,2.145-24.448,2.745-26.774,1.745-3.488,4.034,7.3,4.407S1475.546,427.106,1494.365,423.936Z" transform="translate(-1457.889 -394.759)" fill="#f2f2f2"/>
          <path id="Path_894" data-name="Path 894" d="M1513.705,393.739s4.547-1.677,4.757,3.822,0,13.05,0,13.05-3.7,1.678-18.712,2.889a49.832,49.832,0,0,0-11.42,1.865c-6.238,1.771-11.84,2.143-27.276-.373,0,0-.529,1.212,1.9,2.7s-12.157-2.889-2.537-8.577c0,0,9.726,2.611,23.154-7.829,0,0,5.92-10.161,6.13-11.559,0,0,12.9.559,14.379,3.356C1504.083,393.086,1509.581,395.231,1513.705,393.739Z" transform="translate(-1457.099 -389.731)" fill="#d37a20"/>
          <path id="Path_895" data-name="Path 895" d="M1462.957,417.7c2.433,1.492-12.157-2.889-2.537-8.577,0,0,9.726,2.611,23.154-7.829,0,0,5.92-10.161,6.13-11.559,0,0,12.9.559,14.379,3.356,0,0-12.263,7.457-8.14,5.966,0,0,2.271-.979,2.484,4.521s-15.119,6.52-15.119,6.52,1.216.424-13.8,1.636c0,0-9.21-.7-10.2,3.729" transform="translate(-1457.099 -389.731)" fill="#ff931e"/>
        </g>
      </g>
      <g id="head" transform="translate(-857.976 -1121.803)">
        <path id="Path_896" data-name="Path 896" d="M1535.225,214.3s22.569,3.847,28.3-1.95-.843-10.962,0-17.475S1537.078,206.72,1535.225,214.3Z" transform="translate(-1479.982 -150.265)" fill="#c07a48"/>
        <path id="Path_897" data-name="Path 897" d="M1542.077,154s-11.874-1.263-14.654,10.864-3.283,14.906-2.021,16.422-2.021,10.358,2.695,17.1,15.5,9.1,24.367,1.01,7.635-8.871,7.522-12.351c0,0,2.41,2.363,5.586-7.8,0,0-2.441-4.55-6.708,1.289C1558.865,180.533,1564.2,154.033,1542.077,154Z" transform="translate(-1477.908 -142.436)" fill="#eaab78"/>
        <path id="Path_898" data-name="Path 898" d="M1542.077,154s-11.874-1.263-14.654,10.864-3.283,14.906-2.021,16.422-3.023,8.67,1.692,15.407,8.864,9.1,14.7,7.437c1.131-.323-8.459-6.394-12.914-10.464-3.48-3.18.051-9.253,0-10.78,0,0-4.25-11.269,13.008-11.269a.915.915,0,0,0,.416-1.733c-3.741-1.881-9.712-3.985-12.524-.136C1529.783,169.753,1529.588,159.682,1542.077,154Z" transform="translate(-1477.908 -142.436)" fill="#c07a48"/>
        <path id="Path_899" data-name="Path 899" d="M1568.405,188.2s1.255-3.588,4.053-2.748S1568.069,187.079,1568.405,188.2Z" transform="translate(-1486.551 -148.646)" fill="#c07a48"/>
        <path id="Path_900" data-name="Path 900" d="M1524.79,155.79s-2.135-4.6,4.828-8.085,3.257-8.758,15.833-7.074,7.6-7.187,22.494,8.2c0,0,4.792,3.48,5.129,7.86s4.155,0,2.806,8.646c0,0,3.819,3.705,1.574,6.063s6.467-1.572.707,5.39c0,0,.985,13.6-5.531,13.48s-9.1-.343-11.234,2.689-4.491-8.422-3.481-8.646,5.951-.561,3.033-6.064-4.156-.112-4.156-.112-1.01,1.235-1.8-.112,1.46-6.962-4.94-12.127c0,0,.674-6.85,1.122-6.85s-8.982-5.053-23.243-1.684c0,0-5.279,6.063-4.715,13.811a55.526,55.526,0,0,0-.042,8.646c.377,3.93.475,5.381.475,5.381s-6.272-6.952-4.251-12-7.3-3.93-2.694-9.432S1520.411,157.474,1524.79,155.79Z" transform="translate(-1476.059 -139.589)" fill="#0e0e0c"/>
        <path id="Path_901" data-name="Path 901" d="M1517.318,379.753s-22.43-32.676-24.8-34.472-9-7.074-9-7.074,13.2-26.219,1.77-36.128c0,0,2.048,27.707-1.77,26.809s-11.228-11.566-13.587-12.128c-12.251-2.917,10.781,14.822,10.781,14.822s-16.395.562-9.32,7.411,16.169,9.432,18.752,11.341,7.41,7.748,14.146,23.468S1517.318,379.753,1517.318,379.753Z" transform="translate(-1466.343 -171.766)" fill="#c07a48"/>
        <path id="Path_902" data-name="Path 902" d="M1603.528,385.859s-3.7-3.579-1.43-11.326-5.811-18.78-5.811-18.78-8.5-5.9-9.1-15.412-.42.421-.42.421-11.285,2.021-11.117-16.085,6.063-22.317,17.769-25.517-13.081,17.4-12.351,19.09c.716,1.65-7.749,14.416,5.951,14.035.665-.018,8.464-4.132,9.1-3.929,3.712,1.184-2.788,10.431.788,19.987,12.688,33.911,23.342,36.044,23.342,36.044S1606.729,388.932,1603.528,385.859Z" transform="translate(-1487.988 -171.121)" fill="#c07a48"/>
      </g>
      <path id="Path_905" data-name="Path 905" d="M1325.73,115.856c6.286,72.532,35.315,58.467,62.653,56.1s26.638-24.557,23.826-57S1405.2,59.4,1378.2,54.463C1338.6,47.225,1322.921,83.412,1325.73,115.856Z" transform="translate(-2296.412 -1244.35)" fill="#0e256b"/>
      <ellipse id="Ellipse_68" data-name="Ellipse 68" cx="33.236" cy="58.965" rx="33.236" ry="58.965" transform="translate(-948.046 -1186.536) rotate(-4.952)" fill="#010d3e"/>
      <path id="Path_906" data-name="Path 906" d="M1650.618,104s-85.16-.648-245.087,15.873c0,0-3.142-8.752-.786-9.069s235.182-20.163,246.686-17.069S1650.618,104,1650.618,104Z" transform="translate(-2311.947 -1252.247)" fill="#c5b9b2"/>
      <path id="Path_907" data-name="Path 907" d="M1704.321,73.769c6.285,72.532,35.314,58.467,62.651,56.1s26.639-24.557,23.826-57-7.012-55.556-34-60.49C1717.187,5.138,1701.509,41.325,1704.321,73.769Z" transform="translate(-2371.381 -1236.016)" fill="#0e256b"/>
      <ellipse id="Ellipse_69" data-name="Ellipse 69" cx="33.236" cy="58.965" rx="33.236" ry="58.965" transform="translate(-644.426 -1220.289) rotate(-4.952)" fill="#010d3e"/>
      <path id="Path_908" data-name="Path 908" d="M1784.869,95.519l58.79-5.094s7.89-7.179.5-13.844l-60.479,5.24S1778.128,92.358,1784.869,95.519Z" transform="translate(-2386.734 -1248.915)" fill="#c5b9b2"/>
      <g id="arms" transform="translate(-887.869 -1161.329)">
        <path id="Path_909" data-name="Path 909" d="M1664.805,115.9s-.673,2.526-1.683,3.032-4.043,4.548-6.234,6.906-18.864,11.453-25.769,24.928c0,0-20.966,20.841-24.161,26.231-5.054,8.518,15.237,24.759,15.237,24.759s22.736-29.936,23.913-35.831c0,0,4.044-5.222,6.738-5.9s16-14.654,21.559-33.518C1674.406,126.516,1681.818,114.052,1664.805,115.9Z" transform="translate(-1464.136 -95.335)" fill="#eaab78"/>
        <path id="Path_910" data-name="Path 910" d="M1688.164,106.223s-.086-6.624-8.456-7.972c0,0,3.984,4.94,7.354,1.123s-9.432-12.352-14.709-6.4-4.828,11.678-4.828,11.678,6.736,5.951,9.432,6.344,10.376,8.991,10.376,8.991S1693.505,113.325,1688.164,106.223Z" transform="translate(-1476.286 -90.426)" fill="#c07a48"/>
        <path id="Path_911" data-name="Path 911" d="M1685.042,107.111s2.252-7.073-6.114-8.42c0,0-1.971,1.683,1.4-2.136s-2.694-9.657-7.971-3.705-4.828,11.678-4.828,11.678,6.736,3.874,9.432,4.267,10.376,11.068,10.376,11.068S1690.384,114.212,1685.042,107.111Z" transform="translate(-1476.286 -90.303)" fill="#eaab78"/>
        <path id="Path_912" data-name="Path 912" d="M1665.653,115.9s8.759,5.559,7.747,6.064-7.073,15.663-9.263,18.022-4.548.842-11.452,14.316c0,0-40.816,28.314-42.166,34.433s12.525,13.02,12.525,13.02,22.734-29.936,23.914-35.831c0,0,4.042-5.222,6.737-5.9s16-14.654,21.56-33.518C1675.254,126.516,1682.664,114.052,1665.653,115.9Z" transform="translate(-1464.982 -95.335)" fill="#c07a48"/>
        <path id="Path_913" data-name="Path 913" d="M1651.586,159.381s-6.317-.717-6.821-2.991S1643.248,162.877,1651.586,159.381Z" transform="translate(-1471.717 -103.314)" fill="#c07a48"/>
        <path id="Path_914" data-name="Path 914" d="M1638.437,172.6s2.215,11.079-1.32,13.353S1645.315,181.226,1638.437,172.6Z" transform="translate(-1470.132 -106.599)" fill="#c07a48"/>
        <path id="Path_915" data-name="Path 915" d="M1442.99,128.871s.673,2.526,1.684,3.031,4.043,4.548,6.234,6.906,18.863,11.453,25.769,24.928c0,0,10.779,7.13,12.126,13.249s-5.3,26.331-5.3,26.331-20.633-18.527-21.813-24.422c0,0-4.042-5.221-6.738-5.9s-16-14.654-21.558-33.518C1433.39,139.482,1425.977,127.018,1442.99,128.871Z" transform="translate(-1429.606 -97.903)" fill="#eaab78"/>
        <path id="Path_916" data-name="Path 916" d="M1431.246,119.189s.086-6.625,8.453-7.972c0,0-3.984,4.941-7.352,1.123s9.432-12.351,14.71-6.4,4.827,11.678,4.827,11.678-6.737,5.952-9.431,6.344-10.377,8.99-10.377,8.99S1425.9,126.291,1431.246,119.189Z" transform="translate(-1429.069 -92.994)" fill="#c07a48"/>
        <path id="Path_917" data-name="Path 917" d="M1434.9,120.076s-2.253-7.073,6.115-8.42c0,0,1.97,1.683-1.4-2.135s2.7-9.657,7.973-3.705,4.829,11.678,4.829,11.678-6.737,3.874-9.433,4.267-10.374,11.067-10.374,11.067S1429.556,127.178,1434.9,120.076Z" transform="translate(-1429.599 -92.87)" fill="#eaab78"/>
        <path id="Path_918" data-name="Path 918" d="M1442.99,128.871s-8.758,5.558-7.749,6.063,7.075,15.664,9.266,18.023,4.548.842,11.452,14.316c0,0,28.684,21.563,30.032,27.683s-2.492,8.361-2.492,8.361-20.633-18.527-21.813-24.422c0,0-4.042-5.221-6.738-5.9s-16-14.654-21.558-33.518C1433.39,139.482,1425.977,127.018,1442.99,128.871Z" transform="translate(-1429.606 -97.903)" fill="#c07a48"/>
        <path id="Path_919" data-name="Path 919" d="M1471.7,172.347s6.315-.717,6.82-2.991S1480.032,175.843,1471.7,172.347Z" transform="translate(-1437.511 -105.881)" fill="#c07a48"/>
        <path id="Path_920" data-name="Path 920" d="M1485.57,185.564s-2.215,11.079,1.321,13.353S1478.691,194.191,1485.57,185.564Z" transform="translate(-1439.821 -109.167)" fill="#c07a48"/>
      </g>
    </g>
  </g>
</svg>
