<svg xmlns="http://www.w3.org/2000/svg" xmlns:xlink="http://www.w3.org/1999/xlink" width="178" height="180" viewBox="0 0 178 180">
  <defs>
    <clipPath id="clip-path">
      <rect id="Rectangle_207" data-name="Rectangle 207" width="178" height="180"  fill="#fff" stroke="#707070" stroke-width="1"/>
    </clipPath>
  </defs>
  <g id="pilates_header" transform="translate(-212 -34)" clip-path="url(#clip-path)">
    <g id="Group_790" data-name="Group 790" transform="translate(181.809 59)">
      <path id="Path_560" data-name="Path 560" d="M1035.325,239.637s1.58-8.574,0-11.62-2.594-22.9,1.242-23.465,17.8,14.605,17.8,14.605,2.62,22.623,2.056,23.752S1039.161,239.637,1035.325,239.637Z" transform="translate(-925.384 -184.339)" fill="#eaab78"/>
      <path id="Path_561" data-name="Path 561" d="M1036.828,247.622s2.159-11.181.581-14.227-5.755-19.178-1.919-19.743,9.79,11.672,9.79,11.672,2.62,22.624,2.056,23.752S1040.665,248.392,1036.828,247.622Z" transform="translate(-916.299 -190.508)" fill="#c07a48"/>
      <path id="Path_562" data-name="Path 562" d="M1051.761,164s7.784-6.8-3.554-17.532-26.9-.031-28.542,3.487c-1.579,3.385-.247,6.261-.415,7.784s8.425,4.851,8.425,4.851,4.287.48,6.319,2.087,2.369,14.638,4.23,14.722,9.984-2.369,10.83-4.061.762-6.261,1.862-6.769S1052.269,164,1051.761,164Z" transform="translate(-918.411 -141.811)" fill="#bc946b"/>
      <path id="Path_563" data-name="Path 563" d="M1103.515,190.9s-1.24,12.748-.563,13.876.337-3.5-4.288-3.159-5.3-1.692-5.3-1.692.678-8.687-2.708-10.943-1.918-4.625,0-7.107-3.046-6.318,3.5-14.779c0,0-.564,5.076.9,6.995s7.107,5.641,7.107,5.641,2.708-4.061,4.061,2.256S1100.47,190.109,1103.515,190.9Z" transform="translate(-992.897 -158.954)" fill="#eaab78"/>
      <path id="Path_564" data-name="Path 564" d="M1133.94,218.248s-2.483,2.595-1.917,5.415S1129.653,218.7,1133.94,218.248Z" transform="translate(-1034.266 -193.636)" fill="#f8cca6"/>
      <path id="Path_565" data-name="Path 565" d="M1100.669,190.9s-1.24,12.748-.564,13.876.338-3.5-4.288-3.159.272-4.4.272-4.4,3.563-2.256-.715-11.845c-1.656-3.715,1.008-2.256-1.475-5.641-1.854-2.53-9.137-4.174-2.594-12.635,0,0-.564,5.076.9,6.995s7.107,5.641,7.107,5.641,2.708-4.061,4.061,2.256S1097.623,190.109,1100.669,190.9Z" transform="translate(-990.051 -158.954)" fill="#c07a48"/>
      <path id="Path_566" data-name="Path 566" d="M1095.013,208.438s3.272,3.224,1.354,5.617-2.764,1.6-2.764,1.6S1096.366,211.145,1095.013,208.438Z" transform="translate(-985.072 -186.985)" fill="#f8cca6"/>
      <path id="Path_567" data-name="Path 567" d="M907.524,301.086a51.659,51.659,0,0,0,9.645-16.182s14.046-4.971,16.415-8.524c0,0,6.43,1.784,8.63-1.985s-15.4-10.436-12.015-4.225c0,0-13.368-.728-18.276,5.7s-4.061-2.755-12.015,3.953S902.954,302.609,907.524,301.086Z" transform="translate(-767.236 -227.117)" fill="#c07a48"/>
      <path id="Path_568" data-name="Path 568" d="M927.249,257.971s0,3.72,1.015,4.228-2.538,2.144-2.538,2.144S922.51,256.112,927.249,257.971Z" transform="translate(-762.151 -220.383)" fill="#c07a48"/>
      <path id="Path_569" data-name="Path 569" d="M905.318,299.732s7.953-8.969,7.445-18.783c0,0,16.076-2.38,19.63-7.884,0,0,8.123,5.1,10.323,1.33s-15.4-10.436-12.015-4.225c0,0-13.368-.728-18.276,5.7s-4.061-2.755-12.015,3.953S900.749,301.255,905.318,299.732Z" transform="translate(-767.738 -227.117)" fill="#eaab78"/>
      <path id="Path_570" data-name="Path 570" d="M1048.2,364.163s-1.557-20.476,4.806-25.383,4.332-27.245,2.471-28.091-19.874-9.815-28.213-2.031-12.917,12.184-12.917,12.184-14.544,6.092-6.421,21.153c0,0,.067,26.906,4.857,29.614S1007.93,364.67,1048.2,364.163Z" transform="translate(-917.055 -252.795)" fill="#eaab78"/>
      <path id="Path_571" data-name="Path 571" d="M1045.738,369.563s-1.557-20.476,4.806-25.383,4.332-27.245,2.471-28.091-6.383-6.261-14.722,1.523c-4.832,4.51-3.554,9.475-1.623,12.854a2.632,2.632,0,0,1-2.267,3.956c-11.17,0-25.385,6.036-28.939,12.974,0,0,32.66-17.091,27.339,22.749C1032.074,375.6,1045.738,369.563,1045.738,369.563Z" transform="translate(-914.589 -258.196)" fill="#c07a48"/>
      <path id="Path_572" data-name="Path 572" d="M1029.462,310.327s8.344-3.554,12.405,8.969c0,0,2.8,21.5-15.691,20.145s-13.686-17.1-14.481-19.13-12.641,11.169-4.857,26.4c0,0,.169,10.153.677,11.507s23.522,9.138,39.428,2.369c0,0,.846-17.6,3.553-19.291s10.661-20.183,2.708-32.6c0,0-18.784-5.014-27.922,0C1025.283,308.7,1029.071,308.635,1029.462,310.327Z" transform="translate(-915.964 -253.45)" fill="#010d3e"/>
      <path id="Path_573" data-name="Path 573" d="M1122.892,296.517s-4.908-11.62-17.429-6.261c0,0-1.636,1.467-10.774-4.4,0,0-3.722-8.518-15.174-8.236s-5.359,10.491-5.359,10.491,5.7,6.769,12.3,7.954c0,0,1.814,4.343,18.083,12.071,0,0,6.906.169,8.147,1.8S1129.83,304.47,1122.892,296.517Z" transform="translate(-1005.957 -233.886)" fill="#eaab78"/>
      <path id="Path_574" data-name="Path 574" d="M1134.409,298.422s1.683,9.815-2.586,16.584c0,0-12.691-3.1-21.829-8.969,0,0-17.261-14.384-19.135-15.63l1.536,6.379s5.7,6.769,12.3,7.954c0,0,1.813,4.344,18.082,12.071,0,0,6.907.169,8.148,1.8S1141.348,306.376,1134.409,298.422Z" transform="translate(-1024.197 -242.56)" fill="#c07a48"/>
      <path id="Path_575" data-name="Path 575" d="M1252.54,258.547s-1.862,4.666,1.184,6.14S1257.787,260.241,1252.54,258.547Z" transform="translate(-1195.34 -220.959)" fill="#c07a48"/>
      <path id="Path_576" data-name="Path 576" d="M1238.313,271.5s-6.43-4.4-13.029-4.062-15.739,3.265-15.739,3.265-4.568-2.08-3.045.8,3.214,2.031,7.614,2.538,8.593,5.167,16.057,4.276S1223.251,273.189,1238.313,271.5Z" transform="translate(-1162.669 -226.972)" fill="#eaab78"/>
      <path id="Path_577" data-name="Path 577" d="M1238.313,277.039s-12.691,2.148-19.291,2.487-9.477-3.283-9.477-3.283-4.568-2.08-3.045.8,3.214,2.03,7.614,2.538,8.593,5.167,16.057,4.276S1223.251,278.732,1238.313,277.039Z" transform="translate(-1162.669 -232.464)" fill="#c07a48"/>
      <path id="Path_578" data-name="Path 578" d="M1168.651,305.5a5.681,5.681,0,0,1-2.031,3.831C1164.589,311.2,1172.329,311.721,1168.651,305.5Z" transform="translate(-1081.16 -252.795)" fill="#c07a48"/>
      <path id="Path_579" data-name="Path 579" d="M1018.9,261.763s5.213-52.177-1.962-57.987-3.454,2.143-3.454,2.143-2.2,12.861-5.584,15.907,5.179,30.8,4.2,38.413S1018.9,261.763,1018.9,261.763Z" transform="translate(-880.986 -182.384)" fill="#bc946b"/>
      <path id="Path_580" data-name="Path 580" d="M786.12,624.072s.339-4.569-5.415-12.015c0,0-14.553-14.384-27.076-21.83s-11-7.446-25.722-13.876-27.922-21.83-27.922-21.83-12.481-9.959-18.171-11.664,4.871-26.242,4.871-26.242-5.821-28.26,1.286-28.937c0,0,2.369,11,3.046,11s21.66,5.077,23.014,24.876c0,0,5.246,9.984,16.414,23.352s13.708,16.246,19.292,18.615S767,569.244,782.4,591.412c0,0,9.307,14.553,17.6,18.277S786.12,624.072,786.12,624.072Z" transform="translate(-556.821 -376.312)" fill="#ff931e"/>
      <path id="Path_581" data-name="Path 581" d="M797.262,670.392a102.572,102.572,0,0,1-12.925-13.538s-19.856-16.189-32.377-23.635-9.872,2.877-24.594-3.554-27.922-21.83-27.922-21.83-12.482-9.96-18.171-11.664,12.205-7.712,12.205-7.712,9.068-6.29,16.175-6.966c0,0,4.5-2.707,1-14.779-.188-.649.537-2.708,6.417,16.147,0,0-26.566,5.519-23.668,15.328,2.39,8.085,40.332,29.332,45.916,31.7s27.132-7.332,42.531,14.835c0,0,9.365,14.428,17.6,18.277C804.643,665.427,797.262,670.392,797.262,670.392Z" transform="translate(-556.279 -429.626)" fill="#d37a20"/>
      <path id="Path_582" data-name="Path 582" d="M1110.748,487.665h0s-23.455-.508-35.419,7.446c0,0,3.078,10.147,1.564,11.5,0,0-32.311-6.935-41.619-4.228s-10.83,2.369-15.4,14.384-8.8,29.614-9.815,39.768c0,0-2.031,11.676-4.231,12.353s-4.4,9.815,0,9.815a56.14,56.14,0,0,1,8.469.705s6.084-12.72,10.823-16.781c0,0,12.411-17.092,11.112-23.184s.253-12.522,2.947-12.522,8.278.677,23.508,9.646,43.321,9.645,51.1,2.2,10.153-22.149.169-34.258S1110.748,487.665,1110.748,487.665Z" transform="translate(-979.598 -376.298)" fill="#d37a20"/>
      <path id="Path_583" data-name="Path 583" d="M1121.251,489.377h0s-10.519-1.089-22.482,6.865c0,0,9.688,14.55,8.173,15.907,0,0-38.922-11.337-48.23-8.63s-10.828,2.369-15.4,14.384-8.8,29.614-9.814,39.767c0,0-2.031,11.676-4.231,12.354s-4.4,9.814,0,9.814,10.458-6.54,10.458-6.54a68.867,68.867,0,0,1,8.833-9.536s12.412-17.091,11.114-23.184-4.84-20.306-2.145-20.306,15.393-2.2,30.622,6.769,31.822,16.076,39.606,8.63,13.3-17.918,3.317-30.027S1121.251,489.377,1121.251,489.377Z" transform="translate(-1003.037 -377.429)" fill="#ff931e"/>
      <path id="Path_584" data-name="Path 584" d="M1299.045,717.689s-9.476-1.1-4.569,4.992c0,0,8.208,2.961,10.916,3.469s4.737.592,13.62,7.022,10.915-.676,10.915-.676,1.608-16.077,4.908-17.853,5.7-9.368,5.7-9.368-15.94-1.717-17.378-2.647c0,0-1.015,8.546-3.977,11.846s-2.484-1.581-12.776,2.538C1300.822,719.246,1299.045,717.689,1299.045,717.689Z" transform="translate(-1292.865 -522.049)" fill="#eaab78"/>
      <path id="Path_585" data-name="Path 585" d="M1297.638,723.533s-7.868-3.469-2.96,2.623c0,0,8.207,2.962,10.915,3.469s4.737.592,13.621,7.023,10.915-.677,10.915-.677,1.608-16.076,4.908-17.853,5.7-9.369,5.7-9.369-5.1-.066-6.54-1c0,0-1.954,11.67-4.914,14.969s3.693,6.169-6.6,10.289C1317.1,735.244,1297.638,723.533,1297.638,723.533Z" transform="translate(-1293.066 -525.523)" fill="#c07a48"/>
      <g id="Group_720" data-name="Group 720" transform="translate(215.149 213.348)">
        <path id="Path_586" data-name="Path 586" d="M678.37,847.463s-4.673,8.317,2.841,6.142c0,0,5.9-6.428,7.415-8.73s2.376-4.142,11.738-9.854,3.59-10.33,3.59-10.33-14.209-7.69-14.574-11.42-6.44-8.877-6.44-8.877-7.738,14.042-9.151,15.008c0,0,7.491,4.237,9.391,8.243s-2.416,1.681-2.591,12.766C680.492,846.425,678.37,847.463,678.37,847.463Z" transform="translate(-673.788 -804.395)" fill="#eaab78"/>
        <g id="Group_719" data-name="Group 719" transform="translate(3.717)">
          <path id="Path_587" data-name="Path 587" d="M676.218,849.86s-6.238,5.92,1.276,3.745c0,0,5.9-6.428,7.415-8.73s2.376-4.142,11.738-9.854,3.589-10.33,3.589-10.33-14.208-7.69-14.573-11.42-6.44-8.877-6.44-8.877-2.031,4.682-3.445,5.65c0,0,10.01,6.306,11.911,10.313s7.116-1.025,6.942,10.061C694.534,836.431,676.218,849.86,676.218,849.86Z" transform="translate(-673.788 -804.395)" fill="#c07a48"/>
        </g>
      </g>
    </g>
  </g>
</svg>
