<svg xmlns="http://www.w3.org/2000/svg" width="31.364" height="33.391" viewBox="0 0 31.364 33.391">
  <g id="pilates" transform="translate(-673.788 -141.811)">
    <path id="Path_560" data-name="Path 560" d="M1036.6,208.992a3.517,3.517,0,0,1,0-1.475c.2-.387.329-2.907-.158-2.979s-2.259,1.854-2.259,1.854-.333,2.872-.261,3.015S1036.115,208.992,1036.6,208.992Z" transform="translate(-345.406 -60.161)" fill="#eaab78"/>
    <path id="Path_561" data-name="Path 561" d="M1035.258,217.949a4.959,4.959,0,0,1-.074-1.806c.2-.387.73-2.435.244-2.506s-1.243,1.482-1.243,1.482-.333,2.872-.261,3.015S1034.771,218.047,1035.258,217.949Z" transform="translate(-345.406 -68.888)" fill="#c07a48"/>
    <path id="Path_562" data-name="Path 562" d="M1019.215,144.627s-.988-.864.451-2.226,3.415,0,3.623.443a1.93,1.93,0,0,1,.053.988c.021.193-1.069.616-1.069.616a1.973,1.973,0,0,0-.8.265c-.258.2-.3,1.858-.537,1.869a2.849,2.849,0,0,1-1.375-.516c-.107-.215-.1-.795-.236-.859S1019.151,144.627,1019.215,144.627Z" transform="translate(-330.991)" fill="#bc946b"/>
    <path id="Path_563" data-name="Path 563" d="M1088.995,170.117a11.278,11.278,0,0,1,.072,1.761c-.086.143-.043-.444.544-.4s.673-.215.673-.215-.086-1.1.344-1.389.244-.587,0-.9.387-.8-.444-1.876a1.686,1.686,0,0,1-.115.888,5.693,5.693,0,0,1-.9.716s-.344-.516-.516.286S1089.381,170.016,1088.995,170.117Z" transform="translate(-397.885 -24.251)" fill="#eaab78"/>
    <path id="Path_564" data-name="Path 564" d="M1131.562,218.248a.892.892,0,0,1,.243.687C1131.734,219.293,1132.106,218.305,1131.562,218.248Z" transform="translate(-439.063 -73.313)" fill="#f8cca6"/>
    <path id="Path_565" data-name="Path 565" d="M1088.995,170.117a11.278,11.278,0,0,1,.072,1.761c-.086.143-.043-.444.544-.4s-.035-.559-.035-.559-.452-.286.091-1.5c.21-.472-.128-.286.187-.716.235-.321,1.16-.53.329-1.6a1.686,1.686,0,0,1-.115.888,5.693,5.693,0,0,1-.9.716s-.344-.516-.516.286S1089.381,170.016,1088.995,170.117Z" transform="translate(-397.885 -24.251)" fill="#c07a48"/>
    <path id="Path_566" data-name="Path 566" d="M1093.85,208.438s-.415.409-.172.713.351.2.351.2S1093.679,208.782,1093.85,208.438Z" transform="translate(-402.655 -63.904)" fill="#f8cca6"/>
    <path id="Path_567" data-name="Path 567" d="M901.528,271.877a6.557,6.557,0,0,1-1.224-2.054,6.911,6.911,0,0,1-2.084-1.082s-.816.226-1.1-.252,1.955-1.325,1.525-.536c0,0,1.7-.092,2.32.724s.516-.35,1.525.5S902.108,272.07,901.528,271.877Z" transform="translate(-214.184 -120.676)" fill="#c07a48"/>
    <path id="Path_568" data-name="Path 568" d="M924.812,257.732s0,.472-.129.537.322.272.322.272S925.413,257.5,924.812,257.732Z" transform="translate(-240.618 -111.15)" fill="#c07a48"/>
    <path id="Path_569" data-name="Path 569" d="M901.871,271.7a3.881,3.881,0,0,1-.945-2.384s-2.041-.3-2.492-1c0,0-1.031.647-1.31.169s1.955-1.325,1.525-.536c0,0,1.7-.092,2.32.724s.516-.35,1.525.5S902.451,271.9,901.871,271.7Z" transform="translate(-214.184 -120.676)" fill="#eaab78"/>
    <path id="Path_570" data-name="Path 570" d="M1006.622,312.95s.2-2.6-.61-3.222-.55-3.458-.314-3.566,2.523-1.246,3.581-.258,1.64,1.547,1.64,1.547a1.8,1.8,0,0,1,.815,2.685s-.009,3.416-.617,3.759S1011.734,313.014,1006.622,312.95Z" transform="translate(-318.118 -157.001)" fill="#eaab78"/>
    <path id="Path_571" data-name="Path 571" d="M1006.622,320.59s.2-2.6-.61-3.222-.55-3.459-.314-3.566.81-.795,1.869.193a1.227,1.227,0,0,1,.206,1.632.334.334,0,0,0,.288.5c1.418,0,3.222.766,3.674,1.647,0,0-4.146-2.17-3.471,2.888C1008.356,321.355,1006.622,320.59,1006.622,320.59Z" transform="translate(-318.118 -164.641)" fill="#c07a48"/>
    <path id="Path_572" data-name="Path 572" d="M1007.651,306.958s-1.059-.451-1.575,1.139c0,0-.356,2.729,1.992,2.557s1.737-2.171,1.838-2.428,1.6,1.418.617,3.351a13.063,13.063,0,0,1-.086,1.461,6.977,6.977,0,0,1-5.005.3s-.107-2.234-.451-2.449a4.035,4.035,0,0,1-.344-4.138s2.384-.637,3.544,0C1008.182,306.751,1007.7,306.743,1007.651,306.958Z" transform="translate(-316.907 -157.927)" fill="#010d3e"/>
    <path id="Path_573" data-name="Path 573" d="M1072.758,280.013a1.6,1.6,0,0,1,2.213-.795s.208.186,1.368-.559a1.991,1.991,0,0,1,1.926-1.045c1.453.036.68,1.332.68,1.332a3.229,3.229,0,0,1-1.561,1.01s-.23.551-2.3,1.532c0,0-.877.021-1.034.229S1071.878,281.023,1072.758,280.013Z" transform="translate(-382.451 -130.252)" fill="#eaab78"/>
    <path id="Path_574" data-name="Path 574" d="M1091.184,291.424a3.444,3.444,0,0,0,.328,2.105,10.734,10.734,0,0,0,2.771-1.139s2.191-1.826,2.429-1.984l-.195.81a3.228,3.228,0,0,1-1.561,1.01s-.23.551-2.3,1.532c0,0-.877.021-1.034.229S1090.3,292.434,1091.184,291.424Z" transform="translate(-400.023 -142.522)" fill="#c07a48"/>
    <path id="Path_575" data-name="Path 575" d="M1252.447,258.547s.236.592-.15.779S1251.781,258.762,1252.447,258.547Z" transform="translate(-554.556 -111.965)" fill="#c07a48"/>
    <path id="Path_576" data-name="Path 576" d="M1206.19,267.934a3.115,3.115,0,0,1,1.654-.516,9.859,9.859,0,0,1,2,.414s.58-.264.387.1-.408.258-.967.322-1.091.656-2.038.543S1208.1,268.149,1206.19,267.934Z" transform="translate(-510.641 -120.471)" fill="#eaab78"/>
    <path id="Path_577" data-name="Path 577" d="M1206.19,275.709s1.611.273,2.449.316a1.445,1.445,0,0,0,1.2-.417s.58-.264.387.1-.408.258-.967.322-1.091.656-2.038.543S1208.1,275.924,1206.19,275.709Z" transform="translate(-510.641 -128.24)" fill="#c07a48"/>
    <path id="Path_578" data-name="Path 578" d="M1166.4,305.5a.721.721,0,0,0,.258.486C1166.918,306.226,1165.935,306.292,1166.4,305.5Z" transform="translate(-472.357 -157.001)" fill="#c07a48"/>
    <path id="Path_579" data-name="Path 579" d="M1007.341,209.283s-.662-6.623.249-7.361.438.272.438.272a5.386,5.386,0,0,0,.709,2.019c.43.387-.657,3.91-.533,4.876S1007.341,209.283,1007.341,209.283Z" transform="translate(-319.697 -57.396)" fill="#bc946b"/>
    <path id="Path_580" data-name="Path 580" d="M682.129,504.993a2.54,2.54,0,0,1,.687-1.525,22.468,22.468,0,0,1,3.437-2.771,18.671,18.671,0,0,1,3.265-1.761,11.96,11.96,0,0,0,3.544-2.771,11.606,11.606,0,0,1,2.307-1.481c.722-.216-.618-3.331-.618-3.331s.739-3.587-.163-3.673a8.462,8.462,0,0,1-.387,1.4c-.086,0-2.75.644-2.921,3.158A18.886,18.886,0,0,1,689.2,495.2c-1.418,1.7-1.74,2.062-2.449,2.363s-2.191.473-4.146,3.287a7.626,7.626,0,0,1-2.234,2.32C679.315,503.64,682.129,504.993,682.129,504.993Z" transform="translate(-6.085 -331.731)" fill="#ff931e"/>
    <path id="Path_581" data-name="Path 581" d="M680.668,579.524a13.025,13.025,0,0,0,1.641-1.719,46.052,46.052,0,0,1,4.11-3c1.59-.945,1.253.365,3.122-.451a11.959,11.959,0,0,0,3.544-2.771,11.6,11.6,0,0,1,2.307-1.481c.722-.216-1.549-.979-1.549-.979a5.553,5.553,0,0,0-2.053-.884s-.571-.344-.128-1.876c.024-.082-.068-.344-.815,2.05,0,0,3.372.7,3,1.946-.3,1.026-5.12,3.723-5.829,4.024s-3.444-.931-5.4,1.883a7.914,7.914,0,0,1-2.234,2.32C679.731,578.894,680.668,579.524,680.668,579.524Z" transform="translate(-6.107 -407.15)" fill="#d37a20"/>
    <path id="Path_582" data-name="Path 582" d="M1004.537,487.66h0s2.977-.064,4.5.945c0,0-.391,1.288-.2,1.46,0,0,4.1-.88,5.283-.537s1.375.3,1.955,1.826a23.648,23.648,0,0,1,1.246,5.048s.258,1.482.537,1.568.559,1.246,0,1.246a7.126,7.126,0,0,0-1.075.09,9.04,9.04,0,0,0-1.374-2.13s-1.576-2.17-1.411-2.943-.032-1.59-.374-1.59-1.051.086-2.984,1.224-5.5,1.224-6.487.279a3.194,3.194,0,0,1-.021-4.349C1005.4,488.261,1004.537,487.66,1004.537,487.66Z" transform="translate(-316.034 -331.711)" fill="#d37a20"/>
    <path id="Path_583" data-name="Path 583" d="M1028.661,489.333h0a4.731,4.731,0,0,1,2.854.871s-1.23,1.847-1.037,2.019c0,0,4.941-1.439,6.122-1.1s1.375.3,1.955,1.826A23.643,23.643,0,0,1,1039.8,498s.258,1.482.537,1.568.558,1.246,0,1.246-1.328-.83-1.328-.83a8.742,8.742,0,0,0-1.121-1.21s-1.576-2.17-1.411-2.943.614-2.578.272-2.578a6.267,6.267,0,0,0-3.887.859c-1.933,1.139-4.039,2.041-5.028,1.1s-1.688-2.275-.421-3.812S1028.661,489.333,1028.661,489.333Z" transform="translate(-338.516 -333.311)" fill="#ff931e"/>
    <path id="Path_584" data-name="Path 584" d="M1298.333,704.54s1.2-.14.58.634c0,0-1.042.376-1.386.44s-.6.075-1.729.891-1.385-.086-1.385-.086-.2-2.041-.623-2.266-.724-1.189-.724-1.189a18.53,18.53,0,0,0,2.206-.336,3.581,3.581,0,0,0,.5,1.5c.376.419.315-.2,1.622.322C1298.108,704.737,1298.333,704.54,1298.333,704.54Z" transform="translate(-593.966 -537.894)" fill="#eaab78"/>
    <path id="Path_585" data-name="Path 585" d="M1298.537,709.756s1-.44.376.333c0,0-1.042.376-1.386.44s-.6.075-1.729.891-1.385-.086-1.385-.086-.2-2.041-.623-2.266-.724-1.189-.724-1.189a2.568,2.568,0,0,0,.83-.127,5.713,5.713,0,0,0,.624,1.9c.376.419-.469.783.838,1.306C1296.067,711.243,1298.537,709.756,1298.537,709.756Z" transform="translate(-593.966 -542.809)" fill="#c07a48"/>
    <g id="Group_720" data-name="Group 720" transform="translate(673.788 168.894)">
      <path id="Path_586" data-name="Path 586" d="M677.259,809.862s.593,1.056-.361.78c0,0-.749-.816-.941-1.108s-.3-.526-1.49-1.251-.456-1.311-.456-1.311,1.8-.976,1.85-1.45.818-1.127.818-1.127a18.5,18.5,0,0,0,1.162,1.905,3.582,3.582,0,0,0-1.192,1.046c-.241.509.307.213.329,1.62C676.989,809.73,677.259,809.862,677.259,809.862Z" transform="translate(-673.788 -804.395)" fill="#eaab78"/>
      <g id="Group_719" data-name="Group 719" transform="translate(0)">
        <path id="Path_587" data-name="Path 587" d="M677.06,810.167s.792.751-.162.475c0,0-.749-.816-.941-1.108s-.3-.526-1.49-1.251-.456-1.311-.456-1.311,1.8-.976,1.85-1.45.818-1.127.818-1.127a2.568,2.568,0,0,0,.437.717,5.711,5.711,0,0,0-1.512,1.309c-.241.509-.9-.13-.881,1.277C674.735,808.462,677.06,810.167,677.06,810.167Z" transform="translate(-673.788 -804.395)" fill="#c07a48"/>
      </g>
    </g>
  </g>
</svg>
