<svg xmlns="http://www.w3.org/2000/svg" width="44.087" height="34.499" viewBox="0 0 44.087 34.499">
  <g id="power_lifting" transform="translate(-772.979 -28.4)">
    <g id="Legs" transform="translate(785.437 41.405)">
      <path id="Path_821" data-name="Path 821" d="M1101.054,249.011s.67-1.966-.357-2.793a12.636,12.636,0,0,0-2.592-1.475s-4.223,2.235-4.492,2.726a5.748,5.748,0,0,0-.156,2.011s1.631.335,2.056-.2c0,0,1.443-.76,1.839-.514S1098.261,249.3,1101.054,249.011Z" transform="translate(-1079.555 -239.968)" fill="#814f35"/>
      <path id="Path_822" data-name="Path 822" d="M942.269,232.808a1.911,1.911,0,0,0,.179-1.078,3.806,3.806,0,0,1,.224-2.609c.554-.928,3.27-2.459,4.6.971s-1.5,3.563-1.5,3.563A18.437,18.437,0,0,0,942.269,232.808Z" transform="translate(-940.815 -224.569)" fill="#6b4434"/>
      <path id="Path_823" data-name="Path 823" d="M944.537,231.058s-1.452.28-1.542-.3a3.806,3.806,0,0,1,.223-2.609c.554-.928,5.067-2.676,4.6.971-.35,2.716-2.138,2.179-2.138,2.179S945.5,231.058,944.537,231.058Z" transform="translate(-941.362 -223.601)" fill="#814f35"/>
      <path id="Path_824" data-name="Path 824" d="M1101.054,275.656a7.19,7.19,0,0,1-2.57-1.162c-1.028-.827-3.419-.686-3.419-.686s-1.184-.186-1.453.306a5.748,5.748,0,0,0-.156,2.011s1.631.335,2.056-.2c0,0,1.443-.76,1.839-.514S1098.261,275.947,1101.054,275.656Z" transform="translate(-1079.555 -266.613)" fill="#6b4434"/>
      <path id="Path_825" data-name="Path 825" d="M953.4,193.587a11.2,11.2,0,0,0,2.257,1.542s2.235,1.966,2.369,2.078c0,0,.849-.581,1.475-.983a7.424,7.424,0,0,1,2.056-2.793c1.408-1.117,2.123-1.989,2.279-2.011s-3.128-1.251-3.24-1.341a.465.465,0,0,0-.514,0c-.223.112-.022-.291-.67-.179s-3.151.29-3.151.29l-3.307-.827a25.4,25.4,0,0,1-2.212-2.7c.134-.089-.514.246-.626.268s-.224-.022-.715.67-.447,1.05-.8,1.028-.223.894-.223.894-1.162,1.162-1.229,1.676,1.587-2.5,4.268.492a2.71,2.71,0,0,1,.648,1.587,6.242,6.242,0,0,1-1.922,2.525c-.291.134-.179.849-.179.849s.983.693,1.7-.782.559-2.123.916-2.168S953.4,193.587,953.4,193.587Z" transform="translate(-945.284 -186.645)" fill="#ff931e"/>
      <path id="Path_826" data-name="Path 826" d="M935.6,291.958a6.514,6.514,0,0,1,.179-3.978l.156-1.095a9.025,9.025,0,0,1,3.4.916.666.666,0,0,0-.179.849,5.179,5.179,0,0,1-.542,3.926c-.911,1.348-.4,4.208-.4,4.208L936,295.78S935.221,292.495,935.6,291.958Z" transform="translate(-934.482 -278.648)" fill="#f2f2f2"/>
      <path id="Path_827" data-name="Path 827" d="M953.4,193.587a11.2,11.2,0,0,0,2.257,1.542s2.235,1.966,2.369,2.078c0,0,.849-.581,1.475-.983a7.424,7.424,0,0,1,2.056-2.793c1.408-1.117-.617.432-.461.409a8.875,8.875,0,0,1-1.548.13c-.112-.089-1.209-.584-1.433-.472s-2.376-1.3-2.86-.82c-2.771,2.764-3.173-1.381-3.759-1.976a.878.878,0,0,0-.579-.263l-1.857-.158a.469.469,0,0,1-.348-.731c.689-1.01,1.933-2.825,2.029-2.89.134-.089-.514.246-.626.268s-.224-.022-.715.67-.447,1.05-.8,1.028-.223.894-.223.894-1.162,1.162-1.229,1.676,1.587-2.5,4.268.492a2.71,2.71,0,0,1,.648,1.587,6.242,6.242,0,0,1-1.922,2.525c-.291.134-.179.849-.179.849s.983.693,1.7-.782.559-2.123.916-2.168S953.4,193.587,953.4,193.587Z" transform="translate(-945.284 -186.645)" fill="#d37a20"/>
      <path id="Path_828" data-name="Path 828" d="M935.6,291.958a6.514,6.514,0,0,1,.179-3.978l.156-1.095a9.07,9.07,0,0,1,1.415.24s-.315,1.563-.432,2.2a6.771,6.771,0,0,0-.466,2.514c0,1.6.339,4.771.339,4.771L936,295.78S935.221,292.495,935.6,291.958Z" transform="translate(-934.482 -278.648)" fill="#d3d2d1"/>
      <g id="Group_748" data-name="Group 748" transform="translate(0 16.447)">
        <path id="Path_829" data-name="Path 829" d="M930.3,421.754s-.733.253-.853.54-.16.878-1.667.625-1.44-.455-1.44-.455.543-.706,2.813-.49c.146.014.04-1.545.853-1.2C930.211,420.864,930.389,421.719,930.3,421.754Z" transform="translate(-926.191 -417.934)" fill="#f2f2f2"/>
        <path id="Path_830" data-name="Path 830" d="M927.873,386.924s1,0,.84,2.532a.706.706,0,0,1-.411.642.931.931,0,0,0-.429.608c-.067.405-.347.743-1.907.439a1.3,1.3,0,0,0-.88.117c-.413.237-.32-.776.214-1.231a3.617,3.617,0,0,0,.8-2.3C926.046,387.262,926.513,386.418,927.873,386.924Z" transform="translate(-924.807 -386.768)" fill="#d37a20"/>
        <path id="Path_831" data-name="Path 831" d="M927.616,386.924s-.773-.653-.933,1.879c0,0,.923.629.468.9a.6.6,0,0,0-.49.469c-.067.405.608,1.278-.952.974a1.3,1.3,0,0,0-.88.117c-.413.237-.32-.776.213-1.231a3.617,3.617,0,0,0,.8-2.3C925.789,387.262,926.256,386.418,927.616,386.924Z" transform="translate(-924.572 -386.768)" fill="#ff931e"/>
      </g>
      <path id="Path_832" data-name="Path 832" d="M1139.416,300.677a8.86,8.86,0,0,0,.871-3.732,4.02,4.02,0,0,1,.291-1.52,13.638,13.638,0,0,1-3.464-.112,4.794,4.794,0,0,0-.134,4.525,21.278,21.278,0,0,1-.38,3.586c-.291.871,2.3-.4,2.3-.4A19.754,19.754,0,0,0,1139.416,300.677Z" transform="translate(-1119.079 -286.383)" fill="#d3d2d1"/>
      <path id="Path_833" data-name="Path 833" d="M1131.522,422.815s-.078-.161-1.693-.2-1.2-.7-1.014-.9a9.087,9.087,0,0,1,3.227.284,8.181,8.181,0,0,0,2.82.232c.245-.133.368.535-.768.585S1133.5,423.236,1131.522,422.815Z" transform="translate(-1111.855 -402.332)" fill="#f2f2f2"/>
      <path id="Path_834" data-name="Path 834" d="M1150.266,302.457a8.863,8.863,0,0,0,.871-3.732,4.019,4.019,0,0,1,.29-1.52s-.645-.006-2.041-.006a3.662,3.662,0,0,0-.685,4.27,21.676,21.676,0,0,1-.336,3.753c-.29.871,1.386-.419,1.386-.419A19.755,19.755,0,0,0,1150.266,302.457Z" transform="translate(-1129.929 -288.114)" fill="#f2f2f2"/>
      <path id="Path_835" data-name="Path 835" d="M1132.362,389.306s-.479-.223-.5.507,0,1.731,0,1.731a6.123,6.123,0,0,0,1.971.383,4.251,4.251,0,0,1,1.2.247,4.779,4.779,0,0,0,2.874-.049s.056.161-.2.359,1.281-.383.267-1.138c0,0-1.025.346-2.439-1.039,0,0-.624-1.348-.646-1.534,0,0-1.359.074-1.515.445A1.387,1.387,0,0,1,1132.362,389.306Z" transform="translate(-1114.816 -372.162)" fill="#d37a20"/>
      <path id="Path_836" data-name="Path 836" d="M1154.735,392.484c-.256.2,1.281-.383.267-1.138,0,0-1.025.346-2.439-1.039,0,0-.624-1.348-.646-1.534,0,0-1.359.074-1.515.445,0,0,1.292.989.858.792,0,0-.24-.13-.262.6s1.593.865,1.593.865-.128.056,1.454.217c0,0,.97-.093,1.075.495" transform="translate(-1131.842 -372.162)" fill="#ff931e"/>
    </g>
    <g id="Arms" transform="translate(791.846 35.709)">
      <path id="Path_837" data-name="Path 837" d="M1004.751,117.656s-1.318.693-1.676,3.933a4.714,4.714,0,0,0,0,2.838,8.12,8.12,0,0,1-.045,4.626,10.147,10.147,0,0,0-.38,4.313,5.164,5.164,0,0,1-.1,2.145,1.473,1.473,0,0,0,1.749.4,16.878,16.878,0,0,0,.447-2.816c-.067-.581,1.3-1.743.961-4.894,0,0,1.43-.335,1.117-4.693S1007.7,117.343,1004.751,117.656Z" transform="translate(-1002.555 -117.598)" fill="#814f35"/>
      <path id="Path_838" data-name="Path 838" d="M1004.751,117.394s-1.318.693-1.676,3.933a4.714,4.714,0,0,0,0,2.838,8.12,8.12,0,0,1-.045,4.626,10.147,10.147,0,0,0-.38,4.313,5.164,5.164,0,0,1-.1,2.145s.185.38.587.022c0,0,.581-6.726.514-7.307s2.5,1.609,1.922-.045c0,0-1.721.067-1.877-4.886C1003.562,118.665,1006.225,116.991,1004.751,117.394Z" transform="translate(-1002.555 -117.336)" fill="#6b4434"/>
      <path id="Path_839" data-name="Path 839" d="M1034.469,236.314s.231.983-.193.983.492.462.492.462S1034.73,236.426,1034.469,236.314Z" transform="translate(-1031.566 -226.536)" fill="#6b4434"/>
      <path id="Path_840" data-name="Path 840" d="M1024.925,262.416s.291,1.43.648,1.3S1026.713,263.243,1024.925,262.416Z" transform="translate(-1023.086 -250.492)" fill="#6b4434"/>
      <path id="Path_841" data-name="Path 841" d="M1018.671,319.446s.492-.559.38-.648.388,0,.388,0S1019.185,320,1018.671,319.446Z" transform="translate(-1017.346 -302.204)" fill="#6b4434"/>
      <path id="Path_842" data-name="Path 842" d="M1013.775,187.351s-.764-.626-.742-.916S1012.461,187.753,1013.775,187.351Z" transform="translate(-1012.066 -180.723)" fill="#6b4434"/>
      <path id="Path_843" data-name="Path 843" d="M1034.163,170.754s.718.514.6,1.162,1.071-1.05.557-1.251S1034.185,169.771,1034.163,170.754Z" transform="translate(-1031.565 -165.892)" fill="#6b4434"/>
      <path id="Path_844" data-name="Path 844" d="M1113.359,144.142s.939,2.007-.112,3.473a4.874,4.874,0,0,1-.671,3.208,8.387,8.387,0,0,0,.134,1.616,19.425,19.425,0,0,1-.335,4.149,18.291,18.291,0,0,0-.112,3.474l-.763.224-.987-.6s.32-.57-.4-3.184-.559-2.935-.335-4.059c0,0-.156-.767.134-.946,0,0-.67-1.294-.089-2.066s2.7-3.5,2.7-3.5Z" transform="translate(-1100.795 -141.939)" fill="#814f35"/>
      <path id="Path_845" data-name="Path 845" d="M1113.359,144.142s.335.836-.715,2.3c0,0-1.255,2.883-2.615,3.91a25.45,25.45,0,0,0,2.549.629c.411.069-1.275.31-2.1,1.159-1.1,1.134.859,7.921.859,7.921l-.822-.38s.32-.57-.4-3.184-.559-2.935-.335-4.059c0,0-.156-.767.134-.946,0,0-.67-1.294-.089-2.066s2.7-3.5,2.7-3.5Z" transform="translate(-1100.795 -141.939)" fill="#6b4434"/>
      <path id="Path_846" data-name="Path 846" d="M1142.111,186.139a1.5,1.5,0,0,0,.626-.495C1142.938,185.322,1143.117,186.263,1142.111,186.139Z" transform="translate(-1130.641 -179.968)" fill="#6b4434"/>
      <path id="Path_847" data-name="Path 847" d="M1136.129,253.9s.715,2.644.2,3.851S1137.514,254.359,1136.129,253.9Z" transform="translate(-1125.151 -242.674)" fill="#6b4434"/>
    </g>
    <g id="Body" transform="translate(790.869 32.459)">
      <path id="Path_848" data-name="Path 848" d="M1079.573,80.136s-.072,3.278,2.467,3.4,1.909-2.479,1.909-2.479-2.834-1.059-2.589-2.177c0,0-1.028-1.385-1.095-1.006s.179,1.006.045,1.3S1080.243,78.616,1079.573,80.136Z" transform="translate(-1072.266 -77.811)" fill="#814f35"/>
      <path id="Path_849" data-name="Path 849" d="M1079.571,82.56s-.071.833,2.467.959,1.909-2.479,1.909-2.479-2.633-1.1-2.388-2.221c0,0-1.229-1.341-1.3-.961s1.788,3.428,2.86,3.182C1083.436,80.969,1082.319,82.126,1079.571,82.56Z" transform="translate(-1072.264 -77.79)" fill="#6b4434"/>
      <path id="Path_850" data-name="Path 850" d="M998.577,94.385a7.108,7.108,0,0,0-3.129.916,2.66,2.66,0,0,0-1.877.871,2.365,2.365,0,0,0-1.184,2.324,13.509,13.509,0,0,1-.715,2.324,9.389,9.389,0,0,0-1.006,1.363,15.135,15.135,0,0,1,1.318,1.577c.246.435.357.278.357.278s-.693-2.525-.112-3.687a4.672,4.672,0,0,1,1.5.849,7.051,7.051,0,0,0,2.212.938,14.074,14.074,0,0,1-.1,2.858c-.187.533-.123.553.371.516a17.011,17.011,0,0,0,3.151-.29c.38-.223.6-1.509,1.274-1.9l.045.437s.447-.638.8-.571a2.028,2.028,0,0,0,2.615-.358s.179-.182,0-.884c0,0,1.5-1.082.112-3.473a10.6,10.6,0,0,1-1.587-2.48,7.1,7.1,0,0,1-1.341,2.279c-.715.6-2.793-.559-2.793-2.168C998.487,96.106,998.174,94.653,998.577,94.385Z" transform="translate(-990.666 -93.021)" fill="#ff931e"/>
      <path id="Path_851" data-name="Path 851" d="M998.577,94.385a7.108,7.108,0,0,0-3.129.916,2.66,2.66,0,0,0-1.877.871,2.365,2.365,0,0,0-1.184,2.324,13.509,13.509,0,0,1-.715,2.324,9.389,9.389,0,0,0-1.006,1.363,15.135,15.135,0,0,1,1.318,1.577c.246.435.357.278.357.278s-.693-2.525-.112-3.687a4.672,4.672,0,0,1,1.5.849,7.051,7.051,0,0,0,2.212.938,14.964,14.964,0,0,1-.1,2.858c-.176.533.226.533.371.516a19.017,19.017,0,0,0,3.151-.29c.38-.223.6-1.509,1.274-1.9l.045.437s.447-.638.8-.571a2.028,2.028,0,0,0,2.615-.358,7.578,7.578,0,0,1-2.547-.39c-.807-.4-.67-1.225-.76-1.577,0,0-3.408,7.084-4.849,1.274,0,0,.134.246.022-.425,0,0-2.413-2.123-3.128-1.519s.518-1.3.518-2.905C993.352,97.29,993.571,96.173,998.577,94.385Z" transform="translate(-990.666 -93.021)" fill="#d37a20"/>
      <path id="Path_852" data-name="Path 852" d="M1142.911,174.676s.873.443.917.9S1144.094,174.251,1142.911,174.676Z" transform="translate(-1130.399 -166.653)" fill="#d37a20"/>
      <path id="Path_853" data-name="Path 853" d="M1060,138.1a2.05,2.05,0,0,0,.191-1.966C1059.686,135.151,1062.055,136.76,1060,138.1Z" transform="translate(-1054.301 -131.061)" fill="#d37a20"/>
      <path id="Path_854" data-name="Path 854" d="M1053.187,170.24a5.041,5.041,0,0,0-.346,1.4C1052.915,171.917,1052.293,170.508,1053.187,170.24Z" transform="translate(-1047.601 -162.642)" fill="#d37a20"/>
      <path id="Path_855" data-name="Path 855" d="M1109.592,142.162s.568.509,1.564-.452S1110.227,143.351,1109.592,142.162Z" transform="translate(-1099.818 -136.257)" fill="#d37a20"/>
    </g>
    <g id="Face" transform="translate(798.433 28.4)">
      <path id="Path_856" data-name="Path 856" d="M1083.194,29.588s.637-1.4,2.927-1.162,2.139,1.531,2.139,1.531-1.737-1.006-2.821,0a9.1,9.1,0,0,0-.883,2.09c.067.324-.251-.184-.251-.184s-.536-.671-.8.184c0,0,.038,1.376-.3,1.325a6.793,6.793,0,0,0-.383-1.526C1082.6,31.432,1082.659,29.856,1083.194,29.588Z" transform="translate(-1082.702 -28.4)"/>
      <path id="Path_857" data-name="Path 857" d="M1094.443,41.691a2.136,2.136,0,0,1,2.821,0,6.168,6.168,0,0,1,.2,2.346c-.224.76.156,1.452-.48,2.391s-.331,1.015-1.154,1.015-2.879-1.506-2.387-2.221c0,0-1.564-1.006-.626-1.855,0,0,.246-.2.671.469C1093.482,43.836,1093.415,41.959,1094.443,41.691Z" transform="translate(-1091.706 -40.134)" fill="#814f35"/>
      <path id="Path_858" data-name="Path 858" d="M1092.248,47.347s-1.028,1.654.4,1.452c0,0,2.649-.112,2.426.648s-2.575-1.073-3.067,1.363c-.224,1.112,2.451,2.288,1.628,2.288s-2.879-1.506-2.388-2.221c0,0-2.033-1.059-.626-1.855,0,0,.052,1.676.678,1.49C1091.295,50.513,1090.965,47.638,1092.248,47.347Z" transform="translate(-1089.511 -45.79)" fill="#6b4434" stroke="#814f35" stroke-miterlimit="10" stroke-width="1"/>
    </g>
    <g id="Bar" transform="translate(772.979 32.047)">
      <path id="Path_859" data-name="Path 859" d="M1263.92,357.223s2.883.6,3.385.329.508-.937-.234-1.073a7.668,7.668,0,0,0-2.648-.156C1264.021,356.513,1263.92,357.223,1263.92,357.223Z" transform="translate(-1223.572 -332.95)" fill="#c5b9b2"/>
      <path id="Path_860" data-name="Path 860" d="M1099.424,72.9s.1-.134.119.186S1099.677,72.434,1099.424,72.9Z" transform="translate(-1072.595 -72.773)" fill="#6b4434"/>
      <path id="Path_861" data-name="Path 861" d="M1198.419,301.426c0,7.2-2.978,6.058-5.69,6.058s-2.832-2.191-2.832-5.409.217-5.53,2.832-6.246C1196.566,294.778,1198.419,298.207,1198.419,301.426Z" transform="translate(-1155.631 -277.319)" fill="#0e256b"/>
      <ellipse id="Ellipse_66" data-name="Ellipse 66" cx="3.285" cy="5.828" rx="3.285" ry="5.828" transform="translate(33.494 18.585)" fill="#010d3e"/>
      <path id="Path_862" data-name="Path 862" d="M914.01,358.579s8.38-.79,24.267-.528c0,0,.235-.889,0-.9s-23.329.021-24.435.424S914.01,358.579,914.01,358.579Z" transform="translate(-901.851 -333.778)" fill="#c5b9b2"/>
      <path id="Path_863" data-name="Path 863" d="M995.656,338.1a1.5,1.5,0,0,0,.078-.95c-.089-.7-.348-1.2.229-1.866a1.537,1.537,0,0,0,1.749.4s.151.76.344.916a2.871,2.871,0,0,1-.538,2.19c-.531.637-2.241-.235-2.14-.548C995.377,338.244,995.6,338.238,995.656,338.1Z" transform="translate(-977.095 -313.709)" fill="#814f35"/>
      <path id="Path_864" data-name="Path 864" d="M995.656,338.1a1.5,1.5,0,0,0,.078-.95c-.089-.7-.348-1.2.229-1.866,0,0-.3,1.457.787,1.032,0,0-.98,1.7-.787,1.861s2.086-.022,1.554.615-2.241-.235-2.14-.548C995.377,338.244,995.6,338.238,995.656,338.1Z" transform="translate(-977.095 -313.709)" fill="#6b4434"/>
      <path id="Path_865" data-name="Path 865" d="M1010.378,360.59a6.969,6.969,0,0,1,1.2.145C1011.842,360.836,1011.082,360.132,1010.378,360.59Z" transform="translate(-990.867 -336.792)" fill="#6b4434"/>
      <path id="Path_866" data-name="Path 866" d="M1114.338,334.836a1.5,1.5,0,0,0,.078-.95c-.089-.7-.348-1.2.229-1.866a1.537,1.537,0,0,0,1.749.4s.151.76.344.916a2.871,2.871,0,0,1-.538,2.19c-.531.637-2.241-.235-2.14-.547C1114.059,334.982,1114.283,334.976,1114.338,334.836Z" transform="translate(-1086.023 -310.715)" fill="#814f35"/>
      <path id="Path_867" data-name="Path 867" d="M1114.338,334.836a1.5,1.5,0,0,0,.078-.95c-.089-.7-.348-1.2.229-1.866,0,0-.3,1.457.787,1.032,0,0-.98,1.7-.787,1.861s2.085-.022,1.554.615-2.241-.235-2.14-.547C1114.059,334.982,1114.283,334.976,1114.338,334.836Z" transform="translate(-1086.023 -310.715)" fill="#6b4434"/>
      <path id="Path_868" data-name="Path 868" d="M1129.06,357.327a6.971,6.971,0,0,1,1.2.145C1130.524,357.573,1129.764,356.869,1129.06,357.327Z" transform="translate(-1099.795 -333.797)" fill="#6b4434"/>
      <path id="Path_869" data-name="Path 869" d="M831.158,292.506c0,7.2-2.978,6.058-5.69,6.058s-2.832-2.191-2.832-5.409.217-5.53,2.832-6.246C829.305,285.858,831.158,289.288,831.158,292.506Z" transform="translate(-818.554 -269.133)" fill="#0e256b"/>
      <ellipse id="Ellipse_67" data-name="Ellipse 67" cx="3.285" cy="5.828" rx="3.285" ry="5.828" transform="translate(3.31 17.852)" fill="#010d3e"/>
      <path id="Path_870" data-name="Path 870" d="M779.238,359.368h-5.832a.9.9,0,0,1-.168-1.359h6S779.875,359,779.238,359.368Z" transform="translate(-772.979 -334.567)" fill="#c5b9b2"/>
    </g>
  </g>
</svg>
