<svg xmlns="http://www.w3.org/2000/svg" xmlns:xlink="http://www.w3.org/1999/xlink" width="198" height="161" viewBox="0 0 198 161">
  <defs>
    <clipPath id="clip-path">
      <rect id="Rectangle_199" data-name="Rectangle 199" width="198" height="161" fill="#fff" stroke="#707070" stroke-width="1"/>
    </clipPath>
  </defs>
  <g id="powe_lifting_header" transform="translate(-192 -53)" clip-path="url(#clip-path)">
    <g id="Group_789" data-name="Group 789" transform="translate(128.384 60)">
      <g id="Legs" transform="translate(70.25 112.534)">
        <path id="Path_821" data-name="Path 821" d="M1095.292,281.673s-5.8-17.015,3.092-24.169,22.43-12.761,22.43-12.761,36.543,19.335,38.865,23.589,1.353,17.4,1.353,17.4-14.113,2.9-17.788-1.74c0,0-12.487-6.574-15.911-4.447S1119.46,284.187,1095.292,281.673Z" transform="translate(-1077.888 -203.428)" fill="#814f35"/>
        <path id="Path_822" data-name="Path 822" d="M988.581,269.866a16.537,16.537,0,0,1-1.547-9.324c.773-4.983,2.864-14.55-1.934-22.578s-28.3-21.281-39.769,8.4S958.3,277.2,958.3,277.2,980.267,269.866,988.581,269.866Z" transform="translate(-797.742 -198.581)" fill="#6b4434"/>
        <path id="Path_823" data-name="Path 823" d="M971.522,262.794s12.568,2.426,13.341-2.557,2.864-14.551-1.933-22.578-43.841-23.158-39.768,8.4c3.031,23.5,18.5,18.858,18.5,18.858S963.209,262.794,971.522,262.794Z" transform="translate(-795.571 -198.276)" fill="#814f35"/>
        <path id="Path_824" data-name="Path 824" d="M1093.434,290.059s13.341-2.9,22.236-10.054,29.582-5.933,29.582-5.933,10.248-1.608,12.57,2.646,1.353,17.4,1.353,17.4-14.115,2.9-17.789-1.74c0,0-12.487-6.573-15.911-4.446S1117.6,292.573,1093.434,290.059Z" transform="translate(-1076.031 -211.814)" fill="#6b4434"/>
        <path id="Path_825" data-name="Path 825" d="M1037.483,246.715s-15.856,13.148-19.529,13.342c0,0-19.335,17.015-20.495,17.982,0,0-7.348-5.027-12.762-8.507,0,0-5.607-14.5-17.788-24.17s-18.368-17.209-19.722-17.4,27.07-10.828,28.037-11.6,2.514-.967,4.446,0,.193-2.514,5.8-1.547,27.262,2.513,27.262,2.513l28.617-7.154s20.3-22.622,19.142-23.4,4.446,2.127,5.413,2.321,1.934-.194,6.188,5.8,3.868,9.088,6.961,8.894,1.933,7.734,1.933,7.734,10.054,10.054,10.635,14.5-13.728-21.656-36.931,4.253c0,0-6.188,7.347-5.608,13.728s14.115,20.688,16.629,21.849,1.546,7.347,1.546,7.347-8.507,5.994-14.695-6.767-4.834-18.368-7.927-18.755S1037.483,246.715,1037.483,246.715Z" transform="translate(-904.262 -186.645)" fill="#ff931e"/>
        <path id="Path_826" data-name="Path 826" d="M967.66,330.778s5.415-17.4-1.547-34.417l-1.354-9.475s-20.294,1.609-29.39,7.927c0,0,3.48,2.127,1.548,7.347s-3.2,22.307,4.686,33.97,3.434,36.411,3.434,36.411l19.138-8.7S970.947,335.418,967.66,330.778Z" transform="translate(-773.919 -215.602)" fill="#f2f2f2"/>
        <path id="Path_827" data-name="Path 827" d="M1022.045,246.715s-15.855,13.148-19.529,13.342c0,0-19.335,17.015-20.495,17.982,0,0-7.347-5.027-12.762-8.507,0,0-5.607-14.5-17.788-24.17s5.34,3.735,3.987,3.541,12.425,1.9,13.393,1.127,10.464-5.055,12.4-4.088,20.558-11.279,24.75-7.1c23.976,23.918,27.453-11.949,32.525-17.1a7.6,7.6,0,0,1,5.014-2.274l16.068-1.366a4.058,4.058,0,0,0,3.011-6.328c-5.958-8.743-16.724-24.446-17.559-25-1.161-.773,4.446,2.127,5.413,2.321s1.934-.194,6.188,5.8,3.868,9.088,6.961,8.894,1.933,7.734,1.933,7.734,10.054,10.054,10.635,14.5-13.729-21.656-36.932,4.253c0,0-6.187,7.347-5.608,13.728s14.115,20.688,16.629,21.849,1.547,7.347,1.547,7.347-8.507,5.994-14.7-6.767-4.834-18.368-7.927-18.755S1022.045,246.715,1022.045,246.715Z" transform="translate(-888.824 -186.645)" fill="#d37a20"/>
        <path id="Path_828" data-name="Path 828" d="M950.511,330.778s5.415-17.4-1.547-34.417l-1.354-9.475s-2.513,0-12.241,2.073c0,0,2.729,13.527,3.734,19,1.1,5.993,4.031,7.4,4.031,21.752,0,13.824-2.931,41.28-2.931,41.28l6.823-7.154S953.8,335.418,950.511,330.778Z" transform="translate(-756.771 -215.602)" fill="#d3d2d1"/>
        <g id="Group_748" data-name="Group 748" transform="translate(167.684 142.314)">
          <path id="Path_829" data-name="Path 829" d="M926.555,429.632s6.346,2.191,7.384,4.675,1.385,7.6,14.42,5.4,12.46-3.938,12.46-3.938-4.7-6.106-24.343-4.243c-1.266.12-.346-13.367-7.384-10.372C927.289,421.927,925.75,429.331,926.555,429.632Z" transform="translate(-926.336 -396.577)" fill="#f2f2f2"/>
          <path id="Path_830" data-name="Path 830" d="M932.247,388.122s-8.652,0-7.268,21.912c0,0-.381,3.215,3.558,5.552a8.052,8.052,0,0,1,3.71,5.259c.576,3.506,3,6.428,16.5,3.8a11.217,11.217,0,0,1,7.615,1.013c3.575,2.055,2.768-6.711-1.848-10.655s-7.382-15.777-6.92-19.868S944.014,383.74,932.247,388.122Z" transform="translate(-923.028 -386.768)" fill="#d37a20"/>
          <path id="Path_831" data-name="Path 831" d="M924.572,388.122s6.685-5.651,8.069,16.261c0,0-7.985,5.442-4.046,7.779,0,0,3.663.548,4.239,4.054s-5.264,11.057,8.235,8.427a11.214,11.214,0,0,1,7.614,1.013c3.576,2.055,2.768-6.711-1.846-10.655s-7.383-15.777-6.921-19.868S936.339,383.74,924.572,388.122Z" transform="translate(-915.171 -386.768)" fill="#ff931e"/>
        </g>
        <path id="Path_832" data-name="Path 832" d="M1146.549,341.72a76.678,76.678,0,0,1-7.539-32.29s-.194-9.861-2.513-13.148c0,0,17.981,1.739,29.969-.968,0,0,11.214,16.053,1.16,39.157,0,0,.774,23.491,3.287,31.032S1151,362.022,1151,362.022,1146.549,345.586,1146.549,341.72Z" transform="translate(-1119.094 -218.036)" fill="#d3d2d1"/>
        <path id="Path_833" data-name="Path 833" d="M1158.958,431.764s.673-1.391,14.648-1.711,10.409-6.1,8.77-7.812-24.336.642-27.926,2.461-22.285,3.152-24.4,2-3.18,4.631,6.65,5.058S1141.8,435.4,1158.958,431.764Z" transform="translate(-1125.708 -254.529)" fill="#f2f2f2"/>
        <path id="Path_834" data-name="Path 834" d="M1158.371,342.686a76.687,76.687,0,0,1-7.54-32.29s-.194-9.862-2.514-13.148c0,0,5.583-.048,17.659-.048,0,0,15.985,13.839,5.93,36.943,0,0,.391,24.932,2.906,32.473s-11.993-3.629-11.993-3.629S1158.371,346.553,1158.371,342.686Z" transform="translate(-1130.915 -218.581)" fill="#f2f2f2"/>
        <path id="Path_835" data-name="Path 835" d="M1183.448,393.376s4.143-1.927,4.337,4.387,0,14.981,0,14.981-3.374,1.927-17.058,3.318a36.79,36.79,0,0,0-10.408,2.14c-5.686,2.033-10.794,2.462-24.863-.428,0,0-.481,1.391,1.734,3.1s-11.082-3.318-2.313-9.845c0,0,8.867,3,21.106-8.988,0,0,5.395-11.664,5.59-13.27,0,0,11.755.642,13.105,3.852C1174.679,392.626,1179.691,395.088,1183.448,393.376Z" transform="translate(-1131.851 -245.033)" fill="#d37a20"/>
        <path id="Path_836" data-name="Path 836" d="M1155.743,420.877c2.216,1.712-11.083-3.318-2.315-9.845,0,0,8.868,3,21.107-8.988,0,0,5.4-11.664,5.59-13.27,0,0,11.757.642,13.106,3.852,0,0-11.178,8.561-7.421,6.849,0,0,2.073-1.123,2.266,5.19s-13.782,7.485-13.782,7.485,1.107.486-12.578,1.879c0,0-8.4-.8-9.3,4.28" transform="translate(-1150.401 -245.033)" fill="#ff931e"/>
      </g>
      <g id="Arms" transform="translate(106.162 63.245)">
        <path id="Path_837" data-name="Path 837" d="M1020.923,117.919s11.409,5.994,14.5,34.03c0,0,3.675,7.347,0,24.556s-3.673,24.749.387,40.024,5.027,27.263,3.288,37.317a44.691,44.691,0,0,0,.826,18.562s-6.627,7.928-15.135,3.48c0,0-4.447-19.335-3.867-24.362s-11.214-15.082-8.313-42.345c0,0-12.375-2.9-9.668-40.6S995.4,115.212,1020.923,117.919Z" transform="translate(-927.868 -117.418)" fill="#814f35"/>
        <path id="Path_838" data-name="Path 838" d="M1010.449,117.837s11.408,5.994,14.5,34.03c0,0,3.674,7.347,0,24.556s-3.674,24.749.386,40.024,5.028,27.263,3.288,37.318a44.69,44.69,0,0,0,.826,18.561s-1.6,3.288-5.08.194c0,0-5.026-58.2-4.448-63.226s-21.654,13.921-16.627-.387c0,0,14.889.58,16.242-42.282C1020.73,128.842,997.688,114.356,1010.449,117.837Z" transform="translate(-917.394 -117.336)" fill="#6b4434"/>
        <path id="Path_839" data-name="Path 839" d="M1036.752,236.314s-2,8.507,1.673,8.507-4.261,4-4.261,4S1034.5,237.281,1036.752,236.314Z" transform="translate(-949.817 -151.704)" fill="#6b4434"/>
        <path id="Path_840" data-name="Path 840" d="M1034.7,262.416s-2.514,12.375-5.608,11.214S1019.228,269.57,1034.7,262.416Z" transform="translate(-938.548 -159.244)" fill="#6b4434"/>
        <path id="Path_841" data-name="Path 841" d="M1025.317,324.71s-4.253-4.834-3.287-5.607-3.359,0-3.359,0S1020.869,329.543,1025.317,324.71Z" transform="translate(-924.72 -175.519)" fill="#6b4434"/>
        <path id="Path_842" data-name="Path 842" d="M1012.918,194.633s6.609-5.414,6.416-7.928S1024.288,198.113,1012.918,194.633Z" transform="translate(-915.645 -137.286)" fill="#6b4434"/>
        <path id="Path_843" data-name="Path 843" d="M1045.345,174.69s-6.209,4.447-5.234,10.055-9.271-9.088-4.823-10.828S1045.154,166.182,1045.345,174.69Z" transform="translate(-955.765 -132.618)" fill="#6b4434"/>
        <path id="Path_844" data-name="Path 844" d="M1112.931,144.142s-8.121,17.37.968,30.05a42.171,42.171,0,0,0,5.8,27.762s0,10.57-1.163,13.986.775,22.364,2.9,35.9.968,30.064.968,30.064l6.6,1.936,8.537-5.22s-2.767-4.93,3.419-27.553,4.835-25.393,2.9-35.126c0,0,1.353-6.639-1.159-8.185,0,0,5.8-11.193.774-17.874s-23.4-30.271-23.4-30.271Z" transform="translate(-1109.592 -125.079)" fill="#814f35"/>
        <path id="Path_845" data-name="Path 845" d="M1110.032,144.142s-2.9,7.235,6.187,19.915c0,0,10.859,24.942,22.624,33.836a220.2,220.2,0,0,1-22.057,5.44c-3.557.6,11.035,2.681,18.189,10.028,9.559,9.817-7.433,68.541-7.433,68.541l7.109-3.285s-2.767-4.93,3.419-27.553,4.834-25.393,2.9-35.126c0,0,1.354-6.639-1.158-8.185,0,0,5.8-11.193.772-17.874s-23.4-30.271-23.4-30.271Z" transform="translate(-1106.693 -125.079)" fill="#6b4434"/>
        <path id="Path_846" data-name="Path 846" d="M1148.876,190.443a12.971,12.971,0,0,1-5.414-4.281C1141.724,183.374,1140.175,191.518,1148.876,190.443Z" transform="translate(-1136.062 -137.048)" fill="#6b4434"/>
        <path id="Path_847" data-name="Path 847" d="M1140.952,253.9s-6.19,22.88-1.742,33.321S1128.963,257.893,1140.952,253.9Z" transform="translate(-1123.885 -156.783)" fill="#6b4434"/>
      </g>
      <g id="Body" transform="translate(104.412 35.123)">
        <path id="Path_848" data-name="Path 848" d="M1118.038,97.912s.619,28.364-21.345,29.457-16.521-21.451-16.521-21.451,24.525-9.167,22.4-18.834c0,0,8.894-11.988,9.474-8.7s-1.545,8.7-.386,11.215S1112.237,84.764,1118.038,97.912Z" transform="translate(-1059.005 -77.797)" fill="#814f35"/>
        <path id="Path_849" data-name="Path 849" d="M1118.037,119.065s.618,7.2-21.348,8.3-16.521-21.451-16.521-21.451,22.785-9.553,20.659-19.221c0,0,10.633-11.6,11.214-8.315s-15.469,29.662-24.75,27.535C1084.6,105.294,1094.253,115.308,1118.037,119.065Z" transform="translate(-1059.001 -77.79)" fill="#6b4434"/>
        <path id="Path_850" data-name="Path 850" d="M1044.479,94.385s18.37,1.16,27.071,7.928a23.016,23.016,0,0,1,16.242,7.541s10.054,4.06,10.247,20.109c0,0,3.094,14.115,6.188,20.109,0,0,7.927,9.281,8.7,11.794,0,0-9.281,9.883-11.409,13.642s-3.093,2.406-3.093,2.406,5.994-21.849.966-31.9c0,0-9.281,3.287-12.956,7.347s-19.141,8.12-19.141,8.12-.934,19.531.893,24.728c1.621,4.616,1.062,4.787-3.212,4.469s-23.977-.58-27.263-2.513-5.161-13.061-11.022-16.435l-.387,3.781s-3.867-5.521-6.96-4.942-10.635,7.734-22.623-3.093c0,0-1.547-1.578,0-7.653,0,0-12.954-9.362-.965-30.051,0,0,12.76-15.662,13.728-21.463,0,0,5.414,14.5,11.6,19.723s24.168-4.834,24.168-18.756C1045.252,109.273,1047.959,96.706,1044.479,94.385Z" transform="translate(-990.666 -82.584)" fill="#ff931e"/>
        <path id="Path_851" data-name="Path 851" d="M1038.424,94.385s18.369,1.16,27.07,7.928a23.018,23.018,0,0,1,16.242,7.541s10.054,4.06,10.247,20.109c0,0,3.094,14.115,6.187,20.109,0,0,7.927,9.281,8.7,11.794,0,0-9.281,9.883-11.408,13.642s-3.093,2.406-3.093,2.406,5.995-21.849.966-31.9c0,0-9.281,3.287-12.956,7.347s-19.141,8.12-19.141,8.12-.836,19.5.893,24.728c1.526,4.616-1.955,4.616-3.212,4.469-4.257-.5-23.977-.58-27.263-2.513s-5.161-13.061-11.022-16.435l-.387,3.781s-3.867-5.521-6.961-4.942-10.634,7.734-22.622-3.093c0,0,15.105.107,22.043-3.372,6.98-3.5,5.8-10.6,6.574-13.643,0,0,29.486,61.293,41.957,11.021,0,0-1.161,2.127-.193-3.674,0,0,20.883-18.369,27.07-13.147s-4.484-11.215-4.484-25.136C1083.633,119.521,1081.737,109.854,1038.424,94.385Z" transform="translate(-984.612 -82.584)" fill="#d37a20"/>
        <path id="Path_852" data-name="Path 852" d="M1151.243,175.179s-7.553,3.836-7.938,7.815S1141,171.505,1151.243,175.179Z" transform="translate(-1137.249 -105.758)" fill="#d37a20"/>
        <path id="Path_853" data-name="Path 853" d="M1067.387,155.469s-6.016-8.507-1.654-17.015S1049.6,143.868,1067.387,155.469Z" transform="translate(-994.432 -94.556)" fill="#d37a20"/>
        <path id="Path_854" data-name="Path 854" d="M1052.7,170.24s3.63,9.789,2.993,12.151S1060.433,172.557,1052.7,170.24Z" transform="translate(-978.775 -104.496)" fill="#d37a20"/>
        <path id="Path_855" data-name="Path 855" d="M1125.56,147.286s-4.913,4.4-13.536-3.909S1120.069,157.575,1125.56,147.286Z" transform="translate(-1087.87 -96.192)" fill="#d37a20"/>
      </g>
      <g id="Face" transform="translate(110.867 0)">
        <path id="Path_856" data-name="Path 856" d="M1126.561,38.684s-5.51-12.084-25.329-10.054-18.512,13.244-18.512,13.244,15.032-8.7,24.41,0c0,0,8.218,15.28,7.637,18.081s2.174-1.591,2.174-1.591,4.641-5.806,6.9,1.591c0,0-.33,11.908,2.6,11.463,0,0,1.38-9.629,3.313-13.206S1131.186,41,1126.561,38.684Z" transform="translate(-1080.459 -28.4)"/>
        <path id="Path_857" data-name="Path 857" d="M1119.182,45.567s-9.181-9.861-24.41,0c0,0-3.626,13.728-1.693,20.3s-1.352,12.568,4.158,20.689,2.867,8.78,9.989,8.78,24.911-13.034,20.657-19.221c0,0,13.535-8.7,5.416-16.049,0,0-2.129-1.74-5.8,4.061C1127.5,64.129,1128.077,47.887,1119.182,45.567Z" transform="translate(-1092.512 -32.093)" fill="#814f35"/>
        <path id="Path_858" data-name="Path 858" d="M1114.646,47.347s8.894,14.309-3.42,12.568c0,0-22.922-.966-20.989,5.607s22.283-9.281,26.537,11.795c1.941,9.619-21.206,19.8-14.085,19.8s24.912-13.034,20.66-19.221c0,0,17.592-9.161,5.411-16.049,0,0-.451,14.5-5.864,12.891C1122.9,74.739,1125.749,49.861,1114.646,47.347Z" transform="translate(-1087.977 -33.873)" fill="#6b4434" stroke="#814f35" stroke-miterlimit="10" stroke-width="1"/>
      </g>
      <g id="Bar" transform="translate(0 31.555)">
        <path id="Path_859" data-name="Path 859" d="M1296.274,364.689s-24.943,5.17-29.292,2.85-4.394-8.112,2.027-9.286,19.432-2.992,22.915-1.348S1296.274,364.689,1296.274,364.689Z" transform="translate(-1263.921 -154.659)" fill="#c5b9b2"/>
        <path id="Path_860" data-name="Path 860" d="M1100.81,73.9s-.9-1.161-1.032,1.611S1098.62,69.838,1100.81,73.9Z" transform="translate(-951.478 -72.773)" fill="#6b4434"/>
        <path id="Path_861" data-name="Path 861" d="M1189.9,345.738c0,62.26,25.772,52.419,49.239,52.419s24.507-18.955,24.507-46.8-1.875-47.85-24.507-54.046C1205.926,288.215,1189.9,317.889,1189.9,345.738Z" transform="translate(-1178.646 -137.15)" fill="#0e256b"/>
        <ellipse id="Ellipse_66" data-name="Ellipse 66" cx="28.423" cy="50.426" rx="28.423" ry="50.426" transform="translate(34.819 160.808)" fill="#010d3e"/>
        <path id="Path_862" data-name="Path 862" d="M1124.274,369.519s-72.509-6.838-209.981-4.569c0,0-2.03-7.688,0-7.785s201.86.183,211.431,3.669S1124.274,369.519,1124.274,369.519Z" transform="translate(-848.004 -154.92)" fill="#c5b9b2"/>
        <path id="Path_863" data-name="Path 863" d="M1016.756,359.646s-1.45-2.127-.678-8.217,3.007-10.345-1.977-16.145a13.3,13.3,0,0,1-15.134,3.48s-1.3,6.574-2.972,7.927.06,13.438,4.658,18.949,19.39-2.03,18.52-4.737C1019.172,360.9,1017.236,360.852,1016.756,359.646Z" transform="translate(-795.882 -148.603)" fill="#814f35"/>
        <path id="Path_864" data-name="Path 864" d="M1012.287,359.646s-1.45-2.127-.678-8.217,3.007-10.345-1.977-16.145c0,0,2.568,12.607-6.81,8.933,0,0,8.479,14.753,6.81,16.106s-18.046-.193-13.448,5.317,19.39-2.03,18.519-4.737C1014.7,360.9,1012.767,360.852,1012.287,359.646Z" transform="translate(-791.414 -148.603)" fill="#6b4434"/>
        <path id="Path_865" data-name="Path 865" d="M1021.2,361.788s-8.024.387-10.345,1.256S1015.109,357.823,1021.2,361.788Z" transform="translate(-808.545 -155.868)" fill="#6b4434"/>
        <path id="Path_866" data-name="Path 866" d="M1135.437,356.383s-1.449-2.127-.676-8.217,3.006-10.345-1.978-16.145a13.3,13.3,0,0,1-15.134,3.48s-1.3,6.574-2.972,7.927.061,13.439,4.658,18.949,19.388-2.031,18.518-4.737C1137.854,357.64,1135.917,357.589,1135.437,356.383Z" transform="translate(-998.963 -147.661)" fill="#814f35"/>
        <path id="Path_867" data-name="Path 867" d="M1130.967,356.383s-1.449-2.127-.675-8.217,3.006-10.345-1.978-16.145c0,0,2.567,12.606-6.81,8.933,0,0,8.479,14.753,6.81,16.106s-18.045-.193-13.448,5.317,19.388-2.031,18.518-4.737C1133.384,357.64,1131.447,357.589,1130.967,356.383Z" transform="translate(-994.493 -147.661)" fill="#6b4434"/>
        <path id="Path_868" data-name="Path 868" d="M1139.882,358.524s-8.024.387-10.346,1.256S1133.792,354.56,1139.882,358.524Z" transform="translate(-1011.625 -154.925)" fill="#6b4434"/>
        <path id="Path_869" data-name="Path 869" d="M822.635,336.819c0,62.26,25.771,52.42,49.238,52.42s24.507-18.955,24.507-46.8-1.875-47.85-24.507-54.047C838.664,279.3,822.635,308.97,822.635,336.819Z" transform="translate(-550.214 -134.574)" fill="#0e256b"/>
        <ellipse id="Ellipse_67" data-name="Ellipse 67" cx="28.423" cy="50.426" rx="28.423" ry="50.426" transform="translate(295.99 154.466)" fill="#010d3e"/>
        <path id="Path_870" data-name="Path 870" d="M775.428,369.767h50.464s7.251-5.533,1.451-11.758H775.428S769.918,366.577,775.428,369.767Z" transform="translate(-448.114 -155.168)" fill="#c5b9b2"/>
      </g>
    </g>
  </g>
</svg>
