<svg xmlns="http://www.w3.org/2000/svg" xmlns:xlink="http://www.w3.org/1999/xlink" width="222" height="128" viewBox="0 0 222 128">
  <defs>
    <clipPath id="clip-path">
      <rect id="Rectangle_199" data-name="Rectangle 199" width="222" height="128" fill="#fff"/>
    </clipPath>
  </defs>
  <g id="pre_post_natal" transform="translate(-168 -86)" clip-path="url(#clip-path)">
    <g id="Natal" transform="translate(173.998 96.504)">
      <path id="Path_949" data-name="Path 949" d="M92.592,772.91s-7.857,2.734-10.248,0,.171-15.543-1.879-16.909S98.4,751.388,98.4,751.388l11.1,15.031Z" transform="translate(172.906 -664.491)" fill="#a06135"/>
      <path id="Path_950" data-name="Path 950" d="M298.789,770.348s-23.571,1.2-31.941-1.2-19.814,1.025-35.7,0-56.367-9.394-56.367-9.394l3.758-8.37s26.3.513,28.525,3.245c0,0,16.056-4.27,32.283,3.245,0,0,25.621-1.067,26.3,3.139,0,0,14.006.79,16.226,3.864S302.2,765.394,298.789,770.348Z" transform="translate(-78.213 -664.491)" fill="#a06135"/>
      <path id="Path_951" data-name="Path 951" d="M46.484,745.869l-15.8,5.957s3.159,11.637,2.134,14.54-3.075,9.736,3.929,9.566,9.907,0,11.615-1.025,9.907-.683,12.981,1.879,31.94-.133,23.571-4.593-6.49-.873-13.323-5.485-16.91-10.419-18.447-9.395S47.509,751.506,46.484,745.869Z" transform="translate(228.238 -662.559)" fill="#c07a47"/>
      <path id="Path_952" data-name="Path 952" d="M37.591,745.869l-6.906,2.6S41.349,765.342,54.5,766.708c3.063.318,10.488,5.173,17.491,5s3.347,2.855-32.522,3.2c-1.992.019,9.907-.683,12.981,1.879s31.94-.133,23.571-4.593-6.49-.873-13.323-5.485-16.91-10.419-18.447-9.395S38.616,751.506,37.591,745.869Z" transform="translate(237.131 -662.559)" fill="#a06135"/>
      <path id="Path_953" data-name="Path 953" d="M304.2,774.47s-2.9-3.9-12.639-.994-93.6-2.391-98.726-3.245-20.668-.214-15.2-14.455c0,0-4.441-4.505,7.174-14.924s19.814-.171,26.134,7c0,0,19.813,7.487,35.869,7.587s33.307,5.394,35.016,5.394,16.4,1.708,16.4,1.708,6.49,1.366,7.857,2.22,17.593,1.917,19.13,4.118,18.105,2.2,16.056,4.422-7.686,1.165-7.686,1.165,1.537,1.91-2.221,1.056S307.431,776.211,304.2,774.47Z" transform="translate(-121.544 -659.249)" fill="#c07a47"/>
      <path id="Path_954" data-name="Path 954" d="M304.231,782.979s-2.9-3.9-12.64-.994-93.6-2.391-98.726-3.246-20.668-.214-15.2-14.454c0,0,5.978,15.611,18.106,2.042,13.821-15.465-1.354,12.268,15.2,7.89a199.169,199.169,0,0,0,26.645,1.751c16.056.1,43.556,3.587,45.264,3.587s14.177-3.416,14.177-3.416,4.1,1.879,5.465,2.733,18.96,1.044,20.5,3.245,20.326-2.523,18.276-.3-7.686,1.165-7.686,1.165,1.537,1.909-2.22,1.055S307.461,784.72,304.231,782.979Z" transform="translate(-121.574 -668.061)" fill="#a06135"/>
      <rect id="Rectangle_119" data-name="Rectangle 119" width="24.27" height="11.324" transform="translate(30.671 79.723)" fill="#a06135"/>
      <path id="Path_955" data-name="Path 955" d="M472.523,728.465a74.1,74.1,0,0,1-11.1,0c-4.1-.512.854-7.173-1.025-8.54s-1.879-2.221-4.782-2.05c0,0-1.879-3.245-8.028-2.9,0,0-3.245-7.857-7.857-2.049s-7,2.22-7,2.22-9.907-.854-14.348,5.295-2.733,7.345,9.394,10.419,4.442,8.882,4.442,8.882-2.9,4.783,2.221,6.149,6.832-4.441,6.832-4.441,3.928-2.9.853-4.27c0,0,8.712,0,18.106-6.491,0,0,.684,10.078-4.1,10.249s-15.714-.854-15.714-.854-6.149,4.911-1.537,6.726,13.323,2.156,14.86,4.718,11.1,6.833,11.1,6.833-6.148-3.929-2.391-13.323S468.515,728.358,472.523,728.465Z" transform="translate(-408.406 -650.28)" fill="#c07a47"/>
      <path id="Path_956" data-name="Path 956" d="M473.719,738.466s-5.664,1.146-2.122-.98c2.562-1.536,4.271-12.3,2.391-13.664s.281-2.05-2.623-1.88c0,0,5.7,5.3-.452,5.638,0,0-3.245,6.321-9.223,8.882a12.56,12.56,0,0,1-12.3-1.538s-15.216-13.664-19.657-7.515-.5,4.27,11.629,7.344,4.441,8.882,4.441,8.882-2.9,4.783,2.22,6.149,6.832-4.441,6.832-4.441,3.928-2.9.853-4.269c0,0,8.712,0,18.106-6.491,0,0,.684,10.078-4.1,10.249S454,743.977,454,743.977s-6.149,4.911-1.537,6.726,13.323,2.156,14.86,4.718,11.1,6.833,11.1,6.833-6.148-3.929-2.391-13.323S469.711,738.359,473.719,738.466Z" transform="translate(-421.998 -654.176)" fill="#a06135"/>
      <path id="Path_957" data-name="Path 957" d="M463.81,717.259s-3.246-4.271-4.27-2.391-.075,3.245-1.66,3.416S463.81,717.259,463.81,717.259Z" transform="translate(-426.68 -651.542)" fill="#a06135"/>
      <path id="Path_958" data-name="Path 958" d="M199.884,638.156s-29.208-12.127-45.605-1.366-20.839,30.574-21.009,32.624-12.981-7.011-22.888,8.792-28.148,47.4-11.512,47.574c0,0-12.572-13.149,11.853-30.915,0,0,7.686-1.709,18.618,11.443l8.864,2.9s17.269,5.444,27,4.69c0,0,3.587-15.44,24.767-19.029s27.329,11.613,47.314-17.595c0,0,9.223-11.615,17.422-12.81s20.5-12.3,20.5-12.3,6.832-3.074,6.662-1.2-1.537,19.984,7,32.794c0,0,7.92,13.467,9.993,23.208l15.8-5.956s-2.049-12.981-3.587-13.664c0,0-1.537-9.224-1.025-11.957s-2.391-26.134-4.1-30.062.854-21.35-5.978-24.084-16.227-5.124-27.5-2.22-52.95,15.885-59.953,19.472C212.524,638.5,204.325,638.156,199.884,638.156Z" transform="translate(-39.945 -617.702)" fill="#ff931e"/>
      <path id="Path_959" data-name="Path 959" d="M238.345,690.36s-18.336-7.658-33.9,4.27c-31.77,24.341-41.65,17.508-67.64,17.508-3.929,0-5.124-33.738-15.031-17.935s-31.735,44.239-15.1,44.41c0,0-12.572-13.149,11.853-30.914,0,0,7.686-1.71,18.618,11.442l8.864,2.9s17.269,5.444,27,4.691c0,0,3.587-15.44,24.767-19.029s27.329,11.613,47.314-17.595c0,0,9.223-11.615,17.422-12.811s20.5-12.3,20.5-12.3,6.832-3.075,6.662-1.2-1.537,19.984,7,32.795c0,0,7.92,13.466,9.993,23.208l10.294-3.882s-6.851-.412-8.388-1.1h0c.512-2.732-2.847-11.057-4.555-14.986s.228-27.784-6.6-30.517,4.669-17.479-6.6-14.575-10.077,7.572-17.08,11.16C273.731,665.907,231.769,684.211,238.345,690.36Z" transform="translate(-47.746 -630.536)" fill="#d37a20"/>
      <path id="Path_960" data-name="Path 960" d="M478.43,763.7a90.756,90.756,0,0,0-20.886,0c-11.216,1.348-24.688,2.856-28.087-3.478s-6.815-12.6-3.171-19.258c0,0-3.872-1.082-2.505-7.175s8.427-13.546,9.566-11.983-3.188,6.578,4.782,9.423,13.847,4.553,11.251,9.735-3.849,8.293,3.78,8.4,16.17,2.968,16.17,2.968,12.754,7.971,13.437,11.368S478.43,763.7,478.43,763.7Z" transform="translate(-423.489 -654.062)" fill="#201913"/>
      <path id="Path_961" data-name="Path 961" d="M109.531,673.04s-.854,18.276,7.516,32.111,9.15,20.08,9.15,20.08l10.322-3.17s-20.327-42.531-18.96-43.385-1.879-15.2-1.879-15.2S107.14,665.865,109.531,673.04Z" transform="translate(127.173 -633.722)" fill="#d37a20"/>
    </g>
  </g>
</svg>
