<svg xmlns="http://www.w3.org/2000/svg" xmlns:xlink="http://www.w3.org/1999/xlink" width="189" height="158" viewBox="0 0 189 158">
  <defs>
    <clipPath id="clip-path">
      <rect id="Rectangle_202" data-name="Rectangle 202" width="189" height="158" fill="#fff" stroke="#707070" stroke-width="1"/>
    </clipPath>
  </defs>
  <g id="strength_header" transform="translate(-201 -56)" clip-path="url(#clip-path)">
    <g id="Group_728" data-name="Group 728" transform="translate(196.059 66)">
      <g id="Group_724" data-name="Group 724" transform="translate(0 20.802)">
        <path id="Path_588" data-name="Path 588" d="M125.335,1208.621s-9.645.894-12.324,2.857,13.038-6.609,14.11,43.223c0,0,6.43,8.931,20.719,4.645s33.4,14.111,39.83-2.144c0,0-12.324-5.716-5.895-22.326s21.612-15.539,31.257-10-6.073-15.359-10-16.253-16.432,12.145-30.542,15.539S124.621,1223.445,125.335,1208.621Z" transform="translate(-51.629 -1126.888)" fill="#ff931e"/>
        <path id="Path_589" data-name="Path 589" d="M115.857,1348.149s1.786-21.075,0-28.22-3.751-27.328-.714-33.044-1.621-16.892-4.108-18.574-18.129-15.633,6.3-35.056c0,0,25.139-9.775,23.353,21.838,0,0,.449,13.753-1.2,13.753,0,0,7.813,12.5,3.169,33.042s-12.145,48.761-12.145,48.761S117.643,1356.545,115.857,1348.149Z" transform="translate(25.006 -1137.994)" fill="#ac653a"/>
        <path id="Path_590" data-name="Path 590" d="M144.735,1347.537s1.786-21.075,0-28.22-3.751-27.327-.714-33.043-1.621-16.892-4.108-18.575-21.21-16.3,3.215-35.722c0,0,17.325-5.715,15.718,5.715,0,0-20.316,18.041-21.969,18.041,0,0,19.647,16.253,15,36.794s-2.251,55.847-2.251,55.847S146.521,1355.933,144.735,1347.537Z" transform="translate(-3.872 -1137.383)" fill="#6a371d"/>
        <path id="Path_591" data-name="Path 591" d="M297.516,1306.748s-1.072-27.059,1.876-29.471,5.09-22.395,4.286-26.871,11.61,11.69,26.97,6.155-9.287-50.906-14.11-43.225c0,0-26.256,4.747-31.882,8.892s-10.985,3.081-10.449,15.938-4.019,26.164,5.358,44.828c0,0,5.29,25.9,1.975,28.577S294.033,1313.713,297.516,1306.748Z" transform="translate(-255.157 -1128.745)" fill="#ac653a"/>
        <path id="Path_592" data-name="Path 592" d="M294.322,1319.389s-9.913-37.474-6.966-39.888-2.947-28.506-3.751-32.982,35.454,23.929,50.815,18.394-32.864-28.577-37.687-20.9c0,0-2.679-17.581-8.306-13.435s-10.984,3.08-10.448,15.937-4.019,26.164,5.358,44.828c0,0,5.29,25.9,1.976,28.575S290.839,1326.354,294.322,1319.389Z" transform="translate(-258.929 -1137.098)" fill="#6a371d"/>
        <path id="Path_593" data-name="Path 593" d="M179.8,1208.661s-9.645.894-12.324,2.858,13.039-6.608,14.11,43.225c0,0,6.431,8.93,20.719,4.643s33.4,14.109,39.831-2.145c0,0-18.665,7.96-12.235-8.653s-3.5,10.862-5.894,0c-1.072-4.858,2.322-9.743-1.608-10.636s-1.428,7.243-15.539,10.636S179.081,1223.487,179.8,1208.661Z" transform="translate(-106.09 -1126.928)" fill="#d37a20"/>
        <g id="Group_722" data-name="Group 722" transform="translate(134.901 203.799)">
          <path id="Path_594" data-name="Path 594" d="M102.434,1498.437s6.451,2.228,7.507,4.751,1.408,7.725,14.662,5.5,12.668-4,12.668-4-4.78-6.207-24.75-4.314c-1.287.123-.352-13.59-7.507-10.545C103.181,1490.6,101.616,1498.131,102.434,1498.437Z" transform="translate(-102.212 -1464.828)" fill="#f2f2f2"/>
          <path id="Path_595" data-name="Path 595" d="M107.668,1443.75s-8.8,0-7.39,22.28c0,0-.387,3.267,3.618,5.645a8.187,8.187,0,0,1,3.772,5.347c.587,3.565,3.05,6.535,16.773,3.861a11.4,11.4,0,0,1,7.742,1.03c3.636,2.089,2.815-6.822-1.877-10.833s-7.507-16.042-7.038-20.2S119.633,1439.295,107.668,1443.75Z" transform="translate(-98.296 -1442.373)" fill="#d37a20"/>
          <path id="Path_596" data-name="Path 596" d="M99.771,1443.75s6.8-5.746,8.2,16.534c0,0-8.119,5.534-4.113,7.91,0,0,3.724.556,4.311,4.122s-5.351,11.241,8.372,8.568a11.4,11.4,0,0,1,7.741,1.03c3.636,2.089,2.815-6.822-1.877-10.833s-7.507-16.042-7.038-20.2S111.736,1439.295,99.771,1443.75Z" transform="translate(-90.213 -1442.373)" fill="#ff931e"/>
        </g>
        <g id="Group_723" data-name="Group 723" transform="translate(0 176.491)">
          <path id="Path_597" data-name="Path 597" d="M350.566,1443.343s.272-1.5,13.5-5.53,8.292-8.583,6.276-9.777-23.016,7.089-25.95,9.779-20.393,8.935-22.718,8.406-1.8,5.259,7.682,3.049S335.19,1451.376,350.566,1443.343Z" transform="translate(-316.985 -1408.16)" fill="#f2f2f2"/>
          <path id="Path_598" data-name="Path 598" d="M369.623,1390.088l1.864,5.964c1.864,5.964,7.982,14.107,7.982,14.107s-2.7,2.734-15.369,7.7a36.394,36.394,0,0,0-9.347,4.811c-4.876,3.449-9.628,5.217-23.8,6.21,0,0-.089,1.453,2.48,2.495s-11.443-.208-4.825-8.763c0,0,9.245.494,17.715-14.182,0,0,7.644-9.355,7.4-10.936,0,0,5.764-5.713,7.906-3.014A31.016,31.016,0,0,0,369.623,1390.088Z" transform="translate(-326.812 -1390.088)" fill="#d37a20"/>
          <path id="Path_599" data-name="Path 599" d="M367.594,1433.714c2.567,1.041-11.442-.21-4.825-8.763,0,0,9.245.493,17.715-14.183,0,0,8.477-14,8.233-15.58,0,0,4.932-1.069,7.073,1.63,0,0-8.372,11.132-5.247,8.5,0,0,1.675-1.622,3.539,4.341s-11.137,10.8-11.137,10.8,1.186.17-11.482,5.137c0,0-8.212,1.471-7.721,6.554" transform="translate(-360.975 -1392.425)" fill="#ff931e"/>
        </g>
        <path id="Path_600" data-name="Path 600" d="M251.2,1063s-5.715,20.9-7.145,21.612,0,8.751,0,8.751l-1.429,6.073s3.93,8.752,4.287,13.752,8.216,3.573,15,20.72-65.8,19.294-74.838,13.217-8.394-13.932-19.647-16.789c0,0-20.9-3.93-24.648-3.751s-7.68-16.075-5-21.791,10.181-15.716,15-22.683,34.115-21.077,34.115-21.077,3.93.359,5.537-.714,19.647-9.822,29.113-7.858S244.413,1063.711,251.2,1063Z" transform="translate(-110.516 -1052.173)" fill="#ff931e"/>
        <path id="Path_601" data-name="Path 601" d="M260.741,1109.011s14.914,1.34,13.485,2.054.506,12.259.506,12.259l2.044,14.191s-21.278,4.4-30.234,5.513c-25.845,3.221-33.643,10.9-15.539,10.723,5.013-.047,28.042-5.044,34.829,12.1s-39.55,13.8-48.582,7.724-8.395-13.932-19.647-16.789c0,0-20.9-3.929-24.648-3.753s-7.68-16.072-5-21.79,10.181-15.717,15-22.684-4.2,24.346-4.2,24.346.8,14.95,2.411,13.877,11.124-.089,20.59,1.876c4,.83,41.057-7.777,51.705-15.981C268.035,1121.458,256.82,1109.424,260.741,1109.011Z" transform="translate(-140.687 -1078.628)" fill="#d37a20"/>
      </g>
      <g id="Group_725" data-name="Group 725" transform="translate(31.843 32.163)">
        <path id="Path_602" data-name="Path 602" d="M265.913,1221.5s6.609-12.145,0-25c0,0-23.041-1.43-24.112-1.43s2.322,20.719,2.5,23.041,1.072,11.61,3.215,13.039c0,0-1.25,8.217,4.287,12.146s26.791,14.646,33.579,14.289,21.255.536,19.469-2.858-25.005-18.219-25.005-18.219-5.716-8.742-11.253-10.175C268.592,1226.324,268.414,1221.853,265.913,1221.5Z" transform="translate(-239.677 -1131.792)" fill="#6a371d"/>
        <path id="Path_603" data-name="Path 603" d="M269.166,1222.1s6.609-12.145,0-25c0,0-23.04-1.429-24.112-1.429s2.321,20.719,2.5,23.042,1.072,11.609,3.216,13.038c0,0-1.251,8.215,4.286,12.144s26.791,14.647,33.579,14.29,21.255.535,19.469-2.858S283.1,1237.1,283.1,1237.1s-5.715-8.743-11.252-10.176C271.845,1226.928,271.667,1222.459,269.166,1222.1Z" transform="translate(-244.629 -1132.081)" fill="#ac653a"/>
        <path id="Path_604" data-name="Path 604" d="M73.509,1102.5s21.255,7.323,26.613,5.716c0,0-.357,15.359,1.429,20.54s-4.822,29.828-4.822,29.828-9.824,1.606-10.538,3.75-6.073,2.679-6.609,10.717S85.3,1177.7,85.3,1177.7s2.143,8.932,6.43,8.4,8.038-8.573,8.038-8.573,4.644-.714,3.036.893-7.68,7.68-5.18,8.572,8.752-2.5,10.181-6.429,1.608-5.893,3.037-8.217.893-6.072,0-6.072,3.751-4.643,3.929-11.967,16.432-38.758,12.86-53.225c0,0,2.144-5.717-3.75-8.217s-24.112-17.505-40.366-18.933C83.511,1073.924,74.581,1097.5,73.509,1102.5Z" transform="translate(24.972 -1073.924)" fill="#ac653a"/>
        <path id="Path_605" data-name="Path 605" d="M254.315,1224.575s5.358-17.683-1.25-30.542a74.688,74.688,0,0,0-7.353-1.787c-1.072,0,2.191,22.5,2.37,24.828s1.072,11.608,3.215,13.038c0,0-1.25,8.216,4.287,12.146s26.791,14.646,33.579,14.289,21.254.536,19.468-2.858-23.415-2.859-23.415-2.859-21.791-11.247-27.327-12.681C257.887,1238.15,256.815,1224.933,254.315,1224.575Z" transform="translate(-245.496 -1130.447)" fill="#6a371d"/>
        <path id="Path_606" data-name="Path 606" d="M104.966,1122.621s21.255,7.324,26.613,5.715c0,0-.357,15.362,1.429,20.54s-4.822,29.829-4.822,29.829-9.824,1.609-10.538,3.749-6.073,2.68-6.609,10.719,5.715,4.644,5.715,4.644,2.143,8.93,6.43,8.395,8.038-8.574,8.038-8.574,5.507.179,3.9,1.786-8.543,6.789-6.043,7.682,8.752-2.5,10.181-6.432.378-7.61,3.037-8.215c3.928-.893-10.127,7.859-27.894-1.787-.785-.426,17.492-6.833,17.671-14.156s6.441-21.565,2.87-36.034c0,0,3.233-11.966-2.661-14.467s-9.045-8.544-25.3-9.974C106.982,1116.04,106.037,1117.619,104.966,1122.621Z" transform="translate(-6.276 -1094.042)" fill="#6a371d"/>
      </g>
      <g id="Group_726" data-name="Group 726" transform="translate(64.055 124.987)">
        <path id="Path_607" data-name="Path 607" d="M201.941,1268.745s25.125,1.073,16.194,32.627c0,0-10.241,21.433-29.292,14.407s1.31-43.818,1.31-43.818S194.439,1267.911,201.941,1268.745Z" transform="translate(-155.139 -1259.76)" fill="#0e256b"/>
        <path id="Path_608" data-name="Path 608" d="M192.642,1307.85s2.857,8.811,11.55,7.859,19.29-10.24,18.575-22.266-8.4-19-16.566-17.856S189.784,1304.278,192.642,1307.85Z" transform="translate(-163.821 -1263.023)" fill="#010d3e"/>
        <path id="Path_609" data-name="Path 609" d="M241.612,1303.022s24.648-7.978,21.91-28.577-14.17-22.624-14.17-22.624-12.979-1.668-20.361,5.358-11.431,16.671-10.121,24.767S221.726,1302.9,241.612,1303.022Z" transform="translate(-218.624 -1251.647)" fill="#0e256b"/>
        <path id="Path_610" data-name="Path 610" d="M233.367,1275.772s3.215-15.479,18.1-15.36,16.194,11.312,16.194,11.312,5.477,17.742-10.359,28.459S226.461,1286.37,233.367,1275.772Z" transform="translate(-230.265 -1255.835)" fill="#010d3e"/>
      </g>
      <g id="Group_727" data-name="Group 727" transform="translate(30.106)">
        <path id="Path_611" data-name="Path 611" d="M271.689,1046.542s-2.739-7.145-1.9-12.86,8.454-21.433,21.195-21.315,17.861,2.5,22.148,14.051,3.572,16.195,3.572,16.195,4.525.714,4.287,7.144-3.691,8.693-5.835,7.382c0,0,1.191,9.407-2.024,14.289s-7.025,11.669-7.025,12.979-10.479,6.429-14.408,0-4.882-3.81-10.836-15c0,0-4.286-3.453-4.167-10.478S270.737,1052.02,271.689,1046.542Z" transform="translate(-268.575 -1012.355)" fill="#ac653a"/>
        <path id="Path_612" data-name="Path 612" d="M300.2,1046.542s-2.739-7.145-1.905-12.86,8.454-21.433,21.2-21.315-19.886,10.36-15.6,21.911,1.667,11.192,1.667,11.192,20.376-9.089,22.386-2.977c2.46,7.48-23.458,9.645-18.338,15.956,0,0,14.289,13.216,11.074,18.1s13.931,6.55,13.931,7.86-10.478,6.429-14.408,0-4.882-3.81-10.836-15c0,0-4.286-3.453-4.167-10.478S299.252,1052.02,300.2,1046.542Z" transform="translate(-297.09 -1012.355)" fill="#6a371d"/>
        <path id="Path_613" data-name="Path 613" d="M277.284,1073.012s-.773-2.918,2.56-2.976S273.712,1068.546,277.284,1073.012Z" transform="translate(-231.72 -1039.777)" fill="#6a371d"/>
        <path id="Path_614" data-name="Path 614" d="M276.68,1080.763s.674,4.644-1.539,5.717S272.036,1088.085,276.68,1080.763Z" transform="translate(-226.294 -1045.029)" fill="#6a371d"/>
        <path id="Path_615" data-name="Path 615" d="M305.375,1031.111s-22.352,10.613-25.912,10.039-1.773-21.471,10.908-25.936,21.2-3.724,27.034,2.247,8.422,16.223,8.569,25.14c0,0-5.426-3.615-3.38,7.361s-5.663-14.029-9.387-14.208S306.983,1038.077,305.375,1031.111Z" transform="translate(-277.851 -1012.344)" fill="#0a0809"/>
      </g>
    </g>
  </g>
</svg>
