<svg xmlns="http://www.w3.org/2000/svg" width="23.613" height="34.343" viewBox="0 0 23.613 34.343">
  <g id="Group_728" data-name="Group 728" transform="translate(-73.509 -1012.344)">
    <g id="Group_724" data-name="Group 724" transform="translate(75.26 1015)">
      <path id="Path_588" data-name="Path 588" d="M124.294,1208.583a5.073,5.073,0,0,1,1.573.365c.342.251-1.665-.844-1.8,5.518a2.331,2.331,0,0,1-2.645.593c-1.824-.547-4.264,1.8-5.085-.274,0,0,1.573-.73.753-2.85s-2.759-1.984-3.991-1.277.775-1.961,1.277-2.075,2.1,1.551,3.9,1.984S124.385,1210.475,124.294,1208.583Z" transform="translate(-111.842 -1198.148)" fill="#ff931e"/>
      <path id="Path_589" data-name="Path 589" d="M107.423,1246.678a18.335,18.335,0,0,1,0-3.6c.228-.912.479-3.489.091-4.219a2.583,2.583,0,0,1,.524-2.371c.318-.215,2.314-2-.8-4.476,0,0-3.209-1.248-2.981,2.788,0,0-.057,1.756.154,1.756a5.9,5.9,0,0,0-.4,4.218c.593,2.622,1.551,6.225,1.551,6.225S107.195,1247.75,107.423,1246.678Z" transform="translate(-103.544 -1219.848)" fill="#ac653a"/>
      <path id="Path_590" data-name="Path 590" d="M132.529,1245.483a18.335,18.335,0,0,1,0-3.6c.228-.912.479-3.489.091-4.219a2.583,2.583,0,0,1,.524-2.371c.318-.215,2.708-2.081-.41-4.561,0,0-2.212-.73-2.007.73a32.773,32.773,0,0,0,2.8,2.3s-2.508,2.075-1.915,4.7a32.276,32.276,0,0,1,.287,7.13S132.3,1246.555,132.529,1245.483Z" transform="translate(-128.651 -1218.653)" fill="#6a371d"/>
      <path id="Path_591" data-name="Path 591" d="M278.43,1224.5s.137-3.455-.239-3.763-.65-2.859-.547-3.431-1.482,1.492-3.443.786,1.186-6.5,1.8-5.519a18.435,18.435,0,0,1,4.07,1.135c.718.529,1.4.393,1.334,2.035s.513,3.34-.684,5.723c0,0-.675,3.306-.252,3.648S278.874,1225.388,278.43,1224.5Z" transform="translate(-261.975 -1201.773)" fill="#ac653a"/>
      <path id="Path_592" data-name="Path 592" d="M282.839,1241.367s1.266-4.784.889-5.092.376-3.639.479-4.211-4.526,3.055-6.487,2.348,4.2-3.648,4.811-2.668c0,0,.342-2.245,1.06-1.715s1.4.393,1.334,2.035.513,3.34-.684,5.723c0,0-.675,3.306-.252,3.648S283.284,1242.256,282.839,1241.367Z" transform="translate(-265.495 -1218.094)" fill="#6a371d"/>
      <path id="Path_593" data-name="Path 593" d="M175.123,1208.661a5.07,5.07,0,0,1,1.573.365c.342.251-1.665-.844-1.8,5.519a2.331,2.331,0,0,1-2.645.593c-1.824-.547-4.264,1.8-5.085-.274,0,0,2.383,1.016,1.562-1.1s.447,1.387.752,0c.137-.62-.3-1.244.205-1.358s.182.925,1.984,1.358S175.214,1210.554,175.123,1208.661Z" transform="translate(-162.671 -1198.226)" fill="#d37a20"/>
      <g id="Group_722" data-name="Group 722" transform="translate(0 26.019)">
        <path id="Path_594" data-name="Path 594" d="M106.66,1490.537s-.824.285-.958.607-.18.986-1.872.7-1.617-.511-1.617-.511.61-.792,3.16-.551c.164.016.045-1.735.958-1.346C106.564,1489.537,106.764,1490.5,106.66,1490.537Z" transform="translate(-102.049 -1486.246)" fill="#f2f2f2"/>
        <path id="Path_595" data-name="Path 595" d="M103.545,1442.549s1.123,0,.943,2.844a.793.793,0,0,1-.462.721,1.045,1.045,0,0,0-.482.683c-.075.455-.389.834-2.141.493a1.455,1.455,0,0,0-.988.131c-.464.267-.359-.871.24-1.383a4.063,4.063,0,0,0,.9-2.579C101.494,1442.928,102.018,1441.98,103.545,1442.549Z" transform="translate(-100.102 -1442.373)" fill="#d37a20"/>
        <path id="Path_596" data-name="Path 596" d="M103.19,1442.549s-.868-.734-1.047,2.111c0,0,1.037.707.525,1.01a.672.672,0,0,0-.55.526c-.075.455.683,1.435-1.069,1.094a1.455,1.455,0,0,0-.988.131c-.464.267-.359-.871.24-1.383a4.063,4.063,0,0,0,.9-2.579C101.138,1442.928,101.663,1441.98,103.19,1442.549Z" transform="translate(-99.771 -1442.373)" fill="#ff931e"/>
      </g>
      <g id="Group_723" data-name="Group 723" transform="translate(14.719 22.532)">
        <path id="Path_597" data-name="Path 597" d="M323.37,1429.888s-.035-.192-1.724-.706-1.059-1.1-.8-1.248a9.918,9.918,0,0,1,3.313,1.248,8.945,8.945,0,0,0,2.9,1.073c.3-.068.229.671-.981.389S325.333,1430.914,323.37,1429.888Z" transform="translate(-320.515 -1425.396)" fill="#f2f2f2"/>
        <path id="Path_598" data-name="Path 598" d="M328.069,1390.088l-.238.761a7.865,7.865,0,0,1-1.019,1.8,6.7,6.7,0,0,0,1.962.983,4.643,4.643,0,0,1,1.193.614,5.224,5.224,0,0,0,3.039.793s.011.185-.317.318,1.461-.027.616-1.119c0,0-1.18.063-2.262-1.811,0,0-.976-1.194-.945-1.4,0,0-.736-.729-1.009-.385A3.959,3.959,0,0,1,328.069,1390.088Z" transform="translate(-326.392 -1390.088)" fill="#d37a20"/>
        <path id="Path_599" data-name="Path 599" d="M364.575,1399.924c-.328.133,1.461-.027.616-1.119,0,0-1.18.063-2.262-1.811a13.821,13.821,0,0,1-1.051-1.989s-.63-.136-.9.208c0,0,1.069,1.421.67,1.085,0,0-.214-.207-.452.554s1.422,1.379,1.422,1.379-.151.022,1.466.656c0,0,1.049.188.986.837" transform="translate(-358.277 -1394.652)" fill="#ff931e"/>
      </g>
      <path id="Path_600" data-name="Path 600" d="M138.325,1053.555a19.472,19.472,0,0,0,.912,2.759c.182.091,0,1.117,0,1.117l.182.775a7.234,7.234,0,0,0-.547,1.756c-.046.639-1.049.456-1.915,2.645s8.4,2.463,9.554,1.687,1.072-1.779,2.508-2.143c0,0,2.668-.5,3.147-.479s.981-2.052.638-2.782a28.586,28.586,0,0,0-1.915-2.9c-.616-.889-4.355-2.691-4.355-2.691a1.484,1.484,0,0,1-.707-.091c-.205-.137-2.508-1.254-3.717-1S139.192,1053.646,138.325,1053.555Z" transform="translate(-134.424 -1052.173)" fill="#ff931e"/>
      <path id="Path_601" data-name="Path 601" d="M169.118,1107.74a8.573,8.573,0,0,0-1.722.262c.182.091-.065,1.565-.065,1.565l-.261,1.812s2.717.562,3.86.7c3.3.411,4.3,1.392,1.984,1.369-.64-.006-3.58-.644-4.447,1.545s5.049,1.762,6.2.986,1.072-1.779,2.508-2.143c0,0,2.668-.5,3.147-.479s.981-2.052.638-2.782a28.6,28.6,0,0,0-1.915-2.9c-.616-.889.536,3.108.536,3.108s-.1,1.909-.308,1.772a7.263,7.263,0,0,0-2.629.24c-.51.106-5.242-.993-6.6-2.04C168.187,1109.329,169.619,1107.792,169.118,1107.74Z" transform="translate(-162.583 -1103.86)" fill="#d37a20"/>
    </g>
    <g id="Group_725" data-name="Group 725" transform="translate(73.509 1016.451)">
      <path id="Path_602" data-name="Path 602" d="M246.582,1198.437a3.638,3.638,0,0,1,0-3.192s2.942-.183,3.078-.183a22.909,22.909,0,0,1-.319,2.942c-.023.3-.137,1.482-.41,1.665a1.73,1.73,0,0,1-.547,1.551c-.707.5-3.42,1.87-4.287,1.824s-2.714.068-2.486-.365a23.966,23.966,0,0,1,3.192-2.326s.73-1.116,1.437-1.3C246.24,1199.053,246.263,1198.482,246.582,1198.437Z" transform="translate(-230.384 -1186.984)" fill="#6a371d"/>
      <path id="Path_603" data-name="Path 603" d="M249.836,1199.041a3.638,3.638,0,0,1,0-3.192s2.942-.182,3.078-.182a22.921,22.921,0,0,1-.319,2.942c-.023.3-.137,1.482-.411,1.664a1.73,1.73,0,0,1-.547,1.551c-.707.5-3.42,1.87-4.287,1.824s-2.714.068-2.486-.365a23.955,23.955,0,0,1,3.192-2.326s.73-1.116,1.437-1.3C249.494,1199.657,249.516,1199.087,249.836,1199.041Z" transform="translate(-233.42 -1187.548)" fill="#ac653a"/>
      <path id="Path_604" data-name="Path 604" d="M80.484,1077.573s-2.714.935-3.4.73a12.253,12.253,0,0,1-.182,2.622c-.228.661.616,3.808.616,3.808s1.254.205,1.345.479.775.342.844,1.368-.73.593-.73.593-.274,1.14-.821,1.072-1.026-1.094-1.026-1.094-.593-.091-.388.114.981.98.661,1.094a1.426,1.426,0,0,1-1.3-.821,5.79,5.79,0,0,0-.388-1.049c-.182-.3-.114-.775,0-.775a4.37,4.37,0,0,1-.5-1.528c-.023-.935-2.1-4.948-1.642-6.8a.815.815,0,0,1,.479-1.049c.752-.319,3.078-2.235,5.153-2.417C79.207,1073.924,80.347,1076.934,80.484,1077.573Z" transform="translate(-73.509 -1073.924)" fill="#ac653a"/>
      <path id="Path_605" data-name="Path 605" d="M252.45,1196.374a6.044,6.044,0,0,1,.16-3.9,9.539,9.539,0,0,1,.939-.228,25.741,25.741,0,0,1-.3,3.17c-.023.3-.137,1.482-.41,1.664a1.73,1.73,0,0,1-.547,1.551c-.707.5-3.42,1.87-4.287,1.824s-2.714.068-2.486-.365,2.989-.365,2.989-.365a36.8,36.8,0,0,1,3.489-1.619S252.13,1196.42,252.45,1196.374Z" transform="translate(-234.028 -1184.357)" fill="#6a371d"/>
      <path id="Path_606" data-name="Path 606" d="M109.816,1116.88s-2.714.935-3.4.73a12.247,12.247,0,0,1-.182,2.622c-.228.661.616,3.808.616,3.808s1.254.205,1.345.479.775.342.844,1.369-.73.593-.73.593-.274,1.14-.821,1.072-1.026-1.095-1.026-1.095-.7.023-.5.228,1.091.867.771.981a1.427,1.427,0,0,1-1.3-.821c-.182-.5-.048-.972-.388-1.049-.5-.114,1.293,1,3.561-.228.1-.054-2.233-.872-2.256-1.807s-.822-2.753-.366-4.6c0,0-.413-1.528.34-1.847s1.155-1.091,3.23-1.273A3.184,3.184,0,0,1,109.816,1116.88Z" transform="translate(-102.868 -1113.232)" fill="#6a371d"/>
    </g>
    <g id="Group_726" data-name="Group 726" transform="translate(80.657 1028.302)">
      <path id="Path_607" data-name="Path 607" d="M183.015,1268.647s-3.208.137-2.067,4.166c0,0,1.307,2.736,3.74,1.839s-.167-5.594-.167-5.594A1.958,1.958,0,0,0,183.015,1268.647Z" transform="translate(-180.702 -1267.5)" fill="#0e256b"/>
      <path id="Path_608" data-name="Path 608" d="M195.915,1279.6a1.448,1.448,0,0,1-1.475,1,2.834,2.834,0,0,1-2.371-2.843c.091-1.535,1.073-2.426,2.115-2.28S196.28,1279.143,195.915,1279.6Z" transform="translate(-191.307 -1273.876)" fill="#010d3e"/>
      <path id="Path_609" data-name="Path 609" d="M221.449,1258.206s-3.147-1.019-2.8-3.648,1.809-2.888,1.809-2.888a3.593,3.593,0,0,1,2.6.684,3.793,3.793,0,0,1,1.292,3.162C224.185,1256.549,223.987,1258.191,221.449,1258.206Z" transform="translate(-216.096 -1251.647)" fill="#0e256b"/>
      <path id="Path_610" data-name="Path 610" d="M236.136,1262.373a2.447,2.447,0,0,0-2.311-1.961c-1.9.015-2.067,1.444-2.067,1.444a3.321,3.321,0,0,0,1.323,3.633C235.1,1266.858,237.018,1263.726,236.136,1262.373Z" transform="translate(-228.244 -1259.827)" fill="#010d3e"/>
    </g>
    <g id="Group_727" data-name="Group 727" transform="translate(86.586 1012.344)">
      <path id="Path_611" data-name="Path 611" d="M275.921,1016.73a3.936,3.936,0,0,0,.243-1.642c-.106-.73-1.079-2.736-2.706-2.721s-2.28.319-2.828,1.794a4.87,4.87,0,0,0-.456,2.068s-.578.091-.547.912.471,1.11.745.943a3.349,3.349,0,0,0,.258,1.824,7.793,7.793,0,0,1,.9,1.657c0,.167,1.338.821,1.839,0s.623-.487,1.383-1.915a1.72,1.72,0,0,0,.532-1.338C275.268,1017.414,276.043,1017.429,275.921,1016.73Z" transform="translate(-269.627 -1012.365)" fill="#ac653a"/>
      <path id="Path_612" data-name="Path 612" d="M302.534,1016.73a3.935,3.935,0,0,0,.243-1.642c-.106-.73-1.079-2.736-2.706-2.721s2.539,1.323,1.991,2.8-.213,1.429-.213,1.429-2.6-1.16-2.858-.38c-.314.955,2.995,1.231,2.341,2.037,0,0-1.824,1.687-1.414,2.311s-1.779.836-1.779,1,1.338.821,1.839,0,.623-.487,1.383-1.915a1.72,1.72,0,0,0,.532-1.338C301.881,1017.414,302.656,1017.429,302.534,1016.73Z" transform="translate(-296.24 -1012.365)" fill="#6a371d"/>
      <path id="Path_613" data-name="Path 613" d="M276.884,1070.185s.1-.373-.327-.38S277.34,1069.615,276.884,1070.185Z" transform="translate(-276.009 -1065.942)" fill="#6a371d"/>
      <path id="Path_614" data-name="Path 614" d="M273.346,1080.763s-.086.593.2.73S273.939,1081.7,273.346,1080.763Z" transform="translate(-273.087 -1076.201)" fill="#6a371d"/>
      <path id="Path_615" data-name="Path 615" d="M280.481,1014.74a17.963,17.963,0,0,0,3.308,1.282c.454-.073.226-2.741-1.393-3.311s-2.707-.475-3.451.287a4.891,4.891,0,0,0-1.094,3.21s.693-.462.431.94.723-1.791,1.2-1.814S280.276,1015.63,280.481,1014.74Z" transform="translate(-277.303 -1012.344)" fill="#0a0809"/>
    </g>
  </g>
</svg>
