<svg xmlns="http://www.w3.org/2000/svg" xmlns:xlink="http://www.w3.org/1999/xlink" width="281" height="214" viewBox="0 0 281 214">
  <defs>
    <clipPath id="clip-path">
      <rect id="Rectangle_200" data-name="Rectangle 200" width="281" height="214"  fill="#fff"/>
    </clipPath>
  </defs>
  <g id="swimming_header" transform="translate(-109)" clip-path="url(#clip-path)">
    <g id="Group_753" data-name="Group 753" transform="translate(559.22 -1222.757) rotate(43)">
      <path id="Path_921" data-name="Path 921" d="M1637.012,1404.643s5.07,5.37,9.545,8.054,5.966,5.071,7.755-1.491,3.878-11.633,0-17.6-17.3-15.669-20.581-18.871,2.982-11.255-24.459-9.763c0,0,6.374,17.361,4.044,17.042S1631.046,1393.309,1637.012,1404.643Z" transform="translate(-633.282 -142.563)" fill="#eaab78"/>
      <path id="Path_922" data-name="Path 922" d="M1589.517,1268.036s-11.533-1.445-20.681,2.929-30.121,17.873-34.827,16.694-12.5.071-12.5.071l5.568-12.282s2.3-5.984,3.339-8.415,8.193-6.806,16.148-5.613,15.907-6.677,32.214-4.332c0,0,3.182,5.923,6.76,5.923S1596.278,1263.912,1589.517,1268.036Z" transform="translate(-582.408 -79.874)" fill="#eaab78"/>
      <path id="Path_923" data-name="Path 923" d="M1482.842,1301.379s7.556,17.406,4.373,16.2-28.216,12.245-35.395,17.039,0-19.434,0-19.434,4.772-5.568,19.885-9.146C1471.705,1306.042,1481.647,1303.874,1482.842,1301.379Z" transform="translate(-540.16 -105.804)" fill="#ff931e"/>
      <path id="Path_924" data-name="Path 924" d="M1589.517,1278.943s-11.533-1.445-20.681,2.93-30.121,17.873-34.827,16.694-12.5.072-12.5.072l6.164-8.041s12.686-3.112,13.721-5.544,11.931-7.158,19.886-5.965-.6-4.93,15.709-2.585a54.12,54.12,0,0,1,8.55-.994C1589.118,1275.511,1596.278,1274.822,1589.517,1278.943Z" transform="translate(-582.408 -90.783)" fill="#c07a48"/>
      <path id="Path_925" data-name="Path 925" d="M608.139,1252.237s23.265,2.834,39.969,6.067c0,0,11.633,5.938,33.705,2.348,0,0,31.121,7.837,51.8-1.754s13.224-21.26,13.224-21.26-27.441-14.652-34.3,0c0,0-30.01-4.451-34.393,4.653a78.777,78.777,0,0,0-49.423-2.826C601.875,1246.923,598,1247.4,598,1247.4Z" transform="translate(-47.051 -65.079)" fill="#eaab78"/>
      <path id="Path_926" data-name="Path 926" d="M608.139,1261.054s23.265,2.834,39.969,6.067c0,0,11.633,5.938,33.705,2.349,0,0,34.108,7.312,54.788-2.279s-12.134-20.735-12.134-20.735,3.281,1.561-3.58,16.214c0,0-38.27-8.508-42.653.6,0,0-8.948-17.026-35.793-9.57s-44.443,2.52-44.443,2.52Z" transform="translate(-47.051 -73.965)" fill="#c07a48"/>
      <path id="Path_927" data-name="Path 927" d="M1470.363,1311.47s5.807,13.166,2.624,11.964-28.217,12.245-35.395,17.039a12.524,12.524,0,0,1-13.506.628s8.236-16.383,23.35-19.962C1447.437,1321.139,1469.171,1313.966,1470.363,1311.47Z" transform="translate(-525.932 -111.654)" fill="#d37a20"/>
      <g id="Group_752" data-name="Group 752" transform="translate(686.562 1140.583)">
        <path id="Path_928" data-name="Path 928" d="M920.659,1223.434s32.611,30.225,77.551,24.259c0,0,61.644,18.692,72.779,23.862s43.349,9.943,74.768-13.124c0,0,54.882-1.988,61.643,6.363s8.749-5.568,5.568-11.932-31.418-22.668-62.439-17.1c0,0-58.461-29.032-74.37-29.43s-74.866-21.973-74.866-21.973l4.208,11.234s-33.937,6.363-39.5-25.055l-11.932,1.59s0,22.272-3.977,25.852-20.283-2.387-20.283-2.387l-2.386-7.556S928.612,1228.205,920.659,1223.434Z" transform="translate(-920.659 -1170.539)" fill="#ff931e"/>
        <path id="Path_929" data-name="Path 929" d="M920.659,1248.388s32.611,30.226,77.551,24.26c0,0,61.644,18.691,72.779,23.86s43.349,9.943,74.768-13.123c0,0,54.882-1.988,61.643,6.363s10.155,3.339,6.973-3.023-30.04-15.615-61.06-10.047c0,0-20.283,3.579-36.191,3.181s-54.087-9.544-54.087-9.544l7.159,5.171s-22.272,5.567-50.906-5.171l-44.144-9.544s-23.464-19.488-27.442-15.908-17.5.4-17.5.4l-2.784-32.269S928.612,1253.159,920.659,1248.388Z" transform="translate(-920.659 -1195.149)" fill="#d37a20"/>
        <path id="Path_930" data-name="Path 930" d="M1008.795,1250.213s15.908,18,39.372,7.411c0,0,6.231-5.024,7.291-10.194S1045.781,1264.134,1008.795,1250.213Z" transform="translate(-971.751 -1214.644)" fill="#d37a20"/>
        <path id="Path_931" data-name="Path 931" d="M1026.5,1299.043c-3.872,3.586,9.269-16.934-21.8-41.351,0,0,23.642,4.274,26.744,29.83" transform="translate(-969.376 -1221.062)" fill="#d37a20"/>
        <path id="Path_932" data-name="Path 932" d="M1176.337,1278.163s-29.827-13.632-38.179-14.029S1159.054,1252.453,1176.337,1278.163Z" transform="translate(-1045.892 -1223.171)" fill="#d37a20"/>
        <path id="Path_933" data-name="Path 933" d="M1292.523,1371.138s41.759,10.738,53.291,6.762S1316.386,1401.761,1292.523,1371.138Z" transform="translate(-1136.227 -1286.825)" fill="#ff931e"/>
      </g>
      <path id="Path_934" data-name="Path 934" d="M1642.329,1418.079s5.07,5.37,9.544,8.054,5.967,5.071,7.756-1.491-1.69,1.193-5.568-4.772-15.013-19.069-18.294-22.271,10.552-10.933-16.888-9.439c0,0,2.084,7.612-.246,7.293S1636.363,1406.745,1642.329,1418.079Z" transform="translate(-638.601 -156)" fill="#c07a48"/>
      <path id="Path_935" data-name="Path 935" d="M517.839,1280.242l11.036-12.657s22.073-10.7,45.935-9.945-13.721,9.945-13.721,9.945-4.175,8.175-15.51,9.633c0,0-.895,8.615-4.176,8.615s-2.954-7.627,3.58-16.7-24.161,9.333-23.862,13.614S514.259,1284.348,517.839,1280.242Z" transform="translate(0 -80.426)" fill="#eaab78"/>
      <path id="Path_936" data-name="Path 936" d="M521.779,1287.24l17-12.657s-.3-5.593,23.563-4.839.895,4.839.895,4.839-4.176,8.174-15.51,9.634c0,0-.9,8.615-4.176,8.615s.028-5.041,6.562-14.116-27.143,6.746-26.845,11.028S518.2,1291.346,521.779,1287.24Z" transform="translate(-2.151 -87.425)" fill="#c07a48"/>
      <path id="Path_937" data-name="Path 937" d="M1027.986,1156.217s23.961-23.364,49.314,0c0,0,28.038,4.275,39.073,13.223,0,0,15.511,0,31.916,16.406,0,0,21.97,6.452,23.512,16.947,0,0,11.089.219,14.369-1.653s6.45,2.368-2.442,6.811-27.683,1.515-37.825-10c0,0-33.141-5.546-37.15-13.9a135.835,135.835,0,0,1-41.262-6.178s2.419,4.984,0,4.984S1023.113,1189.524,1027.986,1156.217Z" transform="translate(-296.086 -15.634)" fill="#eaab78"/>
      <path id="Path_938" data-name="Path 938" d="M1027.986,1170.539s10.24,33.8,34.7,17.843c0,0,33.407-5.129,44.443,3.819,0,0,10.44,5.191,38.18,15.423,0,0,21.723,3.13,23.266,13.624,0,0,16.469-.3,19.751-2.178s4.3-1.24-4.6,3.2-27.683,1.514-37.825-10c0,0-33.337-3.938-37.348-12.291a181.762,181.762,0,0,1-41.064-7.783s2.419,4.984,0,4.984S1023.113,1203.847,1027.986,1170.539Z" transform="translate(-296.086 -29.956)" fill="#c07a48"/>
      <path id="Path_939" data-name="Path 939" d="M881.99,1119.8s32.512-8.2,29.53,23.862-43.25,9.1-43.25,9.1-9.544-.6-2.833-20.432C865.436,1132.33,867.673,1124.874,881.99,1119.8Z" transform="translate(-200.697 0)" fill="#ff931e"/>
      <path id="Path_940" data-name="Path 940" d="M935.729,1160.724s-15.212-4.176-17-1.491c0,0,2.088-7.755-3.58-11.931s-6.33.9-6.147,3.878c0,0-26.663-3.58-33.523,14.316,0,0,0,6.554,6.264,8.5l.6,6.417a5.074,5.074,0,0,0,4.772.746s.671,2.162,1.939,2.685-.3,2.609,2.685,3.5c0,0-.149,6.846,5.146,6.964s16.032-5.354,16.7-11.3l2.088,4.416S932.894,1190.254,935.729,1160.724Z" transform="translate(-207.904 -15.568)" fill="#eaab78"/>
      <path id="Path_941" data-name="Path 941" d="M927.313,1198.813s-30.062,3.071-31.851,5.756a18.4,18.4,0,0,0-6.712-10.948c-5.667-4.176,3.248-16.642,3.43-13.658,0,0-9.843-16.556-16.7,1.341,0,0,0,6.555,6.264,8.5l.6,6.418a5.072,5.072,0,0,0,4.772.745s.671,2.162,1.939,2.685-.3,2.609,2.685,3.5c0,0-.149,6.846,5.146,6.965s16.032-5.354,16.7-11.3l2.088,4.415S924.479,1228.341,927.313,1198.813Z" transform="translate(-207.904 -31.374)" fill="#c07a48"/>
      <path id="Path_942" data-name="Path 942" d="M874.413,1199.622s-3.43,5.21,2.237,6.855,4.177,0,4.177,0l.177-5.221S879.483,1197.385,874.413,1199.622Z" transform="translate(-206.691 -46.412)" fill="#f2f2f2"/>
      <path id="Path_943" data-name="Path 943" d="M880.341,1208.384s3.317-2.694,3.81-4.182.642,5.952.642,5.952a6.954,6.954,0,0,1-5-.731C877.3,1207.976,880.341,1208.384,880.341,1208.384Z" transform="translate(-209.838 -49.357)" fill="#ccc"/>
      <path id="Path_944" data-name="Path 944" d="M923.714,1211.372s1.79-4.175,1.938,2.237,2.237-5.221,2.237-5.221S923.416,1209.433,923.714,1211.372Z" transform="translate(-235.859 -51.898)" fill="#c07a48"/>
      <path id="Path_945" data-name="Path 945" d="M959.926,1155.023s.6-3.729,3.58-.746-.149,4.574,0,6.164-.2-5.418-1.144-5.418Z" transform="translate(-256.859 -19.859)" fill="#c07a48"/>
      <path id="Path_946" data-name="Path 946" d="M891.24,1189.191s-1.492-8.053,9.1-9.545c0,0,4.574,1.642,3.182,8.2S889.6,1191.429,891.24,1189.191Z" transform="translate(-216.957 -35.236)" fill="#f2f2f2"/>
      <path id="Path_947" data-name="Path 947" d="M919.342,1168.577s10.411-12.446,14.533-13.632c0,0,2.4-5.812-15.486,11.636" transform="translate(-232.78 -20.378)" fill="#f2f2f2"/>
      <path id="Path_948" data-name="Path 948" d="M900.607,1189.191s4.921.373,2.088-9.545c0,0,4.354,1.075,3.035,8.74,0,0-.955,4.012-8.035,3.34S900.607,1189.191,900.607,1189.191Z" transform="translate(-219.314 -35.236)" fill="#ccc"/>
    </g>
  </g>
</svg>
