<svg xmlns="http://www.w3.org/2000/svg" width="60.832" height="18.5" viewBox="0 0 60.832 18.5">
  <g id="Group_753" data-name="Group 753" transform="translate(-516.834 -1118.863)">
    <path id="Path_921" data-name="Path 921" d="M1612.6,1369.578a6.794,6.794,0,0,0,1.147.967c.537.323.717.609.932-.179s.466-1.4,0-2.114a19.07,19.07,0,0,0-2.472-2.267c-.394-.385.358-1.352-2.938-1.173,0,0,.766,2.086.486,2.047S1611.887,1368.216,1612.6,1369.578Z" transform="translate(-1037.279 -233.51)" fill="#eaab78"/>
    <path id="Path_922" data-name="Path 922" d="M1529.679,1258.016a5.128,5.128,0,0,0-2.484.352c-1.1.526-3.618,2.147-4.184,2.005a4.8,4.8,0,0,0-1.5.009l.669-1.475s.277-.719.4-1.011a2.084,2.084,0,0,1,1.94-.674c.955.143,1.911-.8,3.87-.52,0,0,.382.712.812.712S1530.491,1257.521,1529.679,1258.016Z" transform="translate(-953.948 -130.828)" fill="#eaab78"/>
    <path id="Path_923" data-name="Path 923" d="M1452.739,1301.378s.908,2.091.525,1.947-3.39,1.471-4.252,2.047,0-2.335,0-2.335a4.676,4.676,0,0,1,2.389-1.1S1452.6,1301.678,1452.739,1301.378Z" transform="translate(-884.748 -173.299)" fill="#ff931e"/>
    <path id="Path_924" data-name="Path 924" d="M1529.679,1275.885a5.127,5.127,0,0,0-2.484.352c-1.1.526-3.618,2.147-4.184,2.005a4.8,4.8,0,0,0-1.5.009l.74-.966s1.524-.374,1.648-.666a3.166,3.166,0,0,1,2.389-.717c.955.143-.072-.592,1.887-.311a6.5,6.5,0,0,1,1.027-.119C1529.631,1275.472,1530.491,1275.39,1529.679,1275.885Z" transform="translate(-953.948 -148.697)" fill="#c07a48"/>
    <path id="Path_925" data-name="Path 925" d="M599.215,1233.662s2.795.34,4.8.729a7.033,7.033,0,0,0,4.049.282s3.738.941,6.223-.211,1.589-2.554,1.589-2.554-3.3-1.76-4.121,0c0,0-3.605-.535-4.132.559a9.463,9.463,0,0,0-5.937-.339c-3.225.9-3.691.953-3.691.953Z" transform="translate(-77.065 -106.595)" fill="#eaab78"/>
    <path id="Path_926" data-name="Path 926" d="M599.215,1248.209s2.795.34,4.8.729a7.034,7.034,0,0,0,4.049.282s4.1.878,6.582-.274-1.458-2.491-1.458-2.491.394.188-.43,1.948c0,0-4.6-1.022-5.124.072,0,0-1.075-2.045-4.3-1.15a10.777,10.777,0,0,1-5.339.3Z" transform="translate(-77.065 -121.149)" fill="#c07a48"/>
    <path id="Path_927" data-name="Path 927" d="M1429.645,1311.469s.7,1.582.315,1.437-3.39,1.471-4.252,2.047a1.5,1.5,0,0,1-1.622.075,4.916,4.916,0,0,1,2.8-2.4A13.486,13.486,0,0,0,1429.645,1311.469Z" transform="translate(-861.444 -182.881)" fill="#d37a20"/>
    <g id="Group_752" data-name="Group 752" transform="translate(537.223 1121.472)">
      <path id="Path_928" data-name="Path 928" d="M920.658,1176.893a12.412,12.412,0,0,0,9.316,2.914s7.405,2.245,8.743,2.867a9.534,9.534,0,0,0,8.982-1.577s6.593-.239,7.405.764,1.051-.669.669-1.433-3.774-2.723-7.5-2.054c0,0-7.023-3.488-8.934-3.535s-8.994-2.64-8.994-2.64l.506,1.35s-4.077.764-4.746-3.01l-1.433.191s0,2.676-.478,3.105-2.437-.287-2.437-.287l-.287-.908S921.614,1177.466,920.658,1176.893Z" transform="translate(-920.658 -1170.539)" fill="#ff931e"/>
      <path id="Path_929" data-name="Path 929" d="M920.658,1217.243a12.412,12.412,0,0,0,9.316,2.914s7.405,2.245,8.743,2.866a9.534,9.534,0,0,0,8.982-1.577s6.593-.239,7.405.764,1.22.4.838-.363-3.609-1.876-7.335-1.207a26.437,26.437,0,0,1-4.348.382,48.61,48.61,0,0,1-6.5-1.146l.86.621a11.185,11.185,0,0,1-6.115-.621l-5.3-1.147s-2.819-2.341-3.3-1.911-2.1.048-2.1.048l-.334-3.876S921.614,1217.816,920.658,1217.243Z" transform="translate(-920.658 -1210.848)" fill="#d37a20"/>
      <path id="Path_930" data-name="Path 930" d="M1008.8,1247.052a4.121,4.121,0,0,0,4.73.89,2.746,2.746,0,0,0,.876-1.225C1014.528,1246.1,1013.238,1248.724,1008.8,1247.052Z" transform="translate(-1004.345 -1242.779)" fill="#d37a20"/>
      <path id="Path_931" data-name="Path 931" d="M1007.317,1262.659c-.465.431,1.114-2.034-2.619-4.967a4.121,4.121,0,0,1,3.213,3.583" transform="translate(-1000.455 -1253.292)" fill="#d37a20"/>
      <path id="Path_932" data-name="Path 932" d="M1141.452,1263.352a25.906,25.906,0,0,0-4.586-1.685C1135.862,1261.619,1139.376,1260.263,1141.452,1263.352Z" transform="translate(-1125.782 -1256.745)" fill="#d37a20"/>
      <path id="Path_933" data-name="Path 933" d="M1292.523,1371.138s5.016,1.29,6.4.812S1295.39,1374.817,1292.523,1371.138Z" transform="translate(-1273.747 -1361.01)" fill="#ff931e"/>
    </g>
    <path id="Path_934" data-name="Path 934" d="M1621.314,1391.586a6.8,6.8,0,0,0,1.146.967c.538.323.717.609.932-.179s-.2.143-.669-.573a25.633,25.633,0,0,0-2.2-2.675c-.394-.385,1.268-1.313-2.029-1.134,0,0,.25.915-.03.876S1620.6,1390.224,1621.314,1391.586Z" transform="translate(-1045.99 -255.518)" fill="#c07a48"/>
    <path id="Path_935" data-name="Path 935" d="M516.955,1260.322l1.326-1.521a13.371,13.371,0,0,1,5.518-1.195c2.867.091-1.648,1.195-1.648,1.195a2.454,2.454,0,0,1-1.863,1.157s-.107,1.035-.5,1.035-.355-.916.43-2.006-2.9,1.121-2.867,1.635S516.525,1260.815,516.955,1260.322Z" transform="translate(0 -131.733)" fill="#eaab78"/>
    <path id="Path_936" data-name="Path 936" d="M520.692,1271.784l2.042-1.521s-.036-.672,2.831-.581.107.581.107.581a2.454,2.454,0,0,1-1.863,1.157s-.107,1.035-.5,1.035,0-.606.788-1.7-3.261.81-3.225,1.325S520.262,1272.277,520.692,1271.784Z" transform="translate(-3.522 -143.196)" fill="#c07a48"/>
    <path id="Path_937" data-name="Path 937" d="M1027.64,1147.08a4.232,4.232,0,0,1,5.924,0s3.368.514,4.694,1.589a5.966,5.966,0,0,1,3.834,1.971s2.639.775,2.824,2.036a5.5,5.5,0,0,0,1.726-.2c.394-.225.775.284-.293.818a4.363,4.363,0,0,1-4.544-1.2s-3.981-.666-4.463-1.669a16.316,16.316,0,0,1-4.957-.742s.291.6,0,.6S1027.054,1151.081,1027.64,1147.08Z" transform="translate(-484.97 -25.607)" fill="#eaab78"/>
    <path id="Path_938" data-name="Path 938" d="M1027.64,1170.539s1.23,4.061,4.168,2.143c0,0,4.013-.616,5.339.459,0,0,1.254.624,4.587,1.853,0,0,2.609.376,2.795,1.637a10.383,10.383,0,0,0,2.373-.262c.394-.225.516-.149-.552.385a4.363,4.363,0,0,1-4.544-1.2s-4-.473-4.487-1.477a21.831,21.831,0,0,1-4.933-.935s.291.6,0,.6S1027.054,1174.54,1027.64,1170.539Z" transform="translate(-484.97 -49.067)" fill="#c07a48"/>
    <path id="Path_939" data-name="Path 939" d="M865.32,1118.976s3.906-.985,3.547,2.867-5.2,1.093-5.2,1.093-1.147-.072-.34-2.454C863.332,1120.481,863.6,1119.585,865.32,1118.976Z" transform="translate(-328.73 0)" fill="#ff931e"/>
    <path id="Path_940" data-name="Path 940" d="M882.714,1147.521s-1.827-.5-2.042-.179a1.419,1.419,0,0,0-.43-1.433c-.681-.5-.76.108-.739.466,0,0-3.2-.43-4.027,1.72a1.1,1.1,0,0,0,.752,1.021l.072.771a.609.609,0,0,0,.573.09s.081.26.233.323-.036.313.323.421c0,0-.018.822.618.837s1.926-.643,2.007-1.358l.251.53S882.374,1151.069,882.714,1147.521Z" transform="translate(-340.534 -25.499)" fill="#eaab78"/>
    <path id="Path_941" data-name="Path 941" d="M881.7,1176.088s-3.611.369-3.826.692a2.21,2.21,0,0,0-.806-1.315c-.681-.5.39-2,.412-1.641,0,0-1.182-1.989-2.007.161a1.1,1.1,0,0,0,.752,1.021l.072.771a.609.609,0,0,0,.573.089s.081.26.233.323-.036.313.323.421c0,0-.018.822.618.837s1.926-.643,2.007-1.358l.251.53S881.363,1179.635,881.7,1176.088Z" transform="translate(-340.534 -51.39)" fill="#c07a48"/>
    <path id="Path_942" data-name="Path 942" d="M873.507,1199.01s-.412.626.269.823.5,0,.5,0l.021-.627S874.116,1198.741,873.507,1199.01Z" transform="translate(-338.547 -76.021)" fill="#f2f2f2"/>
    <path id="Path_943" data-name="Path 943" d="M879,1204.531s.4-.324.458-.5.077.715.077.715a.835.835,0,0,1-.6-.088C878.63,1204.482,879,1204.531,879,1204.531Z" transform="translate(-343.701 -80.843)" fill="#ccc"/>
    <path id="Path_944" data-name="Path 944" d="M923.7,1208.746s.215-.5.233.269.269-.627.269-.627S923.665,1208.513,923.7,1208.746Z" transform="translate(-386.322 -85.004)" fill="#c07a48"/>
    <path id="Path_945" data-name="Path 945" d="M959.926,1153.35s.072-.448.43-.09-.018.549,0,.74-.024-.651-.137-.651Z" transform="translate(-420.72 -32.528)" fill="#c07a48"/>
    <path id="Path_946" data-name="Path 946" d="M891.11,1180.793s-.179-.967,1.093-1.147c0,0,.549.2.382.985S890.913,1181.061,891.11,1180.793Z" transform="translate(-355.362 -57.714)" fill="#f2f2f2"/>
    <path id="Path_947" data-name="Path 947" d="M918.5,1155.765s1.251-1.5,1.746-1.638c0,0,.288-.7-1.86,1.4" transform="translate(-381.279 -33.378)" fill="#f2f2f2"/>
    <path id="Path_948" data-name="Path 948" d="M895.813,1180.793s.591.045.251-1.147c0,0,.523.129.365,1.05,0,0-.115.482-.965.4S895.813,1180.793,895.813,1180.793Z" transform="translate(-359.223 -57.714)" fill="#ccc"/>
  </g>
</svg>
