<svg xmlns="http://www.w3.org/2000/svg" width="336.902" height="300.529" viewBox="0 0 336.902 300.529">
  <g id="trainer" transform="translate(-2100.861 -2915.864)">
    <g id="Group_798" data-name="Group 798" transform="translate(2216.67 2915.864)" opacity="0.45">
      <path id="Path_1139" data-name="Path 1139" d="M2535.584,3054.569s.2-5.318,0-6.4,1.562-7.135,7.288-9.152,2.994.29,7.745-.832,5.4,6.363,5.4,6.363l-9.24,14.642Z" transform="translate(-2425.5 -2974.658)" fill="#7c4c32"/>
      <path id="Path_1140" data-name="Path 1140" d="M2535.584,3054.673s.2-5.318,0-6.4,1.562-7.135,7.288-9.152,2.994.289,7.745-.831-2.9,3.778-2.9,3.778l-12.135,6.206Z" transform="translate(-2425.5 -2974.684)" fill="#593c26"/>
      <path id="Path_1141" data-name="Path 1141" d="M2525.9,2955.18s1.172,9.384.911,10.907,2.863,27.487,1.952,28.4-2.864,3.387-2.864,3.387l11.641-2.6,5.734-3.541s-5.338,1.613-5.988.623-2.8-2.812-4.1-1.576l.456-22.58,8.914,16.008,4.426-2.458s-5.467-4.918-7.224-11.121a56.85,56.85,0,0,0-5.66-12.454s-12.429-35.722-12.56-36.893-3.124,0-3.124,0S2525.9,2952.576,2525.9,2955.18Z" transform="translate(-2417.248 -2918.217)" fill="#050505"/>
      <path id="Path_1142" data-name="Path 1142" d="M2358.129,3275.6s1.662-11.716,1.473-13.473-10.266-44.436-7.57-48.768c0,0-3.949-12.922-4.825-13.7s-2.242-8.981,2.248-13.861,13.86-21.669,13.86-21.669,9.371-25.881,37.288-40.76c0,0,2.277-1.279,6.9-8.176s13.535-7.614,13.535-7.614,19.2-3.9,26.94,2.864,11.518,6.567,13.861,16.266c0,0-4.034,1.955-3.579,6.054s4.512,18.459-12.321,24.533c0,0-10.845,7.809-12.147,8.07s-18.048,27.07-25.205,30.106-1.779,14.577-1.779,14.577,6.074,18.22,3.645,27.765-4.512,42.6-4.512,42.6l-.78,2.117-14.165-1.742-.586-4.54s2.776-9.718,2-11.8-1.823-22.646-3.557-27.677-3.384-20.762-3.384-20.762-3.274-18.717-4.067-19.671-.312-3.471-.312-3.471-2.055-4.25,3.114-13.535,17.489-28.372,17.489-28.372l6.9-10.758-26.68,42.428-.173,9.023s-9.718,4.946-9.718,15.011,5.553-.607,4.165,32.971-.26,39.912-.26,39.912l-11.887-1.128Z" transform="translate(-2334.445 -3007.559)" fill="#593c26"/>
      <path id="Path_1143" data-name="Path 1143" d="M2358.129,3275.6s1.662-11.716,1.473-13.473-10.266-44.436-7.57-48.768c0,0-3.949-12.922-4.825-13.7s-2.242-8.981,2.248-13.861,13.86-21.669,13.86-21.669,9.371-25.881,37.288-40.76c0,0,2.277-1.279,6.9-8.176s13.535-7.614,13.535-7.614,19.2-3.9,26.94,2.864,11.518,6.567,13.861,16.266c0,0-4.034,1.955-3.579,6.054s4.512,18.459-12.321,24.533c0,0-10.845,7.809-12.147,8.07s-18.048,27.07-25.205,30.106-1.779,14.577-1.779,14.577,6.074,18.22,3.645,27.765-12.053,20.763-12.053,20.763l-.772,22.213h-6.631l-.586-4.54s2.776-9.718,2-11.8-1.823-22.646-3.557-27.677-3.384-20.762-3.384-20.762-3.274-18.717-4.067-19.671-.312-3.471-.312-3.471-2.055-4.25,3.114-13.535,17.489-28.372,17.489-28.372l6.9-10.758-26.68,42.428-.173,9.023s-20.654-.954-20.654,9.111,6.737,1.041,5.349,34.619-1.658,41.126-1.658,41.126l-.737,1.909Z" transform="translate(-2334.445 -3007.559)" fill="#7c4c32"/>
      <path id="Path_1144" data-name="Path 1144" d="M2576.408,3050.728l-12.3-9.671s-9.371-17.992-23.427-3.351c0,0-27.137-8.98-28.113,10.347,0,0-7.87-2.67-29.087,16.593l-16.442,12.87s40.649,1.934,44.327,6.424a28.008,28.008,0,0,0,8.329,6.768s4.066-6.736,10.964-5.7,17.44-.389,23.817.651,21.735-4.684,21.93-19S2576.408,3050.728,2576.408,3050.728Z" transform="translate(-2392.531 -2971.722)" fill="#7c4c32"/>
      <path id="Path_1145" data-name="Path 1145" d="M2491.747,3082.438s5.818-13.444,24.923-18.546,28.7-12.02,26.941-15.38-41.518,7.116-41.518,7.116l-2.863,3.388s-29.869,22.381-35.6,27.978S2491.747,3082.438,2491.747,3082.438Z" transform="translate(-2390.578 -2979.362)" fill="#593c26"/>
      <path id="Path_1146" data-name="Path 1146" d="M2674.794,3046.786s-7.006.226-7.6,3.79-21.486-8.7-21.486-8.7l3.84-6.8,27.635-1.953,5.422,1.627-4.425,12.363Z" transform="translate(-2478.486 -2972.277)" fill="#7c4c32"/>
      <path id="Path_1147" data-name="Path 1147" d="M2359.6,3262.127h0c-.19-1.757-10.266-44.436-7.57-48.768,0,0-3.949-12.922-4.825-13.7s-2.242-8.981,2.248-13.861,13.86-21.669,13.86-21.669,9.371-25.881,37.288-40.76c0,0,2.277-1.279,6.9-8.176s13.535-7.614,13.535-7.614,19.2-3.9,26.94,2.864,11.518,6.567,13.861,16.266c0,0-4.034,1.955-3.579,6.054s4.512,18.459-12.321,24.533c0,0-10.845,7.809-12.147,8.07s-18.048,27.07-25.205,30.106-1.779,14.577-1.779,14.577,6.074,18.22,3.645,27.765-3.413,27.769-3.413,27.769h0l-8.9.429-5.735-1.562h0c-.781-2.082-1.823-22.646-3.557-27.677s-3.384-20.762-3.384-20.762-3.274-18.717-4.067-19.671-.312-3.471-.312-3.471-2.055-4.25,3.114-13.535,17.489-28.372,17.489-28.372l6.9-10.758-26.68,42.428-.173,9.023s-9.718,4.946-9.718,15.011,5.553-.607,4.165,32.971-.669,23.512-.669,23.512l-10.958-.087Z" transform="translate(-2334.445 -3007.559)" fill="#010d33"/>
      <path id="Path_1148" data-name="Path 1148" d="M2676.321,3015.2s3.731.374,4.165,2.413.129,3.514-1.258,4.382a7.185,7.185,0,0,1-5.944.433c-1.865-.824-1.431-1.6-2.472-1.952s-1.778-1.259-1.736-1.866-.129,2.169-2.342,2.472-20.564-.3-20.564-.3-2.082-5.118-1.648-5.943,3.037-2.776,3.037-3.383,1.258-3.21,2.082-3.3,6.377.087,6.291,2.733c0,0-1.432-5.38-4.339-3.644s-.651-1.909-.651-1.909l2.473-1.128a33.456,33.456,0,0,1,.821-4.121c.264-.433.7-1.562,2.78-1s3.481-1.257,3.845-1.257,6.567-3.731,11.339-3.21,10.672,7.028,10.672,7.028l.781,5.075-1.258,8.476Z" transform="translate(-2477.889 -2953.728)" fill="#7c4c32"/>
      <path id="Path_1149" data-name="Path 1149" d="M2359.6,3263.167h0c-.19-1.757-10.266-44.437-7.57-48.768,0,0-3.949-12.922-4.825-13.7s-2.242-8.98,2.248-13.861,13.86-21.669,13.86-21.669,9.371-25.879,37.288-40.759c0,0,2.277-1.278,6.9-8.176s13.535-7.614,13.535-7.614-21.589,24.97-13.845,31.737,38.183-28.941,40.525-19.243c0,0,4.621,6.443,5.076,10.542.35,3.143,5.043,10.025-2.916,14.8a18.7,18.7,0,0,1-16.734,1.207c-3.273-1.347-6.544-2.6-7.16-2.472-1.3.26-23.469,34.837-30.627,37.873s-2.083,21.865-2.083,21.865,7.9,19,5.466,28.546-.584,33.148-.584,33.148l-.528.455.514-.025-5.735-1.561h0c-.781-2.083-1.823-22.647-3.557-27.678s-3.384-20.762-3.384-20.762-3.274-18.717-4.067-19.671-.312-3.47-.312-3.47-2.055-4.252,3.114-13.536S2401.688,3152,2401.688,3152l5.5-11.646c1.175-3.056,2.148-2.471,0,0L2369.5,3167.53l-18.915,25.248a22.078,22.078,0,0,1,7.375,16.052c0,10.065,4.685-5.293,3.3,28.285l3.3,26.984h0Z" transform="translate(-2334.445 -3008.598)" fill="#122a68"/>
      <path id="Path_1150" data-name="Path 1150" d="M2562.137,3047.054s5.922-.134,6.963-.176,13.535,2.69,14.186,19.349-7.271,17.583-16.338,19.637c0,0,19.652-.9,23.432-.777a5.384,5.384,0,0,0,2.152.039c1.166-.222,6.437-2.314,9.365-8.751a26.535,26.535,0,0,0,2.408-12.164l5.727-16.4s3.839.651,5.726,2.148,1.958-.119,1.958-.119-7.293-4.236-8.335-3.718-4.608-12.759-15.156-14.32-13.151,6.379-13.672,6.444-24.99-13.926-25.77,9.631Z" transform="translate(-2434.743 -2971.544)" fill="#010d33"/>
      <path id="Path_1151" data-name="Path 1151" d="M2568.956,3047.054s24.6-6.317,25.639-6.36,2.134,9.524,2.784,26.183,13.506,12.557,4.439,14.611a33.006,33.006,0,0,0,6.963,1.007s-10.6,2.852-9.429,2.63,6.436-2.314,9.365-8.751a26.556,26.556,0,0,0,2.408-12.164l5.726-16.4s3.839.651,5.726,2.148,1.958-.119,1.958-.119-7.293-4.236-8.334-3.718-4.608-12.759-15.156-14.32-13.151,6.379-13.673,6.444-16.072-9.152-15.52,1.785Z" transform="translate(-2441.563 -2971.544)" fill="#122a68"/>
      <path id="Path_1152" data-name="Path 1152" d="M2709.09,3020.116s3.211-9.478-3.21-17.026-9.718-9.068-15.661-8.721c0,0,5.163,1.172,4.989,2.082s.738,5.065,1.475,5.31.2,3.453.9,4.625-3.45,4.642-3.5,6.767a3.661,3.661,0,0,0,1.079,2.994s3.433-1.432,4.1.477.757,2.733-.675,4.425-5.771-.086-6.552,0-1.735-1.033-1.388-1.666-10.628,4.233-3.774,11.279c0,0-3.3,4.53-1.128,5.788s7.375,2.17,9.154,1.476,7.375-4.447,7.288-5.8.868-.627.868-.627-4.729,9.817-4.642,12.635,5.987,3.859,6.334,2.47,2.342-4.337,4.685-4.424,4.686-1.342,4.512-3.014,1.562-3.581,2.863-4.015,1.562-3.4,1.475-3.652-3.211-2.856-2.6-5.285-8.59-.434-8.59-.434S2708.673,3021.8,2709.09,3020.116Z" transform="translate(-2497.21 -2953.612)" fill="#050505"/>
      <path id="Path_1153" data-name="Path 1153" d="M2636.24,3118.228s3.775,5.007,4.166,6.83,5.9,4.946,11.474-5.076a57.253,57.253,0,0,0,6.617-19.262s2.342-7.809,4.294-9.371,3.514-18.741-.52-22.255-10.664-3.473-11.384-2.723-6.317,8.892-6.317,8.892l-.26,3.331s-2.863,0-4.034,5.6c0,0-5.336-17.165-6.117-17.108s-10.151-.853-10.411,1.23,3.253,8.219,2.212,9.38,3.126,4.938,3.124,13.656S2630.644,3111.529,2636.24,3118.228Z" transform="translate(-2467.916 -2988.077)" fill="#7c4c32"/>
      <path id="Path_1154" data-name="Path 1154" d="M2652.673,3099.027s.566-10.542.957-8.719.093-1.69,5.667-11.711,9.951,2.471,9.951,2.471,0,11.843,1.952,10.282,3.515-18.741-.52-22.255-10.662-3.473-11.383-2.723-6.317,8.892-6.317,8.892l-.26,3.331s-2.864,0-4.034,5.6c0,0-5.336-17.165-6.117-17.108s-1.077-1.1-1.337.984,2.71,8.464,1.669,9.626,2.925,3.238,2.922,11.954S2647.077,3092.328,2652.673,3099.027Z" transform="translate(-2476.327 -2988.077)" fill="#593c26"/>
      <path id="Path_1155" data-name="Path 1155" d="M2592.958,3051.318s-2.6,8.329-1.107,10.151,7.163,3.188,12.009,4.945a30.371,30.371,0,0,0,9.856,1.627l11.582-3.9s2.966-5.372,2.134-9.746-2-10.3-7.729-10.361-.13,3.091-.13,3.091a2.507,2.507,0,0,1,.716,1.8c0,1.163,5.465,1.748,3.774,14.047,0,0-8.98,4.314-11.713,4.175s-5.141-.6-5.792-.6-7.613-5.791-10.542-12.494S2592.958,3051.318,2592.958,3051.318Z" transform="translate(-2452.354 -2977.526)" fill="#050505"/>
      <path id="Path_1156" data-name="Path 1156" d="M2595.372,2988.877s-14.2,3.651-14.021,4.018-3.484-4.6-3.484-4.6-1.578-15.1-1.375-15.812-.2-14.511,0-15.879.59-4.555-.059-5.791-10.67-22.516-10.67-22.516l-5.336-8.784,1.042-3.645,18.09,35.986s-1.171,7.874-.585,12.038-.26,22.646.455,22.646,20.174-6.963,20.174-6.963-19.718-24.892-21.279-25.181-.131-4.231-.131-4.231,2.8,2.668,2.994,3.97,14.056,16.4,15.357,17.244,8.4,9.565,8.4,11.387-.13,3.059-1.237,3.579S2595.372,2988.877,2595.372,2988.877Z" transform="translate(-2437.459 -2915.864)" fill="#050505"/>
      <path id="Path_1157" data-name="Path 1157" d="M2624.125,3040.569s4.493,2.877,4.361,4.544-2.409,6.749-2.409,6.749l-8.91,6.546s-2.348-5.38-4.821-7.041-3.623-10.121-3.623-10.121l-1.75.6s-.375-3.258,1.208-3.987,3.9-.781,4.36-1.432,2.705-.846,3.109-1.236a6.82,6.82,0,0,1,2.813-.846c.585,0,3.6.3,4.165,0s2.788,1.906,2.473,4.1c0,0,1.3,4.3,1.041,5.271S2624.125,3040.569,2624.125,3040.569Z" transform="translate(-2459.834 -2972.855)" fill="#7c4c32"/>
      <path id="Path_1158" data-name="Path 1158" d="M2670.7,3016.316s3.9.607,3.124,1.735-4.078,1.952-4.078,1.952S2671.868,3016.576,2670.7,3016.316Z" transform="translate(-2490.051 -2964.192)" fill="#593c26"/>
      <path id="Path_1159" data-name="Path 1159" d="M2678.235,3004.872s.3,3.427-.325,3.08,3.015.868,3.015.868.607-4.295,0-4.425S2678.5,3004.351,2678.235,3004.872Z" transform="translate(-2493.946 -2958.431)" fill="#593c26"/>
      <path id="Path_1160" data-name="Path 1160" d="M2665.144,3009.592s-.044-2.473.434-2.473,1.6,2.473,1.041,2.473-.541-.563-.662-.217S2665.664,3010.026,2665.144,3009.592Z" transform="translate(-2487.838 -2959.768)" fill="#593c26"/>
      <path id="Path_1161" data-name="Path 1161" d="M2702.59,3040.143s.694,2.733-.65,2.559-1.041-2.559-1.865-2.559,1.177,1.96,1.348,1.283S2702.59,3040.143,2702.59,3040.143Z" transform="translate(-2504.549 -2975.656)" fill="#593c26"/>
      <path id="Path_1162" data-name="Path 1162" d="M2706.361,3037.5s2.647,2.038,2.3,2.359-1.084,1.97-1.562,1.97,2.95-.233,2.6-3.254S2706.361,3037.5,2706.361,3037.5Z" transform="translate(-2507.669 -2974.087)" fill="#593c26"/>
      <path id="Path_1163" data-name="Path 1163" d="M2674.016,3001.979s-1.243-.613.424-1.834,4.808-.444,4.808-.444a6.308,6.308,0,0,0,3.3,3.023,25.632,25.632,0,0,0-3.16-1.575C2678.673,3000.967,2675.4,3002.367,2674.016,3001.979Z" transform="translate(-2491.893 -2956.081)"/>
      <path id="Path_1164" data-name="Path 1164" d="M2682.042,3012.117s-2.57-3.552-5.21-1.985S2678.15,3006.067,2682.042,3012.117Z" transform="translate(-2493.051 -2960.789)"/>
      <path id="Path_1165" data-name="Path 1165" d="M2623.6,3038.124s1.628-1.34,1.5.325-5.531,1.563-5.531,1.563l-7.1,4.557s2.348,8.458-.125,6.8-3.623-10.121-3.623-10.121l-1.75.6s-.375-3.258,1.208-3.987,3.9-.781,4.36-1.432,2.705-.846,3.109-1.236a6.82,6.82,0,0,1,2.813-.846c.585,0,3.6.3,4.165,0s2.788,1.906,2.473,4.1c0,0-1.888-2.082-2.147-1.106S2623.6,3038.124,2623.6,3038.124Z" transform="translate(-2459.834 -2972.855)" fill="#593c26"/>
      <path id="Path_1166" data-name="Path 1166" d="M2412.118,3470.414s.516-.958,11.2-1.178,7.957-4.2,6.7-5.379-18.6.442-21.348,1.695-17.036,2.169-18.657,1.381-2.431,3.187,5.084,3.482S2399,3472.918,2412.118,3470.414Z" transform="translate(-2354.951 -3179.309)" fill="#f2f2f2"/>
      <path id="Path_1167" data-name="Path 1167" d="M2350.935,3468.575s.515-.957,11.2-1.177,7.957-4.2,6.7-5.379-18.6.442-21.348,1.694-17.036,2.169-18.657,1.38-2.432,3.188,5.083,3.482S2337.821,3471.081,2350.935,3468.575Z" transform="translate(-2325.516 -3178.425)" fill="#f2f2f2"/>
      <path id="Path_1168" data-name="Path 1168" d="M2362.893,3433.762s3.168-1.327,3.315,3.021,0,10.314,0,10.314-2.579,1.326-13.04,2.283a30.922,30.922,0,0,0-7.958,1.473c-4.346,1.4-8.251,1.695-19.007-.295,0,0-.369.959,1.326,2.138s-8.472-2.285-1.768-6.778c0,0,6.778,2.063,16.134-6.189,0,0,4.125-8.031,4.273-9.135,0,0,8.989.441,10.02,2.652C2356.188,3433.246,2360.019,3434.941,2362.893,3433.762Z" transform="translate(-2323.447 -3163.503)" fill="#010d33"/>
      <path id="Path_1169" data-name="Path 1169" d="M2327.529,3452.7c1.694,1.178-8.472-2.285-1.768-6.778,0,0,6.778,2.063,16.134-6.189,0,0,4.125-8.031,4.273-9.135,0,0,8.989.441,10.02,2.652,0,0-8.546,5.894-5.673,4.715,0,0,1.584-.774,1.731,3.573s-10.536,5.154-10.536,5.154.848.336-9.614,1.293c0,0-6.419-.552-7.109,2.946" transform="translate(-2323.447 -3163.503)" fill="#122a68"/>
      <path id="Path_1170" data-name="Path 1170" d="M2424.076,3435.6s3.168-1.325,3.316,3.021,0,10.314,0,10.314-2.579,1.327-13.041,2.284a30.9,30.9,0,0,0-7.957,1.474c-4.347,1.4-8.252,1.694-19.008-.3,0,0-.368.957,1.326,2.136s-8.473-2.283-1.768-6.777c0,0,6.778,2.062,16.135-6.189,0,0,4.126-8.03,4.273-9.135,0,0,8.988.442,10.02,2.653C2417.372,3435.084,2421.2,3436.779,2424.076,3435.6Z" transform="translate(-2352.883 -3164.387)" fill="#010d33"/>
      <path id="Path_1171" data-name="Path 1171" d="M2388.713,3454.533c1.695,1.179-8.473-2.283-1.768-6.777,0,0,6.778,2.062,16.135-6.189,0,0,4.126-8.03,4.273-9.135,0,0,8.988.442,10.02,2.653,0,0-8.546,5.894-5.673,4.715,0,0,1.585-.773,1.732,3.573s-10.536,5.153-10.536,5.153.847.335-9.614,1.293c0,0-6.419-.552-7.109,2.948" transform="translate(-2352.883 -3164.387)" fill="#122a68"/>
    </g>
    <g id="Group_806" data-name="Group 806" transform="translate(-0.646 -11.403)">
      <path id="Path_1244" data-name="Path 1244" d="M2288.2,2963.09s2.492,13.417-2.7,22.451-4.758,9.761-4.758,9.761,21.287,14.186,26.1,9.436c0,0-.271-9.826,7.153-9.241s8.985-.39,8.985-4.88c0,0,1.594-1.529,1.106-2.7s-7.1.835-6.833-3.937c.325-5.857.174-4.317,8.146,1.872,0,0,1.062.113,1-1.937s-.163-2.993,1.4-3.254,2.961-1.138,1.822-3.383-3.807-5.955-2.5-8.232c0,0,2.114-1.139.195-3.839,0,0-.944-7.494-5.5-10.878s-16.962-9.154-25.856-2.733S2288.2,2963.09,2288.2,2963.09Z" transform="translate(-86.228 -4.393)" fill="#eaab78"/>
      <path id="Path_1245" data-name="Path 1245" d="M2254.8,3037.219l2.6-2.343a43.018,43.018,0,0,1,9.5,4.946c3.774,2.863,14.447,6.637,15.748,6.377,0,0-.911.781,6.247,3.384s9.891,7.419,12.755,16.268c0,0,.564,15.965-1.258,20.91s-3.037,26.376-2.6,31.409,2.69,18.742,1,26.681c0,0-.26,11.062-18.351,10.151s-38.523-10.932-38.654-12.494,5.466-5.987,0-26.029-19.913-49.066-4.295-65.2c0,0,6.117-5.206,7.028-7.028S2254.8,3037.219,2254.8,3037.219Z" transform="translate(-62.036 -45.854)" fill="#010d33"/>
      <path id="Path_1246" data-name="Path 1246" d="M2218.314,3419.361s3.785-4.1,4.235-5.662,2.384,1.952,6.786-8,1.538-31.5,1.538-31.5l-27.005-9.5-8.915,13.666s.911,9.255,2.668,11.069c0,0-8.785-9.117-28.112-5.994s-42.753-4.128-42.753-4.128l-3.124,21.112,18.741,8s21.474-6.247,42.363,6.247c0,0,9.566,3.319,12.689,4.686S2218.314,3419.361,2218.314,3419.361Z" transform="translate(-10.645 -204.534)" fill="#eaab78"/>
      <path id="Path_1247" data-name="Path 1247" d="M2403.917,3327.5s10.152-24.989,10.152-26.55,4.1-35.725,7.419-40.215c0,0-25.411,12.005-33.187,9.631s0-29.543,0-29.543l10.281-6.637s41.452-6.182,46.137,3.253,2.148,20.564,0,24.664-15.487,35.92-20.238,58.175S2403.917,3327.5,2403.917,3327.5Z" transform="translate(-136.314 -140.787)" fill="#c07a48"/>
      <path id="Path_1248" data-name="Path 1248" d="M2412.231,3330.431s8.785-20.3,8.785-21.865c0-1.113,6.842-31.974,11.975-51.24a7.166,7.166,0,0,0-9.738-8.437c-12.741,5.447-29.937,12.121-34.669,10.677-7.776-2.375-.169-18.741-.169-18.741l10.281-6.637s41.452-6.182,46.137,3.253,2.148,20.564,0,24.664-15.487,35.92-20.238,58.175S2412.231,3330.431,2412.231,3330.431Z" transform="translate(-136.43 -140.787)" fill="#eaab78"/>
      <path id="Path_1249" data-name="Path 1249" d="M2453.683,3121.681a5.68,5.68,0,0,0-4.49,3.97s-4.881,3.514-5.987,3.644-4.229,4.556-4.295,6.117,5.531,9.983,5.531,9.983,6.963-3.36,9.24-3.71a6.1,6.1,0,0,0,3.709-2.326c.325-.3,6.247-2.58,7.158-4.012,0,0,3.384-1.367,4.555-2.863,0,0,4.187-2.213,4.989-4.165,0,0,4.121-3.579-1.345-3.058,0,0-7.028-1.5-9.956,2.343l-3.188,2.064a28.192,28.192,0,0,0-5.662.539c-2.6.586-2.928-.539-2.928-.539s4.49-1.935,5.141-4.472S2455.173,3121.214,2453.683,3121.681Z" transform="translate(-162.327 -87.575)" fill="#c07a48"/>
      <path id="Path_1250" data-name="Path 1250" d="M2218.314,3419.361s3.785-4.1,4.235-5.662,2.384,1.952,6.786-8,1.538-31.5,1.538-31.5l-27.005-9.5,1.367,14.576s9.318,13.355,9.469,18.026c.316,9.74-11.111,14.339-20.6,12.1-11.039-2.6-36.311-11.7-45.877-10.151-19.327,3.123-21.474-19.941-21.474-19.941l-3.124,21.112,18.741,8s21.474-6.247,42.363,6.247c0,0,9.566,3.319,12.689,4.686S2218.314,3419.361,2218.314,3419.361Z" transform="translate(-10.645 -204.534)" fill="#c07a48"/>
      <path id="Path_1251" data-name="Path 1251" d="M2252.344,3314.6l6.377.911a41.947,41.947,0,0,0-1.041-4.815c-.391-.911,2.213-7.158,2.213-7.158s2.472,9.631,2.733,11.973c0,0,17.7-2.082,25.639-5.075,0,0-1.692-21.865,1.432-29.283,0,0,6.377-7.679,7.028-9.761,0,0,20.823.26,23.3-1.041s12.1-33.838,10.282-36.18-22.906-2.994-29.283,0-53.23,3.253-53.23,3.253-9.5,7.809-1.953,30.845S2252.865,3289.742,2252.344,3314.6Z" transform="translate(-68.035 -140.768)" fill="#010d33"/>
      <path id="Path_1252" data-name="Path 1252" d="M2408.86,3138.782s-36.961,14.707-39.694,16.4c0,0-4.946,1.171-6.768,2.472s-10.021-5.726-10.021-5.726l8.022-42.558s8.9,8.344,7.206,23.5c0,0,20.693.188,32.406-8.011C2400.01,3124.856,2395.715,3132.274,2408.86,3138.782Z" transform="translate(-120.694 -81.693)" fill="#010d33"/>
      <path id="Path_1253" data-name="Path 1253" d="M2408.86,3138.782s-36.961,14.707-39.694,16.4c0,0-4.946,1.171-6.768,2.472s-10.021-5.726-10.021-5.726l8.022-42.558a162,162,0,0,1-.8,27.071s2.928,18.741,14.641,10.542C2374.241,3146.98,2395.715,3132.274,2408.86,3138.782Z" transform="translate(-120.694 -81.693)" fill="#122a68"/>
      <path id="Path_1254" data-name="Path 1254" d="M2252.344,3319.478l6.377.911s-3.806-32.566-4.1-33.513c-11.7-37.678-.977-33.578-.977-33.578s17.183,18.155,8.981,67.09a41.34,41.34,0,0,0,15.62-2.46s-5.078-45.5,11.45-31.9c0,0,6.377-7.678,7.028-9.761,0,0,20.823.261,23.3-1.041s-22.97-4.36-24.793-6.7-31.385,27.262-30.572,20.266c2.265-19.485-16.866-46.49-16.866-46.49s-9.5,7.809-1.953,30.845S2252.865,3294.62,2252.344,3319.478Z" transform="translate(-68.035 -145.647)" fill="#122a68"/>
      <path id="Path_1255" data-name="Path 1255" d="M2254.8,3037.219l2.6-2.343a43.018,43.018,0,0,1,9.5,4.946c3.774,2.863,14.447,6.637,15.748,6.377,0,0-32.406-8.72-25.248-6.116s-5.011,1.822-2.148,10.672c0,0-6.572,3.319-8.394,8.264s-.043,20.932.39,25.964,10.672,32.472,8.98,40.411c0,0,6.537,25.668-11.518,24.207-4.13-.334-2.8-5.531-2.928-7.093s5.466-5.987,0-26.029-19.913-49.066-4.295-65.2c0,0,6.117-5.206,7.028-7.028S2254.8,3037.219,2254.8,3037.219Z" transform="translate(-62.036 -45.854)" fill="#122a68"/>
      <path id="Path_1256" data-name="Path 1256" d="M2272.377,3068.078s4.426,4.685,2.083,17.05c0,0,6.9,7.992,4.165,24.559,0,0-.781,3.958,2.733,2.063s18.481-2.936,18.481-2.936l21.6-9.11s6.117,3.9,5.207,10.672c0,0-18.09,10.021-19.652,12.1s-17.831,10.8-24.6,13.405-7.028,5.076-13.405,1.692-4.165-7.679-16.009-19.522c0,0-6.377-9.891-8.46-19.782s-5.726-10.542-5.726-10.542-3.644-18.22,8.85-19.652C2247.65,3068.078,2252.855,3062.221,2272.377,3068.078Z" transform="translate(-65.814 -60.575)" fill="#010d33"/>
      <path id="Path_1257" data-name="Path 1257" d="M2255.22,3083.767s-2.343,10.347,6.247,22.3c0,0-3.847,3.339,6.247,17.723,0,0,10.737,11.46,14.251,9.566s26.94-10.932,26.94-10.932l22.516-9.631h0s-18.091,10.021-19.653,12.1-17.83,10.8-24.6,13.405-7.028,5.076-13.405,1.692-4.165-7.679-16.008-19.522c0,0-6.377-9.891-8.46-19.782s-5.727-10.542-5.727-10.542-3.644-18.22,8.85-19.652C2252.422,3070.492,2235.7,3077.911,2255.22,3083.767Z" transform="translate(-68.11 -62.989)" fill="#122a68"/>
      <path id="Path_1258" data-name="Path 1258" d="M2299.651,3111.911l-4.522-43.788,3.75.983s6.471,5.387,2.919,17.3a43.428,43.428,0,0,1,4.092,25.509s-1.045,3.813,3.971.637,7.945,5.219,1.112,6.391S2299.651,3111.911,2299.651,3111.911Z" transform="translate(-93.152 -61.849)" fill="#122a68"/>
      <g id="Group_804" data-name="Group 804" transform="translate(2101.507 3174.779)">
        <path id="Path_1259" data-name="Path 1259" d="M2123.087,3393.756s-10.981-4.316-16.252,6.007c0,0,1.977,27.892,0,35.14,0,0,2.741,11.64,23.113,9,0,0,2.363-4.613,3.68-3.514s-1.537-4.832-7.906-5.052c0,0,7.028-9.663,5.93-19.108S2114.082,3409.712,2123.087,3393.756Z" transform="translate(-2104.07 -3392.861)" fill="#010d33"/>
        <path id="Path_1260" data-name="Path 1260" d="M2103.933,3402.015s-4.362,2.231-1.388,11.352,1.586,24.188,1.388,25.576,9.613,15.069,23.84,8.328c0,0,7.09.595,3.323-5.75,0,0-3.077-1.388-3.323,3.173,0,0-16.306,2.775-20.866-8.129,0,0,3.115-17.654.269-27.365,0,0-2.418-4.352,2.622-8.122S2103.933,3402.015,2103.933,3402.015Z" transform="translate(-2101.507 -3396.11)" fill="#f0f0f0"/>
      </g>
      <g id="Group_805" data-name="Group 805" transform="translate(2263.623 3177.241)">
        <path id="Path_1261" data-name="Path 1261" d="M2439.356,3443.4s-.568-1.257-15.023-3.127-10.218-6.362-8.359-7.626,25.165,3.328,28.714,5.281,22.8,5.221,25.109,4.49,2.863,4.29-7.366,3.529S2456.8,3448.442,2439.356,3443.4Z" transform="translate(-2413.932 -3414.358)" fill="#f0f0f0"/>
        <path id="Path_1262" data-name="Path 1262" d="M2425.687,3397.607a8.937,8.937,0,0,0-5.306,6.986c-.791,5.331-1.049,11.381-1.049,11.381s3.316,2.019,17.37,4.764a46.034,46.034,0,0,1,10.588,3.005c5.7,2.374,10.958,3.321,25.812,2.481,0,0,.369,1.234-2.089,2.433s11.8-1.545,3.319-8.083c0,0-9.47,1.527-21.035-10.036,0,0-9.694-7.1-9.744-8.484,0,0-7.055-4.206-8.755-1.639A39.011,39.011,0,0,1,2425.687,3397.607Z" transform="translate(-2416.53 -3397.607)" fill="#122a68"/>
        <path id="Path_1263" data-name="Path 1263" d="M2485.354,3429.172c-2.458,1.2,11.8-1.545,3.319-8.083,0,0-9.47,1.527-21.035-10.035,0,0-11.443-10.979-11.492-12.363,0,0-5.307-.328-7.006,2.24,0,0,10.786,8.538,7.051,6.655,0,0-2.042-1.189-2.832,4.142s13.584,7.923,13.584,7.923-1.194.286,12.86,3.031c0,0,8.779.28,9.239,4.693" transform="translate(-2430.87 -3398.122)" fill="#010d33"/>
      </g>
      <path id="Path_1264" data-name="Path 1264" d="M2331.057,3072s7.549,14.308,3.839,23.455S2346.74,3088,2331.057,3072Z" transform="translate(-110.437 -63.713)" fill="#122a68"/>
      <path id="Path_1265" data-name="Path 1265" d="M2308.728,2961.914s-2.961,2.794,2.375,20.368c3.027,9.97-3.1,18.531-3.1,18.531s7.106,9.06,11.921,4.309c0,0-.271-9.826,7.153-9.24s8.985-.39,8.985-4.881c0,0,1.594-1.529,1.106-2.7s-7.1.835-6.833-3.937c.325-5.857,2.668-2.538,8.146,1.872,0,0,1.062.113,1-1.937s-.163-2.993,1.4-3.254,2.96-1.138,1.822-3.384-3.807-5.954-2.505-8.232c0,0,2.115-1.139.2-3.84,0,0-.944-7.494-5.5-10.878s-11.214-8.59-20.108-2.169S2308.728,2961.914,2308.728,2961.914Z" transform="translate(-99.301 -4.778)" fill="#c07a48"/>
      <path id="Path_1266" data-name="Path 1266" d="M2359.7,2981.848s1.379-.13.256-1.865-4.334-2.126-4.334-2.126a6.312,6.312,0,0,1-4.165,1.649,25.477,25.477,0,0,1,3.514-.347C2355.708,2979.246,2358.268,2981.718,2359.7,2981.848Z" transform="translate(-120.252 -18.422)"/>
      <path id="Path_1267" data-name="Path 1267" d="M2363.581,3005.323l-1.258-2.3s-1.779,2.733-.347,3.124S2363.581,3005.323,2363.581,3005.323Z" transform="translate(-125.045 -30.529)" fill="#eaab78"/>
      <path id="Path_1268" data-name="Path 1268" d="M2366.255,3007.926s1.779-1.084,2.776,0S2366.255,3007.926,2366.255,3007.926Z" transform="translate(-127.371 -32.656)" fill="#eaab78"/>
      <path id="Path_1269" data-name="Path 1269" d="M2346.665,2995.374s3.774,3.157,3.167,6.069,4.079-5.245,4.079-5.245-5.944-2.082-7.462-.824S2346.665,2995.374,2346.665,2995.374Z" transform="translate(-117.543 -26.655)" fill="#eaab78"/>
      <path id="Path_1270" data-name="Path 1270" d="M2353.823,2965.525l-.694,3.037,5.813.781s0-4.468-2.6-5.944S2353.823,2965.525,2353.823,2965.525Z" transform="translate(-121.056 -11.295)" fill="#eaab78"/>
      <path id="Path_1271" data-name="Path 1271" d="M2361.407,2992.844s3.374.564,3.335-.391-1.667-3.644-1.667-3.644S2362.112,2992.684,2361.407,2992.844Z" transform="translate(-125.039 -23.692)" fill="none"/>
      <path id="Path_1272" data-name="Path 1272" d="M2315.4,2980.007s-5.163-3.588-5.944,1.655a9.4,9.4,0,0,0,2.435,8.15s2.381,2.082,3.942.434S2314.489,2981.873,2315.4,2980.007Z" transform="translate(-99.987 -18.88)" fill="#eaab78"/>
      <path id="Path_1273" data-name="Path 1273" d="M2344.842,3008.665s1.74-2.906,2.911-2.69S2347.483,3003.025,2344.842,3008.665Z" transform="translate(-117.07 -31.617)" fill="#eaab78"/>
      <path id="Path_1274" data-name="Path 1274" d="M2321.4,2984.65s-3.579,4.328-2.408,5.662,4.689-.273,4.689-.273Z" transform="translate(-104.518 -21.69)" fill="#c07a48"/>
      <path id="Path_1275" data-name="Path 1275" d="M2311.493,2982.779s.261-2.132,2.148-1.546-2.148.9-2.148,2.191Z" transform="translate(-101.025 -19.997)" fill="#c07a48"/>
      <path id="Path_1276" data-name="Path 1276" d="M2313.707,2989.671s-1.247,4.576.854,3.935,2.181-.911,2.181-.911S2315.031,2989.738,2313.707,2989.671Z" transform="translate(-101.914 -24.105)" fill="#c07a48"/>
      <path id="Path_1277" data-name="Path 1277" d="M2334.192,2987.974" transform="translate(-111.946 -23.289)" fill="#c07a48"/>
      <path id="Path_1278" data-name="Path 1278" d="M2351.246,2989.259s3.667-2.4,5.576,0S2357.037,2984.99,2351.246,2989.259Z" transform="translate(-120.151 -23.203)"/>
      <path id="Path_1279" data-name="Path 1279" d="M2413.3,3104.9a5.68,5.68,0,0,0-4.49,3.969s-4.881,3.514-5.987,3.644-4.229,4.555-4.295,6.117,5.531,9.983,5.531,9.983,6.963-3.36,9.241-3.71a6.106,6.106,0,0,0,3.709-2.325c.325-.3,6.247-2.58,7.158-4.012,0,0,3.384-1.367,4.555-2.863,0,0,4.186-2.213,4.989-4.165,0,0,4.122-3.579-1.344-3.058,0,0-7.029-1.5-9.957,2.342l-3.189,2.065a28.2,28.2,0,0,0-5.661.539c-2.6.585-2.929-.539-2.929-.539s4.49-1.935,5.141-4.472S2414.787,3104.431,2413.3,3104.9Z" transform="translate(-142.897 -79.5)" fill="#c07a48"/>
      <path id="Path_1280" data-name="Path 1280" d="M2435.29,3116.154s8.3-3.059,10.331-4.547c0,0,1.968-.056,1.773.921s-10.151,3.65-11.648,4.59-7.874,1.006-7.874,1.006l1.163-1.68Z" transform="translate(-157.016 -82.77)" fill="#eaab78"/>
      <path id="Path_1281" data-name="Path 1281" d="M2413.3,3104.733a5.68,5.68,0,0,0-4.49,3.97s-4.881,3.514-5.987,3.644-4.229,4.555-4.295,6.117,5.531,9.983,5.531,9.983,6.963-3.36,9.241-3.711a6.1,6.1,0,0,0,3.709-2.326c.325-.3,6.247-2.58,7.158-4.011,0,0,3.384-1.367,4.555-2.863,0,0,4.186-2.213,4.989-4.165,0,0-11.572,9.418-17.038,9.939,0,0-.445-.413-3.373,3.426l-7.089-.351s-1.826-4.3-4.429-3.709,5.271-8.98,5.271-8.98,5.076-2.473,5.727-5.011S2414.787,3104.266,2413.3,3104.733Z" transform="translate(-142.897 -79.335)" fill="#eaab78"/>
      <path id="Path_1282" data-name="Path 1282" d="M2292.2,2974.094s9.236,2.848,10.458-.873l.479-2.29s-7.727-15.4,3.509-9.8c0,0,1.483,6.095,1.718,7.885s3.01-.813,2.49-8.275,8.661-4.339,8.661-4.339-.939-7.635,2.184-6.941,8.243,7.9,11.887,6.681,5.032-16.572,5.032-16.572-6.594,6.265-13.8,4.738-19.255-8.729-22.165.816c0,0-11.326,1.388-11.5,11.366A111.965,111.965,0,0,0,2292.2,2974.094Z" transform="translate(-91.235)"/>
    </g>
  </g>
</svg>
