<svg xmlns="http://www.w3.org/2000/svg" width="337.128" height="301.309" viewBox="0 0 337.128 301.309">
  <g id="trainee" transform="translate(-1418.851 -2991.607)">
    <g id="Group_801" data-name="Group 801" transform="translate(1418.851 3003.938)" opacity="0.45">
      <path id="Path_1172" data-name="Path 1172" d="M1587.689,3035.595s2.5,13.452-2.708,22.509-4.771,9.786-4.771,9.786,21.342,14.223,26.17,9.46c0,0-.271-9.852,7.172-9.265s9.008-.391,9.008-4.893c0,0,1.6-1.533,1.109-2.708s-7.116.837-6.85-3.948c.326-5.871.174-4.327,8.167,1.878,0,0,1.065.113,1-1.942s-.164-3,1.4-3.262,2.969-1.142,1.827-3.393-3.816-5.97-2.512-8.253c0,0,2.121-1.142.2-3.849,0,0-.946-7.514-5.513-10.906s-17.006-9.177-25.923-2.74S1587.689,3035.595,1587.689,3035.595Z" transform="translate(-1486.959 -3016.414)" fill="#eaab78"/>
      <path id="Path_1173" data-name="Path 1173" d="M1559.348,3101.1l2.61-2.348a43.121,43.121,0,0,1,9.525,4.958c3.784,2.87,14.484,6.655,15.788,6.394,0,0-.914.783,6.263,3.392s9.917,7.438,12.788,16.311c0,0,.565,16.006-1.262,20.964s-3.044,26.445-2.61,31.49,2.7,18.79,1,26.75c0,0-.261,11.091-18.4,10.178s-38.623-10.961-38.754-12.527,5.48-6,0-26.1-19.964-49.193-4.306-65.373c0,0,6.133-5.22,7.046-7.046S1559.348,3101.1,1559.348,3101.1Z" transform="translate(-1467.85 -3049.163)" fill="#010d33"/>
      <path id="Path_1174" data-name="Path 1174" d="M1533.7,3450.471s3.8-4.111,4.246-5.676,2.39,1.957,6.8-8.026,1.542-31.577,1.542-31.577l-27.076-9.525-8.938,13.7s.914,9.28,2.675,11.1c0,0-8.808-9.142-28.185-6.01s-42.864-4.138-42.864-4.138l-3.132,21.167,18.789,8.024s21.53-6.263,42.473,6.263c0,0,9.591,3.328,12.722,4.7S1533.7,3450.471,1533.7,3450.471Z" transform="translate(-1427.259 -3174.495)" fill="#eaab78"/>
      <path id="Path_1175" data-name="Path 1175" d="M1693.045,3371.935s10.178-25.053,10.178-26.618,4.11-35.819,7.437-40.32c0,0-25.476,12.036-33.274,9.656s0-29.62,0-29.62l10.308-6.655s41.56-6.2,46.257,3.262,2.152,20.617,0,24.727-15.528,36.013-20.291,58.326S1693.045,3371.935,1693.045,3371.935Z" transform="translate(-1526.519 -3124.145)" fill="#c07a48"/>
      <path id="Path_1176" data-name="Path 1176" d="M1701.357,3374.871s8.808-20.356,8.808-21.921c0-1.116,6.86-32.056,12.005-51.373a7.185,7.185,0,0,0-9.764-8.459c-12.773,5.461-30.015,12.152-34.759,10.7-7.8-2.38-.17-18.79-.17-18.79l10.308-6.655s41.559-6.2,46.257,3.262,2.153,20.617,0,24.727-15.528,36.013-20.291,58.326S1701.357,3374.871,1701.357,3374.871Z" transform="translate(-1526.61 -3124.145)" fill="#eaab78"/>
      <path id="Path_1177" data-name="Path 1177" d="M1533.7,3450.471s3.8-4.111,4.246-5.676,2.39,1.957,6.8-8.026,1.542-31.577,1.542-31.577l-27.076-9.525,1.37,14.614s9.342,13.389,9.494,18.072c.316,9.766-11.14,14.376-20.651,12.135-11.067-2.607-36.4-11.727-46-10.177-19.377,3.132-21.53-19.992-21.53-19.992l-3.132,21.167,18.789,8.024s21.53-6.263,42.473,6.263c0,0,9.591,3.328,12.722,4.7S1533.7,3450.471,1533.7,3450.471Z" transform="translate(-1427.259 -3174.495)" fill="#c07a48"/>
      <path id="Path_1178" data-name="Path 1178" d="M1751.021,3175.711l-15.223.871s-8.177,2.868-8,7.045l-4,3.567,1.218,3.789-1.74,8.824Z" transform="translate(-1547.35 -3081.65)" fill="#c07a48"/>
      <path id="Path_1179" data-name="Path 1179" d="M1555.605,3359l6.394.914a42.083,42.083,0,0,0-1.044-4.828c-.392-.913,2.218-7.176,2.218-7.176s2.479,9.656,2.74,12c0,0,17.746-2.088,25.706-5.089,0,0-1.7-21.922,1.435-29.359,0,0,6.394-7.7,7.046-9.786,0,0,20.877.261,23.357-1.044s12.135-33.926,10.308-36.274-22.965-3-29.359,0-53.368,3.262-53.368,3.262-9.525,7.829-1.958,30.924S1556.127,3334.08,1555.605,3359Z" transform="translate(-1472.589 -3124.131)" fill="#010d33"/>
      <path id="Path_1180" data-name="Path 1180" d="M1701.324,3195.3s-37.057,14.745-39.8,16.441c0,0-4.958,1.175-6.785,2.479s-10.048-5.741-10.048-5.741l8.043-42.668s8.921,8.365,7.224,23.56c0,0,20.748.188,32.491-8.032C1692.451,3181.335,1688.146,3188.773,1701.324,3195.3Z" transform="translate(-1514.182 -3077.47)" fill="#010d33"/>
      <path id="Path_1181" data-name="Path 1181" d="M1701.324,3195.3s-37.057,14.745-39.8,16.441c0,0-4.958,1.175-6.785,2.479s-10.048-5.741-10.048-5.741l8.043-42.668a162.41,162.41,0,0,1-.8,27.14s2.936,18.79,14.68,10.569C1666.615,3203.518,1688.146,3188.773,1701.324,3195.3Z" transform="translate(-1514.182 -3077.47)" fill="#122a68"/>
      <path id="Path_1182" data-name="Path 1182" d="M1555.605,3362.856l6.394.914s-3.816-32.651-4.11-33.6c-11.729-37.776-.979-33.665-.979-33.665s17.227,18.2,9,67.264a41.442,41.442,0,0,0,15.661-2.467s-5.092-45.616,11.48-31.98c0,0,6.394-7.7,7.046-9.787,0,0,20.877.261,23.357-1.044s-23.03-4.371-24.857-6.719-31.467,27.333-30.651,20.318c2.271-19.535-16.911-46.611-16.911-46.611s-9.525,7.829-1.958,30.925S1556.127,3337.934,1555.605,3362.856Z" transform="translate(-1472.589 -3127.984)" fill="#122a68"/>
      <path id="Path_1183" data-name="Path 1183" d="M1559.348,3101.1l2.61-2.348a43.121,43.121,0,0,1,9.525,4.958c3.784,2.87,14.484,6.655,15.788,6.394,0,0-32.491-8.743-25.314-6.133s-5.024,1.827-2.153,10.7c0,0-6.59,3.327-8.416,8.286s-.043,20.986.392,26.031,10.7,32.555,9,40.515c0,0,6.553,25.735-11.548,24.27-4.141-.335-2.806-5.546-2.936-7.111s5.48-6,0-26.1-19.964-49.193-4.306-65.373c0,0,6.133-5.22,7.046-7.046S1559.348,3101.1,1559.348,3101.1Z" transform="translate(-1467.85 -3049.163)" fill="#122a68"/>
      <path id="Path_1184" data-name="Path 1184" d="M1576.164,3128.9s4.436,4.7,2.088,17.094c0,0,6.916,8.013,4.175,24.623,0,0-.783,3.968,2.74,2.068s18.529-2.943,18.529-2.943l21.66-9.133s6.133,3.914,5.22,10.7c0,0-18.138,10.047-19.7,12.135s-17.877,10.831-24.662,13.44-7.046,5.089-13.44,1.7-4.175-7.7-16.049-19.573c0,0-6.394-9.917-8.482-19.834s-5.741-10.57-5.741-10.57-3.653-18.268,8.873-19.7C1551.372,3128.9,1556.591,3123.031,1576.164,3128.9Z" transform="translate(-1470.835 -3060.79)" fill="#010d33"/>
      <path id="Path_1185" data-name="Path 1185" d="M1558.473,3144.119s-2.349,10.373,6.263,22.355c0,0-3.857,3.348,6.263,17.768,0,0,10.765,11.49,14.288,9.591s27.01-10.96,27.01-10.96l22.574-9.656h0s-18.138,10.047-19.7,12.135-17.877,10.831-24.662,13.44-7.046,5.089-13.44,1.7-4.176-7.7-16.05-19.573c0,0-6.394-9.917-8.482-19.833s-5.741-10.57-5.741-10.57-3.654-18.268,8.873-19.7C1555.668,3130.809,1538.9,3138.247,1558.473,3144.119Z" transform="translate(-1472.648 -3062.697)" fill="#122a68"/>
      <path id="Path_1186" data-name="Path 1186" d="M1597.691,3172.577l-4.534-43.9,3.76.986s6.487,5.4,2.926,17.34a43.537,43.537,0,0,1,4.1,25.574s-1.048,3.823,3.981.639,7.965,5.233,1.115,6.407S1597.691,3172.577,1597.691,3172.577Z" transform="translate(-1492.428 -3061.796)" fill="#122a68"/>
      <g id="Group_799" data-name="Group 799" transform="translate(0 235.822)">
        <path id="Path_1187" data-name="Path 1187" d="M1439.942,3421.917s-11.01-4.327-16.294,6.022c0,0,1.982,27.965,0,35.231,0,0,2.748,11.671,23.173,9.028,0,0,2.369-4.624,3.691-3.523s-1.541-4.844-7.927-5.065c0,0,7.046-9.688,5.945-19.156S1430.914,3437.914,1439.942,3421.917Z" transform="translate(-1420.876 -3421.019)" fill="#010d33"/>
        <path id="Path_1188" data-name="Path 1188" d="M1421.283,3429.506s-4.373,2.237-1.392,11.38,1.59,24.252,1.392,25.644,9.637,15.108,23.9,8.349c0,0,7.109.6,3.332-5.765,0,0-3.085-1.391-3.332,3.18,0,0-16.348,2.784-20.92-8.149,0,0,3.124-17.7.27-27.437,0,0-2.424-4.363,2.629-8.143S1421.283,3429.506,1421.283,3429.506Z" transform="translate(-1418.851 -3423.586)" fill="#f0f0f0"/>
      </g>
      <g id="Group_800" data-name="Group 800" transform="translate(162.537 238.291)">
        <path id="Path_1189" data-name="Path 1189" d="M1725.6,3467.635s-.57-1.26-15.062-3.135-10.244-6.379-8.381-7.646,25.23,3.336,28.788,5.294,22.863,5.235,25.174,4.5,2.87,4.3-7.385,3.538S1743.085,3472.7,1725.6,3467.635Z" transform="translate(-1700.11 -3438.523)" fill="#f0f0f0"/>
        <path id="Path_1190" data-name="Path 1190" d="M1711.343,3425.292a8.96,8.96,0,0,0-5.32,7c-.793,5.345-1.052,11.411-1.052,11.411s3.325,2.024,17.415,4.776A46.148,46.148,0,0,1,1733,3451.5c5.718,2.381,10.986,3.33,25.879,2.488,0,0,.37,1.238-2.094,2.44s11.828-1.55,3.328-8.1c0,0-9.5,1.53-21.09-10.062,0,0-9.718-7.119-9.768-8.506,0,0-7.074-4.218-8.777-1.643A39.116,39.116,0,0,1,1711.343,3425.292Z" transform="translate(-1702.162 -3425.292)" fill="#122a68"/>
        <path id="Path_1191" data-name="Path 1191" d="M1768.113,3456.83c-2.464,1.2,11.828-1.55,3.327-8.1,0,0-9.5,1.531-21.09-10.061,0,0-11.472-11.008-11.521-12.395,0,0-5.321-.329-7.024,2.246,0,0,10.815,8.559,7.069,6.673,0,0-2.048-1.193-2.84,4.152s13.619,7.943,13.619,7.943-1.2.287,12.893,3.039c0,0,8.8.28,9.263,4.7" transform="translate(-1713.489 -3425.699)" fill="#010d33"/>
      </g>
      <path id="Path_1192" data-name="Path 1192" d="M1625.5,3132.164s7.568,14.345,3.849,23.516S1641.225,3148.214,1625.5,3132.164Z" transform="translate(-1506.081 -3063.269)" fill="#122a68"/>
      <path id="Path_1193" data-name="Path 1193" d="M1605.484,3034.333s-2.969,2.8,2.381,20.421c3.035,10-3.111,18.579-3.111,18.579s7.124,9.083,11.952,4.321c0,0-.271-9.852,7.172-9.265s9.008-.391,9.008-4.893c0,0,1.6-1.533,1.109-2.707s-7.116.837-6.85-3.948c.326-5.872,2.674-2.545,8.167,1.878,0,0,1.065.112,1-1.942s-.163-3,1.4-3.262,2.969-1.142,1.827-3.393-3.816-5.969-2.512-8.253c0,0,2.121-1.142.2-3.85,0,0-.946-7.513-5.513-10.906s-11.243-8.612-20.16-2.175S1605.484,3034.333,1605.484,3034.333Z" transform="translate(-1497.284 -3016.719)" fill="#c07a48"/>
      <path id="Path_1194" data-name="Path 1194" d="M1652.131,3051.417s1.383-.131.256-1.87-4.345-2.131-4.345-2.131a6.328,6.328,0,0,1-4.175,1.653,25.587,25.587,0,0,1,3.523-.348C1648.13,3048.808,1650.7,3051.286,1652.131,3051.417Z" transform="translate(-1513.833 -3027.495)"/>
      <path id="Path_1195" data-name="Path 1195" d="M1655,3072.376l-1.261-2.3s-1.783,2.74-.348,3.131S1655,3072.376,1655,3072.376Z" transform="translate(-1517.618 -3037.058)" fill="#eaab78"/>
      <path id="Path_1196" data-name="Path 1196" d="M1657.188,3074.535s1.783-1.088,2.784,0S1657.188,3074.535,1657.188,3074.535Z" transform="translate(-1519.456 -3038.739)" fill="#eaab78"/>
      <path id="Path_1197" data-name="Path 1197" d="M1639.639,3063.227s3.784,3.165,3.175,6.084,4.089-5.258,4.089-5.258-5.96-2.088-7.482-.826S1639.639,3063.227,1639.639,3063.227Z" transform="translate(-1511.693 -3033.998)" fill="#eaab78"/>
      <path id="Path_1198" data-name="Path 1198" d="M1646.068,3036.567l-.7,3.045,5.828.782s0-4.48-2.61-5.959S1646.068,3036.567,1646.068,3036.567Z" transform="translate(-1514.468 -3021.866)" fill="#eaab78"/>
      <path id="Path_1199" data-name="Path 1199" d="M1652.825,3061.32s3.383.566,3.344-.391-1.672-3.653-1.672-3.653S1653.531,3061.159,1652.825,3061.32Z" transform="translate(-1517.614 -3031.657)" fill="none"/>
      <path id="Path_1200" data-name="Path 1200" d="M1612.028,3049.474s-5.175-3.6-5.958,1.659a9.421,9.421,0,0,0,2.441,8.17s2.387,2.088,3.953.435S1611.115,3051.344,1612.028,3049.474Z" transform="translate(-1497.826 -3027.857)" fill="#eaab78"/>
      <path id="Path_1201" data-name="Path 1201" d="M1637.912,3075.5s1.745-2.914,2.919-2.7S1640.56,3069.842,1637.912,3075.5Z" transform="translate(-1511.319 -3037.917)" fill="#eaab78"/>
      <path id="Path_1202" data-name="Path 1202" d="M1617.074,3053.531s-3.588,4.339-2.414,5.676,4.7-.274,4.7-.274Z" transform="translate(-1501.405 -3030.077)" fill="#c07a48"/>
      <path id="Path_1203" data-name="Path 1203" d="M1607.89,3052.016s.261-2.139,2.153-1.551-2.153.9-2.153,2.2Z" transform="translate(-1498.646 -3028.739)" fill="#c07a48"/>
      <path id="Path_1204" data-name="Path 1204" d="M1609.92,3058.051s-1.25,4.587.857,3.945,2.186-.913,2.186-.913S1611.249,3058.119,1609.92,3058.051Z" transform="translate(-1499.348 -3031.985)" fill="#c07a48"/>
      <path id="Path_1205" data-name="Path 1205" d="M1628.324,3056.523" transform="translate(-1507.272 -3031.34)" fill="#c07a48"/>
      <path id="Path_1206" data-name="Path 1206" d="M1643.677,3057.83s3.676-2.41,5.59,0S1649.483,3053.551,1643.677,3057.83Z" transform="translate(-1513.753 -3031.272)"/>
      <path id="Path_1207" data-name="Path 1207" d="M1701.05,3161.792a5.7,5.7,0,0,0-4.5,3.98s-4.893,3.523-6,3.654-4.24,4.567-4.306,6.134,5.546,10.008,5.546,10.008,6.981-3.369,9.264-3.72a6.118,6.118,0,0,0,3.719-2.332c.326-.3,6.263-2.587,7.176-4.022,0,0,3.393-1.37,4.567-2.871,0,0,4.2-2.218,5-4.175,0,0,4.132-3.589-1.349-3.066,0,0-7.046-1.5-9.982,2.349l-3.2,2.07a28.3,28.3,0,0,0-5.676.54c-2.609.587-2.935-.54-2.935-.54s4.5-1.939,5.154-4.483S1702.543,3161.323,1701.05,3161.792Z" transform="translate(-1531.719 -3075.738)" fill="#c07a48"/>
      <path id="Path_1208" data-name="Path 1208" d="M1720.1,3172.381s8.319-3.066,10.357-4.558c0,0,1.974-.055,1.778.923s-10.178,3.66-11.679,4.6-7.894,1.008-7.894,1.008l1.166-1.683Z" transform="translate(-1542.871 -3078.32)" fill="#eaab78"/>
      <path id="Path_1209" data-name="Path 1209" d="M1701.05,3161.661a5.7,5.7,0,0,0-4.5,3.98s-4.893,3.523-6,3.653-4.24,4.567-4.306,6.133,5.546,10.009,5.546,10.009,6.981-3.369,9.264-3.72a6.121,6.121,0,0,0,3.719-2.332c.326-.3,6.263-2.587,7.176-4.022,0,0,3.393-1.37,4.567-2.871,0,0,4.2-2.218,5-4.175,0,0-11.6,9.442-17.083,9.965,0,0-.446-.414-3.382,3.435l-7.107-.352s-1.83-4.306-4.44-3.719,5.284-9,5.284-9,5.089-2.479,5.741-5.024S1702.543,3161.192,1701.05,3161.661Z" transform="translate(-1531.719 -3075.607)" fill="#eaab78"/>
      <path id="Path_1210" data-name="Path 1210" d="M1590.632,3047.562s9.261,2.855,10.486-.875l.48-2.3s-7.747-15.441,3.517-9.83c0,0,1.487,6.11,1.722,7.9s3.019-.816,2.5-8.3,8.683-4.35,8.683-4.35-.941-7.655,2.19-6.959,8.264,7.916,11.918,6.7,5.045-16.615,5.045-16.615-6.611,6.28-13.832,4.75-19.3-8.751-22.222.817c0,0-11.356,1.392-11.53,11.4A112.134,112.134,0,0,0,1590.632,3047.562Z" transform="translate(-1490.914 -3012.945)"/>
    </g>
    <g id="Group_802" data-name="Group 802" transform="translate(1534.313 2991.607)">
      <path id="Path_1211" data-name="Path 1211" d="M1809.627,3118.163s.2-5.331,0-6.417,1.565-7.154,7.307-9.177,3,.291,7.764-.833,5.415,6.379,5.415,6.379l-9.264,14.679Z" transform="translate(-1699.258 -3038.045)" fill="#7c4c32"/>
      <path id="Path_1212" data-name="Path 1212" d="M1809.627,3118.262s.2-5.332,0-6.417,1.565-7.153,7.307-9.176,3,.291,7.764-.833-2.9,3.788-2.9,3.788l-12.167,6.222Z" transform="translate(-1699.258 -3038.065)" fill="#593c26"/>
      <path id="Path_1213" data-name="Path 1213" d="M1801.674,3030.523s1.174,9.408.913,10.935,2.871,27.558,1.957,28.471-2.87,3.4-2.87,3.4l11.671-2.611,5.749-3.549s-5.353,1.616-6,.624-2.8-2.819-4.109-1.579l.457-22.639,8.938,16.05,4.437-2.465s-5.481-4.932-7.242-11.15a56.983,56.983,0,0,0-5.676-12.486s-12.461-35.814-12.592-36.989-3.132,0-3.132,0S1801.674,3027.914,1801.674,3030.523Z" transform="translate(-1692.739 -2993.465)" fill="#050505"/>
      <path id="Path_1214" data-name="Path 1214" d="M1651.084,3332.768s1.666-11.746,1.476-13.508-10.292-44.552-7.589-48.895c0,0-3.959-12.955-4.837-13.739s-2.247-9,2.254-13.9,13.9-21.726,13.9-21.726,9.395-25.946,37.384-40.865c0,0,2.283-1.282,6.916-8.2s13.57-7.633,13.57-7.633,19.246-3.915,27.01,2.871,11.548,6.584,13.9,16.309c0,0-4.045,1.959-3.588,6.07s4.524,18.507-12.352,24.6c0,0-10.874,7.829-12.178,8.09s-18.094,27.141-25.271,30.186-1.783,14.615-1.783,14.615,6.089,18.267,3.653,27.837-4.524,42.711-4.524,42.711l-.782,2.124-14.2-1.747-.587-4.552s2.784-9.742,2-11.831-1.827-22.7-3.567-27.75-3.393-20.816-3.393-20.816-3.282-18.765-4.076-19.721-.313-3.48-.313-3.48-2.061-4.262,3.122-13.57,17.535-28.446,17.535-28.446l6.916-10.786-26.749,42.538-.174,9.047s-9.743,4.958-9.743,15.049,5.567-.608,4.176,33.056-.261,40.015-.261,40.015L1657,3335.592Z" transform="translate(-1627.337 -3064.032)" fill="#593c26"/>
      <path id="Path_1215" data-name="Path 1215" d="M1651.084,3332.768s1.666-11.746,1.476-13.508-10.292-44.552-7.589-48.895c0,0-3.959-12.955-4.837-13.739s-2.247-9,2.254-13.9,13.9-21.726,13.9-21.726,9.395-25.946,37.384-40.865c0,0,2.283-1.282,6.916-8.2s13.57-7.633,13.57-7.633,19.246-3.915,27.01,2.871,11.548,6.584,13.9,16.309c0,0-4.045,1.959-3.588,6.07s4.524,18.507-12.352,24.6c0,0-10.874,7.829-12.178,8.09s-18.094,27.141-25.271,30.186-1.783,14.615-1.783,14.615,6.089,18.267,3.653,27.837-12.085,20.817-12.085,20.817l-.775,22.271h-6.648l-.587-4.552s2.784-9.742,2-11.831-1.827-22.7-3.567-27.75-3.393-20.816-3.393-20.816-3.282-18.765-4.076-19.721-.313-3.48-.313-3.48-2.061-4.262,3.122-13.57,17.535-28.446,17.535-28.446l6.916-10.786-26.749,42.538-.174,9.047s-20.708-.957-20.708,9.134,6.754,1.044,5.362,34.709-1.662,41.233-1.662,41.233l-.739,1.914Z" transform="translate(-1627.337 -3064.032)" fill="#7c4c32"/>
      <path id="Path_1216" data-name="Path 1216" d="M1857.571,3114.938l-12.33-9.7s-9.4-18.039-23.487-3.359c0,0-27.208-9-28.186,10.374,0,0-7.89-2.676-29.162,16.637l-16.485,12.9s40.755,1.94,44.441,6.442a28.106,28.106,0,0,0,8.351,6.785s4.078-6.752,10.993-5.709,17.485-.391,23.879.653,21.791-4.7,21.987-19.051S1857.571,3114.938,1857.571,3114.938Z" transform="translate(-1673.217 -3035.726)" fill="#7c4c32"/>
      <path id="Path_1217" data-name="Path 1217" d="M1773.106,3145.1s5.833-13.479,24.987-18.594,28.772-12.051,27.011-15.42-41.625,7.135-41.625,7.135l-2.87,3.4s-29.946,22.439-35.688,28.05S1773.106,3145.1,1773.106,3145.1Z" transform="translate(-1671.674 -3041.761)" fill="#593c26"/>
      <path id="Path_1218" data-name="Path 1218" d="M1937.925,3110.866s-7.024.227-7.622,3.8-21.541-8.725-21.541-8.725l3.849-6.818,27.706-1.957,5.437,1.631-4.436,12.4Z" transform="translate(-1741.109 -3036.164)" fill="#7c4c32"/>
      <path id="Path_1219" data-name="Path 1219" d="M1652.56,3319.26h0c-.19-1.762-10.292-44.552-7.589-48.895,0,0-3.959-12.955-4.837-13.739s-2.247-9,2.254-13.9,13.9-21.726,13.9-21.726,9.395-25.946,37.384-40.865c0,0,2.283-1.282,6.916-8.2s13.57-7.633,13.57-7.633,19.246-3.915,27.01,2.871,11.548,6.584,13.9,16.309c0,0-4.045,1.959-3.588,6.07s4.524,18.507-12.352,24.6c0,0-10.874,7.829-12.178,8.09s-18.094,27.141-25.271,30.186-1.783,14.615-1.783,14.615,6.089,18.267,3.653,27.837-3.422,27.842-3.422,27.842h0l-8.923.43-5.749-1.566h0c-.783-2.087-1.827-22.7-3.567-27.75s-3.393-20.816-3.393-20.816-3.282-18.765-4.076-19.721-.313-3.48-.313-3.48-2.061-4.262,3.122-13.57,17.535-28.446,17.535-28.446l6.916-10.786-26.749,42.538-.174,9.047s-9.743,4.958-9.743,15.049,5.567-.608,4.176,33.056-.671,23.574-.671,23.574l-10.986-.087Z" transform="translate(-1627.337 -3064.032)" fill="#010d33"/>
      <path id="Path_1220" data-name="Path 1220" d="M1939.584,3083.141s3.74.375,4.175,2.42.131,3.522-1.261,4.392a7.2,7.2,0,0,1-5.959.435c-1.87-.827-1.436-1.61-2.479-1.957s-1.783-1.262-1.74-1.87-.13,2.175-2.349,2.479-20.616-.3-20.616-.3-2.088-5.132-1.653-5.959,3.044-2.783,3.044-3.393,1.262-3.219,2.088-3.305,6.394.087,6.307,2.74c0,0-1.436-5.394-4.349-3.654s-.653-1.913-.653-1.913l2.479-1.131a33.513,33.513,0,0,1,.823-4.132c.265-.435.7-1.566,2.788-1s3.49-1.261,3.854-1.261,6.584-3.74,11.369-3.219,10.7,7.046,10.7,7.046l.783,5.089-1.261,8.5Z" transform="translate(-1740.637 -3021.514)" fill="#7c4c32"/>
      <path id="Path_1221" data-name="Path 1221" d="M1652.56,3320.081h0c-.19-1.762-10.292-44.552-7.589-48.895,0,0-3.959-12.955-4.837-13.739s-2.247-9,2.254-13.9,13.9-21.726,13.9-21.726,9.395-25.947,37.384-40.865c0,0,2.283-1.282,6.916-8.2s13.57-7.634,13.57-7.634-21.645,25.034-13.881,31.82,38.282-29.017,40.631-19.293c0,0,4.632,6.458,5.089,10.569.35,3.151,5.056,10.051-2.925,14.838a18.743,18.743,0,0,1-16.778,1.211c-3.282-1.352-6.56-2.6-7.177-2.479-1.3.261-23.531,34.926-30.707,37.971s-2.088,21.922-2.088,21.922,7.916,19.051,5.48,28.619-.585,33.235-.585,33.235l-.531.455.516-.025-5.749-1.566h0c-.783-2.087-1.827-22.7-3.567-27.75s-3.393-20.816-3.393-20.816-3.282-18.765-4.076-19.721-.313-3.479-.313-3.479-2.061-4.262,3.122-13.57,17.535-28.446,17.535-28.446l5.517-11.675c1.178-3.065,2.153-2.478,0,0l-37.791,27.246-18.964,25.314a22.135,22.135,0,0,1,7.394,16.093c0,10.091,4.7-5.306,3.306,28.358l3.306,27.054h0Z" transform="translate(-1627.337 -3064.853)" fill="#122a68"/>
      <path id="Path_1222" data-name="Path 1222" d="M1834.282,3111.291s5.937-.134,6.981-.177,13.571,2.7,14.223,19.4-7.29,17.628-16.38,19.687c0,0,19.7-.9,23.492-.778a5.4,5.4,0,0,0,2.158.038c1.169-.222,6.454-2.319,9.39-8.774a26.614,26.614,0,0,0,2.414-12.2l5.741-16.441s3.849.652,5.741,2.153,1.962-.119,1.962-.119-7.313-4.247-8.356-3.728-4.619-12.794-15.2-14.358-13.184,6.4-13.707,6.461-25.055-13.962-25.837,9.656Z" transform="translate(-1706.558 -3035.585)" fill="#010d33"/>
      <path id="Path_1223" data-name="Path 1223" d="M1839.668,3111.291s24.662-6.333,25.706-6.376,2.139,9.548,2.792,26.25,13.541,12.59,4.45,14.649a33.047,33.047,0,0,0,6.981,1.009s-10.624,2.859-9.455,2.636,6.454-2.319,9.39-8.774a26.614,26.614,0,0,0,2.414-12.2l5.741-16.441s3.849.652,5.741,2.153,1.962-.119,1.962-.119-7.312-4.247-8.356-3.728-4.62-12.794-15.2-14.358-13.184,6.4-13.707,6.461-16.115-9.177-15.56,1.79Z" transform="translate(-1711.944 -3035.585)" fill="#122a68"/>
      <path id="Path_1224" data-name="Path 1224" d="M1968.328,3088.1s3.218-9.5-3.219-17.07-9.742-9.091-15.7-8.743c0,0,5.176,1.175,5,2.088s.74,5.079,1.479,5.323.2,3.463.9,4.638-3.459,4.654-3.508,6.785a3.669,3.669,0,0,0,1.082,3s3.442-1.435,4.114.479.758,2.74-.677,4.436-5.785-.086-6.568,0-1.74-1.035-1.392-1.67-10.656,4.244-3.784,11.308c0,0-3.306,4.542-1.131,5.8s7.394,2.176,9.178,1.479,7.394-4.457,7.307-5.816.87-.629.87-.629-4.741,9.843-4.654,12.667,6,3.869,6.35,2.477,2.349-4.349,4.7-4.436,4.7-1.343,4.524-3.021,1.565-3.591,2.87-4.026,1.566-3.409,1.479-3.661-3.219-2.863-2.61-5.3-8.612-.435-8.612-.435S1967.909,3089.785,1968.328,3088.1Z" transform="translate(-1755.897 -3021.421)" fill="#050505"/>
      <path id="Path_1225" data-name="Path 1225" d="M1901.521,3179.132s3.784,5.02,4.175,6.847,5.915,4.958,11.5-5.089a57.4,57.4,0,0,0,6.633-19.312s2.348-7.828,4.306-9.395,3.523-18.79-.522-22.313-10.69-3.482-11.412-2.729-6.334,8.915-6.334,8.915l-.261,3.34s-2.87,0-4.045,5.611c0,0-5.35-17.209-6.133-17.152s-10.178-.855-10.438,1.232,3.262,8.241,2.218,9.405,3.134,4.952,3.132,13.691S1895.91,3172.416,1901.521,3179.132Z" transform="translate(-1732.76 -3048.644)" fill="#7c4c32"/>
      <path id="Path_1226" data-name="Path 1226" d="M1916.207,3159.882s.569-10.569.96-8.742.093-1.694,5.683-11.741,9.977,2.477,9.977,2.477,0,11.875,1.957,10.309,3.523-18.79-.522-22.313-10.69-3.482-11.412-2.729-6.334,8.915-6.334,8.915l-.261,3.34s-2.87,0-4.045,5.611c0,0-5.35-17.209-6.133-17.152s-1.081-1.1-1.341.986,2.717,8.487,1.673,9.651,2.933,3.246,2.931,11.985S1910.6,3153.166,1916.207,3159.882Z" transform="translate(-1739.403 -3048.644)" fill="#593c26"/>
      <path id="Path_1227" data-name="Path 1227" d="M1861.437,3114.295s-2.61,8.35-1.11,10.177,7.181,3.2,12.04,4.958a30.447,30.447,0,0,0,9.882,1.631l11.613-3.915s2.972-5.385,2.138-9.771-2.008-10.323-7.75-10.388-.13,3.1-.13,3.1a2.517,2.517,0,0,1,.717,1.8c0,1.165,5.481,1.753,3.785,14.083,0,0-9,4.325-11.744,4.186s-5.154-.6-5.807-.6-7.633-5.807-10.569-12.527S1861.437,3114.295,1861.437,3114.295Z" transform="translate(-1720.468 -3040.31)" fill="#050505"/>
      <path id="Path_1228" data-name="Path 1228" d="M1867.026,3064.809s-14.234,3.66-14.058,4.029-3.492-4.616-3.492-4.616-1.583-15.136-1.378-15.854-.2-14.549,0-15.919.591-4.567-.059-5.806-10.7-22.574-10.7-22.574l-5.35-8.808,1.044-3.653,18.137,36.079s-1.174,7.895-.587,12.07-.26,22.7.457,22.7,20.226-6.981,20.226-6.981-19.769-24.957-21.335-25.247-.131-4.242-.131-4.242,2.806,2.675,3,3.98,14.092,16.441,15.4,17.289,8.416,9.591,8.416,11.417-.13,3.067-1.239,3.589S1867.026,3064.809,1867.026,3064.809Z" transform="translate(-1708.703 -2991.607)" fill="#050505"/>
      <path id="Path_1229" data-name="Path 1229" d="M1891.093,3104.511s4.5,2.885,4.373,4.556-2.416,6.766-2.416,6.766l-8.932,6.562s-2.354-5.394-4.833-7.058-3.632-10.149-3.632-10.149l-1.754.607s-.376-3.267,1.211-4,3.915-.782,4.371-1.435,2.713-.848,3.118-1.24a6.83,6.83,0,0,1,2.819-.848c.587,0,3.608.3,4.176,0s2.8,1.912,2.479,4.11c0,0,1.3,4.306,1.044,5.284S1891.093,3104.511,1891.093,3104.511Z" transform="translate(-1726.376 -3036.621)" fill="#7c4c32"/>
      <path id="Path_1230" data-name="Path 1230" d="M1931.357,3082.038s3.915.608,3.131,1.739-4.089,1.957-4.089,1.957S1932.531,3082.3,1931.357,3082.038Z" transform="translate(-1750.243 -3029.779)" fill="#593c26"/>
      <path id="Path_1231" data-name="Path 1231" d="M1938.086,3071.789s.3,3.437-.326,3.088,3.023.87,3.023.87.609-4.306,0-4.436S1938.347,3071.267,1938.086,3071.789Z" transform="translate(-1753.319 -3025.228)" fill="#593c26"/>
      <path id="Path_1232" data-name="Path 1232" d="M1926.26,3076.238s-.044-2.479.435-2.479,1.609,2.479,1.044,2.479-.542-.565-.663-.218S1926.782,3076.673,1926.26,3076.238Z" transform="translate(-1748.495 -3026.284)" fill="#593c26"/>
      <path id="Path_1233" data-name="Path 1233" d="M1960.249,3103.488s.7,2.741-.653,2.567-1.044-2.567-1.87-2.567,1.18,1.966,1.351,1.287S1960.249,3103.488,1960.249,3103.488Z" transform="translate(-1761.694 -3038.833)" fill="#593c26"/>
      <path id="Path_1234" data-name="Path 1234" d="M1963.366,3101.171s2.653,2.043,2.305,2.365-1.087,1.975-1.565,1.975,2.957-.233,2.609-3.262S1963.366,3101.171,1963.366,3101.171Z" transform="translate(-1764.158 -3037.594)" fill="#593c26"/>
      <path id="Path_1235" data-name="Path 1235" d="M1934.293,3069.389s-1.246-.614.426-1.839,4.82-.445,4.82-.445a6.33,6.33,0,0,0,3.313,3.031,25.674,25.674,0,0,0-3.168-1.579C1938.962,3068.375,1935.681,3069.778,1934.293,3069.389Z" transform="translate(-1751.698 -3023.372)"/>
      <path id="Path_1236" data-name="Path 1236" d="M1942.094,3078.552s-2.578-3.56-5.224-1.99S1938.192,3072.486,1942.094,3078.552Z" transform="translate(-1752.612 -3027.091)"/>
      <path id="Path_1237" data-name="Path 1237" d="M1890.571,3102.059s1.633-1.344,1.5.326-5.546,1.567-5.546,1.567l-7.117,4.57s2.354,8.479-.125,6.815-3.632-10.149-3.632-10.149l-1.754.607s-.376-3.267,1.211-4,3.915-.782,4.371-1.435,2.713-.848,3.118-1.24a6.83,6.83,0,0,1,2.819-.848c.587,0,3.608.3,4.176,0s2.8,1.912,2.479,4.11c0,0-1.892-2.088-2.153-1.109S1890.571,3102.059,1890.571,3102.059Z" transform="translate(-1726.376 -3036.621)" fill="#593c26"/>
      <path id="Path_1238" data-name="Path 1238" d="M1700.85,3491.548s.517-.96,11.228-1.182,7.977-4.209,6.721-5.392-18.653.443-21.4,1.7-17.081,2.176-18.706,1.383-2.437,3.2,5.1,3.492S1687.7,3494.059,1700.85,3491.548Z" transform="translate(-1643.534 -3199.689)" fill="#f2f2f2"/>
      <path id="Path_1239" data-name="Path 1239" d="M1645.77,3489.894s.517-.96,11.227-1.182,7.978-4.211,6.722-5.392-18.652.444-21.4,1.7-17.081,2.176-18.706,1.383-2.437,3.2,5.1,3.492S1632.622,3492.405,1645.77,3489.894Z" transform="translate(-1620.284 -3198.991)" fill="#f2f2f2"/>
      <path id="Path_1240" data-name="Path 1240" d="M1658.2,3458.164s3.176-1.33,3.324,3.029,0,10.34,0,10.34-2.585,1.33-13.074,2.291a30.99,30.99,0,0,0-7.977,1.476c-4.359,1.4-8.273,1.7-19.058-.295,0,0-.369.96,1.33,2.142s-8.495-2.29-1.773-6.8c0,0,6.8,2.068,16.177-6.2,0,0,4.137-8.051,4.284-9.159,0,0,9.012.443,10.046,2.659C1651.477,3457.647,1655.318,3459.346,1658.2,3458.164Z" transform="translate(-1618.65 -3187.205)" fill="#010d33"/>
      <path id="Path_1241" data-name="Path 1241" d="M1622.743,3477.148c1.7,1.182-8.495-2.29-1.773-6.8,0,0,6.8,2.068,16.177-6.2,0,0,4.137-8.051,4.284-9.159,0,0,9.012.443,10.046,2.659,0,0-8.568,5.909-5.688,4.728,0,0,1.588-.776,1.735,3.582s-10.563,5.167-10.563,5.167.85.336-9.639,1.3c0,0-6.435-.553-7.128,2.955" transform="translate(-1618.65 -3187.205)" fill="#122a68"/>
      <path id="Path_1242" data-name="Path 1242" d="M1713.279,3459.818s3.177-1.329,3.324,3.029,0,10.341,0,10.341-2.585,1.329-13.074,2.29a30.988,30.988,0,0,0-7.977,1.477c-4.359,1.4-8.273,1.7-19.058-.295,0,0-.369.96,1.33,2.142s-8.494-2.291-1.772-6.8c0,0,6.8,2.068,16.176-6.2,0,0,4.136-8.052,4.284-9.159,0,0,9.012.443,10.046,2.659C1706.557,3459.3,1710.4,3461,1713.279,3459.818Z" transform="translate(-1641.901 -3187.903)" fill="#010d33"/>
      <path id="Path_1243" data-name="Path 1243" d="M1677.823,3478.8c1.7,1.182-8.494-2.291-1.772-6.8,0,0,6.8,2.068,16.176-6.2,0,0,4.136-8.052,4.284-9.159,0,0,9.012.443,10.046,2.659,0,0-8.568,5.909-5.687,4.727,0,0,1.588-.776,1.736,3.582s-10.563,5.167-10.563,5.167.85.336-9.639,1.3c0,0-6.435-.553-7.128,2.955" transform="translate(-1641.901 -3187.903)" fill="#122a68"/>
    </g>
  </g>
</svg>
