<svg id="appoinments" xmlns="http://www.w3.org/2000/svg" width="24.667" height="25" viewBox="0 0 24.667 25">
  <path id="Path_227" data-name="Path 227" d="M378.422,866.329h-14.25a1.51,1.51,0,0,0-1.372,1.617v7.417a1.51,1.51,0,0,0,1.372,1.617h14.25a1.51,1.51,0,0,0,1.373-1.617v-7.417A1.51,1.51,0,0,0,378.422,866.329Z" transform="translate(-358.843 -855.981)" fill="#010d3e"/>
  <path id="Path_228" data-name="Path 228" d="M373.868,845.575h-2.106c-.022,2.039-1.031,3.68-2.274,3.68s-2.252-1.641-2.274-3.68h-7.822c0,.032,0,.064,0,.1,0,2.07-1.019,3.748-2.275,3.748s-2.275-1.678-2.275-3.748c0-.032,0-.064,0-.1h-2.189a1.9,1.9,0,0,0-1.727,2.035v17.5a1.9,1.9,0,0,0,1.727,2.035h21.213a1.9,1.9,0,0,0,1.727-2.035v-17.5A1.9,1.9,0,0,0,373.868,845.575Zm.037,17.446a1.7,1.7,0,0,1-1.545,1.821H354.381a1.7,1.7,0,0,1-1.545-1.821v-10.5a1.7,1.7,0,0,1,1.545-1.821H372.36a1.7,1.7,0,0,1,1.545,1.821Z" transform="translate(-350.928 -842.145)" fill="#010d3e"/>
  <ellipse id="Ellipse_52" data-name="Ellipse 52" cx="1.947" cy="3.208" rx="1.947" ry="3.208" transform="translate(4.263)" fill="#010d3e"/>
  <ellipse id="Ellipse_53" data-name="Ellipse 53" cx="1.947" cy="3.208" rx="1.947" ry="3.208" transform="translate(16.63)" fill="#010d3e"/>
</svg>
