<svg id="contact" xmlns="http://www.w3.org/2000/svg" width="26.811" height="26.538" viewBox="0 0 26.811 26.538">
  <path id="Path_237" data-name="Path 237" d="M302.406,1067.2a10.157,10.157,0,0,1-5.022-1.513,29.229,29.229,0,0,1-10.353-10.563c-1.476-2.538-1.984-5.286-.439-8.049a4.535,4.535,0,0,1,4.108-2.584,1.414,1.414,0,0,1,1.507,1.015c.564,1.707,1.2,3.4,1.6,5.145.115.51-.377,1.285-.793,1.763-1.387,1.591-1.434,1.569-.184,3.327a17.1,17.1,0,0,0,5.471,5.149c.591.335.994.332,1.419-.228a7.608,7.608,0,0,1,1.036-1.044,1.912,1.912,0,0,1,2.082-.41c1.415.507,2.86.931,4.3,1.373a1.7,1.7,0,0,1,1.249,2.042,4.136,4.136,0,0,1-2.176,3.428,28.453,28.453,0,0,1-3.7,1.4Z" transform="translate(-285.651 -1040.912)" fill="#010d3e"/>
  <path id="Path_238" data-name="Path 238" d="M329.612,1033.147a12.888,12.888,0,0,1,11.983,11.848c.008.1.013.2.012.295,0,.511.146,1.187-.588,1.243-.8.061-.756-.645-.8-1.2a11.981,11.981,0,0,0-10.507-10.79.84.84,0,0,1-.195-.021c-.495-.179-1.308.127-1.314-.809C328.2,1033.17,328.482,1033.068,329.612,1033.147Z" transform="translate(-314.806 -1033.123)" fill="#010d3e"/>
  <path id="Path_239" data-name="Path 239" d="M337.1,1053.98l-.564.678c-.224-.293-.608-.566-.649-.883a8.779,8.779,0,0,0-7.918-7.968c-.469-.06-1.052-.049-.9-.688.058-.244.672-.513,1.029-.507C332.743,1044.686,336.967,1048.934,337.1,1053.98Z" transform="translate(-314.016 -1040.995)" fill="#010d3e"/>
  <path id="Path_240" data-name="Path 240" d="M327.574,1056.317c3.067.1,5.989,3.03,6.027,5.816,0,.261-.348.527-.535.79-.267-.253-.709-.47-.773-.767a5.353,5.353,0,0,0-3.7-4.322,4.434,4.434,0,0,1-.943-.247,3.6,3.6,0,0,1-.685-.762Z" transform="translate(-313.96 -1049.015)" fill="#010d3e"/>
</svg>
