<svg xmlns="http://www.w3.org/2000/svg" width="25.904" height="23.331" viewBox="0 0 25.904 23.331">
  <g id="faq" transform="translate(-38.314 -521.259)">
    <path id="Subtraction_13" data-name="Subtraction 13" d="M-7447.331,965.991a9.314,9.314,0,0,1-5.89-2.1,10.114,10.114,0,0,0,1.2.071,9.893,9.893,0,0,0,7.044-2.911,10.025,10.025,0,0,0,.894-13.127,9.255,9.255,0,0,1,3.365,2.161,9.3,9.3,0,0,1,1.759,10.7l.416,3.437a1.1,1.1,0,0,1-.271.864,1.1,1.1,0,0,1-.82.366,1.165,1.165,0,0,1-.13-.007l-3.439-.418A9.346,9.346,0,0,1-7447.331,965.991Z" transform="translate(7501.536 -421.9)" fill="rgba(0,0,0,0.54)" stroke="rgba(0,0,0,0)" stroke-miterlimit="10" stroke-width="1"/>
    <path id="Subtraction_14" data-name="Subtraction 14" d="M-7452.683,962.646a9.355,9.355,0,0,1-4.124-.96l-3.437.416a1.158,1.158,0,0,1-.13.007,1.1,1.1,0,0,1-.822-.367,1.092,1.092,0,0,1-.271-.862l.431-3.452a9.293,9.293,0,0,1,1.759-10.7,9.261,9.261,0,0,1,6.592-2.729,9.263,9.263,0,0,1,6.593,2.729,9.257,9.257,0,0,1,2.726,6.594,9.292,9.292,0,0,1-2.741,6.6A9.235,9.235,0,0,1-7452.683,962.646Zm-5.317-8.4a1,1,0,0,0-1,1,1,1,0,0,0,1,1h10a1,1,0,0,0,1-1,1,1,0,0,0-1-1Zm0-4a1,1,0,0,0-1,1,1,1,0,0,0,1,1h10a1,1,0,0,0,1-1,1,1,0,0,0-1-1Z" transform="translate(7501 -422.24)" fill="#010d3e" stroke="rgba(0,0,0,0)" stroke-miterlimit="10" stroke-width="1"/>
  </g>
</svg>
