<svg id="goal" xmlns="http://www.w3.org/2000/svg" width="25.976" height="25.995" viewBox="0 0 25.976 25.995">
  <path id="Path_229" data-name="Path 229" d="M635.543,846.322c-.2.221-.389.447-.6.644-.155.143-.144.247-.041.42a7.808,7.808,0,0,1,1.1,3.573,7.907,7.907,0,1,1-6.005-7.227,7.628,7.628,0,0,1,3.225,1.668l-1.991,1.995a5.084,5.084,0,1,0,.03,8,4.992,4.992,0,0,0,1.4-6.166,5.039,5.039,0,0,1-.5.523.621.621,0,0,0-.213.75,3.945,3.945,0,1,1-3.4-3.021,3.644,3.644,0,0,1,1.919.775c-.625.625-1.232,1.225-1.829,1.834a.571.571,0,0,1-.485.2,1.1,1.1,0,0,0-1.167,1.115,1.122,1.122,0,0,0,1.13,1.13,1.1,1.1,0,0,0,1.114-1.169.579.579,0,0,1,.2-.485c1.985-1.978,3.989-3.937,5.93-5.955a2.238,2.238,0,0,1,2.1-.877.594.594,0,0,0,.43-.172c.813-.793,1.611-1.6,2.412-2.4.06-.06.11-.131.21-.252h-2.245v-2.232l-2.163,2.172a13.1,13.1,0,1,0,2.911,3.25l-.8.808c.041.074.1.174.151.272a11.614,11.614,0,0,1,1.43,7.883,11.857,11.857,0,1,1-4.955-11.721,1.085,1.085,0,0,1,.609,1.182c-.032.169,0,.392-.091.5-.4.448-.843.861-1.268,1.286a9.2,9.2,0,1,0,1.45,1.7Z" transform="translate(-615.126 -838.417)" fill="#fff"/>
  <path id="Path_230" data-name="Path 230" d="M635.543,846.322a9.021,9.021,0,0,1-13.478,11.806,9.042,9.042,0,0,1,12.028-13.5c.425-.425.866-.838,1.268-1.286.1-.107.059-.331.091-.5a1.085,1.085,0,0,0-.609-1.182,11.858,11.858,0,1,0,4.955,11.721,11.614,11.614,0,0,0-1.43-7.883c-.056-.1-.11-.2-.151-.272l.8-.808a12.893,12.893,0,1,1-2.911-3.25l2.163-2.172v2.232h2.245c-.1.121-.15.192-.21.252-.8.8-1.6,1.611-2.412,2.4a.594.594,0,0,1-.43.172,2.238,2.238,0,0,0-2.1.877c-1.942,2.019-3.946,3.978-5.93,5.955a.579.579,0,0,0-.2.485,1.1,1.1,0,0,1-1.114,1.169,1.122,1.122,0,0,1-1.13-1.13,1.1,1.1,0,0,1,1.167-1.115.571.571,0,0,0,.485-.2c.6-.609,1.2-1.209,1.829-1.834a3.644,3.644,0,0,0-1.919-.775,3.952,3.952,0,1,0,3.4,3.021.621.621,0,0,1,.213-.75,5.039,5.039,0,0,0,.5-.523,4.992,4.992,0,0,1-1.4,6.166,5.083,5.083,0,1,1-.03-8l1.991-1.995a7.628,7.628,0,0,0-3.225-1.668A7.911,7.911,0,1,0,636,850.959a7.808,7.808,0,0,0-1.1-3.573c-.1-.173-.113-.276.041-.42C635.154,846.769,635.34,846.543,635.543,846.322Z" transform="translate(-615.126 -838.417)" fill="#010d3e"/>
</svg>
