<svg xmlns="http://www.w3.org/2000/svg" width="19.287" height="19.287" viewBox="0 0 19.287 19.287">
  <g id="lan" transform="translate(-4.713 -4.713)">
    <path id="icon" d="M2095.5,4879.143a9.644,9.644,0,1,0,9.644-9.644A9.643,9.643,0,0,0,2095.5,4879.143Zm2.051,0a7.488,7.488,0,0,1,.136-1.437h1.969c-.037.406-.053.817-.053,1.231s.016.824.053,1.231h-2.039A7.726,7.726,0,0,1,2097.551,4879.143Zm.85-3.488a7.59,7.59,0,0,1,2.577-2.86,14.222,14.222,0,0,0-1,2.86Zm5.655-4.026.062-.008v4.034H2102.1A12.289,12.289,0,0,1,2104.055,4871.629Zm2.114-.008.057.008a12.293,12.293,0,0,1,1.962,4.026h-2.019Zm3.135,1.174a7.593,7.593,0,0,1,2.581,2.86h-1.58A14.014,14.014,0,0,0,2109.3,4872.795Zm3.3,4.912a7.508,7.508,0,0,1,.136,1.437,7.765,7.765,0,0,1-.07,1.026h-2.031q.049-.61.049-1.231t-.049-1.231Zm-.513,4.515a7.622,7.622,0,0,1-3.082,3.459,14.377,14.377,0,0,0,1.3-3.459Zm-10.8,3.459a7.623,7.623,0,0,1-3.082-3.459h1.781A14.326,14.326,0,0,0,2101.281,4885.68Zm.435-7.974h2.4v2.462h-2.4a12.3,12.3,0,0,1,0-2.462Zm4.453,0h2.4a12.3,12.3,0,0,1,0,2.462h-2.4Zm-4.071,4.515h2.019v4.1A12.284,12.284,0,0,1,2102.1,4882.221Zm4.071,0h2.019a12.288,12.288,0,0,1-2.019,4.1Z" transform="translate(-2090.786 -4864.786)" fill="#010d3e"/>
  </g>
</svg>
