<svg xmlns="http://www.w3.org/2000/svg" width="23.373" height="27.935" viewBox="0 0 23.373 27.935">
  <path id="Subtraction_12" data-name="Subtraction 12" d="M-7443.74,970.935h-14.146a4.119,4.119,0,0,1-4.114-4.114v-18.71a4.117,4.117,0,0,1,4.114-4.111h9.575v.208c-.341,1.278-1.306,5.637.588,8.1a4.863,4.863,0,0,0,4.1,1.719,14.224,14.224,0,0,0,3.8-.611h.2v13.4A4.118,4.118,0,0,1-7443.74,970.935ZM-7451.206,955a1.792,1.792,0,0,0-1.833,1.742,1.669,1.669,0,0,0,.094.547,2.005,2.005,0,0,0-1.467,1.927v2.974a2,2,0,0,0,2,2H-7450a2,2,0,0,0,2-2v-2.974a2.01,2.01,0,0,0-1.465-1.927,1.658,1.658,0,0,0,.092-.547A1.791,1.791,0,0,0-7451.206,955Zm.058,7.126a.533.533,0,0,1-.532-.532v-1.577a.533.533,0,0,1,.532-.532.533.533,0,0,1,.532.532V961.6A.533.533,0,0,1-7451.148,962.128Z" transform="translate(7462.5 -943.5)" fill="#010d3e" stroke="rgba(0,0,0,0)" stroke-miterlimit="10" stroke-width="1"/>
</svg>
