<svg xmlns="http://www.w3.org/2000/svg" width="23.374" height="27.935" viewBox="0 0 23.374 27.935">
  <g id="term_se" transform="translate(0.502 0.417)">
    <path id="Subtraction_10" data-name="Subtraction 10" d="M-7482.742,638.443h-14.147A4.118,4.118,0,0,1-7501,634.33V615.62a4.117,4.117,0,0,1,4.113-4.111h9.577v.209c-.341,1.277-1.306,5.635.589,8.1a4.858,4.858,0,0,0,4.1,1.719,14.188,14.188,0,0,0,3.8-.61h.2v13.4A4.118,4.118,0,0,1-7482.742,638.443ZM-7498,629.935v3h15v-3Zm0-5v3h15v-3Z" transform="translate(7501 -611.426)" fill="#010d3e" stroke="rgba(0,0,0,0)" stroke-miterlimit="10" stroke-width="1"/>
  </g>
</svg>
