<svg xmlns="http://www.w3.org/2000/svg" width="25.211" height="30" viewBox="0 0 25.211 30">
  <path id="apple" d="M21.36,18.1a6.252,6.252,0,0,1,3.349-5.679,7.2,7.2,0,0,0-5.673-2.987c-2.378-.188-4.976,1.386-5.928,1.386-1,0-3.308-1.319-5.117-1.319-3.738.06-7.71,2.981-7.71,8.921a16.7,16.7,0,0,0,.964,5.438C2.1,26.321,5.2,32.35,8.426,32.249c1.688-.04,2.88-1.2,5.077-1.2,2.13,0,3.235,1.2,5.117,1.2,3.255-.047,6.055-5.526,6.872-7.99A6.64,6.64,0,0,1,21.36,18.1Zm-3.791-11A6.309,6.309,0,0,0,19.176,2.25a7.1,7.1,0,0,0-4.548,2.338A6.407,6.407,0,0,0,12.914,9.4a5.625,5.625,0,0,0,4.655-2.3Z" transform="translate(-0.281 -2.25)" fill="#fff"/>
</svg>
