<svg xmlns="http://www.w3.org/2000/svg" xmlns:xlink="http://www.w3.org/1999/xlink" width="24.561" height="24.561" viewBox="0 0 24.561 24.561">
  <defs>
    <clipPath id="clip-path">
      <path id="Path_200" data-name="Path 200" d="M283.916,616.877c0-1.268,2.236-1.389,2.289,0a10.194,10.194,0,0,0,10.034,10.034,10.034,10.034,0,1,0-7.922-16.194l2.641,2.639h-7.042v-7.041l2.8,2.8a12.28,12.28,0,1,1-2.8,7.763Zm8.216,1.541a.794.794,0,0,1-.786-.8c0-.022,0-.044,0-.066a.827.827,0,0,1,.783-.869h3.524v-6.264s0-.667.889-.667.884.667.884.667v6.733a1.269,1.269,0,0,1-1.269,1.269h-4.027Z" transform="translate(-283.916 -604.638)" fill="#010d3e"/>
    </clipPath>
  </defs>
  <g id="clock1" transform="translate(-3.441 -3.07)">
    <g id="Group_304" data-name="Group 304" transform="translate(-280.475 -601.568)">
      <path id="Path_199" data-name="Path 199" d="M283.916,616.877c0-1.268,2.236-1.389,2.289,0a10.194,10.194,0,0,0,10.034,10.034,10.034,10.034,0,1,0-7.922-16.194l2.641,2.639h-7.042v-7.041l2.8,2.8a12.28,12.28,0,1,1-2.8,7.763Zm8.216,1.541a.794.794,0,0,1-.786-.8c0-.022,0-.044,0-.066a.827.827,0,0,1,.783-.869h3.524v-6.264s0-.667.889-.667.884.667.884.667v6.733a1.269,1.269,0,0,1-1.269,1.269h-4.027Z" transform="translate(0)" fill="#010d3e"/>
      <g id="Group_303" data-name="Group 303" transform="translate(283.916 604.638)" clip-path="url(#clip-path)">
        <g id="icons_Time" data-name="icons Time" transform="translate(-3.08 -3.164)">
          <g id="color_primary" data-name="color primary">
            <rect id="color_primary_copy" data-name="color primary copy" width="30.806" height="30.806" fill="#010d3e"/>
          </g>
        </g>
      </g>
    </g>
  </g>
</svg>
