<svg xmlns="http://www.w3.org/2000/svg" width="30" height="30.722" viewBox="0 0 30 30.722">
  <path id="g_plus" d="M16.947,14.1H30v1.514A15.354,15.354,0,0,1,25.818,26.5a13.727,13.727,0,0,1-10.457,4.472A14.8,14.8,0,0,1,4.507,26.465,14.791,14.791,0,0,1,0,15.611,14.8,14.8,0,0,1,4.507,4.757,14.793,14.793,0,0,1,15.361.25,13.806,13.806,0,0,1,26.034,4.938L23.293,7.679A9.993,9.993,0,0,0,15.36,4.072a11.111,11.111,0,0,0-8.149,3.39,11.1,11.1,0,0,0-3.388,8.149,11.122,11.122,0,0,0,3.39,8.149,11.1,11.1,0,0,0,8.149,3.39,10.124,10.124,0,0,0,6.96-2.6,11.247,11.247,0,0,0,3.642-6.635H16.947Z" transform="translate(0 -0.25)" fill="#fff"/>
</svg>
