<svg xmlns="http://www.w3.org/2000/svg" xmlns:xlink="http://www.w3.org/1999/xlink" width="24.562" height="24.562" viewBox="0 0 24.562 24.562">
  <defs>
    <clipPath id="clip-path">
      <path id="Shape" d="M7.562,24.513,1.434,22.8A1.944,1.944,0,0,1,0,20.936V4.293a1.036,1.036,0,0,1,1.325-.978l6.1,1.707a2.034,2.034,0,0,0,1.024.016l.779-.191a8.525,8.525,0,0,0-.31,2.073l-.011,0v15.4l4.946-1.385V15.116l1.979,2.725v3.07l5.935,1.453V15.116l1.979-1.545v9.972a1.034,1.034,0,0,1-1.291.987L15.371,22.8a2.015,2.015,0,0,0-1.024.016l-6.081,1.7a1.313,1.313,0,0,1-.7,0ZM17.431,15.9a5.341,5.341,0,0,0-1.177-2.159c-.534-.494-4.792-2.557-4.792-6.993A6.65,6.65,0,0,1,18.012,0a6.65,6.65,0,0,1,6.55,6.745c0,4.437-4.258,6.5-4.792,6.993A5.317,5.317,0,0,0,18.593,15.9a.593.593,0,0,1-1.162,0Z" transform="translate(0 0)" fill="#010d3e"/>
    </clipPath>
  </defs>
  <g id="map" clip-path="url(#clip-path)">
    <g id="color_primary" data-name="color/primary" transform="translate(-3.07 -3.07)">
      <rect id="color_primary_copy" data-name="color/primary copy" width="30.702" height="30.702" fill="#010d3e"/>
    </g>
  </g>
</svg>
